G75*
%MOIN*%
%OFA0B0*%
%FSLAX25Y25*%
%IPPOS*%
%LPD*%
%AMOC8*
5,1,8,0,0,1.08239X$1,22.5*
%
%ADD10C,0.00100*%
%ADD11C,0.17000*%
%ADD12R,0.05500X0.05500*%
%ADD13C,0.05500*%
%ADD14C,0.00787*%
%ADD15C,0.08858*%
%ADD16R,0.05000X0.05000*%
%ADD17C,0.05000*%
%ADD18OC8,0.07000*%
%ADD19C,0.05906*%
%ADD20C,0.06600*%
%ADD21R,0.06300X0.04600*%
%ADD22C,0.01600*%
%ADD23C,0.02400*%
%ADD24C,0.11811*%
%ADD25C,0.07400*%
%ADD26R,0.05315X0.05315*%
%ADD27C,0.05315*%
%ADD28R,0.04550X0.05118*%
%ADD29C,0.06900*%
%ADD30C,0.05400*%
%ADD31C,0.01200*%
%ADD32C,0.02800*%
%ADD33C,0.01000*%
%ADD34C,0.04000*%
%ADD35C,0.05000*%
D10*
X0014100Y0010000D02*
X0201600Y0010000D01*
X0201740Y0010002D01*
X0201880Y0010008D01*
X0202020Y0010018D01*
X0202160Y0010031D01*
X0202299Y0010049D01*
X0202438Y0010071D01*
X0202575Y0010096D01*
X0202713Y0010125D01*
X0202849Y0010158D01*
X0202984Y0010195D01*
X0203118Y0010236D01*
X0203251Y0010281D01*
X0203383Y0010329D01*
X0203513Y0010381D01*
X0203642Y0010436D01*
X0203769Y0010495D01*
X0203895Y0010558D01*
X0204019Y0010624D01*
X0204140Y0010693D01*
X0204260Y0010766D01*
X0204378Y0010843D01*
X0204493Y0010922D01*
X0204607Y0011005D01*
X0204717Y0011091D01*
X0204826Y0011180D01*
X0204932Y0011272D01*
X0205035Y0011367D01*
X0205136Y0011464D01*
X0205233Y0011565D01*
X0205328Y0011668D01*
X0205420Y0011774D01*
X0205509Y0011883D01*
X0205595Y0011993D01*
X0205678Y0012107D01*
X0205757Y0012222D01*
X0205834Y0012340D01*
X0205907Y0012460D01*
X0205976Y0012581D01*
X0206042Y0012705D01*
X0206105Y0012831D01*
X0206164Y0012958D01*
X0206219Y0013087D01*
X0206271Y0013217D01*
X0206319Y0013349D01*
X0206364Y0013482D01*
X0206405Y0013616D01*
X0206442Y0013751D01*
X0206475Y0013887D01*
X0206504Y0014025D01*
X0206529Y0014162D01*
X0206551Y0014301D01*
X0206569Y0014440D01*
X0206582Y0014580D01*
X0206592Y0014720D01*
X0206598Y0014860D01*
X0206600Y0015000D01*
X0206600Y0195000D01*
X0206628Y0195212D01*
X0206650Y0195424D01*
X0206668Y0195637D01*
X0206680Y0195850D01*
X0206687Y0196064D01*
X0206689Y0196277D01*
X0206686Y0196491D01*
X0206677Y0196704D01*
X0206664Y0196918D01*
X0206645Y0197130D01*
X0206621Y0197343D01*
X0206592Y0197554D01*
X0206558Y0197765D01*
X0206519Y0197975D01*
X0206475Y0198184D01*
X0206426Y0198392D01*
X0206371Y0198598D01*
X0206312Y0198804D01*
X0206248Y0199007D01*
X0206179Y0199210D01*
X0206105Y0199410D01*
X0206026Y0199608D01*
X0205943Y0199805D01*
X0205854Y0200000D01*
X0205761Y0200192D01*
X0205664Y0200382D01*
X0205562Y0200570D01*
X0205455Y0200755D01*
X0205344Y0200937D01*
X0205229Y0201117D01*
X0205109Y0201294D01*
X0204985Y0201468D01*
X0204857Y0201638D01*
X0204724Y0201806D01*
X0204588Y0201971D01*
X0204448Y0202132D01*
X0204304Y0202290D01*
X0204156Y0202444D01*
X0204005Y0202594D01*
X0203849Y0202741D01*
X0203691Y0202884D01*
X0203529Y0203023D01*
X0203363Y0203159D01*
X0203195Y0203290D01*
X0203023Y0203417D01*
X0202849Y0203540D01*
X0202671Y0203659D01*
X0202491Y0203773D01*
X0202307Y0203883D01*
X0202122Y0203988D01*
X0201933Y0204089D01*
X0201743Y0204186D01*
X0201550Y0204277D01*
X0201355Y0204364D01*
X0201158Y0204447D01*
X0200959Y0204524D01*
X0200758Y0204597D01*
X0200555Y0204665D01*
X0200351Y0204728D01*
X0200146Y0204786D01*
X0199939Y0204839D01*
X0199731Y0204887D01*
X0199521Y0204930D01*
X0199311Y0204967D01*
X0199100Y0205000D01*
X0014100Y0205000D01*
X0013886Y0204967D01*
X0013672Y0204928D01*
X0013460Y0204884D01*
X0013248Y0204836D01*
X0013038Y0204781D01*
X0012830Y0204722D01*
X0012622Y0204658D01*
X0012417Y0204588D01*
X0012213Y0204514D01*
X0012011Y0204434D01*
X0011811Y0204350D01*
X0011614Y0204261D01*
X0011418Y0204166D01*
X0011225Y0204068D01*
X0011035Y0203964D01*
X0010847Y0203856D01*
X0010661Y0203743D01*
X0010479Y0203626D01*
X0010299Y0203504D01*
X0010123Y0203378D01*
X0009949Y0203247D01*
X0009779Y0203113D01*
X0009613Y0202974D01*
X0009449Y0202831D01*
X0009290Y0202684D01*
X0009134Y0202534D01*
X0008981Y0202379D01*
X0008833Y0202221D01*
X0008688Y0202059D01*
X0008548Y0201894D01*
X0008411Y0201725D01*
X0008279Y0201553D01*
X0008151Y0201378D01*
X0008027Y0201200D01*
X0007908Y0201019D01*
X0007793Y0200835D01*
X0007683Y0200648D01*
X0007577Y0200458D01*
X0007476Y0200266D01*
X0007380Y0200072D01*
X0007289Y0199875D01*
X0007202Y0199676D01*
X0007120Y0199475D01*
X0007044Y0199272D01*
X0006972Y0199068D01*
X0006905Y0198861D01*
X0006844Y0198653D01*
X0006788Y0198444D01*
X0006736Y0198233D01*
X0006690Y0198021D01*
X0006649Y0197808D01*
X0006614Y0197594D01*
X0006583Y0197379D01*
X0006558Y0197164D01*
X0006539Y0196948D01*
X0006524Y0196731D01*
X0006515Y0196514D01*
X0006511Y0196297D01*
X0006513Y0196080D01*
X0006519Y0195864D01*
X0006532Y0195647D01*
X0006549Y0195431D01*
X0006572Y0195215D01*
X0006600Y0195000D01*
X0006600Y0022500D01*
X0006542Y0022258D01*
X0006491Y0022014D01*
X0006445Y0021769D01*
X0006405Y0021523D01*
X0006371Y0021276D01*
X0006343Y0021029D01*
X0006322Y0020781D01*
X0006306Y0020532D01*
X0006296Y0020283D01*
X0006292Y0020034D01*
X0006294Y0019785D01*
X0006302Y0019536D01*
X0006317Y0019287D01*
X0006337Y0019039D01*
X0006363Y0018791D01*
X0006395Y0018544D01*
X0006433Y0018298D01*
X0006478Y0018053D01*
X0006528Y0017809D01*
X0006583Y0017566D01*
X0006645Y0017325D01*
X0006713Y0017085D01*
X0006786Y0016847D01*
X0006865Y0016611D01*
X0006950Y0016377D01*
X0007040Y0016145D01*
X0007136Y0015915D01*
X0007238Y0015687D01*
X0007345Y0015462D01*
X0007457Y0015240D01*
X0007575Y0015020D01*
X0007698Y0014804D01*
X0007826Y0014590D01*
X0007959Y0014380D01*
X0008097Y0014173D01*
X0008241Y0013969D01*
X0008389Y0013769D01*
X0008542Y0013572D01*
X0008699Y0013379D01*
X0008862Y0013190D01*
X0009029Y0013005D01*
X0009200Y0012824D01*
X0009375Y0012648D01*
X0009555Y0012475D01*
X0009739Y0012307D01*
X0009927Y0012144D01*
X0010119Y0011985D01*
X0010314Y0011830D01*
X0010513Y0011681D01*
X0010716Y0011536D01*
X0010923Y0011396D01*
X0011132Y0011262D01*
X0011345Y0011132D01*
X0011561Y0011008D01*
X0011779Y0010889D01*
X0012001Y0010775D01*
X0012225Y0010666D01*
X0012452Y0010563D01*
X0012681Y0010466D01*
X0012913Y0010374D01*
X0013146Y0010288D01*
X0013382Y0010207D01*
X0013620Y0010132D01*
X0013859Y0010063D01*
X0014100Y0010000D01*
X0012600Y0068000D02*
X0040600Y0068000D01*
X0040660Y0068002D01*
X0040721Y0068007D01*
X0040780Y0068016D01*
X0040839Y0068029D01*
X0040898Y0068045D01*
X0040955Y0068065D01*
X0041010Y0068088D01*
X0041065Y0068115D01*
X0041117Y0068144D01*
X0041168Y0068177D01*
X0041217Y0068213D01*
X0041263Y0068251D01*
X0041307Y0068293D01*
X0041349Y0068337D01*
X0041387Y0068383D01*
X0041423Y0068432D01*
X0041456Y0068483D01*
X0041485Y0068535D01*
X0041512Y0068590D01*
X0041535Y0068645D01*
X0041555Y0068702D01*
X0041571Y0068761D01*
X0041584Y0068820D01*
X0041593Y0068879D01*
X0041598Y0068940D01*
X0041600Y0069000D01*
X0041598Y0069060D01*
X0041593Y0069121D01*
X0041584Y0069180D01*
X0041571Y0069239D01*
X0041555Y0069298D01*
X0041535Y0069355D01*
X0041512Y0069410D01*
X0041485Y0069465D01*
X0041456Y0069517D01*
X0041423Y0069568D01*
X0041387Y0069617D01*
X0041349Y0069663D01*
X0041307Y0069707D01*
X0041263Y0069749D01*
X0041217Y0069787D01*
X0041168Y0069823D01*
X0041117Y0069856D01*
X0041065Y0069885D01*
X0041010Y0069912D01*
X0040955Y0069935D01*
X0040898Y0069955D01*
X0040839Y0069971D01*
X0040780Y0069984D01*
X0040721Y0069993D01*
X0040660Y0069998D01*
X0040600Y0070000D01*
X0012600Y0070000D01*
X0011600Y0069000D02*
X0011602Y0068940D01*
X0011607Y0068879D01*
X0011616Y0068820D01*
X0011629Y0068761D01*
X0011645Y0068702D01*
X0011665Y0068645D01*
X0011688Y0068590D01*
X0011715Y0068535D01*
X0011744Y0068483D01*
X0011777Y0068432D01*
X0011813Y0068383D01*
X0011851Y0068337D01*
X0011893Y0068293D01*
X0011937Y0068251D01*
X0011983Y0068213D01*
X0012032Y0068177D01*
X0012083Y0068144D01*
X0012135Y0068115D01*
X0012190Y0068088D01*
X0012245Y0068065D01*
X0012302Y0068045D01*
X0012361Y0068029D01*
X0012420Y0068016D01*
X0012479Y0068007D01*
X0012540Y0068002D01*
X0012600Y0068000D01*
X0011600Y0069000D02*
X0011602Y0069060D01*
X0011607Y0069121D01*
X0011616Y0069180D01*
X0011629Y0069239D01*
X0011645Y0069298D01*
X0011665Y0069355D01*
X0011688Y0069410D01*
X0011715Y0069465D01*
X0011744Y0069517D01*
X0011777Y0069568D01*
X0011813Y0069617D01*
X0011851Y0069663D01*
X0011893Y0069707D01*
X0011937Y0069749D01*
X0011983Y0069787D01*
X0012032Y0069823D01*
X0012083Y0069856D01*
X0012135Y0069885D01*
X0012190Y0069912D01*
X0012245Y0069935D01*
X0012302Y0069955D01*
X0012361Y0069971D01*
X0012420Y0069984D01*
X0012479Y0069993D01*
X0012540Y0069998D01*
X0012600Y0070000D01*
X0057600Y0070000D02*
X0088100Y0070000D01*
X0089100Y0069000D02*
X0089098Y0068940D01*
X0089093Y0068879D01*
X0089084Y0068820D01*
X0089071Y0068761D01*
X0089055Y0068702D01*
X0089035Y0068645D01*
X0089012Y0068590D01*
X0088985Y0068535D01*
X0088956Y0068483D01*
X0088923Y0068432D01*
X0088887Y0068383D01*
X0088849Y0068337D01*
X0088807Y0068293D01*
X0088763Y0068251D01*
X0088717Y0068213D01*
X0088668Y0068177D01*
X0088617Y0068144D01*
X0088565Y0068115D01*
X0088510Y0068088D01*
X0088455Y0068065D01*
X0088398Y0068045D01*
X0088339Y0068029D01*
X0088280Y0068016D01*
X0088221Y0068007D01*
X0088160Y0068002D01*
X0088100Y0068000D01*
X0057600Y0068000D01*
X0057540Y0068002D01*
X0057479Y0068007D01*
X0057420Y0068016D01*
X0057361Y0068029D01*
X0057302Y0068045D01*
X0057245Y0068065D01*
X0057190Y0068088D01*
X0057135Y0068115D01*
X0057083Y0068144D01*
X0057032Y0068177D01*
X0056983Y0068213D01*
X0056937Y0068251D01*
X0056893Y0068293D01*
X0056851Y0068337D01*
X0056813Y0068383D01*
X0056777Y0068432D01*
X0056744Y0068483D01*
X0056715Y0068535D01*
X0056688Y0068590D01*
X0056665Y0068645D01*
X0056645Y0068702D01*
X0056629Y0068761D01*
X0056616Y0068820D01*
X0056607Y0068879D01*
X0056602Y0068940D01*
X0056600Y0069000D01*
X0056602Y0069060D01*
X0056607Y0069121D01*
X0056616Y0069180D01*
X0056629Y0069239D01*
X0056645Y0069298D01*
X0056665Y0069355D01*
X0056688Y0069410D01*
X0056715Y0069465D01*
X0056744Y0069517D01*
X0056777Y0069568D01*
X0056813Y0069617D01*
X0056851Y0069663D01*
X0056893Y0069707D01*
X0056937Y0069749D01*
X0056983Y0069787D01*
X0057032Y0069823D01*
X0057083Y0069856D01*
X0057135Y0069885D01*
X0057190Y0069912D01*
X0057245Y0069935D01*
X0057302Y0069955D01*
X0057361Y0069971D01*
X0057420Y0069984D01*
X0057479Y0069993D01*
X0057540Y0069998D01*
X0057600Y0070000D01*
X0088100Y0070000D02*
X0088160Y0069998D01*
X0088221Y0069993D01*
X0088280Y0069984D01*
X0088339Y0069971D01*
X0088398Y0069955D01*
X0088455Y0069935D01*
X0088510Y0069912D01*
X0088565Y0069885D01*
X0088617Y0069856D01*
X0088668Y0069823D01*
X0088717Y0069787D01*
X0088763Y0069749D01*
X0088807Y0069707D01*
X0088849Y0069663D01*
X0088887Y0069617D01*
X0088923Y0069568D01*
X0088956Y0069517D01*
X0088985Y0069465D01*
X0089012Y0069410D01*
X0089035Y0069355D01*
X0089055Y0069298D01*
X0089071Y0069239D01*
X0089084Y0069180D01*
X0089093Y0069121D01*
X0089098Y0069060D01*
X0089100Y0069000D01*
X0099100Y0069000D02*
X0099102Y0068940D01*
X0099107Y0068879D01*
X0099116Y0068820D01*
X0099129Y0068761D01*
X0099145Y0068702D01*
X0099165Y0068645D01*
X0099188Y0068590D01*
X0099215Y0068535D01*
X0099244Y0068483D01*
X0099277Y0068432D01*
X0099313Y0068383D01*
X0099351Y0068337D01*
X0099393Y0068293D01*
X0099437Y0068251D01*
X0099483Y0068213D01*
X0099532Y0068177D01*
X0099583Y0068144D01*
X0099635Y0068115D01*
X0099690Y0068088D01*
X0099745Y0068065D01*
X0099802Y0068045D01*
X0099861Y0068029D01*
X0099920Y0068016D01*
X0099979Y0068007D01*
X0100040Y0068002D01*
X0100100Y0068000D01*
X0143100Y0068000D01*
X0143160Y0068002D01*
X0143221Y0068007D01*
X0143280Y0068016D01*
X0143339Y0068029D01*
X0143398Y0068045D01*
X0143455Y0068065D01*
X0143510Y0068088D01*
X0143565Y0068115D01*
X0143617Y0068144D01*
X0143668Y0068177D01*
X0143717Y0068213D01*
X0143763Y0068251D01*
X0143807Y0068293D01*
X0143849Y0068337D01*
X0143887Y0068383D01*
X0143923Y0068432D01*
X0143956Y0068483D01*
X0143985Y0068535D01*
X0144012Y0068590D01*
X0144035Y0068645D01*
X0144055Y0068702D01*
X0144071Y0068761D01*
X0144084Y0068820D01*
X0144093Y0068879D01*
X0144098Y0068940D01*
X0144100Y0069000D01*
X0144098Y0069060D01*
X0144093Y0069121D01*
X0144084Y0069180D01*
X0144071Y0069239D01*
X0144055Y0069298D01*
X0144035Y0069355D01*
X0144012Y0069410D01*
X0143985Y0069465D01*
X0143956Y0069517D01*
X0143923Y0069568D01*
X0143887Y0069617D01*
X0143849Y0069663D01*
X0143807Y0069707D01*
X0143763Y0069749D01*
X0143717Y0069787D01*
X0143668Y0069823D01*
X0143617Y0069856D01*
X0143565Y0069885D01*
X0143510Y0069912D01*
X0143455Y0069935D01*
X0143398Y0069955D01*
X0143339Y0069971D01*
X0143280Y0069984D01*
X0143221Y0069993D01*
X0143160Y0069998D01*
X0143100Y0070000D01*
X0100100Y0070000D01*
X0100040Y0069998D01*
X0099979Y0069993D01*
X0099920Y0069984D01*
X0099861Y0069971D01*
X0099802Y0069955D01*
X0099745Y0069935D01*
X0099690Y0069912D01*
X0099635Y0069885D01*
X0099583Y0069856D01*
X0099532Y0069823D01*
X0099483Y0069787D01*
X0099437Y0069749D01*
X0099393Y0069707D01*
X0099351Y0069663D01*
X0099313Y0069617D01*
X0099277Y0069568D01*
X0099244Y0069517D01*
X0099215Y0069465D01*
X0099188Y0069410D01*
X0099165Y0069355D01*
X0099145Y0069298D01*
X0099129Y0069239D01*
X0099116Y0069180D01*
X0099107Y0069121D01*
X0099102Y0069060D01*
X0099100Y0069000D01*
X0164100Y0069000D02*
X0164102Y0068940D01*
X0164107Y0068879D01*
X0164116Y0068820D01*
X0164129Y0068761D01*
X0164145Y0068702D01*
X0164165Y0068645D01*
X0164188Y0068590D01*
X0164215Y0068535D01*
X0164244Y0068483D01*
X0164277Y0068432D01*
X0164313Y0068383D01*
X0164351Y0068337D01*
X0164393Y0068293D01*
X0164437Y0068251D01*
X0164483Y0068213D01*
X0164532Y0068177D01*
X0164583Y0068144D01*
X0164635Y0068115D01*
X0164690Y0068088D01*
X0164745Y0068065D01*
X0164802Y0068045D01*
X0164861Y0068029D01*
X0164920Y0068016D01*
X0164979Y0068007D01*
X0165040Y0068002D01*
X0165100Y0068000D01*
X0188100Y0068000D01*
X0188160Y0068002D01*
X0188221Y0068007D01*
X0188280Y0068016D01*
X0188339Y0068029D01*
X0188398Y0068045D01*
X0188455Y0068065D01*
X0188510Y0068088D01*
X0188565Y0068115D01*
X0188617Y0068144D01*
X0188668Y0068177D01*
X0188717Y0068213D01*
X0188763Y0068251D01*
X0188807Y0068293D01*
X0188849Y0068337D01*
X0188887Y0068383D01*
X0188923Y0068432D01*
X0188956Y0068483D01*
X0188985Y0068535D01*
X0189012Y0068590D01*
X0189035Y0068645D01*
X0189055Y0068702D01*
X0189071Y0068761D01*
X0189084Y0068820D01*
X0189093Y0068879D01*
X0189098Y0068940D01*
X0189100Y0069000D01*
X0189098Y0069060D01*
X0189093Y0069121D01*
X0189084Y0069180D01*
X0189071Y0069239D01*
X0189055Y0069298D01*
X0189035Y0069355D01*
X0189012Y0069410D01*
X0188985Y0069465D01*
X0188956Y0069517D01*
X0188923Y0069568D01*
X0188887Y0069617D01*
X0188849Y0069663D01*
X0188807Y0069707D01*
X0188763Y0069749D01*
X0188717Y0069787D01*
X0188668Y0069823D01*
X0188617Y0069856D01*
X0188565Y0069885D01*
X0188510Y0069912D01*
X0188455Y0069935D01*
X0188398Y0069955D01*
X0188339Y0069971D01*
X0188280Y0069984D01*
X0188221Y0069993D01*
X0188160Y0069998D01*
X0188100Y0070000D01*
X0165100Y0070000D01*
X0165040Y0069998D01*
X0164979Y0069993D01*
X0164920Y0069984D01*
X0164861Y0069971D01*
X0164802Y0069955D01*
X0164745Y0069935D01*
X0164690Y0069912D01*
X0164635Y0069885D01*
X0164583Y0069856D01*
X0164532Y0069823D01*
X0164483Y0069787D01*
X0164437Y0069749D01*
X0164393Y0069707D01*
X0164351Y0069663D01*
X0164313Y0069617D01*
X0164277Y0069568D01*
X0164244Y0069517D01*
X0164215Y0069465D01*
X0164188Y0069410D01*
X0164165Y0069355D01*
X0164145Y0069298D01*
X0164129Y0069239D01*
X0164116Y0069180D01*
X0164107Y0069121D01*
X0164102Y0069060D01*
X0164100Y0069000D01*
D11*
X0043604Y0047126D03*
X0025100Y0058937D03*
X0025100Y0035315D03*
D12*
X0171600Y0083500D03*
X0171600Y0096500D03*
X0030100Y0198000D03*
D13*
X0017100Y0198000D03*
D14*
X0014345Y0162166D02*
X0011981Y0162166D01*
X0014345Y0162166D02*
X0014345Y0157834D01*
X0011981Y0157834D01*
X0011981Y0162166D01*
X0011981Y0158620D02*
X0014345Y0158620D01*
X0014345Y0159406D02*
X0011981Y0159406D01*
X0011981Y0160192D02*
X0014345Y0160192D01*
X0014345Y0160978D02*
X0011981Y0160978D01*
X0011981Y0161764D02*
X0014345Y0161764D01*
X0019855Y0162166D02*
X0022219Y0162166D01*
X0022219Y0157834D01*
X0019855Y0157834D01*
X0019855Y0162166D01*
X0019855Y0158620D02*
X0022219Y0158620D01*
X0022219Y0159406D02*
X0019855Y0159406D01*
X0019855Y0160192D02*
X0022219Y0160192D01*
X0022219Y0160978D02*
X0019855Y0160978D01*
X0019855Y0161764D02*
X0022219Y0161764D01*
X0022219Y0152166D02*
X0019855Y0152166D01*
X0022219Y0152166D02*
X0022219Y0147834D01*
X0019855Y0147834D01*
X0019855Y0152166D01*
X0019855Y0148620D02*
X0022219Y0148620D01*
X0022219Y0149406D02*
X0019855Y0149406D01*
X0019855Y0150192D02*
X0022219Y0150192D01*
X0022219Y0150978D02*
X0019855Y0150978D01*
X0019855Y0151764D02*
X0022219Y0151764D01*
X0014345Y0152166D02*
X0011981Y0152166D01*
X0014345Y0152166D02*
X0014345Y0147834D01*
X0011981Y0147834D01*
X0011981Y0152166D01*
X0011981Y0148620D02*
X0014345Y0148620D01*
X0014345Y0149406D02*
X0011981Y0149406D01*
X0011981Y0150192D02*
X0014345Y0150192D01*
X0014345Y0150978D02*
X0011981Y0150978D01*
X0011981Y0151764D02*
X0014345Y0151764D01*
X0070434Y0186381D02*
X0070434Y0188745D01*
X0074766Y0188745D01*
X0074766Y0186381D01*
X0070434Y0186381D01*
X0070434Y0187167D02*
X0074766Y0187167D01*
X0074766Y0187953D02*
X0070434Y0187953D01*
X0070434Y0188739D02*
X0074766Y0188739D01*
X0070434Y0194255D02*
X0070434Y0196619D01*
X0074766Y0196619D01*
X0074766Y0194255D01*
X0070434Y0194255D01*
X0070434Y0195041D02*
X0074766Y0195041D01*
X0074766Y0195827D02*
X0070434Y0195827D01*
X0070434Y0196613D02*
X0074766Y0196613D01*
D15*
X0189671Y0143386D02*
X0198529Y0143386D01*
X0198529Y0127795D02*
X0189671Y0127795D01*
X0189671Y0112205D02*
X0198529Y0112205D01*
X0198529Y0096614D02*
X0189671Y0096614D01*
D16*
X0031600Y0102311D03*
D17*
X0031600Y0094437D03*
X0031600Y0086563D03*
X0031600Y0078689D03*
D18*
X0051600Y0107500D03*
X0061600Y0107500D03*
X0061600Y0117500D03*
X0061600Y0127500D03*
X0051600Y0127500D03*
X0051600Y0117500D03*
X0051600Y0137500D03*
X0051600Y0147500D03*
X0061600Y0147500D03*
X0061600Y0137500D03*
X0061600Y0157500D03*
X0061600Y0167500D03*
X0051600Y0167500D03*
X0051600Y0157500D03*
X0051600Y0177500D03*
X0051600Y0187500D03*
X0061600Y0187500D03*
X0061600Y0177500D03*
X0061600Y0197500D03*
X0051600Y0197500D03*
X0151600Y0197500D03*
X0161600Y0197500D03*
X0161600Y0187500D03*
X0161600Y0177500D03*
X0151600Y0177500D03*
X0151600Y0187500D03*
X0151600Y0167500D03*
X0151600Y0157500D03*
X0161600Y0157500D03*
X0161600Y0167500D03*
X0161600Y0147500D03*
X0161600Y0137500D03*
X0151600Y0137500D03*
X0151600Y0147500D03*
X0151600Y0127500D03*
X0151600Y0117500D03*
X0161600Y0117500D03*
X0161600Y0127500D03*
X0161600Y0107500D03*
X0151600Y0107500D03*
D19*
X0101600Y0152500D03*
D20*
X0101600Y0142500D03*
X0101600Y0132500D03*
X0101600Y0122500D03*
X0101600Y0112500D03*
X0101600Y0102500D03*
X0101600Y0092500D03*
X0101600Y0082500D03*
X0111600Y0082500D03*
X0111600Y0092500D03*
X0111600Y0102500D03*
X0111600Y0112500D03*
X0111600Y0122500D03*
X0111600Y0132500D03*
X0111600Y0142500D03*
X0111600Y0152500D03*
D21*
X0129600Y0128500D03*
X0129600Y0122500D03*
X0129600Y0116500D03*
X0069100Y0091000D03*
X0069100Y0085000D03*
X0069100Y0079000D03*
D22*
X0077600Y0079000D01*
X0081600Y0075000D01*
X0153100Y0075000D01*
X0161600Y0083500D01*
X0129600Y0122500D02*
X0129600Y0127500D01*
X0072663Y0115500D02*
X0069600Y0115500D01*
X0069100Y0115000D01*
X0069100Y0107500D01*
X0069600Y0107000D01*
X0072663Y0107000D01*
X0069100Y0107500D02*
X0069100Y0091000D01*
X0050600Y0091000D01*
X0044100Y0097500D01*
X0044100Y0120000D01*
X0040100Y0124000D01*
X0036537Y0124000D01*
X0061600Y0127500D02*
X0066600Y0127500D01*
X0069100Y0125000D01*
X0069100Y0115000D01*
X0069100Y0090000D02*
X0069100Y0085000D01*
X0039100Y0085000D01*
X0037537Y0086563D01*
X0031600Y0086563D01*
X0027537Y0086563D01*
X0016600Y0097500D01*
X0016600Y0150000D01*
X0016600Y0160000D01*
X0016600Y0172500D01*
X0024100Y0180000D01*
X0029600Y0180000D01*
X0029625Y0180025D01*
D23*
X0094100Y0043000D03*
D24*
X0152620Y0039500D03*
X0185100Y0039500D03*
D25*
X0189100Y0079500D03*
X0199100Y0079500D03*
X0196600Y0180000D03*
X0196600Y0190000D03*
X0186600Y0190000D03*
X0186600Y0180000D03*
D26*
X0036537Y0124000D03*
D27*
X0028663Y0124000D03*
D28*
X0072663Y0115500D03*
X0072663Y0107000D03*
X0081537Y0107000D03*
X0081537Y0115500D03*
D29*
X0029575Y0150000D03*
X0029625Y0160000D03*
X0029575Y0170000D03*
X0029625Y0180025D03*
D30*
X0029600Y0140000D03*
D31*
X0025779Y0141490D02*
X0018800Y0141490D01*
X0018800Y0140292D02*
X0025500Y0140292D01*
X0025500Y0140816D02*
X0025500Y0139184D01*
X0026124Y0137678D01*
X0027278Y0136524D01*
X0028784Y0135900D01*
X0030416Y0135900D01*
X0031922Y0136524D01*
X0033076Y0137678D01*
X0033251Y0138100D01*
X0039887Y0138100D01*
X0046979Y0145192D01*
X0049570Y0142600D01*
X0053630Y0142600D01*
X0056500Y0145470D01*
X0056500Y0149530D01*
X0053630Y0152400D01*
X0049570Y0152400D01*
X0046700Y0149530D01*
X0046700Y0149400D01*
X0045813Y0149400D01*
X0044700Y0148287D01*
X0038313Y0141900D01*
X0033251Y0141900D01*
X0033076Y0142322D01*
X0031922Y0143476D01*
X0030416Y0144100D01*
X0028784Y0144100D01*
X0027278Y0143476D01*
X0026124Y0142322D01*
X0025500Y0140816D01*
X0025538Y0139093D02*
X0018800Y0139093D01*
X0018800Y0137895D02*
X0026034Y0137895D01*
X0027106Y0136696D02*
X0018800Y0136696D01*
X0018800Y0135498D02*
X0046700Y0135498D01*
X0046700Y0135470D02*
X0049570Y0132600D01*
X0053630Y0132600D01*
X0056500Y0135470D01*
X0056500Y0139530D01*
X0053630Y0142400D01*
X0049570Y0142400D01*
X0046700Y0139530D01*
X0046700Y0135470D01*
X0046700Y0136696D02*
X0032094Y0136696D01*
X0033166Y0137895D02*
X0046700Y0137895D01*
X0046700Y0139093D02*
X0040880Y0139093D01*
X0042079Y0140292D02*
X0047462Y0140292D01*
X0048660Y0141490D02*
X0043277Y0141490D01*
X0044476Y0142689D02*
X0049482Y0142689D01*
X0048283Y0143887D02*
X0045674Y0143887D01*
X0046873Y0145086D02*
X0047085Y0145086D01*
X0043896Y0147483D02*
X0033782Y0147483D01*
X0033687Y0147253D02*
X0034425Y0149035D01*
X0034425Y0150965D01*
X0033687Y0152747D01*
X0032322Y0154112D01*
X0030540Y0154850D01*
X0028610Y0154850D01*
X0026828Y0154112D01*
X0025463Y0152747D01*
X0025112Y0151900D01*
X0024012Y0151900D01*
X0024012Y0152908D01*
X0022961Y0153959D01*
X0019113Y0153959D01*
X0018800Y0153646D01*
X0018800Y0156354D01*
X0019113Y0156041D01*
X0022961Y0156041D01*
X0024012Y0157092D01*
X0024012Y0158100D01*
X0025162Y0158100D01*
X0025513Y0157253D01*
X0026878Y0155888D01*
X0028660Y0155150D01*
X0030590Y0155150D01*
X0032372Y0155888D01*
X0033737Y0157253D01*
X0034088Y0158100D01*
X0034887Y0158100D01*
X0047387Y0170600D01*
X0047770Y0170600D01*
X0046700Y0169530D01*
X0046700Y0165470D01*
X0049570Y0162600D01*
X0053630Y0162600D01*
X0056500Y0165470D01*
X0056500Y0169530D01*
X0055430Y0170600D01*
X0057770Y0170600D01*
X0056700Y0169530D01*
X0056700Y0165470D01*
X0057770Y0164400D01*
X0055813Y0164400D01*
X0054700Y0163287D01*
X0053721Y0162308D01*
X0053630Y0162400D01*
X0049570Y0162400D01*
X0046700Y0159530D01*
X0046700Y0155470D01*
X0049570Y0152600D01*
X0053630Y0152600D01*
X0056500Y0155470D01*
X0056500Y0159530D01*
X0056408Y0159621D01*
X0057387Y0160600D01*
X0057770Y0160600D01*
X0056700Y0159530D01*
X0056700Y0155470D01*
X0059570Y0152600D01*
X0063630Y0152600D01*
X0066221Y0155192D01*
X0095813Y0125600D01*
X0098053Y0125600D01*
X0097616Y0125162D01*
X0096900Y0123435D01*
X0096900Y0121565D01*
X0097616Y0119838D01*
X0098938Y0118516D01*
X0100665Y0117800D01*
X0102535Y0117800D01*
X0104262Y0118516D01*
X0104700Y0118953D01*
X0104700Y0116713D01*
X0105813Y0115600D01*
X0107216Y0114197D01*
X0106900Y0113435D01*
X0106900Y0111565D01*
X0107616Y0109838D01*
X0108938Y0108516D01*
X0110665Y0107800D01*
X0112535Y0107800D01*
X0114262Y0108516D01*
X0115584Y0109838D01*
X0116300Y0111565D01*
X0116300Y0113435D01*
X0115584Y0115162D01*
X0114262Y0116484D01*
X0112535Y0117200D01*
X0110665Y0117200D01*
X0109903Y0116884D01*
X0108500Y0118287D01*
X0108500Y0118953D01*
X0108938Y0118516D01*
X0110665Y0117800D01*
X0112535Y0117800D01*
X0114262Y0118516D01*
X0115584Y0119838D01*
X0115900Y0120600D01*
X0125050Y0120600D01*
X0125050Y0119620D01*
X0125170Y0119500D01*
X0125050Y0119380D01*
X0125050Y0113620D01*
X0125870Y0112800D01*
X0127700Y0112800D01*
X0127700Y0088787D01*
X0123313Y0084400D01*
X0115900Y0084400D01*
X0115584Y0085162D01*
X0114262Y0086484D01*
X0112535Y0087200D01*
X0110665Y0087200D01*
X0108938Y0086484D01*
X0107616Y0085162D01*
X0106900Y0083435D01*
X0106900Y0081565D01*
X0107616Y0079838D01*
X0108938Y0078516D01*
X0110665Y0077800D01*
X0112535Y0077800D01*
X0114262Y0078516D01*
X0115584Y0079838D01*
X0115900Y0080600D01*
X0124887Y0080600D01*
X0131500Y0087213D01*
X0131500Y0112800D01*
X0133330Y0112800D01*
X0134150Y0113620D01*
X0134150Y0119380D01*
X0134030Y0119500D01*
X0134150Y0119620D01*
X0134150Y0125380D01*
X0134030Y0125500D01*
X0134150Y0125620D01*
X0134150Y0131380D01*
X0133330Y0132200D01*
X0126000Y0132200D01*
X0126000Y0160787D01*
X0124887Y0161900D01*
X0122387Y0164400D01*
X0082387Y0164400D01*
X0077387Y0169400D01*
X0066500Y0169400D01*
X0066500Y0169530D01*
X0065430Y0170600D01*
X0124887Y0170600D01*
X0129887Y0175600D01*
X0146700Y0175600D01*
X0146700Y0175470D01*
X0149570Y0172600D01*
X0153630Y0172600D01*
X0154700Y0173670D01*
X0154700Y0173287D01*
X0153721Y0172308D01*
X0153630Y0172400D01*
X0149570Y0172400D01*
X0146700Y0169530D01*
X0146700Y0165470D01*
X0149570Y0162600D01*
X0153630Y0162600D01*
X0156500Y0165470D01*
X0156500Y0169530D01*
X0156408Y0169621D01*
X0157387Y0170600D01*
X0158500Y0171713D01*
X0158500Y0173670D01*
X0159570Y0172600D01*
X0163630Y0172600D01*
X0166500Y0175470D01*
X0166500Y0179530D01*
X0163630Y0182400D01*
X0159570Y0182400D01*
X0158500Y0181330D01*
X0158500Y0181787D01*
X0157000Y0183287D01*
X0155887Y0184400D01*
X0155430Y0184400D01*
X0156500Y0185470D01*
X0156500Y0189530D01*
X0153630Y0192400D01*
X0149570Y0192400D01*
X0146700Y0189530D01*
X0146700Y0185470D01*
X0147770Y0184400D01*
X0065430Y0184400D01*
X0066500Y0185470D01*
X0066500Y0185663D01*
X0068641Y0185663D01*
X0068641Y0185639D01*
X0069692Y0184588D01*
X0075508Y0184588D01*
X0076559Y0185639D01*
X0076559Y0189487D01*
X0075508Y0190538D01*
X0069692Y0190538D01*
X0068641Y0189487D01*
X0068641Y0189463D01*
X0066500Y0189463D01*
X0066500Y0189530D01*
X0063630Y0192400D01*
X0059570Y0192400D01*
X0056700Y0189530D01*
X0056700Y0185470D01*
X0057770Y0184400D01*
X0055430Y0184400D01*
X0056500Y0185470D01*
X0056500Y0189530D01*
X0054378Y0191651D01*
X0057449Y0194722D01*
X0059570Y0192600D01*
X0063630Y0192600D01*
X0066500Y0195470D01*
X0066500Y0199530D01*
X0063630Y0202400D01*
X0059570Y0202400D01*
X0057449Y0200278D01*
X0055227Y0202500D01*
X0157973Y0202500D01*
X0155751Y0200278D01*
X0153630Y0202400D01*
X0149570Y0202400D01*
X0146700Y0199530D01*
X0146700Y0195470D01*
X0149570Y0192600D01*
X0153630Y0192600D01*
X0155751Y0194722D01*
X0158822Y0191651D01*
X0156700Y0189530D01*
X0156700Y0185470D01*
X0159570Y0182600D01*
X0163630Y0182600D01*
X0166500Y0185470D01*
X0166500Y0189530D01*
X0164378Y0191651D01*
X0167700Y0194973D01*
X0167700Y0197100D01*
X0162000Y0197100D01*
X0162000Y0197900D01*
X0167700Y0197900D01*
X0167700Y0200027D01*
X0165227Y0202500D01*
X0200110Y0202500D01*
X0201699Y0201720D01*
X0203201Y0200263D01*
X0204179Y0198413D01*
X0204538Y0196352D01*
X0204513Y0195953D01*
X0204450Y0195891D01*
X0204450Y0195153D01*
X0204346Y0194422D01*
X0204450Y0194283D01*
X0204450Y0147189D01*
X0204386Y0147299D01*
X0203825Y0148030D01*
X0203174Y0148682D01*
X0202443Y0149243D01*
X0201645Y0149704D01*
X0200793Y0150056D01*
X0199903Y0150295D01*
X0198990Y0150415D01*
X0194700Y0150415D01*
X0194700Y0143986D01*
X0193500Y0143986D01*
X0193500Y0150415D01*
X0189210Y0150415D01*
X0188297Y0150295D01*
X0187407Y0150056D01*
X0186555Y0149704D01*
X0185757Y0149243D01*
X0185026Y0148682D01*
X0184375Y0148030D01*
X0183814Y0147299D01*
X0183353Y0146501D01*
X0183000Y0145650D01*
X0182762Y0144760D01*
X0182660Y0143986D01*
X0193500Y0143986D01*
X0193500Y0142786D01*
X0182660Y0142786D01*
X0182762Y0142012D01*
X0183000Y0141122D01*
X0183353Y0140270D01*
X0183814Y0139472D01*
X0184375Y0138741D01*
X0185026Y0138090D01*
X0185757Y0137529D01*
X0186555Y0137068D01*
X0187407Y0136715D01*
X0188297Y0136477D01*
X0189210Y0136357D01*
X0193500Y0136357D01*
X0193500Y0142786D01*
X0194700Y0142786D01*
X0194700Y0136357D01*
X0198990Y0136357D01*
X0199903Y0136477D01*
X0200793Y0136715D01*
X0201645Y0137068D01*
X0202443Y0137529D01*
X0203174Y0138090D01*
X0203825Y0138741D01*
X0204386Y0139472D01*
X0204450Y0139583D01*
X0204450Y0131598D01*
X0204386Y0131709D01*
X0203825Y0132440D01*
X0203174Y0133091D01*
X0202443Y0133652D01*
X0201645Y0134113D01*
X0200793Y0134466D01*
X0199903Y0134704D01*
X0198990Y0134824D01*
X0194700Y0134824D01*
X0194700Y0128395D01*
X0193500Y0128395D01*
X0193500Y0127195D01*
X0194700Y0127195D01*
X0194700Y0120766D01*
X0198990Y0120766D01*
X0199903Y0120886D01*
X0200793Y0121125D01*
X0201645Y0121478D01*
X0202443Y0121938D01*
X0203174Y0122499D01*
X0203825Y0123151D01*
X0204386Y0123882D01*
X0204450Y0123992D01*
X0204450Y0070000D01*
X0203000Y0070000D01*
X0203000Y0076188D01*
X0203424Y0076611D01*
X0204200Y0078486D01*
X0204200Y0080514D01*
X0203424Y0082389D01*
X0203000Y0082812D01*
X0203000Y0092841D01*
X0203471Y0093312D01*
X0204358Y0095455D01*
X0204358Y0097774D01*
X0203471Y0099916D01*
X0201831Y0101556D01*
X0199689Y0102443D01*
X0198000Y0102443D01*
X0198000Y0106376D01*
X0199689Y0106376D01*
X0201831Y0107263D01*
X0203471Y0108903D01*
X0204358Y0111045D01*
X0204358Y0113364D01*
X0203471Y0115507D01*
X0201831Y0117146D01*
X0199689Y0118034D01*
X0188511Y0118034D01*
X0186369Y0117146D01*
X0184729Y0115507D01*
X0183842Y0113364D01*
X0183842Y0111045D01*
X0184729Y0108903D01*
X0186369Y0107263D01*
X0188511Y0106376D01*
X0190200Y0106376D01*
X0190200Y0102443D01*
X0188511Y0102443D01*
X0186369Y0101556D01*
X0185327Y0100514D01*
X0175066Y0100514D01*
X0174930Y0100650D01*
X0168270Y0100650D01*
X0167450Y0099830D01*
X0167450Y0093170D01*
X0168270Y0092350D01*
X0174930Y0092350D01*
X0175294Y0092714D01*
X0185327Y0092714D01*
X0186369Y0091672D01*
X0188511Y0090785D01*
X0195200Y0090785D01*
X0195200Y0082812D01*
X0194776Y0082389D01*
X0194100Y0080756D01*
X0193424Y0082389D01*
X0191989Y0083824D01*
X0190114Y0084600D01*
X0188086Y0084600D01*
X0186211Y0083824D01*
X0185287Y0082900D01*
X0181008Y0082900D01*
X0177526Y0086382D01*
X0176276Y0086900D01*
X0175680Y0086900D01*
X0174930Y0087650D01*
X0168270Y0087650D01*
X0167520Y0086900D01*
X0159508Y0086900D01*
X0145000Y0101408D01*
X0145000Y0121092D01*
X0148008Y0124100D01*
X0148070Y0124100D01*
X0149570Y0122600D01*
X0153630Y0122600D01*
X0156500Y0125470D01*
X0156500Y0129530D01*
X0154378Y0131651D01*
X0157449Y0134722D01*
X0159570Y0132600D01*
X0163630Y0132600D01*
X0166500Y0135470D01*
X0166500Y0135600D01*
X0174887Y0135600D01*
X0177387Y0138100D01*
X0178500Y0139213D01*
X0178500Y0169213D01*
X0184597Y0175310D01*
X0185586Y0174900D01*
X0187614Y0174900D01*
X0189489Y0175676D01*
X0190924Y0177111D01*
X0190958Y0177195D01*
X0191212Y0176698D01*
X0191795Y0175896D01*
X0192496Y0175195D01*
X0193298Y0174612D01*
X0194182Y0174162D01*
X0195125Y0173855D01*
X0196104Y0173700D01*
X0196200Y0173700D01*
X0196200Y0179600D01*
X0197000Y0179600D01*
X0197000Y0180400D01*
X0202900Y0180400D01*
X0202900Y0180496D01*
X0202745Y0181475D01*
X0202438Y0182418D01*
X0201988Y0183302D01*
X0201405Y0184104D01*
X0200704Y0184805D01*
X0200436Y0185000D01*
X0200704Y0185195D01*
X0201405Y0185896D01*
X0201988Y0186698D01*
X0202438Y0187582D01*
X0202745Y0188525D01*
X0202900Y0189504D01*
X0202900Y0189600D01*
X0197000Y0189600D01*
X0197000Y0190400D01*
X0196200Y0190400D01*
X0196200Y0196300D01*
X0196104Y0196300D01*
X0195125Y0196145D01*
X0194182Y0195838D01*
X0193298Y0195388D01*
X0192496Y0194805D01*
X0191795Y0194104D01*
X0191212Y0193302D01*
X0190958Y0192805D01*
X0190924Y0192889D01*
X0189489Y0194324D01*
X0187614Y0195100D01*
X0185586Y0195100D01*
X0183711Y0194324D01*
X0182276Y0192889D01*
X0181500Y0191014D01*
X0181500Y0188986D01*
X0182276Y0187111D01*
X0183711Y0185676D01*
X0185344Y0185000D01*
X0183711Y0184324D01*
X0182276Y0182889D01*
X0181500Y0181014D01*
X0181500Y0178986D01*
X0181910Y0177997D01*
X0174700Y0170787D01*
X0174700Y0140787D01*
X0173313Y0139400D01*
X0166500Y0139400D01*
X0166500Y0139530D01*
X0163630Y0142400D01*
X0159570Y0142400D01*
X0157449Y0140278D01*
X0154378Y0143349D01*
X0156500Y0145470D01*
X0156500Y0149530D01*
X0153630Y0152400D01*
X0149570Y0152400D01*
X0146700Y0149530D01*
X0146700Y0145470D01*
X0148822Y0143349D01*
X0145500Y0140027D01*
X0145500Y0137900D01*
X0151200Y0137900D01*
X0151200Y0137100D01*
X0145500Y0137100D01*
X0145500Y0134973D01*
X0148822Y0131651D01*
X0148070Y0130900D01*
X0145924Y0130900D01*
X0144674Y0130382D01*
X0139674Y0125382D01*
X0138718Y0124426D01*
X0138200Y0123176D01*
X0138200Y0099324D01*
X0138718Y0098074D01*
X0139674Y0097118D01*
X0155890Y0080901D01*
X0152189Y0077200D01*
X0082511Y0077200D01*
X0078511Y0081200D01*
X0073650Y0081200D01*
X0073650Y0081880D01*
X0073530Y0082000D01*
X0073650Y0082120D01*
X0073650Y0087880D01*
X0073530Y0088000D01*
X0073650Y0088120D01*
X0073650Y0093880D01*
X0072830Y0094700D01*
X0071300Y0094700D01*
X0071300Y0103041D01*
X0075518Y0103041D01*
X0076338Y0103861D01*
X0076338Y0110139D01*
X0075518Y0110959D01*
X0071300Y0110959D01*
X0071300Y0111541D01*
X0075518Y0111541D01*
X0076338Y0112361D01*
X0076338Y0118639D01*
X0075518Y0119459D01*
X0071300Y0119459D01*
X0071300Y0125911D01*
X0070011Y0127200D01*
X0067511Y0129700D01*
X0066330Y0129700D01*
X0063630Y0132400D01*
X0059570Y0132400D01*
X0056700Y0129530D01*
X0056700Y0125470D01*
X0059570Y0122600D01*
X0063630Y0122600D01*
X0066009Y0124980D01*
X0066900Y0124089D01*
X0066900Y0094700D01*
X0065370Y0094700D01*
X0064550Y0093880D01*
X0064550Y0093200D01*
X0051511Y0093200D01*
X0046300Y0098411D01*
X0046300Y0120911D01*
X0041011Y0126200D01*
X0040594Y0126200D01*
X0040594Y0127237D01*
X0039774Y0128057D01*
X0033300Y0128057D01*
X0032670Y0127428D01*
X0032088Y0128010D01*
X0031419Y0128497D01*
X0030681Y0128872D01*
X0029894Y0129128D01*
X0029077Y0129257D01*
X0028850Y0129257D01*
X0028850Y0124187D01*
X0028476Y0124187D01*
X0028476Y0123813D01*
X0028850Y0123813D01*
X0028850Y0118743D01*
X0029077Y0118743D01*
X0029894Y0118872D01*
X0030681Y0119128D01*
X0031419Y0119503D01*
X0032088Y0119990D01*
X0032670Y0120572D01*
X0033300Y0119943D01*
X0039774Y0119943D01*
X0040410Y0120578D01*
X0041900Y0119089D01*
X0041900Y0096589D01*
X0048400Y0090089D01*
X0049689Y0088800D01*
X0064550Y0088800D01*
X0064550Y0088120D01*
X0064670Y0088000D01*
X0064550Y0087880D01*
X0064550Y0087200D01*
X0040011Y0087200D01*
X0038448Y0088763D01*
X0034910Y0088763D01*
X0034906Y0088772D01*
X0033809Y0089869D01*
X0032376Y0090463D01*
X0030824Y0090463D01*
X0029391Y0089869D01*
X0028366Y0088845D01*
X0018800Y0098411D01*
X0018800Y0146354D01*
X0019113Y0146041D01*
X0022961Y0146041D01*
X0024012Y0147092D01*
X0024012Y0148100D01*
X0025112Y0148100D01*
X0025463Y0147253D01*
X0026828Y0145888D01*
X0028610Y0145150D01*
X0030540Y0145150D01*
X0032322Y0145888D01*
X0033687Y0147253D01*
X0032718Y0146284D02*
X0042697Y0146284D01*
X0041499Y0145086D02*
X0018800Y0145086D01*
X0018800Y0146284D02*
X0018870Y0146284D01*
X0018800Y0143887D02*
X0028271Y0143887D01*
X0026490Y0142689D02*
X0018800Y0142689D01*
X0014400Y0142689D02*
X0008750Y0142689D01*
X0008750Y0143887D02*
X0014400Y0143887D01*
X0014400Y0145086D02*
X0008750Y0145086D01*
X0008750Y0146284D02*
X0010996Y0146284D01*
X0011239Y0146041D02*
X0014400Y0146041D01*
X0014400Y0096589D01*
X0025337Y0085652D01*
X0026626Y0084363D01*
X0028290Y0084363D01*
X0028294Y0084354D01*
X0029371Y0083277D01*
X0028927Y0083051D01*
X0028278Y0082579D01*
X0027710Y0082011D01*
X0027238Y0081362D01*
X0026874Y0080647D01*
X0026626Y0079883D01*
X0026500Y0079090D01*
X0026500Y0078876D01*
X0031413Y0078876D01*
X0031413Y0078502D01*
X0031413Y0078501D02*
X0031787Y0078501D01*
X0031787Y0073589D01*
X0032001Y0073589D01*
X0032794Y0073715D01*
X0033558Y0073963D01*
X0034273Y0074327D01*
X0034922Y0074799D01*
X0035490Y0075367D01*
X0035962Y0076016D01*
X0036326Y0076731D01*
X0036574Y0077495D01*
X0036700Y0078288D01*
X0036700Y0078502D01*
X0031787Y0078502D01*
X0031787Y0078876D01*
X0036700Y0078876D01*
X0036700Y0079090D01*
X0036574Y0079883D01*
X0036326Y0080647D01*
X0035962Y0081362D01*
X0035490Y0082011D01*
X0034922Y0082579D01*
X0034273Y0083051D01*
X0033829Y0083277D01*
X0034906Y0084354D01*
X0034910Y0084363D01*
X0036626Y0084363D01*
X0038189Y0082800D01*
X0064550Y0082800D01*
X0064550Y0082120D01*
X0064670Y0082000D01*
X0064550Y0081880D01*
X0064550Y0076120D01*
X0065370Y0075300D01*
X0072830Y0075300D01*
X0073650Y0076120D01*
X0073650Y0076800D01*
X0076689Y0076800D01*
X0079400Y0074089D01*
X0080689Y0072800D01*
X0154011Y0072800D01*
X0155300Y0074089D01*
X0161311Y0080100D01*
X0167520Y0080100D01*
X0168270Y0079350D01*
X0174930Y0079350D01*
X0174936Y0079356D01*
X0176718Y0077574D01*
X0177674Y0076618D01*
X0178924Y0076100D01*
X0185287Y0076100D01*
X0186211Y0075176D01*
X0188086Y0074400D01*
X0190114Y0074400D01*
X0191989Y0075176D01*
X0193424Y0076611D01*
X0194100Y0078244D01*
X0194776Y0076611D01*
X0195200Y0076188D01*
X0195200Y0070000D01*
X0191160Y0070000D01*
X0190406Y0071306D01*
X0190406Y0071306D01*
X0190406Y0071306D01*
X0189054Y0072086D01*
X0188991Y0072150D01*
X0164209Y0072150D01*
X0164146Y0072086D01*
X0162794Y0071306D01*
X0162040Y0070000D01*
X0146160Y0070000D01*
X0145406Y0071306D01*
X0145406Y0071306D01*
X0145406Y0071306D01*
X0144054Y0072086D01*
X0143991Y0072150D01*
X0099209Y0072150D01*
X0099146Y0072086D01*
X0097794Y0071306D01*
X0097040Y0070000D01*
X0091160Y0070000D01*
X0090406Y0071306D01*
X0090406Y0071306D01*
X0090406Y0071306D01*
X0089054Y0072086D01*
X0088991Y0072150D01*
X0056709Y0072150D01*
X0056646Y0072086D01*
X0055294Y0071306D01*
X0054540Y0070000D01*
X0043660Y0070000D01*
X0042906Y0071306D01*
X0042906Y0071306D01*
X0042906Y0071306D01*
X0041554Y0072086D01*
X0041491Y0072150D01*
X0011709Y0072150D01*
X0011646Y0072086D01*
X0010294Y0071306D01*
X0009540Y0070000D01*
X0008750Y0070000D01*
X0008750Y0194283D01*
X0008854Y0194422D01*
X0008750Y0195153D01*
X0008750Y0195891D01*
X0008687Y0195953D01*
X0008662Y0196352D01*
X0009021Y0198413D01*
X0009999Y0200263D01*
X0011501Y0201720D01*
X0013090Y0202500D01*
X0047973Y0202500D01*
X0045500Y0200027D01*
X0045500Y0197900D01*
X0051200Y0197900D01*
X0051200Y0197100D01*
X0045500Y0197100D01*
X0045500Y0194973D01*
X0048822Y0191651D01*
X0046700Y0189530D01*
X0046700Y0185470D01*
X0047770Y0184400D01*
X0043313Y0184400D01*
X0036713Y0177800D01*
X0036043Y0177800D01*
X0035014Y0177374D01*
X0034226Y0176586D01*
X0033800Y0175557D01*
X0033800Y0174443D01*
X0033879Y0174252D01*
X0033516Y0174615D01*
X0032746Y0175174D01*
X0031897Y0175607D01*
X0031749Y0175655D01*
X0032372Y0175913D01*
X0033737Y0177278D01*
X0034475Y0179060D01*
X0034475Y0180990D01*
X0033737Y0182772D01*
X0032372Y0184137D01*
X0030590Y0184875D01*
X0028660Y0184875D01*
X0026878Y0184137D01*
X0025513Y0182772D01*
X0025276Y0182200D01*
X0023189Y0182200D01*
X0021900Y0180911D01*
X0014400Y0173411D01*
X0014400Y0163959D01*
X0011239Y0163959D01*
X0010188Y0162908D01*
X0010188Y0157092D01*
X0011239Y0156041D01*
X0014400Y0156041D01*
X0014400Y0153959D01*
X0011239Y0153959D01*
X0010188Y0152908D01*
X0010188Y0147092D01*
X0011239Y0146041D01*
X0010188Y0147483D02*
X0008750Y0147483D01*
X0008750Y0148681D02*
X0010188Y0148681D01*
X0010188Y0149880D02*
X0008750Y0149880D01*
X0008750Y0151078D02*
X0010188Y0151078D01*
X0010188Y0152277D02*
X0008750Y0152277D01*
X0008750Y0153475D02*
X0010755Y0153475D01*
X0008750Y0154674D02*
X0014400Y0154674D01*
X0014400Y0155872D02*
X0008750Y0155872D01*
X0008750Y0157071D02*
X0010209Y0157071D01*
X0010188Y0158269D02*
X0008750Y0158269D01*
X0008750Y0159468D02*
X0010188Y0159468D01*
X0010188Y0160666D02*
X0008750Y0160666D01*
X0008750Y0161865D02*
X0010188Y0161865D01*
X0010343Y0163063D02*
X0008750Y0163063D01*
X0008750Y0164262D02*
X0014400Y0164262D01*
X0014400Y0165460D02*
X0008750Y0165460D01*
X0008750Y0166659D02*
X0014400Y0166659D01*
X0014400Y0167857D02*
X0008750Y0167857D01*
X0008750Y0169056D02*
X0014400Y0169056D01*
X0014400Y0170254D02*
X0008750Y0170254D01*
X0008750Y0171453D02*
X0014400Y0171453D01*
X0014400Y0172651D02*
X0008750Y0172651D01*
X0008750Y0173850D02*
X0014839Y0173850D01*
X0016037Y0175048D02*
X0008750Y0175048D01*
X0008750Y0176247D02*
X0017236Y0176247D01*
X0018434Y0177445D02*
X0008750Y0177445D01*
X0008750Y0178644D02*
X0019633Y0178644D01*
X0020831Y0179842D02*
X0008750Y0179842D01*
X0008750Y0181041D02*
X0022030Y0181041D01*
X0025293Y0182239D02*
X0008750Y0182239D01*
X0008750Y0183438D02*
X0026179Y0183438D01*
X0028085Y0184637D02*
X0008750Y0184637D01*
X0008750Y0185835D02*
X0046700Y0185835D01*
X0046700Y0187034D02*
X0008750Y0187034D01*
X0008750Y0188232D02*
X0046700Y0188232D01*
X0046700Y0189431D02*
X0008750Y0189431D01*
X0008750Y0190629D02*
X0047799Y0190629D01*
X0048646Y0191828D02*
X0008750Y0191828D01*
X0008750Y0193026D02*
X0047447Y0193026D01*
X0046249Y0194225D02*
X0033804Y0194225D01*
X0033430Y0193850D02*
X0034250Y0194670D01*
X0034250Y0201330D01*
X0033430Y0202150D01*
X0026770Y0202150D01*
X0025950Y0201330D01*
X0025950Y0194670D01*
X0026770Y0193850D01*
X0033430Y0193850D01*
X0034250Y0195423D02*
X0045500Y0195423D01*
X0045500Y0196622D02*
X0034250Y0196622D01*
X0034250Y0197820D02*
X0051200Y0197820D01*
X0056311Y0201416D02*
X0058586Y0201416D01*
X0064614Y0201416D02*
X0148586Y0201416D01*
X0147388Y0200217D02*
X0065812Y0200217D01*
X0066500Y0199019D02*
X0068639Y0199019D01*
X0068526Y0198943D02*
X0068109Y0198526D01*
X0067782Y0198036D01*
X0067556Y0197491D01*
X0067441Y0196913D01*
X0067441Y0195624D01*
X0072413Y0195624D01*
X0072413Y0195250D01*
X0072787Y0195250D01*
X0072787Y0191262D01*
X0075060Y0191262D01*
X0075639Y0191377D01*
X0076183Y0191603D01*
X0076674Y0191931D01*
X0077091Y0192348D01*
X0077418Y0192838D01*
X0077644Y0193383D01*
X0077759Y0193961D01*
X0077759Y0195250D01*
X0072787Y0195250D01*
X0072787Y0195624D01*
X0072413Y0195624D01*
X0072413Y0199612D01*
X0070140Y0199612D01*
X0069561Y0199497D01*
X0069017Y0199271D01*
X0068526Y0198943D01*
X0067692Y0197820D02*
X0066500Y0197820D01*
X0066500Y0196622D02*
X0067441Y0196622D01*
X0067441Y0195250D02*
X0067441Y0193961D01*
X0067556Y0193383D01*
X0067782Y0192838D01*
X0068109Y0192348D01*
X0068526Y0191931D01*
X0069017Y0191603D01*
X0069561Y0191377D01*
X0070140Y0191262D01*
X0072413Y0191262D01*
X0072413Y0195250D01*
X0067441Y0195250D01*
X0066453Y0195423D02*
X0072413Y0195423D01*
X0072787Y0195423D02*
X0146747Y0195423D01*
X0146700Y0196622D02*
X0077759Y0196622D01*
X0077759Y0196913D02*
X0077644Y0197491D01*
X0077418Y0198036D01*
X0077091Y0198526D01*
X0076674Y0198943D01*
X0076183Y0199271D01*
X0075639Y0199497D01*
X0075060Y0199612D01*
X0072787Y0199612D01*
X0072787Y0195624D01*
X0077759Y0195624D01*
X0077759Y0196913D01*
X0077508Y0197820D02*
X0146700Y0197820D01*
X0146700Y0199019D02*
X0076561Y0199019D01*
X0072787Y0199019D02*
X0072413Y0199019D01*
X0072413Y0197820D02*
X0072787Y0197820D01*
X0072787Y0196622D02*
X0072413Y0196622D01*
X0072413Y0194225D02*
X0072787Y0194225D01*
X0072787Y0193026D02*
X0072413Y0193026D01*
X0072413Y0191828D02*
X0072787Y0191828D01*
X0076520Y0191828D02*
X0148998Y0191828D01*
X0149144Y0193026D02*
X0077496Y0193026D01*
X0077759Y0194225D02*
X0147946Y0194225D01*
X0147799Y0190629D02*
X0065401Y0190629D01*
X0064202Y0191828D02*
X0068680Y0191828D01*
X0067704Y0193026D02*
X0064056Y0193026D01*
X0065254Y0194225D02*
X0067441Y0194225D01*
X0059144Y0193026D02*
X0055753Y0193026D01*
X0056951Y0194225D02*
X0057946Y0194225D01*
X0058998Y0191828D02*
X0054554Y0191828D01*
X0055401Y0190629D02*
X0057799Y0190629D01*
X0056700Y0189431D02*
X0056500Y0189431D01*
X0056500Y0188232D02*
X0056700Y0188232D01*
X0056700Y0187034D02*
X0056500Y0187034D01*
X0056500Y0185835D02*
X0056700Y0185835D01*
X0057534Y0184637D02*
X0055666Y0184637D01*
X0047534Y0184637D02*
X0031165Y0184637D01*
X0033071Y0183438D02*
X0042351Y0183438D01*
X0041152Y0182239D02*
X0033957Y0182239D01*
X0034454Y0181041D02*
X0039954Y0181041D01*
X0038755Y0179842D02*
X0034475Y0179842D01*
X0034303Y0178644D02*
X0037557Y0178644D01*
X0035187Y0177445D02*
X0033806Y0177445D01*
X0034086Y0176247D02*
X0032706Y0176247D01*
X0032919Y0175048D02*
X0033800Y0175048D01*
X0035030Y0172619D02*
X0036043Y0172200D01*
X0037157Y0172200D01*
X0038186Y0172626D01*
X0038974Y0173414D01*
X0039400Y0174443D01*
X0039400Y0175113D01*
X0044887Y0180600D01*
X0047770Y0180600D01*
X0046700Y0179530D01*
X0046700Y0175470D01*
X0047770Y0174400D01*
X0045813Y0174400D01*
X0033861Y0162448D01*
X0033737Y0162747D01*
X0032372Y0164112D01*
X0031782Y0164356D01*
X0031897Y0164393D01*
X0032746Y0164826D01*
X0033516Y0165385D01*
X0034190Y0166059D01*
X0034749Y0166829D01*
X0035182Y0167678D01*
X0035476Y0168583D01*
X0035625Y0169524D01*
X0035625Y0169815D01*
X0029761Y0169815D01*
X0029761Y0170185D01*
X0035625Y0170185D01*
X0035625Y0170476D01*
X0035476Y0171417D01*
X0035182Y0172322D01*
X0035030Y0172619D01*
X0035464Y0171453D02*
X0042866Y0171453D01*
X0044064Y0172651D02*
X0038211Y0172651D01*
X0039154Y0173850D02*
X0045263Y0173850D01*
X0047122Y0175048D02*
X0039400Y0175048D01*
X0040534Y0176247D02*
X0046700Y0176247D01*
X0046700Y0177445D02*
X0041732Y0177445D01*
X0042931Y0178644D02*
X0046700Y0178644D01*
X0047013Y0179842D02*
X0044129Y0179842D01*
X0041667Y0170254D02*
X0035625Y0170254D01*
X0035551Y0169056D02*
X0040469Y0169056D01*
X0039270Y0167857D02*
X0035240Y0167857D01*
X0034626Y0166659D02*
X0038072Y0166659D01*
X0036873Y0165460D02*
X0033591Y0165460D01*
X0032010Y0164262D02*
X0035675Y0164262D01*
X0034476Y0163063D02*
X0033421Y0163063D01*
X0036255Y0159468D02*
X0046700Y0159468D01*
X0046700Y0158269D02*
X0035056Y0158269D01*
X0033555Y0157071D02*
X0046700Y0157071D01*
X0046700Y0155872D02*
X0032333Y0155872D01*
X0030965Y0154674D02*
X0047497Y0154674D01*
X0048695Y0153475D02*
X0032959Y0153475D01*
X0033882Y0152277D02*
X0049447Y0152277D01*
X0048249Y0151078D02*
X0034378Y0151078D01*
X0034425Y0149880D02*
X0047050Y0149880D01*
X0045094Y0148681D02*
X0034278Y0148681D01*
X0030929Y0143887D02*
X0040300Y0143887D01*
X0039102Y0142689D02*
X0032710Y0142689D01*
X0026432Y0146284D02*
X0023204Y0146284D01*
X0024012Y0147483D02*
X0025368Y0147483D01*
X0025268Y0152277D02*
X0024012Y0152277D01*
X0023445Y0153475D02*
X0026191Y0153475D01*
X0028185Y0154674D02*
X0018800Y0154674D01*
X0018800Y0155872D02*
X0026917Y0155872D01*
X0025695Y0157071D02*
X0023991Y0157071D01*
X0024012Y0161900D02*
X0024012Y0162908D01*
X0022961Y0163959D01*
X0019113Y0163959D01*
X0018800Y0163646D01*
X0018800Y0171589D01*
X0025011Y0177800D01*
X0025297Y0177800D01*
X0025513Y0177278D01*
X0026878Y0175913D01*
X0027457Y0175673D01*
X0027253Y0175607D01*
X0026404Y0175174D01*
X0025634Y0174615D01*
X0024960Y0173941D01*
X0024401Y0173171D01*
X0023968Y0172322D01*
X0023674Y0171417D01*
X0023525Y0170476D01*
X0023525Y0170185D01*
X0029389Y0170185D01*
X0029389Y0169815D01*
X0023525Y0169815D01*
X0023525Y0169524D01*
X0023674Y0168583D01*
X0023968Y0167678D01*
X0024401Y0166829D01*
X0024960Y0166059D01*
X0025634Y0165385D01*
X0026404Y0164826D01*
X0027253Y0164393D01*
X0027424Y0164338D01*
X0026878Y0164112D01*
X0025513Y0162747D01*
X0025162Y0161900D01*
X0024012Y0161900D01*
X0023857Y0163063D02*
X0025829Y0163063D01*
X0027240Y0164262D02*
X0018800Y0164262D01*
X0018800Y0165460D02*
X0025559Y0165460D01*
X0024524Y0166659D02*
X0018800Y0166659D01*
X0018800Y0167857D02*
X0023910Y0167857D01*
X0023599Y0169056D02*
X0018800Y0169056D01*
X0018800Y0170254D02*
X0023525Y0170254D01*
X0023686Y0171453D02*
X0018800Y0171453D01*
X0019863Y0172651D02*
X0024136Y0172651D01*
X0024894Y0173850D02*
X0021061Y0173850D01*
X0022260Y0175048D02*
X0026231Y0175048D01*
X0026544Y0176247D02*
X0023458Y0176247D01*
X0024657Y0177445D02*
X0025444Y0177445D01*
X0026395Y0194225D02*
X0018830Y0194225D01*
X0019451Y0194482D02*
X0017925Y0193850D01*
X0016275Y0193850D01*
X0014749Y0194482D01*
X0013582Y0195649D01*
X0012950Y0197175D01*
X0012950Y0198825D01*
X0013582Y0200351D01*
X0014749Y0201518D01*
X0016275Y0202150D01*
X0017925Y0202150D01*
X0019451Y0201518D01*
X0020618Y0200351D01*
X0021250Y0198825D01*
X0021250Y0197175D01*
X0020618Y0195649D01*
X0019451Y0194482D01*
X0020392Y0195423D02*
X0025950Y0195423D01*
X0025950Y0196622D02*
X0021021Y0196622D01*
X0021250Y0197820D02*
X0025950Y0197820D01*
X0025950Y0199019D02*
X0021170Y0199019D01*
X0020674Y0200217D02*
X0025950Y0200217D01*
X0026036Y0201416D02*
X0019553Y0201416D01*
X0014647Y0201416D02*
X0011187Y0201416D01*
X0009974Y0200217D02*
X0013526Y0200217D01*
X0013030Y0199019D02*
X0009341Y0199019D01*
X0008917Y0197820D02*
X0012950Y0197820D01*
X0013179Y0196622D02*
X0008709Y0196622D01*
X0008750Y0195423D02*
X0013808Y0195423D01*
X0015370Y0194225D02*
X0008750Y0194225D01*
X0034250Y0199019D02*
X0045500Y0199019D01*
X0045690Y0200217D02*
X0034250Y0200217D01*
X0034164Y0201416D02*
X0046889Y0201416D01*
X0065666Y0184637D02*
X0069643Y0184637D01*
X0065430Y0180600D02*
X0147770Y0180600D01*
X0146700Y0179530D01*
X0146700Y0179400D01*
X0128313Y0179400D01*
X0127200Y0178287D01*
X0123313Y0174400D01*
X0065430Y0174400D01*
X0066500Y0175470D01*
X0066500Y0179530D01*
X0065430Y0180600D01*
X0066187Y0179842D02*
X0147013Y0179842D01*
X0147122Y0175048D02*
X0129335Y0175048D01*
X0128137Y0173850D02*
X0148320Y0173850D01*
X0149519Y0172651D02*
X0126938Y0172651D01*
X0125740Y0171453D02*
X0148623Y0171453D01*
X0147425Y0170254D02*
X0065775Y0170254D01*
X0066078Y0175048D02*
X0123961Y0175048D01*
X0125160Y0176247D02*
X0066500Y0176247D01*
X0066500Y0177445D02*
X0126358Y0177445D01*
X0127557Y0178644D02*
X0066500Y0178644D01*
X0075557Y0184637D02*
X0147534Y0184637D01*
X0146700Y0185835D02*
X0076559Y0185835D01*
X0076559Y0187034D02*
X0146700Y0187034D01*
X0146700Y0188232D02*
X0076559Y0188232D01*
X0076559Y0189431D02*
X0146700Y0189431D01*
X0154202Y0191828D02*
X0158646Y0191828D01*
X0157799Y0190629D02*
X0155401Y0190629D01*
X0156500Y0189431D02*
X0156700Y0189431D01*
X0156700Y0188232D02*
X0156500Y0188232D01*
X0156500Y0187034D02*
X0156700Y0187034D01*
X0156700Y0185835D02*
X0156500Y0185835D01*
X0155666Y0184637D02*
X0157534Y0184637D01*
X0156849Y0183438D02*
X0158732Y0183438D01*
X0159410Y0182239D02*
X0158048Y0182239D01*
X0163790Y0182239D02*
X0182007Y0182239D01*
X0181511Y0181041D02*
X0164989Y0181041D01*
X0166187Y0179842D02*
X0181500Y0179842D01*
X0181641Y0178644D02*
X0166500Y0178644D01*
X0166500Y0177445D02*
X0181358Y0177445D01*
X0180160Y0176247D02*
X0166500Y0176247D01*
X0166078Y0175048D02*
X0178961Y0175048D01*
X0177763Y0173850D02*
X0164880Y0173850D01*
X0163681Y0172651D02*
X0176564Y0172651D01*
X0175366Y0171453D02*
X0164577Y0171453D01*
X0163630Y0172400D02*
X0166500Y0169530D01*
X0166500Y0165470D01*
X0163630Y0162600D01*
X0159570Y0162600D01*
X0156700Y0165470D01*
X0156700Y0169530D01*
X0159570Y0172400D01*
X0163630Y0172400D01*
X0165775Y0170254D02*
X0174700Y0170254D01*
X0174700Y0169056D02*
X0166500Y0169056D01*
X0166500Y0167857D02*
X0174700Y0167857D01*
X0174700Y0166659D02*
X0166500Y0166659D01*
X0166490Y0165460D02*
X0174700Y0165460D01*
X0174700Y0164262D02*
X0165291Y0164262D01*
X0164093Y0163063D02*
X0174700Y0163063D01*
X0174700Y0161865D02*
X0164165Y0161865D01*
X0163630Y0162400D02*
X0166500Y0159530D01*
X0166500Y0155470D01*
X0163630Y0152600D01*
X0159570Y0152600D01*
X0156700Y0155470D01*
X0156700Y0159530D01*
X0159570Y0162400D01*
X0163630Y0162400D01*
X0165363Y0160666D02*
X0174700Y0160666D01*
X0174700Y0159468D02*
X0166500Y0159468D01*
X0166500Y0158269D02*
X0174700Y0158269D01*
X0174700Y0157071D02*
X0166500Y0157071D01*
X0166500Y0155872D02*
X0174700Y0155872D01*
X0174700Y0154674D02*
X0165703Y0154674D01*
X0164505Y0153475D02*
X0174700Y0153475D01*
X0174700Y0152277D02*
X0163753Y0152277D01*
X0163630Y0152400D02*
X0159570Y0152400D01*
X0156700Y0149530D01*
X0156700Y0145470D01*
X0159570Y0142600D01*
X0163630Y0142600D01*
X0166500Y0145470D01*
X0166500Y0149530D01*
X0163630Y0152400D01*
X0164951Y0151078D02*
X0174700Y0151078D01*
X0174700Y0149880D02*
X0166150Y0149880D01*
X0166500Y0148681D02*
X0174700Y0148681D01*
X0174700Y0147483D02*
X0166500Y0147483D01*
X0166500Y0146284D02*
X0174700Y0146284D01*
X0174700Y0145086D02*
X0166115Y0145086D01*
X0164917Y0143887D02*
X0174700Y0143887D01*
X0174700Y0142689D02*
X0163718Y0142689D01*
X0164540Y0141490D02*
X0174700Y0141490D01*
X0174205Y0140292D02*
X0165738Y0140292D01*
X0166500Y0135498D02*
X0204450Y0135498D01*
X0204450Y0136696D02*
X0200721Y0136696D01*
X0202919Y0137895D02*
X0204450Y0137895D01*
X0204450Y0139093D02*
X0204095Y0139093D01*
X0204450Y0134299D02*
X0201196Y0134299D01*
X0203162Y0133101D02*
X0204450Y0133101D01*
X0204450Y0131902D02*
X0204238Y0131902D01*
X0204103Y0123512D02*
X0204450Y0123512D01*
X0204450Y0122314D02*
X0202932Y0122314D01*
X0204450Y0121115D02*
X0200758Y0121115D01*
X0204450Y0119917D02*
X0166113Y0119917D01*
X0166500Y0119530D02*
X0163630Y0122400D01*
X0159570Y0122400D01*
X0156700Y0119530D01*
X0156700Y0115470D01*
X0159570Y0112600D01*
X0163630Y0112600D01*
X0166500Y0115470D01*
X0166500Y0119530D01*
X0166500Y0118718D02*
X0204450Y0118718D01*
X0204450Y0117520D02*
X0200929Y0117520D01*
X0202656Y0116321D02*
X0204450Y0116321D01*
X0204450Y0115123D02*
X0203630Y0115123D01*
X0204126Y0113924D02*
X0204450Y0113924D01*
X0204450Y0112726D02*
X0204358Y0112726D01*
X0204358Y0111527D02*
X0204450Y0111527D01*
X0204450Y0110329D02*
X0204062Y0110329D01*
X0204450Y0109130D02*
X0203565Y0109130D01*
X0204450Y0107932D02*
X0202500Y0107932D01*
X0200552Y0106733D02*
X0204450Y0106733D01*
X0204450Y0105535D02*
X0198000Y0105535D01*
X0198000Y0104336D02*
X0204450Y0104336D01*
X0204450Y0103138D02*
X0198000Y0103138D01*
X0200906Y0101939D02*
X0204450Y0101939D01*
X0204450Y0100741D02*
X0202646Y0100741D01*
X0203626Y0099542D02*
X0204450Y0099542D01*
X0204450Y0098344D02*
X0204122Y0098344D01*
X0204358Y0097145D02*
X0204450Y0097145D01*
X0204450Y0095947D02*
X0204358Y0095947D01*
X0204450Y0094748D02*
X0204066Y0094748D01*
X0204450Y0093550D02*
X0203569Y0093550D01*
X0203000Y0092351D02*
X0204450Y0092351D01*
X0204450Y0091153D02*
X0203000Y0091153D01*
X0203000Y0089954D02*
X0204450Y0089954D01*
X0204450Y0088756D02*
X0203000Y0088756D01*
X0203000Y0087557D02*
X0204450Y0087557D01*
X0204450Y0086359D02*
X0203000Y0086359D01*
X0203000Y0085160D02*
X0204450Y0085160D01*
X0204450Y0083962D02*
X0203000Y0083962D01*
X0203049Y0082763D02*
X0204450Y0082763D01*
X0204450Y0081565D02*
X0203765Y0081565D01*
X0204200Y0080366D02*
X0204450Y0080366D01*
X0204450Y0079168D02*
X0204200Y0079168D01*
X0203986Y0077969D02*
X0204450Y0077969D01*
X0204450Y0076770D02*
X0203490Y0076770D01*
X0203000Y0075572D02*
X0204450Y0075572D01*
X0204450Y0074373D02*
X0203000Y0074373D01*
X0203000Y0073175D02*
X0204450Y0073175D01*
X0204450Y0071976D02*
X0203000Y0071976D01*
X0203000Y0070778D02*
X0204450Y0070778D01*
X0195200Y0070778D02*
X0190711Y0070778D01*
X0189245Y0071976D02*
X0195200Y0071976D01*
X0195200Y0073175D02*
X0154386Y0073175D01*
X0155300Y0074089D02*
X0155300Y0074089D01*
X0155585Y0074373D02*
X0195200Y0074373D01*
X0195200Y0075572D02*
X0192384Y0075572D01*
X0193490Y0076770D02*
X0194710Y0076770D01*
X0194214Y0077969D02*
X0193986Y0077969D01*
X0193765Y0081565D02*
X0194435Y0081565D01*
X0195151Y0082763D02*
X0193049Y0082763D01*
X0191656Y0083962D02*
X0195200Y0083962D01*
X0195200Y0085160D02*
X0178748Y0085160D01*
X0177550Y0086359D02*
X0195200Y0086359D01*
X0195200Y0087557D02*
X0175023Y0087557D01*
X0174931Y0092351D02*
X0185690Y0092351D01*
X0187624Y0091153D02*
X0155256Y0091153D01*
X0154057Y0092351D02*
X0168269Y0092351D01*
X0167450Y0093550D02*
X0152859Y0093550D01*
X0151660Y0094748D02*
X0167450Y0094748D01*
X0167450Y0095947D02*
X0150462Y0095947D01*
X0149263Y0097145D02*
X0167450Y0097145D01*
X0167450Y0098344D02*
X0148065Y0098344D01*
X0146866Y0099542D02*
X0167450Y0099542D01*
X0164167Y0103138D02*
X0190200Y0103138D01*
X0190200Y0104336D02*
X0165366Y0104336D01*
X0166500Y0105470D02*
X0163630Y0102600D01*
X0159570Y0102600D01*
X0156700Y0105470D01*
X0156700Y0109530D01*
X0159570Y0112400D01*
X0163630Y0112400D01*
X0166500Y0109530D01*
X0166500Y0105470D01*
X0166500Y0105535D02*
X0190200Y0105535D01*
X0187648Y0106733D02*
X0166500Y0106733D01*
X0166500Y0107932D02*
X0185700Y0107932D01*
X0184635Y0109130D02*
X0166500Y0109130D01*
X0165701Y0110329D02*
X0184138Y0110329D01*
X0183842Y0111527D02*
X0164502Y0111527D01*
X0163755Y0112726D02*
X0183842Y0112726D01*
X0184074Y0113924D02*
X0164954Y0113924D01*
X0166152Y0115123D02*
X0184570Y0115123D01*
X0185544Y0116321D02*
X0166500Y0116321D01*
X0166500Y0117520D02*
X0187271Y0117520D01*
X0188297Y0120886D02*
X0189210Y0120766D01*
X0193500Y0120766D01*
X0193500Y0127195D01*
X0182660Y0127195D01*
X0182762Y0126421D01*
X0183000Y0125531D01*
X0183353Y0124680D01*
X0183814Y0123882D01*
X0184375Y0123151D01*
X0185026Y0122499D01*
X0185757Y0121938D01*
X0186555Y0121478D01*
X0187407Y0121125D01*
X0188297Y0120886D01*
X0187442Y0121115D02*
X0164914Y0121115D01*
X0163716Y0122314D02*
X0185268Y0122314D01*
X0184097Y0123512D02*
X0164542Y0123512D01*
X0163630Y0122600D02*
X0166500Y0125470D01*
X0166500Y0129530D01*
X0163630Y0132400D01*
X0159570Y0132400D01*
X0156700Y0129530D01*
X0156700Y0125470D01*
X0159570Y0122600D01*
X0163630Y0122600D01*
X0165741Y0124711D02*
X0183340Y0124711D01*
X0182899Y0125909D02*
X0166500Y0125909D01*
X0166500Y0127108D02*
X0182672Y0127108D01*
X0182660Y0128395D02*
X0193500Y0128395D01*
X0193500Y0134824D01*
X0189210Y0134824D01*
X0188297Y0134704D01*
X0187407Y0134466D01*
X0186555Y0134113D01*
X0185757Y0133652D01*
X0185026Y0133091D01*
X0184375Y0132440D01*
X0183814Y0131709D01*
X0183353Y0130911D01*
X0183000Y0130060D01*
X0182762Y0129170D01*
X0182660Y0128395D01*
X0182852Y0129505D02*
X0166500Y0129505D01*
X0166500Y0128306D02*
X0193500Y0128306D01*
X0193500Y0127108D02*
X0194700Y0127108D01*
X0194700Y0125909D02*
X0193500Y0125909D01*
X0193500Y0124711D02*
X0194700Y0124711D01*
X0194700Y0123512D02*
X0193500Y0123512D01*
X0193500Y0122314D02*
X0194700Y0122314D01*
X0194700Y0121115D02*
X0193500Y0121115D01*
X0193500Y0129505D02*
X0194700Y0129505D01*
X0194700Y0130703D02*
X0193500Y0130703D01*
X0193500Y0131902D02*
X0194700Y0131902D01*
X0194700Y0133101D02*
X0193500Y0133101D01*
X0193500Y0134299D02*
X0194700Y0134299D01*
X0194700Y0136696D02*
X0193500Y0136696D01*
X0193500Y0137895D02*
X0194700Y0137895D01*
X0194700Y0139093D02*
X0193500Y0139093D01*
X0193500Y0140292D02*
X0194700Y0140292D01*
X0194700Y0141490D02*
X0193500Y0141490D01*
X0193500Y0142689D02*
X0194700Y0142689D01*
X0193500Y0143887D02*
X0178500Y0143887D01*
X0178500Y0142689D02*
X0182673Y0142689D01*
X0182902Y0141490D02*
X0178500Y0141490D01*
X0178500Y0140292D02*
X0183344Y0140292D01*
X0184105Y0139093D02*
X0178380Y0139093D01*
X0177182Y0137895D02*
X0185281Y0137895D01*
X0187479Y0136696D02*
X0175983Y0136696D01*
X0178500Y0145086D02*
X0182849Y0145086D01*
X0183263Y0146284D02*
X0178500Y0146284D01*
X0178500Y0147483D02*
X0183954Y0147483D01*
X0185026Y0148681D02*
X0178500Y0148681D01*
X0178500Y0149880D02*
X0186980Y0149880D01*
X0193500Y0149880D02*
X0194700Y0149880D01*
X0194700Y0148681D02*
X0193500Y0148681D01*
X0193500Y0147483D02*
X0194700Y0147483D01*
X0194700Y0146284D02*
X0193500Y0146284D01*
X0193500Y0145086D02*
X0194700Y0145086D01*
X0201220Y0149880D02*
X0204450Y0149880D01*
X0204450Y0151078D02*
X0178500Y0151078D01*
X0178500Y0152277D02*
X0204450Y0152277D01*
X0204450Y0153475D02*
X0178500Y0153475D01*
X0178500Y0154674D02*
X0204450Y0154674D01*
X0204450Y0155872D02*
X0178500Y0155872D01*
X0178500Y0157071D02*
X0204450Y0157071D01*
X0204450Y0158269D02*
X0178500Y0158269D01*
X0178500Y0159468D02*
X0204450Y0159468D01*
X0204450Y0160666D02*
X0178500Y0160666D01*
X0178500Y0161865D02*
X0204450Y0161865D01*
X0204450Y0163063D02*
X0178500Y0163063D01*
X0178500Y0164262D02*
X0204450Y0164262D01*
X0204450Y0165460D02*
X0178500Y0165460D01*
X0178500Y0166659D02*
X0204450Y0166659D01*
X0204450Y0167857D02*
X0178500Y0167857D01*
X0178500Y0169056D02*
X0204450Y0169056D01*
X0204450Y0170254D02*
X0179541Y0170254D01*
X0180740Y0171453D02*
X0204450Y0171453D01*
X0204450Y0172651D02*
X0181938Y0172651D01*
X0183137Y0173850D02*
X0195158Y0173850D01*
X0196200Y0173850D02*
X0197000Y0173850D01*
X0197000Y0173700D02*
X0197096Y0173700D01*
X0198075Y0173855D01*
X0199018Y0174162D01*
X0199902Y0174612D01*
X0200704Y0175195D01*
X0201405Y0175896D01*
X0201988Y0176698D01*
X0202438Y0177582D01*
X0202745Y0178525D01*
X0202900Y0179504D01*
X0202900Y0179600D01*
X0197000Y0179600D01*
X0197000Y0173700D01*
X0198042Y0173850D02*
X0204450Y0173850D01*
X0204450Y0175048D02*
X0200503Y0175048D01*
X0201660Y0176247D02*
X0204450Y0176247D01*
X0204450Y0177445D02*
X0202369Y0177445D01*
X0202764Y0178644D02*
X0204450Y0178644D01*
X0204450Y0179842D02*
X0197000Y0179842D01*
X0197000Y0180400D02*
X0196200Y0180400D01*
X0196200Y0186300D01*
X0196200Y0189600D01*
X0197000Y0189600D01*
X0197000Y0180400D01*
X0197000Y0181041D02*
X0196200Y0181041D01*
X0196200Y0182239D02*
X0197000Y0182239D01*
X0197000Y0183438D02*
X0196200Y0183438D01*
X0196200Y0184637D02*
X0197000Y0184637D01*
X0197000Y0185835D02*
X0196200Y0185835D01*
X0196200Y0187034D02*
X0197000Y0187034D01*
X0197000Y0188232D02*
X0196200Y0188232D01*
X0196200Y0189431D02*
X0197000Y0189431D01*
X0197000Y0190400D02*
X0202900Y0190400D01*
X0202900Y0190496D01*
X0202745Y0191475D01*
X0202438Y0192418D01*
X0201988Y0193302D01*
X0201405Y0194104D01*
X0200704Y0194805D01*
X0199902Y0195388D01*
X0199018Y0195838D01*
X0198075Y0196145D01*
X0197096Y0196300D01*
X0197000Y0196300D01*
X0197000Y0190400D01*
X0197000Y0190629D02*
X0196200Y0190629D01*
X0196200Y0191828D02*
X0197000Y0191828D01*
X0197000Y0193026D02*
X0196200Y0193026D01*
X0196200Y0194225D02*
X0197000Y0194225D01*
X0197000Y0195423D02*
X0196200Y0195423D01*
X0199833Y0195423D02*
X0204450Y0195423D01*
X0204450Y0194225D02*
X0201285Y0194225D01*
X0202129Y0193026D02*
X0204450Y0193026D01*
X0204450Y0191828D02*
X0202630Y0191828D01*
X0202879Y0190629D02*
X0204450Y0190629D01*
X0204450Y0189431D02*
X0202888Y0189431D01*
X0202650Y0188232D02*
X0204450Y0188232D01*
X0204450Y0187034D02*
X0202159Y0187034D01*
X0201345Y0185835D02*
X0204450Y0185835D01*
X0204450Y0184637D02*
X0200873Y0184637D01*
X0201889Y0183438D02*
X0204450Y0183438D01*
X0204450Y0182239D02*
X0202497Y0182239D01*
X0202814Y0181041D02*
X0204450Y0181041D01*
X0197000Y0178644D02*
X0196200Y0178644D01*
X0196200Y0177445D02*
X0197000Y0177445D01*
X0197000Y0176247D02*
X0196200Y0176247D01*
X0196200Y0175048D02*
X0197000Y0175048D01*
X0192697Y0175048D02*
X0187973Y0175048D01*
X0190059Y0176247D02*
X0191540Y0176247D01*
X0185227Y0175048D02*
X0184335Y0175048D01*
X0182826Y0183438D02*
X0164468Y0183438D01*
X0165666Y0184637D02*
X0184467Y0184637D01*
X0183552Y0185835D02*
X0166500Y0185835D01*
X0166500Y0187034D02*
X0182354Y0187034D01*
X0181812Y0188232D02*
X0166500Y0188232D01*
X0166500Y0189431D02*
X0181500Y0189431D01*
X0181500Y0190629D02*
X0165401Y0190629D01*
X0164554Y0191828D02*
X0181837Y0191828D01*
X0182414Y0193026D02*
X0165753Y0193026D01*
X0166951Y0194225D02*
X0183612Y0194225D01*
X0189588Y0194225D02*
X0191915Y0194225D01*
X0191071Y0193026D02*
X0190786Y0193026D01*
X0193367Y0195423D02*
X0167700Y0195423D01*
X0167700Y0196622D02*
X0204491Y0196622D01*
X0204283Y0197820D02*
X0162000Y0197820D01*
X0156889Y0201416D02*
X0154614Y0201416D01*
X0155254Y0194225D02*
X0156249Y0194225D01*
X0157447Y0193026D02*
X0154056Y0193026D01*
X0166311Y0201416D02*
X0202013Y0201416D01*
X0203225Y0200217D02*
X0167510Y0200217D01*
X0167700Y0199019D02*
X0203859Y0199019D01*
X0159519Y0172651D02*
X0158500Y0172651D01*
X0158623Y0171453D02*
X0158240Y0171453D01*
X0157425Y0170254D02*
X0157041Y0170254D01*
X0156700Y0169056D02*
X0156500Y0169056D01*
X0156500Y0167857D02*
X0156700Y0167857D01*
X0156700Y0166659D02*
X0156500Y0166659D01*
X0156490Y0165460D02*
X0156710Y0165460D01*
X0157909Y0164262D02*
X0155291Y0164262D01*
X0154093Y0163063D02*
X0159107Y0163063D01*
X0159035Y0161865D02*
X0154165Y0161865D01*
X0153630Y0162400D02*
X0149570Y0162400D01*
X0146700Y0159530D01*
X0146700Y0155470D01*
X0149570Y0152600D01*
X0153630Y0152600D01*
X0156500Y0155470D01*
X0156500Y0159530D01*
X0153630Y0162400D01*
X0155363Y0160666D02*
X0157837Y0160666D01*
X0156700Y0159468D02*
X0156500Y0159468D01*
X0156500Y0158269D02*
X0156700Y0158269D01*
X0156700Y0157071D02*
X0156500Y0157071D01*
X0156500Y0155872D02*
X0156700Y0155872D01*
X0157497Y0154674D02*
X0155703Y0154674D01*
X0154505Y0153475D02*
X0158695Y0153475D01*
X0159447Y0152277D02*
X0153753Y0152277D01*
X0154951Y0151078D02*
X0158249Y0151078D01*
X0157050Y0149880D02*
X0156150Y0149880D01*
X0156500Y0148681D02*
X0156700Y0148681D01*
X0156700Y0147483D02*
X0156500Y0147483D01*
X0156500Y0146284D02*
X0156700Y0146284D01*
X0157085Y0145086D02*
X0156115Y0145086D01*
X0154917Y0143887D02*
X0158283Y0143887D01*
X0159482Y0142689D02*
X0155038Y0142689D01*
X0156237Y0141490D02*
X0158660Y0141490D01*
X0157462Y0140292D02*
X0157435Y0140292D01*
X0157026Y0134299D02*
X0157871Y0134299D01*
X0159070Y0133101D02*
X0155827Y0133101D01*
X0154629Y0131902D02*
X0159072Y0131902D01*
X0157874Y0130703D02*
X0155326Y0130703D01*
X0156500Y0129505D02*
X0156700Y0129505D01*
X0156700Y0128306D02*
X0156500Y0128306D01*
X0156500Y0127108D02*
X0156700Y0127108D01*
X0156700Y0125909D02*
X0156500Y0125909D01*
X0155741Y0124711D02*
X0157459Y0124711D01*
X0158658Y0123512D02*
X0154542Y0123512D01*
X0153630Y0122400D02*
X0149570Y0122400D01*
X0146700Y0119530D01*
X0146700Y0115470D01*
X0149570Y0112600D01*
X0153630Y0112600D01*
X0156500Y0115470D01*
X0156500Y0119530D01*
X0153630Y0122400D01*
X0153716Y0122314D02*
X0159484Y0122314D01*
X0158286Y0121115D02*
X0154914Y0121115D01*
X0156113Y0119917D02*
X0157087Y0119917D01*
X0156700Y0118718D02*
X0156500Y0118718D01*
X0156500Y0117520D02*
X0156700Y0117520D01*
X0156700Y0116321D02*
X0156500Y0116321D01*
X0156152Y0115123D02*
X0157048Y0115123D01*
X0158246Y0113924D02*
X0154954Y0113924D01*
X0153755Y0112726D02*
X0159445Y0112726D01*
X0158698Y0111527D02*
X0154502Y0111527D01*
X0153630Y0112400D02*
X0149570Y0112400D01*
X0146700Y0109530D01*
X0146700Y0105470D01*
X0149570Y0102600D01*
X0153630Y0102600D01*
X0156500Y0105470D01*
X0156500Y0109530D01*
X0153630Y0112400D01*
X0155701Y0110329D02*
X0157499Y0110329D01*
X0156700Y0109130D02*
X0156500Y0109130D01*
X0156500Y0107932D02*
X0156700Y0107932D01*
X0156700Y0106733D02*
X0156500Y0106733D01*
X0156500Y0105535D02*
X0156700Y0105535D01*
X0157834Y0104336D02*
X0155366Y0104336D01*
X0154167Y0103138D02*
X0159033Y0103138D01*
X0149445Y0112726D02*
X0145000Y0112726D01*
X0145000Y0113924D02*
X0148246Y0113924D01*
X0147048Y0115123D02*
X0145000Y0115123D01*
X0145000Y0116321D02*
X0146700Y0116321D01*
X0146700Y0117520D02*
X0145000Y0117520D01*
X0145000Y0118718D02*
X0146700Y0118718D01*
X0147087Y0119917D02*
X0145000Y0119917D01*
X0145024Y0121115D02*
X0148286Y0121115D01*
X0149484Y0122314D02*
X0146222Y0122314D01*
X0147421Y0123512D02*
X0148658Y0123512D01*
X0143797Y0129505D02*
X0134150Y0129505D01*
X0134150Y0130703D02*
X0145449Y0130703D01*
X0147373Y0133101D02*
X0126000Y0133101D01*
X0126000Y0134299D02*
X0146174Y0134299D01*
X0145500Y0135498D02*
X0126000Y0135498D01*
X0126000Y0136696D02*
X0145500Y0136696D01*
X0145500Y0139093D02*
X0126000Y0139093D01*
X0126000Y0137895D02*
X0151200Y0137895D01*
X0146963Y0141490D02*
X0126000Y0141490D01*
X0126000Y0140292D02*
X0145765Y0140292D01*
X0148162Y0142689D02*
X0126000Y0142689D01*
X0126000Y0143887D02*
X0148283Y0143887D01*
X0147085Y0145086D02*
X0126000Y0145086D01*
X0126000Y0146284D02*
X0146700Y0146284D01*
X0146700Y0147483D02*
X0126000Y0147483D01*
X0126000Y0148681D02*
X0146700Y0148681D01*
X0147050Y0149880D02*
X0126000Y0149880D01*
X0126000Y0151078D02*
X0148249Y0151078D01*
X0149447Y0152277D02*
X0126000Y0152277D01*
X0126000Y0153475D02*
X0148695Y0153475D01*
X0147497Y0154674D02*
X0126000Y0154674D01*
X0126000Y0155872D02*
X0146700Y0155872D01*
X0146700Y0157071D02*
X0126000Y0157071D01*
X0126000Y0158269D02*
X0146700Y0158269D01*
X0146700Y0159468D02*
X0126000Y0159468D01*
X0126000Y0160666D02*
X0147837Y0160666D01*
X0149035Y0161865D02*
X0124922Y0161865D01*
X0123724Y0163063D02*
X0149107Y0163063D01*
X0147909Y0164262D02*
X0122525Y0164262D01*
X0121400Y0160013D02*
X0122200Y0159213D01*
X0122200Y0129213D01*
X0124700Y0126713D01*
X0125050Y0126363D01*
X0125050Y0125620D01*
X0125170Y0125500D01*
X0125050Y0125380D01*
X0125050Y0124400D01*
X0115900Y0124400D01*
X0115584Y0125162D01*
X0114262Y0126484D01*
X0112535Y0127200D01*
X0110665Y0127200D01*
X0108938Y0126484D01*
X0108370Y0125917D01*
X0106000Y0128287D01*
X0105017Y0129270D01*
X0105584Y0129838D01*
X0106300Y0131565D01*
X0106300Y0133435D01*
X0105584Y0135162D01*
X0104262Y0136484D01*
X0102535Y0137200D01*
X0100665Y0137200D01*
X0098938Y0136484D01*
X0097616Y0135162D01*
X0096900Y0133435D01*
X0096900Y0131565D01*
X0097616Y0129838D01*
X0098053Y0129400D01*
X0097387Y0129400D01*
X0068500Y0158287D01*
X0067387Y0159400D01*
X0066500Y0159400D01*
X0066500Y0159530D01*
X0065430Y0160600D01*
X0069813Y0160600D01*
X0073313Y0157100D01*
X0110424Y0157100D01*
X0108938Y0156484D01*
X0107616Y0155162D01*
X0106900Y0153435D01*
X0106900Y0151565D01*
X0107616Y0149838D01*
X0108938Y0148516D01*
X0109854Y0148136D01*
X0109335Y0147968D01*
X0108508Y0147546D01*
X0107756Y0147000D01*
X0107100Y0146344D01*
X0106554Y0145592D01*
X0106132Y0144765D01*
X0105964Y0144246D01*
X0105584Y0145162D01*
X0104262Y0146484D01*
X0102535Y0147200D01*
X0100665Y0147200D01*
X0098938Y0146484D01*
X0097616Y0145162D01*
X0096900Y0143435D01*
X0096900Y0141565D01*
X0097616Y0139838D01*
X0098938Y0138516D01*
X0100665Y0137800D01*
X0102535Y0137800D01*
X0104262Y0138516D01*
X0105584Y0139838D01*
X0105964Y0140754D01*
X0106132Y0140235D01*
X0106554Y0139408D01*
X0107100Y0138656D01*
X0107756Y0138000D01*
X0108508Y0137454D01*
X0109335Y0137032D01*
X0109854Y0136864D01*
X0108938Y0136484D01*
X0107616Y0135162D01*
X0106900Y0133435D01*
X0106900Y0131565D01*
X0107616Y0129838D01*
X0108938Y0128516D01*
X0110665Y0127800D01*
X0112535Y0127800D01*
X0114262Y0128516D01*
X0115584Y0129838D01*
X0116300Y0131565D01*
X0116300Y0133435D01*
X0115584Y0135162D01*
X0114262Y0136484D01*
X0113346Y0136864D01*
X0113865Y0137032D01*
X0114692Y0137454D01*
X0115444Y0138000D01*
X0116100Y0138656D01*
X0116646Y0139408D01*
X0117068Y0140235D01*
X0117355Y0141118D01*
X0117500Y0142036D01*
X0117500Y0142116D01*
X0111984Y0142116D01*
X0111984Y0142884D01*
X0117500Y0142884D01*
X0117500Y0142964D01*
X0117355Y0143882D01*
X0117068Y0144765D01*
X0116646Y0145592D01*
X0116100Y0146344D01*
X0115444Y0147000D01*
X0114692Y0147546D01*
X0113865Y0147968D01*
X0113346Y0148136D01*
X0114262Y0148516D01*
X0115584Y0149838D01*
X0116300Y0151565D01*
X0116300Y0153435D01*
X0115584Y0155162D01*
X0114262Y0156484D01*
X0112776Y0157100D01*
X0117077Y0157100D01*
X0118043Y0156700D01*
X0119157Y0156700D01*
X0120186Y0157126D01*
X0120974Y0157914D01*
X0121400Y0158943D01*
X0121400Y0160013D01*
X0121400Y0159468D02*
X0121945Y0159468D01*
X0122200Y0158269D02*
X0121121Y0158269D01*
X0120052Y0157071D02*
X0122200Y0157071D01*
X0122200Y0155872D02*
X0114875Y0155872D01*
X0115787Y0154674D02*
X0122200Y0154674D01*
X0122200Y0153475D02*
X0116283Y0153475D01*
X0116300Y0152277D02*
X0122200Y0152277D01*
X0122200Y0151078D02*
X0116098Y0151078D01*
X0115602Y0149880D02*
X0122200Y0149880D01*
X0122200Y0148681D02*
X0114428Y0148681D01*
X0114780Y0147483D02*
X0122200Y0147483D01*
X0122200Y0146284D02*
X0116143Y0146284D01*
X0116904Y0145086D02*
X0122200Y0145086D01*
X0122200Y0143887D02*
X0117353Y0143887D01*
X0117414Y0141490D02*
X0122200Y0141490D01*
X0122200Y0140292D02*
X0117086Y0140292D01*
X0116418Y0139093D02*
X0122200Y0139093D01*
X0122200Y0137895D02*
X0115299Y0137895D01*
X0113752Y0136696D02*
X0122200Y0136696D01*
X0122200Y0135498D02*
X0115249Y0135498D01*
X0115942Y0134299D02*
X0122200Y0134299D01*
X0122200Y0133101D02*
X0116300Y0133101D01*
X0116300Y0131902D02*
X0122200Y0131902D01*
X0122200Y0130703D02*
X0115943Y0130703D01*
X0115252Y0129505D02*
X0122200Y0129505D01*
X0123107Y0128306D02*
X0113758Y0128306D01*
X0112757Y0127108D02*
X0124305Y0127108D01*
X0125050Y0125909D02*
X0114837Y0125909D01*
X0115771Y0124711D02*
X0125050Y0124711D01*
X0129100Y0122500D02*
X0129600Y0123000D01*
X0129600Y0128500D01*
X0134150Y0128306D02*
X0142598Y0128306D01*
X0141400Y0127108D02*
X0134150Y0127108D01*
X0134150Y0125909D02*
X0140201Y0125909D01*
X0139003Y0124711D02*
X0134150Y0124711D01*
X0134150Y0123512D02*
X0138339Y0123512D01*
X0138200Y0122314D02*
X0134150Y0122314D01*
X0134150Y0121115D02*
X0138200Y0121115D01*
X0138200Y0119917D02*
X0134150Y0119917D01*
X0134150Y0118718D02*
X0138200Y0118718D01*
X0138200Y0117520D02*
X0134150Y0117520D01*
X0134150Y0116321D02*
X0138200Y0116321D01*
X0138200Y0115123D02*
X0134150Y0115123D01*
X0134150Y0113924D02*
X0138200Y0113924D01*
X0138200Y0112726D02*
X0131500Y0112726D01*
X0131500Y0111527D02*
X0138200Y0111527D01*
X0138200Y0110329D02*
X0131500Y0110329D01*
X0131500Y0109130D02*
X0138200Y0109130D01*
X0138200Y0107932D02*
X0131500Y0107932D01*
X0131500Y0106733D02*
X0138200Y0106733D01*
X0138200Y0105535D02*
X0131500Y0105535D01*
X0131500Y0104336D02*
X0138200Y0104336D01*
X0138200Y0103138D02*
X0131500Y0103138D01*
X0131500Y0101939D02*
X0138200Y0101939D01*
X0138200Y0100741D02*
X0131500Y0100741D01*
X0131500Y0099542D02*
X0138200Y0099542D01*
X0138606Y0098344D02*
X0131500Y0098344D01*
X0131500Y0097145D02*
X0139646Y0097145D01*
X0139674Y0097118D02*
X0139674Y0097118D01*
X0140845Y0095947D02*
X0131500Y0095947D01*
X0131500Y0094748D02*
X0142044Y0094748D01*
X0143242Y0093550D02*
X0131500Y0093550D01*
X0131500Y0092351D02*
X0144441Y0092351D01*
X0145639Y0091153D02*
X0131500Y0091153D01*
X0131500Y0089954D02*
X0146838Y0089954D01*
X0148036Y0088756D02*
X0131500Y0088756D01*
X0131500Y0087557D02*
X0149235Y0087557D01*
X0150433Y0086359D02*
X0130646Y0086359D01*
X0129447Y0085160D02*
X0151632Y0085160D01*
X0152830Y0083962D02*
X0128249Y0083962D01*
X0127050Y0082763D02*
X0154029Y0082763D01*
X0155227Y0081565D02*
X0125852Y0081565D01*
X0124073Y0085160D02*
X0115585Y0085160D01*
X0114388Y0086359D02*
X0125272Y0086359D01*
X0126470Y0087557D02*
X0073650Y0087557D01*
X0073650Y0086359D02*
X0098812Y0086359D01*
X0098938Y0086484D02*
X0097616Y0085162D01*
X0096900Y0083435D01*
X0096900Y0081565D01*
X0097616Y0079838D01*
X0098938Y0078516D01*
X0100665Y0077800D01*
X0102535Y0077800D01*
X0104262Y0078516D01*
X0105584Y0079838D01*
X0106300Y0081565D01*
X0106300Y0083435D01*
X0105584Y0085162D01*
X0104262Y0086484D01*
X0102535Y0087200D01*
X0100665Y0087200D01*
X0098938Y0086484D01*
X0097615Y0085160D02*
X0073650Y0085160D01*
X0073650Y0083962D02*
X0097118Y0083962D01*
X0096900Y0082763D02*
X0073650Y0082763D01*
X0073650Y0081565D02*
X0096900Y0081565D01*
X0097397Y0080366D02*
X0079345Y0080366D01*
X0080544Y0079168D02*
X0098286Y0079168D01*
X0100257Y0077969D02*
X0081742Y0077969D01*
X0079115Y0074373D02*
X0034337Y0074373D01*
X0035639Y0075572D02*
X0065098Y0075572D01*
X0064550Y0076770D02*
X0036339Y0076770D01*
X0036650Y0077969D02*
X0064550Y0077969D01*
X0064550Y0079168D02*
X0036688Y0079168D01*
X0036418Y0080366D02*
X0064550Y0080366D01*
X0064550Y0081565D02*
X0035815Y0081565D01*
X0034669Y0082763D02*
X0064550Y0082763D01*
X0064550Y0087557D02*
X0039654Y0087557D01*
X0038456Y0088756D02*
X0064550Y0088756D01*
X0064550Y0093550D02*
X0051162Y0093550D01*
X0049963Y0094748D02*
X0066900Y0094748D01*
X0066900Y0095947D02*
X0048765Y0095947D01*
X0047566Y0097145D02*
X0066900Y0097145D01*
X0066900Y0098344D02*
X0046368Y0098344D01*
X0046300Y0099542D02*
X0066900Y0099542D01*
X0066900Y0100741D02*
X0046300Y0100741D01*
X0046300Y0101939D02*
X0066900Y0101939D01*
X0066900Y0103138D02*
X0064167Y0103138D01*
X0063630Y0102600D02*
X0066500Y0105470D01*
X0066500Y0109530D01*
X0063630Y0112400D01*
X0059570Y0112400D01*
X0056700Y0109530D01*
X0056700Y0105470D01*
X0059570Y0102600D01*
X0063630Y0102600D01*
X0065366Y0104336D02*
X0066900Y0104336D01*
X0066900Y0105535D02*
X0066500Y0105535D01*
X0066500Y0106733D02*
X0066900Y0106733D01*
X0066900Y0107932D02*
X0066500Y0107932D01*
X0066500Y0109130D02*
X0066900Y0109130D01*
X0066900Y0110329D02*
X0065701Y0110329D01*
X0064502Y0111527D02*
X0066900Y0111527D01*
X0066900Y0112726D02*
X0063755Y0112726D01*
X0063630Y0112600D02*
X0066500Y0115470D01*
X0066500Y0119530D01*
X0063630Y0122400D01*
X0059570Y0122400D01*
X0056700Y0119530D01*
X0056700Y0115470D01*
X0059570Y0112600D01*
X0063630Y0112600D01*
X0064954Y0113924D02*
X0066900Y0113924D01*
X0066900Y0115123D02*
X0066152Y0115123D01*
X0066500Y0116321D02*
X0066900Y0116321D01*
X0066900Y0117520D02*
X0066500Y0117520D01*
X0066500Y0118718D02*
X0066900Y0118718D01*
X0066900Y0119917D02*
X0066113Y0119917D01*
X0066900Y0121115D02*
X0064914Y0121115D01*
X0063716Y0122314D02*
X0066900Y0122314D01*
X0066900Y0123512D02*
X0064542Y0123512D01*
X0065741Y0124711D02*
X0066278Y0124711D01*
X0070103Y0127108D02*
X0074305Y0127108D01*
X0073107Y0128306D02*
X0068905Y0128306D01*
X0067706Y0129505D02*
X0071908Y0129505D01*
X0070709Y0130703D02*
X0065326Y0130703D01*
X0064128Y0131902D02*
X0069511Y0131902D01*
X0068312Y0133101D02*
X0064130Y0133101D01*
X0063630Y0132600D02*
X0066221Y0135192D01*
X0080754Y0120659D01*
X0079006Y0120659D01*
X0078504Y0120559D01*
X0078031Y0120363D01*
X0077605Y0120079D01*
X0077243Y0119716D01*
X0076958Y0119291D01*
X0076762Y0118817D01*
X0076662Y0118315D01*
X0076662Y0116037D01*
X0081000Y0116037D01*
X0081000Y0114963D01*
X0076662Y0114963D01*
X0076662Y0112685D01*
X0076762Y0112183D01*
X0076958Y0111709D01*
X0077243Y0111284D01*
X0077276Y0111250D01*
X0077243Y0111216D01*
X0076958Y0110791D01*
X0076762Y0110317D01*
X0076662Y0109815D01*
X0076662Y0107537D01*
X0081000Y0107537D01*
X0081000Y0106463D01*
X0082074Y0106463D01*
X0082074Y0101841D01*
X0084068Y0101841D01*
X0084570Y0101941D01*
X0085043Y0102137D01*
X0085469Y0102421D01*
X0085831Y0102784D01*
X0086116Y0103209D01*
X0086312Y0103683D01*
X0086412Y0104185D01*
X0086412Y0106463D01*
X0082074Y0106463D01*
X0082074Y0107537D01*
X0086412Y0107537D01*
X0086412Y0109815D01*
X0086312Y0110317D01*
X0086116Y0110791D01*
X0085831Y0111216D01*
X0085798Y0111250D01*
X0085831Y0111284D01*
X0086116Y0111709D01*
X0086312Y0112183D01*
X0086412Y0112685D01*
X0086412Y0114963D01*
X0082074Y0114963D01*
X0082074Y0112159D01*
X0082074Y0107537D01*
X0081000Y0107537D01*
X0081000Y0114963D01*
X0082074Y0114963D01*
X0082074Y0116037D01*
X0085376Y0116037D01*
X0097216Y0104197D01*
X0096900Y0103435D01*
X0096900Y0101565D01*
X0097616Y0099838D01*
X0098938Y0098516D01*
X0100665Y0097800D01*
X0102535Y0097800D01*
X0104262Y0098516D01*
X0105584Y0099838D01*
X0106300Y0101565D01*
X0106300Y0103435D01*
X0105584Y0105162D01*
X0104262Y0106484D01*
X0102535Y0107200D01*
X0100665Y0107200D01*
X0099903Y0106884D01*
X0067387Y0139400D01*
X0066500Y0139400D01*
X0066500Y0139530D01*
X0063630Y0142400D01*
X0059570Y0142400D01*
X0056700Y0139530D01*
X0056700Y0135470D01*
X0059570Y0132600D01*
X0063630Y0132600D01*
X0065329Y0134299D02*
X0067114Y0134299D01*
X0070091Y0136696D02*
X0074717Y0136696D01*
X0075915Y0135498D02*
X0071289Y0135498D01*
X0072488Y0134299D02*
X0077114Y0134299D01*
X0078312Y0133101D02*
X0073686Y0133101D01*
X0074885Y0131902D02*
X0079511Y0131902D01*
X0080709Y0130703D02*
X0076083Y0130703D01*
X0077282Y0129505D02*
X0081908Y0129505D01*
X0083107Y0128306D02*
X0078481Y0128306D01*
X0079679Y0127108D02*
X0084305Y0127108D01*
X0085504Y0125909D02*
X0080878Y0125909D01*
X0082076Y0124711D02*
X0086702Y0124711D01*
X0087901Y0123512D02*
X0083275Y0123512D01*
X0084473Y0122314D02*
X0089099Y0122314D01*
X0090298Y0121115D02*
X0085672Y0121115D01*
X0086870Y0119917D02*
X0091496Y0119917D01*
X0092695Y0118718D02*
X0088069Y0118718D01*
X0089267Y0117520D02*
X0093893Y0117520D01*
X0095092Y0116321D02*
X0090466Y0116321D01*
X0091664Y0115123D02*
X0096290Y0115123D01*
X0097216Y0114197D02*
X0096900Y0113435D01*
X0096900Y0111565D01*
X0097616Y0109838D01*
X0098938Y0108516D01*
X0100665Y0107800D01*
X0102535Y0107800D01*
X0104262Y0108516D01*
X0105584Y0109838D01*
X0106300Y0111565D01*
X0106300Y0113435D01*
X0105584Y0115162D01*
X0104262Y0116484D01*
X0102535Y0117200D01*
X0100665Y0117200D01*
X0099903Y0116884D01*
X0067387Y0149400D01*
X0066500Y0149400D01*
X0066500Y0149530D01*
X0063630Y0152400D01*
X0059570Y0152400D01*
X0056700Y0149530D01*
X0056700Y0145470D01*
X0059570Y0142600D01*
X0063630Y0142600D01*
X0066221Y0145192D01*
X0097216Y0114197D01*
X0097103Y0113924D02*
X0092863Y0113924D01*
X0094061Y0112726D02*
X0096900Y0112726D01*
X0096916Y0111527D02*
X0095260Y0111527D01*
X0096458Y0110329D02*
X0097412Y0110329D01*
X0097657Y0109130D02*
X0098323Y0109130D01*
X0098855Y0107932D02*
X0100347Y0107932D01*
X0102853Y0107932D02*
X0110347Y0107932D01*
X0110665Y0107200D02*
X0108938Y0106484D01*
X0107616Y0105162D01*
X0106900Y0103435D01*
X0106900Y0101565D01*
X0107616Y0099838D01*
X0108938Y0098516D01*
X0110665Y0097800D01*
X0112535Y0097800D01*
X0114262Y0098516D01*
X0115584Y0099838D01*
X0116300Y0101565D01*
X0116300Y0103435D01*
X0115584Y0105162D01*
X0114262Y0106484D01*
X0112535Y0107200D01*
X0110665Y0107200D01*
X0109538Y0106733D02*
X0103662Y0106733D01*
X0105212Y0105535D02*
X0107988Y0105535D01*
X0107273Y0104336D02*
X0105927Y0104336D01*
X0106300Y0103138D02*
X0106900Y0103138D01*
X0106900Y0101939D02*
X0106300Y0101939D01*
X0105959Y0100741D02*
X0107241Y0100741D01*
X0107911Y0099542D02*
X0105289Y0099542D01*
X0103847Y0098344D02*
X0109353Y0098344D01*
X0110533Y0097145D02*
X0102667Y0097145D01*
X0102535Y0097200D02*
X0100665Y0097200D01*
X0098938Y0096484D01*
X0097616Y0095162D01*
X0096900Y0093435D01*
X0096900Y0091565D01*
X0097616Y0089838D01*
X0098938Y0088516D01*
X0100665Y0087800D01*
X0102535Y0087800D01*
X0104262Y0088516D01*
X0105584Y0089838D01*
X0106300Y0091565D01*
X0106300Y0093435D01*
X0105584Y0095162D01*
X0104262Y0096484D01*
X0102535Y0097200D01*
X0100533Y0097145D02*
X0071300Y0097145D01*
X0071300Y0095947D02*
X0098400Y0095947D01*
X0097444Y0094748D02*
X0071300Y0094748D01*
X0073650Y0093550D02*
X0096948Y0093550D01*
X0096900Y0092351D02*
X0073650Y0092351D01*
X0073650Y0091153D02*
X0097071Y0091153D01*
X0097567Y0089954D02*
X0073650Y0089954D01*
X0073650Y0088756D02*
X0098698Y0088756D01*
X0104388Y0086359D02*
X0108812Y0086359D01*
X0107615Y0085160D02*
X0105585Y0085160D01*
X0106082Y0083962D02*
X0107118Y0083962D01*
X0106900Y0082763D02*
X0106300Y0082763D01*
X0106300Y0081565D02*
X0106900Y0081565D01*
X0107397Y0080366D02*
X0105803Y0080366D01*
X0104914Y0079168D02*
X0108286Y0079168D01*
X0110257Y0077969D02*
X0102943Y0077969D01*
X0098955Y0071976D02*
X0089245Y0071976D01*
X0090711Y0070778D02*
X0097489Y0070778D01*
X0097794Y0071306D02*
X0097794Y0071306D01*
X0097794Y0071306D01*
X0112943Y0077969D02*
X0152958Y0077969D01*
X0154156Y0079168D02*
X0114914Y0079168D01*
X0115803Y0080366D02*
X0155355Y0080366D01*
X0157982Y0076770D02*
X0177521Y0076770D01*
X0176323Y0077969D02*
X0159180Y0077969D01*
X0160379Y0079168D02*
X0175124Y0079168D01*
X0179947Y0083962D02*
X0186544Y0083962D01*
X0185816Y0075572D02*
X0156783Y0075572D01*
X0162794Y0071306D02*
X0162794Y0071306D01*
X0162794Y0071306D01*
X0162489Y0070778D02*
X0145711Y0070778D01*
X0144245Y0071976D02*
X0163955Y0071976D01*
X0168177Y0087557D02*
X0158851Y0087557D01*
X0157653Y0088756D02*
X0195200Y0088756D01*
X0195200Y0089954D02*
X0156454Y0089954D01*
X0145668Y0100741D02*
X0185554Y0100741D01*
X0187294Y0101939D02*
X0145000Y0101939D01*
X0145000Y0103138D02*
X0149033Y0103138D01*
X0147834Y0104336D02*
X0145000Y0104336D01*
X0145000Y0105535D02*
X0146700Y0105535D01*
X0146700Y0106733D02*
X0145000Y0106733D01*
X0145000Y0107932D02*
X0146700Y0107932D01*
X0146700Y0109130D02*
X0145000Y0109130D01*
X0145000Y0110329D02*
X0147499Y0110329D01*
X0148698Y0111527D02*
X0145000Y0111527D01*
X0127700Y0111527D02*
X0116284Y0111527D01*
X0116300Y0112726D02*
X0127700Y0112726D01*
X0127700Y0110329D02*
X0115788Y0110329D01*
X0114877Y0109130D02*
X0127700Y0109130D01*
X0127700Y0107932D02*
X0112853Y0107932D01*
X0113662Y0106733D02*
X0127700Y0106733D01*
X0127700Y0105535D02*
X0115212Y0105535D01*
X0115927Y0104336D02*
X0127700Y0104336D01*
X0127700Y0103138D02*
X0116300Y0103138D01*
X0116300Y0101939D02*
X0127700Y0101939D01*
X0127700Y0100741D02*
X0115959Y0100741D01*
X0115289Y0099542D02*
X0127700Y0099542D01*
X0127700Y0098344D02*
X0113847Y0098344D01*
X0112667Y0097145D02*
X0127700Y0097145D01*
X0127700Y0095947D02*
X0114800Y0095947D01*
X0114262Y0096484D02*
X0112535Y0097200D01*
X0110665Y0097200D01*
X0108938Y0096484D01*
X0107616Y0095162D01*
X0106900Y0093435D01*
X0106900Y0091565D01*
X0107616Y0089838D01*
X0108938Y0088516D01*
X0110665Y0087800D01*
X0112535Y0087800D01*
X0114262Y0088516D01*
X0115584Y0089838D01*
X0116300Y0091565D01*
X0116300Y0093435D01*
X0115584Y0095162D01*
X0114262Y0096484D01*
X0115756Y0094748D02*
X0127700Y0094748D01*
X0127700Y0093550D02*
X0116252Y0093550D01*
X0116300Y0092351D02*
X0127700Y0092351D01*
X0127700Y0091153D02*
X0116129Y0091153D01*
X0115633Y0089954D02*
X0127700Y0089954D01*
X0127669Y0088756D02*
X0114502Y0088756D01*
X0108698Y0088756D02*
X0104502Y0088756D01*
X0105633Y0089954D02*
X0107567Y0089954D01*
X0107071Y0091153D02*
X0106129Y0091153D01*
X0106300Y0092351D02*
X0106900Y0092351D01*
X0106948Y0093550D02*
X0106252Y0093550D01*
X0105756Y0094748D02*
X0107444Y0094748D01*
X0108400Y0095947D02*
X0104800Y0095947D01*
X0099353Y0098344D02*
X0071300Y0098344D01*
X0071300Y0099542D02*
X0097911Y0099542D01*
X0097241Y0100741D02*
X0071300Y0100741D01*
X0071300Y0101939D02*
X0078512Y0101939D01*
X0078504Y0101941D02*
X0079006Y0101841D01*
X0081000Y0101841D01*
X0081000Y0106463D01*
X0076662Y0106463D01*
X0076662Y0104185D01*
X0076762Y0103683D01*
X0076958Y0103209D01*
X0077243Y0102784D01*
X0077605Y0102421D01*
X0078031Y0102137D01*
X0078504Y0101941D01*
X0077006Y0103138D02*
X0075614Y0103138D01*
X0076338Y0104336D02*
X0076662Y0104336D01*
X0076662Y0105535D02*
X0076338Y0105535D01*
X0076338Y0106733D02*
X0081000Y0106733D01*
X0082074Y0106733D02*
X0094680Y0106733D01*
X0095878Y0105535D02*
X0086412Y0105535D01*
X0086412Y0104336D02*
X0097077Y0104336D01*
X0096900Y0103138D02*
X0086068Y0103138D01*
X0084562Y0101939D02*
X0096900Y0101939D01*
X0093481Y0107932D02*
X0086412Y0107932D01*
X0086412Y0109130D02*
X0092283Y0109130D01*
X0091084Y0110329D02*
X0086307Y0110329D01*
X0085994Y0111527D02*
X0089886Y0111527D01*
X0088687Y0112726D02*
X0086412Y0112726D01*
X0086412Y0113924D02*
X0087489Y0113924D01*
X0086290Y0115123D02*
X0082074Y0115123D01*
X0081000Y0115123D02*
X0076338Y0115123D01*
X0076338Y0116321D02*
X0076662Y0116321D01*
X0076662Y0117520D02*
X0076338Y0117520D01*
X0076258Y0118718D02*
X0076742Y0118718D01*
X0077443Y0119917D02*
X0071300Y0119917D01*
X0071300Y0121115D02*
X0080298Y0121115D01*
X0079099Y0122314D02*
X0071300Y0122314D01*
X0071300Y0123512D02*
X0077901Y0123512D01*
X0076702Y0124711D02*
X0071300Y0124711D01*
X0071300Y0125909D02*
X0075504Y0125909D01*
X0082488Y0134299D02*
X0087114Y0134299D01*
X0088312Y0133101D02*
X0083686Y0133101D01*
X0084885Y0131902D02*
X0089511Y0131902D01*
X0090709Y0130703D02*
X0086083Y0130703D01*
X0087282Y0129505D02*
X0091908Y0129505D01*
X0093107Y0128306D02*
X0088481Y0128306D01*
X0089679Y0127108D02*
X0094305Y0127108D01*
X0095504Y0125909D02*
X0090878Y0125909D01*
X0092076Y0124711D02*
X0097429Y0124711D01*
X0096932Y0123512D02*
X0093275Y0123512D01*
X0094473Y0122314D02*
X0096900Y0122314D01*
X0097086Y0121115D02*
X0095672Y0121115D01*
X0096870Y0119917D02*
X0097583Y0119917D01*
X0098069Y0118718D02*
X0098735Y0118718D01*
X0099267Y0117520D02*
X0104700Y0117520D01*
X0104700Y0118718D02*
X0104465Y0118718D01*
X0104425Y0116321D02*
X0105092Y0116321D01*
X0105601Y0115123D02*
X0106290Y0115123D01*
X0106097Y0113924D02*
X0107103Y0113924D01*
X0106900Y0112726D02*
X0106300Y0112726D01*
X0106284Y0111527D02*
X0106916Y0111527D01*
X0107412Y0110329D02*
X0105788Y0110329D01*
X0104877Y0109130D02*
X0108323Y0109130D01*
X0114425Y0116321D02*
X0125050Y0116321D01*
X0125050Y0115123D02*
X0115601Y0115123D01*
X0116097Y0113924D02*
X0125050Y0113924D01*
X0125050Y0117520D02*
X0109267Y0117520D01*
X0108735Y0118718D02*
X0108500Y0118718D01*
X0114465Y0118718D02*
X0125050Y0118718D01*
X0125050Y0119917D02*
X0115617Y0119917D01*
X0110443Y0127108D02*
X0107179Y0127108D01*
X0105981Y0128306D02*
X0109442Y0128306D01*
X0107948Y0129505D02*
X0105252Y0129505D01*
X0105943Y0130703D02*
X0107257Y0130703D01*
X0106900Y0131902D02*
X0106300Y0131902D01*
X0106300Y0133101D02*
X0106900Y0133101D01*
X0107258Y0134299D02*
X0105942Y0134299D01*
X0105249Y0135498D02*
X0107951Y0135498D01*
X0109448Y0136696D02*
X0103752Y0136696D01*
X0102763Y0137895D02*
X0107901Y0137895D01*
X0106782Y0139093D02*
X0104840Y0139093D01*
X0105772Y0140292D02*
X0106114Y0140292D01*
X0106296Y0145086D02*
X0105616Y0145086D01*
X0104463Y0146284D02*
X0107057Y0146284D01*
X0108420Y0147483D02*
X0079304Y0147483D01*
X0078106Y0148681D02*
X0099445Y0148681D01*
X0099134Y0148810D02*
X0100734Y0148147D01*
X0102466Y0148147D01*
X0104066Y0148810D01*
X0105290Y0150034D01*
X0105953Y0151634D01*
X0105953Y0153366D01*
X0105290Y0154966D01*
X0104066Y0156190D01*
X0102466Y0156853D01*
X0100734Y0156853D01*
X0099134Y0156190D01*
X0097910Y0154966D01*
X0097247Y0153366D01*
X0097247Y0151634D01*
X0097910Y0150034D01*
X0099134Y0148810D01*
X0098065Y0149880D02*
X0076907Y0149880D01*
X0075709Y0151078D02*
X0097478Y0151078D01*
X0097247Y0152277D02*
X0074510Y0152277D01*
X0073312Y0153475D02*
X0097293Y0153475D01*
X0097789Y0154674D02*
X0072113Y0154674D01*
X0070915Y0155872D02*
X0098816Y0155872D01*
X0104383Y0155872D02*
X0108325Y0155872D01*
X0107413Y0154674D02*
X0105411Y0154674D01*
X0105907Y0153475D02*
X0106917Y0153475D01*
X0106900Y0152277D02*
X0105953Y0152277D01*
X0105722Y0151078D02*
X0107102Y0151078D01*
X0107598Y0149880D02*
X0105135Y0149880D01*
X0103755Y0148681D02*
X0108772Y0148681D01*
X0111984Y0142689D02*
X0122200Y0142689D01*
X0133628Y0131902D02*
X0148571Y0131902D01*
X0164128Y0131902D02*
X0183962Y0131902D01*
X0183267Y0130703D02*
X0165326Y0130703D01*
X0164130Y0133101D02*
X0185038Y0133101D01*
X0187004Y0134299D02*
X0165329Y0134299D01*
X0146710Y0165460D02*
X0081327Y0165460D01*
X0080128Y0166659D02*
X0146700Y0166659D01*
X0146700Y0167857D02*
X0078930Y0167857D01*
X0077731Y0169056D02*
X0146700Y0169056D01*
X0153681Y0172651D02*
X0154064Y0172651D01*
X0117148Y0157071D02*
X0112847Y0157071D01*
X0110353Y0157071D02*
X0069716Y0157071D01*
X0068518Y0158269D02*
X0072144Y0158269D01*
X0070945Y0159468D02*
X0066500Y0159468D01*
X0066739Y0154674D02*
X0065703Y0154674D01*
X0064505Y0153475D02*
X0067938Y0153475D01*
X0069136Y0152277D02*
X0063753Y0152277D01*
X0064951Y0151078D02*
X0070335Y0151078D01*
X0071533Y0149880D02*
X0066150Y0149880D01*
X0068106Y0148681D02*
X0072732Y0148681D01*
X0073930Y0147483D02*
X0069304Y0147483D01*
X0070503Y0146284D02*
X0075129Y0146284D01*
X0076327Y0145086D02*
X0071701Y0145086D01*
X0072900Y0143887D02*
X0077526Y0143887D01*
X0078724Y0142689D02*
X0074098Y0142689D01*
X0075297Y0141490D02*
X0079923Y0141490D01*
X0081121Y0140292D02*
X0076495Y0140292D01*
X0077694Y0139093D02*
X0082320Y0139093D01*
X0083518Y0137895D02*
X0078892Y0137895D01*
X0080091Y0136696D02*
X0084717Y0136696D01*
X0085915Y0135498D02*
X0081289Y0135498D01*
X0086495Y0140292D02*
X0097427Y0140292D01*
X0096931Y0141490D02*
X0085297Y0141490D01*
X0084098Y0142689D02*
X0096900Y0142689D01*
X0097087Y0143887D02*
X0082900Y0143887D01*
X0081701Y0145086D02*
X0097584Y0145086D01*
X0098737Y0146284D02*
X0080503Y0146284D01*
X0087694Y0139093D02*
X0098360Y0139093D01*
X0100437Y0137895D02*
X0088892Y0137895D01*
X0090091Y0136696D02*
X0099448Y0136696D01*
X0097951Y0135498D02*
X0091289Y0135498D01*
X0092488Y0134299D02*
X0097258Y0134299D01*
X0096900Y0133101D02*
X0093686Y0133101D01*
X0094885Y0131902D02*
X0096900Y0131902D01*
X0097257Y0130703D02*
X0096083Y0130703D01*
X0097282Y0129505D02*
X0097948Y0129505D01*
X0082074Y0113924D02*
X0081000Y0113924D01*
X0081000Y0112726D02*
X0082074Y0112726D01*
X0082074Y0111527D02*
X0081000Y0111527D01*
X0081000Y0110329D02*
X0082074Y0110329D01*
X0082074Y0109130D02*
X0081000Y0109130D01*
X0081000Y0107932D02*
X0082074Y0107932D01*
X0082074Y0105535D02*
X0081000Y0105535D01*
X0081000Y0104336D02*
X0082074Y0104336D01*
X0082074Y0103138D02*
X0081000Y0103138D01*
X0081000Y0101939D02*
X0082074Y0101939D01*
X0076662Y0107932D02*
X0076338Y0107932D01*
X0076338Y0109130D02*
X0076662Y0109130D01*
X0076767Y0110329D02*
X0076148Y0110329D01*
X0077080Y0111527D02*
X0071300Y0111527D01*
X0076338Y0112726D02*
X0076662Y0112726D01*
X0076662Y0113924D02*
X0076338Y0113924D01*
X0059445Y0112726D02*
X0053755Y0112726D01*
X0053630Y0112600D02*
X0056500Y0115470D01*
X0056500Y0119530D01*
X0053630Y0122400D01*
X0049570Y0122400D01*
X0046700Y0119530D01*
X0046700Y0115470D01*
X0049570Y0112600D01*
X0053630Y0112600D01*
X0053630Y0112400D02*
X0049570Y0112400D01*
X0046700Y0109530D01*
X0046700Y0105470D01*
X0049570Y0102600D01*
X0053630Y0102600D01*
X0056500Y0105470D01*
X0056500Y0109530D01*
X0053630Y0112400D01*
X0054502Y0111527D02*
X0058698Y0111527D01*
X0057499Y0110329D02*
X0055701Y0110329D01*
X0056500Y0109130D02*
X0056700Y0109130D01*
X0056700Y0107932D02*
X0056500Y0107932D01*
X0056500Y0106733D02*
X0056700Y0106733D01*
X0056700Y0105535D02*
X0056500Y0105535D01*
X0055366Y0104336D02*
X0057834Y0104336D01*
X0059033Y0103138D02*
X0054167Y0103138D01*
X0049033Y0103138D02*
X0046300Y0103138D01*
X0046300Y0104336D02*
X0047834Y0104336D01*
X0046700Y0105535D02*
X0046300Y0105535D01*
X0046300Y0106733D02*
X0046700Y0106733D01*
X0046700Y0107932D02*
X0046300Y0107932D01*
X0046300Y0109130D02*
X0046700Y0109130D01*
X0046300Y0110329D02*
X0047499Y0110329D01*
X0046300Y0111527D02*
X0048698Y0111527D01*
X0049445Y0112726D02*
X0046300Y0112726D01*
X0046300Y0113924D02*
X0048246Y0113924D01*
X0047048Y0115123D02*
X0046300Y0115123D01*
X0046300Y0116321D02*
X0046700Y0116321D01*
X0046700Y0117520D02*
X0046300Y0117520D01*
X0046300Y0118718D02*
X0046700Y0118718D01*
X0047087Y0119917D02*
X0046300Y0119917D01*
X0046096Y0121115D02*
X0048286Y0121115D01*
X0049484Y0122314D02*
X0044897Y0122314D01*
X0043699Y0123512D02*
X0048658Y0123512D01*
X0049570Y0122600D02*
X0046700Y0125470D01*
X0046700Y0129530D01*
X0049570Y0132400D01*
X0053630Y0132400D01*
X0056500Y0129530D01*
X0056500Y0125470D01*
X0053630Y0122600D01*
X0049570Y0122600D01*
X0047459Y0124711D02*
X0042500Y0124711D01*
X0041302Y0125909D02*
X0046700Y0125909D01*
X0046700Y0127108D02*
X0040594Y0127108D01*
X0046700Y0128306D02*
X0031680Y0128306D01*
X0028850Y0128306D02*
X0028476Y0128306D01*
X0028476Y0129257D02*
X0028249Y0129257D01*
X0027432Y0129128D01*
X0026645Y0128872D01*
X0025907Y0128497D01*
X0025238Y0128010D01*
X0024653Y0127425D01*
X0024166Y0126756D01*
X0023791Y0126018D01*
X0023535Y0125231D01*
X0023406Y0124414D01*
X0023406Y0124187D01*
X0028476Y0124187D01*
X0028476Y0129257D01*
X0028476Y0127108D02*
X0028850Y0127108D01*
X0028850Y0125909D02*
X0028476Y0125909D01*
X0028476Y0124711D02*
X0028850Y0124711D01*
X0028476Y0123813D02*
X0023406Y0123813D01*
X0023406Y0123586D01*
X0023535Y0122769D01*
X0023791Y0121982D01*
X0024166Y0121244D01*
X0024653Y0120575D01*
X0025238Y0119990D01*
X0025907Y0119503D01*
X0026645Y0119128D01*
X0027432Y0118872D01*
X0028249Y0118743D01*
X0028476Y0118743D01*
X0028476Y0123813D01*
X0028476Y0123512D02*
X0028850Y0123512D01*
X0028850Y0122314D02*
X0028476Y0122314D01*
X0028476Y0121115D02*
X0028850Y0121115D01*
X0028850Y0119917D02*
X0028476Y0119917D01*
X0025338Y0119917D02*
X0018800Y0119917D01*
X0018800Y0121115D02*
X0024260Y0121115D01*
X0023683Y0122314D02*
X0018800Y0122314D01*
X0018800Y0123512D02*
X0023417Y0123512D01*
X0023453Y0124711D02*
X0018800Y0124711D01*
X0018800Y0125909D02*
X0023755Y0125909D01*
X0024422Y0127108D02*
X0018800Y0127108D01*
X0018800Y0128306D02*
X0025646Y0128306D01*
X0018800Y0129505D02*
X0046700Y0129505D01*
X0047874Y0130703D02*
X0018800Y0130703D01*
X0018800Y0131902D02*
X0049072Y0131902D01*
X0049070Y0133101D02*
X0018800Y0133101D01*
X0018800Y0134299D02*
X0047871Y0134299D01*
X0054130Y0133101D02*
X0059070Y0133101D01*
X0059072Y0131902D02*
X0054128Y0131902D01*
X0055326Y0130703D02*
X0057874Y0130703D01*
X0056700Y0129505D02*
X0056500Y0129505D01*
X0056500Y0128306D02*
X0056700Y0128306D01*
X0056700Y0127108D02*
X0056500Y0127108D01*
X0056500Y0125909D02*
X0056700Y0125909D01*
X0057459Y0124711D02*
X0055741Y0124711D01*
X0054542Y0123512D02*
X0058658Y0123512D01*
X0059484Y0122314D02*
X0053716Y0122314D01*
X0054914Y0121115D02*
X0058286Y0121115D01*
X0057087Y0119917D02*
X0056113Y0119917D01*
X0056500Y0118718D02*
X0056700Y0118718D01*
X0056700Y0117520D02*
X0056500Y0117520D01*
X0056500Y0116321D02*
X0056700Y0116321D01*
X0057048Y0115123D02*
X0056152Y0115123D01*
X0054954Y0113924D02*
X0058246Y0113924D01*
X0041900Y0113924D02*
X0018800Y0113924D01*
X0018800Y0112726D02*
X0041900Y0112726D01*
X0041900Y0111527D02*
X0018800Y0111527D01*
X0018800Y0110329D02*
X0041900Y0110329D01*
X0041900Y0109130D02*
X0018800Y0109130D01*
X0018800Y0107932D02*
X0041900Y0107932D01*
X0041900Y0106733D02*
X0018800Y0106733D01*
X0018800Y0105535D02*
X0027844Y0105535D01*
X0027700Y0105391D02*
X0028520Y0106211D01*
X0034680Y0106211D01*
X0035500Y0105391D01*
X0035500Y0099231D01*
X0034680Y0098411D01*
X0028520Y0098411D01*
X0027700Y0099231D01*
X0027700Y0105391D01*
X0027700Y0104336D02*
X0018800Y0104336D01*
X0018800Y0103138D02*
X0027700Y0103138D01*
X0027700Y0101939D02*
X0018800Y0101939D01*
X0018800Y0100741D02*
X0027700Y0100741D01*
X0027700Y0099542D02*
X0018800Y0099542D01*
X0018868Y0098344D02*
X0041900Y0098344D01*
X0041900Y0099542D02*
X0035500Y0099542D01*
X0035500Y0100741D02*
X0041900Y0100741D01*
X0041900Y0101939D02*
X0035500Y0101939D01*
X0035500Y0103138D02*
X0041900Y0103138D01*
X0041900Y0104336D02*
X0035500Y0104336D01*
X0035356Y0105535D02*
X0041900Y0105535D01*
X0041900Y0097145D02*
X0034407Y0097145D01*
X0034906Y0096646D02*
X0033809Y0097743D01*
X0032376Y0098337D01*
X0030824Y0098337D01*
X0029391Y0097743D01*
X0028294Y0096646D01*
X0027700Y0095213D01*
X0027700Y0093661D01*
X0028294Y0092228D01*
X0029391Y0091131D01*
X0030824Y0090537D01*
X0032376Y0090537D01*
X0033809Y0091131D01*
X0034906Y0092228D01*
X0035500Y0093661D01*
X0035500Y0095213D01*
X0034906Y0096646D01*
X0035196Y0095947D02*
X0042542Y0095947D01*
X0043741Y0094748D02*
X0035500Y0094748D01*
X0035454Y0093550D02*
X0044939Y0093550D01*
X0046138Y0092351D02*
X0034957Y0092351D01*
X0033831Y0091153D02*
X0047336Y0091153D01*
X0048535Y0089954D02*
X0033604Y0089954D01*
X0029596Y0089954D02*
X0027257Y0089954D01*
X0026059Y0091153D02*
X0029369Y0091153D01*
X0028243Y0092351D02*
X0024860Y0092351D01*
X0023662Y0093550D02*
X0027746Y0093550D01*
X0027700Y0094748D02*
X0022463Y0094748D01*
X0021265Y0095947D02*
X0028004Y0095947D01*
X0028793Y0097145D02*
X0020066Y0097145D01*
X0017439Y0093550D02*
X0008750Y0093550D01*
X0008750Y0094748D02*
X0016241Y0094748D01*
X0015042Y0095947D02*
X0008750Y0095947D01*
X0008750Y0097145D02*
X0014400Y0097145D01*
X0014400Y0098344D02*
X0008750Y0098344D01*
X0008750Y0099542D02*
X0014400Y0099542D01*
X0014400Y0100741D02*
X0008750Y0100741D01*
X0008750Y0101939D02*
X0014400Y0101939D01*
X0014400Y0103138D02*
X0008750Y0103138D01*
X0008750Y0104336D02*
X0014400Y0104336D01*
X0014400Y0105535D02*
X0008750Y0105535D01*
X0008750Y0106733D02*
X0014400Y0106733D01*
X0014400Y0107932D02*
X0008750Y0107932D01*
X0008750Y0109130D02*
X0014400Y0109130D01*
X0014400Y0110329D02*
X0008750Y0110329D01*
X0008750Y0111527D02*
X0014400Y0111527D01*
X0014400Y0112726D02*
X0008750Y0112726D01*
X0008750Y0113924D02*
X0014400Y0113924D01*
X0014400Y0115123D02*
X0008750Y0115123D01*
X0008750Y0116321D02*
X0014400Y0116321D01*
X0014400Y0117520D02*
X0008750Y0117520D01*
X0008750Y0118718D02*
X0014400Y0118718D01*
X0014400Y0119917D02*
X0008750Y0119917D01*
X0008750Y0121115D02*
X0014400Y0121115D01*
X0014400Y0122314D02*
X0008750Y0122314D01*
X0008750Y0123512D02*
X0014400Y0123512D01*
X0014400Y0124711D02*
X0008750Y0124711D01*
X0008750Y0125909D02*
X0014400Y0125909D01*
X0014400Y0127108D02*
X0008750Y0127108D01*
X0008750Y0128306D02*
X0014400Y0128306D01*
X0014400Y0129505D02*
X0008750Y0129505D01*
X0008750Y0130703D02*
X0014400Y0130703D01*
X0014400Y0131902D02*
X0008750Y0131902D01*
X0008750Y0133101D02*
X0014400Y0133101D01*
X0014400Y0134299D02*
X0008750Y0134299D01*
X0008750Y0135498D02*
X0014400Y0135498D01*
X0014400Y0136696D02*
X0008750Y0136696D01*
X0008750Y0137895D02*
X0014400Y0137895D01*
X0014400Y0139093D02*
X0008750Y0139093D01*
X0008750Y0140292D02*
X0014400Y0140292D01*
X0014400Y0141490D02*
X0008750Y0141490D01*
X0018800Y0118718D02*
X0041900Y0118718D01*
X0041900Y0117520D02*
X0018800Y0117520D01*
X0018800Y0116321D02*
X0041900Y0116321D01*
X0041900Y0115123D02*
X0018800Y0115123D01*
X0031988Y0119917D02*
X0041072Y0119917D01*
X0055329Y0134299D02*
X0057871Y0134299D01*
X0056700Y0135498D02*
X0056500Y0135498D01*
X0056500Y0136696D02*
X0056700Y0136696D01*
X0056700Y0137895D02*
X0056500Y0137895D01*
X0056500Y0139093D02*
X0056700Y0139093D01*
X0057462Y0140292D02*
X0055738Y0140292D01*
X0054540Y0141490D02*
X0058660Y0141490D01*
X0059482Y0142689D02*
X0053718Y0142689D01*
X0054917Y0143887D02*
X0058283Y0143887D01*
X0057085Y0145086D02*
X0056115Y0145086D01*
X0056500Y0146284D02*
X0056700Y0146284D01*
X0056700Y0147483D02*
X0056500Y0147483D01*
X0056500Y0148681D02*
X0056700Y0148681D01*
X0057050Y0149880D02*
X0056150Y0149880D01*
X0054951Y0151078D02*
X0058249Y0151078D01*
X0059447Y0152277D02*
X0053753Y0152277D01*
X0054505Y0153475D02*
X0058695Y0153475D01*
X0057497Y0154674D02*
X0055703Y0154674D01*
X0056500Y0155872D02*
X0056700Y0155872D01*
X0056700Y0157071D02*
X0056500Y0157071D01*
X0056500Y0158269D02*
X0056700Y0158269D01*
X0056700Y0159468D02*
X0056500Y0159468D01*
X0054476Y0163063D02*
X0054093Y0163063D01*
X0055291Y0164262D02*
X0055675Y0164262D01*
X0056490Y0165460D02*
X0056710Y0165460D01*
X0056700Y0166659D02*
X0056500Y0166659D01*
X0056500Y0167857D02*
X0056700Y0167857D01*
X0056700Y0169056D02*
X0056500Y0169056D01*
X0055775Y0170254D02*
X0057425Y0170254D01*
X0065430Y0164400D02*
X0066500Y0165470D01*
X0066500Y0165600D01*
X0075813Y0165600D01*
X0080513Y0160900D01*
X0074887Y0160900D01*
X0071387Y0164400D01*
X0065430Y0164400D01*
X0066490Y0165460D02*
X0075953Y0165460D01*
X0077151Y0164262D02*
X0071525Y0164262D01*
X0072724Y0163063D02*
X0078350Y0163063D01*
X0079548Y0161865D02*
X0073922Y0161865D01*
X0066327Y0145086D02*
X0066115Y0145086D01*
X0064917Y0143887D02*
X0067526Y0143887D01*
X0068724Y0142689D02*
X0063718Y0142689D01*
X0064540Y0141490D02*
X0069923Y0141490D01*
X0071121Y0140292D02*
X0065738Y0140292D01*
X0067694Y0139093D02*
X0072320Y0139093D01*
X0073518Y0137895D02*
X0068892Y0137895D01*
X0047837Y0160666D02*
X0037453Y0160666D01*
X0038652Y0161865D02*
X0049035Y0161865D01*
X0049107Y0163063D02*
X0039850Y0163063D01*
X0041049Y0164262D02*
X0047909Y0164262D01*
X0046710Y0165460D02*
X0042247Y0165460D01*
X0043446Y0166659D02*
X0046700Y0166659D01*
X0046700Y0167857D02*
X0044644Y0167857D01*
X0045843Y0169056D02*
X0046700Y0169056D01*
X0047041Y0170254D02*
X0047425Y0170254D01*
X0018638Y0092351D02*
X0008750Y0092351D01*
X0008750Y0091153D02*
X0019836Y0091153D01*
X0021035Y0089954D02*
X0008750Y0089954D01*
X0008750Y0088756D02*
X0022233Y0088756D01*
X0023432Y0087557D02*
X0008750Y0087557D01*
X0008750Y0086359D02*
X0024630Y0086359D01*
X0025829Y0085160D02*
X0008750Y0085160D01*
X0008750Y0083962D02*
X0028686Y0083962D01*
X0028531Y0082763D02*
X0008750Y0082763D01*
X0008750Y0081565D02*
X0027385Y0081565D01*
X0026782Y0080366D02*
X0008750Y0080366D01*
X0008750Y0079168D02*
X0026512Y0079168D01*
X0026500Y0078502D02*
X0026500Y0078288D01*
X0026626Y0077495D01*
X0026874Y0076731D01*
X0027238Y0076016D01*
X0027710Y0075367D01*
X0028278Y0074799D01*
X0028927Y0074327D01*
X0029642Y0073963D01*
X0030406Y0073715D01*
X0031199Y0073589D01*
X0031413Y0073589D01*
X0031413Y0078501D01*
X0031413Y0078502D02*
X0026500Y0078502D01*
X0026550Y0077969D02*
X0008750Y0077969D01*
X0008750Y0076770D02*
X0026861Y0076770D01*
X0027561Y0075572D02*
X0008750Y0075572D01*
X0008750Y0074373D02*
X0028863Y0074373D01*
X0031413Y0074373D02*
X0031787Y0074373D01*
X0031787Y0075572D02*
X0031413Y0075572D01*
X0031413Y0076770D02*
X0031787Y0076770D01*
X0031787Y0077969D02*
X0031413Y0077969D01*
X0034514Y0083962D02*
X0037027Y0083962D01*
X0041745Y0071976D02*
X0056455Y0071976D01*
X0055294Y0071306D02*
X0055294Y0071306D01*
X0055294Y0071306D01*
X0054989Y0070778D02*
X0043211Y0070778D01*
X0073102Y0075572D02*
X0077917Y0075572D01*
X0076718Y0076770D02*
X0073650Y0076770D01*
X0080314Y0073175D02*
X0008750Y0073175D01*
X0008750Y0071976D02*
X0011455Y0071976D01*
X0010294Y0071306D02*
X0010294Y0071306D01*
X0009989Y0070778D02*
X0008750Y0070778D01*
X0203174Y0148681D02*
X0204450Y0148681D01*
X0204450Y0147483D02*
X0204246Y0147483D01*
D32*
X0186600Y0163000D03*
X0171600Y0168000D03*
X0179100Y0197500D03*
X0142100Y0189000D03*
X0118600Y0159500D03*
X0112100Y0168000D03*
X0129100Y0158000D03*
X0141600Y0134000D03*
X0123100Y0110000D03*
X0124600Y0098500D03*
X0135600Y0091500D03*
X0143100Y0084000D03*
X0091100Y0117500D03*
X0082100Y0127500D03*
X0091100Y0128000D03*
X0078600Y0140500D03*
X0072100Y0137000D03*
X0084600Y0152500D03*
X0075100Y0163500D03*
X0089600Y0167500D03*
X0077100Y0178500D03*
X0085600Y0186000D03*
X0077100Y0200500D03*
X0042600Y0186000D03*
X0036600Y0175000D03*
X0023600Y0196000D03*
X0011600Y0182500D03*
X0036100Y0146000D03*
X0044600Y0133500D03*
X0025100Y0107000D03*
X0016600Y0090500D03*
X0043100Y0091000D03*
X0056600Y0097500D03*
X0083600Y0089500D03*
X0012100Y0128500D03*
D33*
X0029600Y0140000D02*
X0039100Y0140000D01*
X0046600Y0147500D01*
X0051600Y0147500D01*
X0061600Y0147500D02*
X0066600Y0147500D01*
X0101600Y0112500D01*
X0106600Y0117500D02*
X0106600Y0125000D01*
X0104100Y0127500D01*
X0096600Y0127500D01*
X0066600Y0157500D01*
X0061600Y0157500D01*
X0056600Y0162500D02*
X0070600Y0162500D01*
X0074100Y0159000D01*
X0118100Y0159000D01*
X0118600Y0159500D01*
X0121600Y0162500D02*
X0124100Y0160000D01*
X0124100Y0130000D01*
X0126600Y0127500D01*
X0129600Y0127500D01*
X0129100Y0122500D02*
X0111600Y0122500D01*
X0106600Y0117500D02*
X0111600Y0112500D01*
X0101600Y0102500D02*
X0066600Y0137500D01*
X0061600Y0137500D01*
X0051600Y0157500D02*
X0056600Y0162500D01*
X0061600Y0167500D02*
X0076600Y0167500D01*
X0081600Y0162500D01*
X0121600Y0162500D01*
X0124100Y0172500D02*
X0129100Y0177500D01*
X0151600Y0177500D01*
X0155100Y0182500D02*
X0044100Y0182500D01*
X0036600Y0175000D01*
X0046600Y0172500D02*
X0034100Y0160000D01*
X0029625Y0160000D01*
X0021037Y0160000D01*
X0016600Y0160000D02*
X0013163Y0160000D01*
X0013163Y0150000D02*
X0016600Y0150000D01*
X0021037Y0150000D02*
X0029575Y0150000D01*
X0029625Y0160000D02*
X0026600Y0160000D01*
X0046600Y0172500D02*
X0124100Y0172500D01*
X0151600Y0167500D02*
X0156600Y0172500D01*
X0156600Y0181000D01*
X0155100Y0182500D01*
X0176600Y0170000D02*
X0186600Y0180000D01*
X0176600Y0170000D02*
X0176600Y0140000D01*
X0174100Y0137500D01*
X0161600Y0137500D01*
X0129600Y0116500D02*
X0129600Y0088000D01*
X0124100Y0082500D01*
X0111600Y0082500D01*
X0114100Y0058300D02*
X0114100Y0045618D01*
X0114076Y0045686D02*
X0113831Y0045958D01*
X0113575Y0046445D01*
X0113490Y0046801D01*
X0113116Y0047317D01*
X0112820Y0047881D01*
X0112538Y0048115D01*
X0112215Y0048561D01*
X0112080Y0048902D01*
X0111637Y0049359D01*
X0111264Y0049875D01*
X0110951Y0050067D01*
X0110569Y0050462D01*
X0110387Y0050781D01*
X0109883Y0051170D01*
X0109440Y0051628D01*
X0109103Y0051773D01*
X0108668Y0052110D01*
X0108443Y0052399D01*
X0107889Y0052713D01*
X0107385Y0053103D01*
X0107031Y0053199D01*
X0106553Y0053470D01*
X0106288Y0053724D01*
X0105695Y0053956D01*
X0105141Y0054270D01*
X0104777Y0054315D01*
X0104265Y0054516D01*
X0103967Y0054730D01*
X0103347Y0054875D01*
X0102754Y0055107D01*
X0102387Y0055100D01*
X0101637Y0055275D01*
X0101095Y0055500D01*
X0100678Y0055500D01*
X0100272Y0055595D01*
X0099692Y0055500D01*
X0099105Y0055500D01*
X0098720Y0055340D01*
X0098309Y0055273D01*
X0097810Y0054963D01*
X0097268Y0054739D01*
X0096973Y0054444D01*
X0096619Y0054224D01*
X0096276Y0053747D01*
X0095861Y0053332D01*
X0095702Y0052947D01*
X0095459Y0052609D01*
X0095325Y0052037D01*
X0095100Y0051495D01*
X0095100Y0051078D01*
X0095005Y0050672D01*
X0095100Y0050092D01*
X0095100Y0045816D01*
X0095084Y0045768D01*
X0094970Y0045778D01*
X0094677Y0045900D01*
X0093658Y0045900D01*
X0093100Y0045952D01*
X0093100Y0050411D01*
X0093100Y0045952D01*
X0093100Y0049500D02*
X0095100Y0049500D01*
X0093100Y0050411D02*
X0093132Y0051315D01*
X0093100Y0051402D01*
X0093100Y0051495D01*
X0092754Y0052331D01*
X0092437Y0053179D01*
X0092374Y0053247D01*
X0092339Y0053332D01*
X0091699Y0053972D01*
X0091082Y0054635D01*
X0090998Y0054673D01*
X0090932Y0054739D01*
X0090096Y0055085D01*
X0089273Y0055461D01*
X0089180Y0055465D01*
X0089095Y0055500D01*
X0088189Y0055500D01*
X0087285Y0055532D01*
X0087198Y0055500D01*
X0087105Y0055500D01*
X0086269Y0055154D01*
X0085051Y0054699D01*
X0084716Y0054667D01*
X0084127Y0054355D01*
X0083502Y0054122D01*
X0083256Y0053893D01*
X0082609Y0053550D01*
X0082281Y0053474D01*
X0081738Y0053087D01*
X0081149Y0052775D01*
X0080935Y0052516D01*
X0080339Y0052091D01*
X0080023Y0051974D01*
X0079535Y0051519D01*
X0078992Y0051132D01*
X0078814Y0050847D01*
X0078278Y0050349D01*
X0077981Y0050191D01*
X0077556Y0049677D01*
X0077068Y0049222D01*
X0076928Y0048917D01*
X0076462Y0048352D01*
X0076188Y0048157D01*
X0075835Y0047592D01*
X0075410Y0047078D01*
X0075311Y0046756D01*
X0074923Y0046136D01*
X0074677Y0045907D01*
X0074400Y0045300D01*
X0074046Y0044735D01*
X0073990Y0044403D01*
X0073686Y0043738D01*
X0073472Y0043478D01*
X0073276Y0042841D01*
X0072999Y0042234D01*
X0072987Y0041898D01*
X0072772Y0041198D01*
X0072594Y0040913D01*
X0072483Y0040256D01*
X0072288Y0039618D01*
X0072320Y0039283D01*
X0072198Y0038562D01*
X0072059Y0038256D01*
X0072035Y0037589D01*
X0071924Y0036932D01*
X0071999Y0036604D01*
X0071973Y0035872D01*
X0071875Y0035551D01*
X0071938Y0034887D01*
X0071914Y0034221D01*
X0072032Y0033906D01*
X0072101Y0033177D01*
X0072045Y0032845D01*
X0072195Y0032195D01*
X0072258Y0031532D01*
X0072416Y0031234D01*
X0072600Y0030433D01*
X0072600Y0030005D01*
X0072821Y0029472D01*
X0072950Y0028910D01*
X0073149Y0028632D01*
X0073247Y0028039D01*
X0073425Y0027754D01*
X0073652Y0027010D01*
X0073664Y0026674D01*
X0073940Y0026067D01*
X0074134Y0025429D01*
X0074348Y0025170D01*
X0074670Y0024462D01*
X0074725Y0024130D01*
X0075078Y0023564D01*
X0075354Y0022957D01*
X0075600Y0022728D01*
X0076011Y0022068D01*
X0076110Y0021747D01*
X0076533Y0021232D01*
X0076886Y0020666D01*
X0077160Y0020471D01*
X0077654Y0019870D01*
X0077793Y0019564D01*
X0078281Y0019109D01*
X0078704Y0018594D01*
X0079001Y0018436D01*
X0079569Y0017906D01*
X0079748Y0017620D01*
X0080290Y0017233D01*
X0080777Y0016778D01*
X0081092Y0016660D01*
X0081725Y0016208D01*
X0081939Y0015948D01*
X0082527Y0015635D01*
X0083070Y0015247D01*
X0083398Y0015171D01*
X0084084Y0014806D01*
X0084329Y0014576D01*
X0084954Y0014342D01*
X0085542Y0014029D01*
X0085877Y0013996D01*
X0086605Y0013723D01*
X0086879Y0013528D01*
X0087529Y0013377D01*
X0088153Y0013144D01*
X0088489Y0013155D01*
X0089246Y0012980D01*
X0089543Y0012822D01*
X0090207Y0012757D01*
X0090857Y0012607D01*
X0091188Y0012662D01*
X0091967Y0012586D01*
X0092286Y0012467D01*
X0092948Y0012491D01*
X0093607Y0012427D01*
X0093933Y0012527D01*
X0094846Y0012560D01*
X0095173Y0012484D01*
X0095831Y0012595D01*
X0096497Y0012619D01*
X0096803Y0012759D01*
X0097699Y0012910D01*
X0098034Y0012878D01*
X0098671Y0013074D01*
X0099329Y0013185D01*
X0099614Y0013363D01*
X0100482Y0013630D01*
X0100818Y0013642D01*
X0101424Y0013919D01*
X0102062Y0014115D01*
X0102321Y0014329D01*
X0103147Y0014706D01*
X0103479Y0014762D01*
X0104044Y0015116D01*
X0104650Y0015394D01*
X0104879Y0015640D01*
X0105649Y0016122D01*
X0105970Y0016221D01*
X0106484Y0016645D01*
X0107050Y0016999D01*
X0107244Y0017273D01*
X0107945Y0017852D01*
X0108250Y0017992D01*
X0108705Y0018480D01*
X0109219Y0018905D01*
X0109376Y0019202D01*
X0109995Y0019867D01*
X0110280Y0020045D01*
X0110667Y0020589D01*
X0111121Y0021077D01*
X0111238Y0021392D01*
X0111765Y0022132D01*
X0112024Y0022346D01*
X0112336Y0022935D01*
X0112723Y0023478D01*
X0112798Y0023806D01*
X0113224Y0024609D01*
X0113453Y0024855D01*
X0113686Y0025480D01*
X0113998Y0026069D01*
X0114030Y0026404D01*
X0114347Y0027255D01*
X0114542Y0027529D01*
X0114691Y0028178D01*
X0114924Y0028803D01*
X0114912Y0029139D01*
X0115115Y0030025D01*
X0115273Y0030322D01*
X0115336Y0030986D01*
X0115485Y0031635D01*
X0115429Y0031967D01*
X0115506Y0032780D01*
X0115600Y0033005D01*
X0115600Y0033763D01*
X0115672Y0034517D01*
X0115600Y0034750D01*
X0115600Y0035782D01*
X0115684Y0036738D01*
X0115805Y0037084D01*
X0115770Y0037720D01*
X0115825Y0038354D01*
X0115715Y0038704D01*
X0115684Y0039253D01*
X0115755Y0039613D01*
X0115630Y0040237D01*
X0115594Y0040873D01*
X0115435Y0041204D01*
X0115327Y0041743D01*
X0115346Y0042109D01*
X0115133Y0042709D01*
X0115007Y0043334D01*
X0114803Y0043638D01*
X0114619Y0044157D01*
X0114586Y0044522D01*
X0114289Y0045085D01*
X0114076Y0045686D01*
X0115207Y0042500D02*
X0144764Y0042500D01*
X0144643Y0042208D02*
X0144358Y0041143D01*
X0144214Y0040051D01*
X0144214Y0040000D01*
X0152120Y0040000D01*
X0152120Y0047905D01*
X0152069Y0047905D01*
X0150976Y0047762D01*
X0149912Y0047477D01*
X0148894Y0047055D01*
X0147940Y0046504D01*
X0147066Y0045833D01*
X0146287Y0045054D01*
X0145616Y0044180D01*
X0145065Y0043226D01*
X0144643Y0042208D01*
X0144214Y0039000D02*
X0144214Y0038949D01*
X0144358Y0037857D01*
X0144643Y0036792D01*
X0145065Y0035774D01*
X0145616Y0034820D01*
X0146287Y0033946D01*
X0147066Y0033167D01*
X0147940Y0032496D01*
X0148894Y0031945D01*
X0149912Y0031523D01*
X0150976Y0031238D01*
X0152069Y0031094D01*
X0152120Y0031094D01*
X0152120Y0039000D01*
X0153120Y0039000D01*
X0153120Y0040000D01*
X0161025Y0040000D01*
X0161025Y0040051D01*
X0160881Y0041143D01*
X0160596Y0042208D01*
X0160175Y0043226D01*
X0159624Y0044180D01*
X0158953Y0045054D01*
X0158174Y0045833D01*
X0157300Y0046504D01*
X0156345Y0047055D01*
X0155327Y0047477D01*
X0154263Y0047762D01*
X0153171Y0047905D01*
X0153120Y0047905D01*
X0153120Y0040000D01*
X0152120Y0040000D01*
X0152120Y0039000D01*
X0144214Y0039000D01*
X0145223Y0035500D02*
X0115600Y0035500D01*
X0114811Y0028500D02*
X0204550Y0028500D01*
X0204550Y0021500D02*
X0111315Y0021500D01*
X0114100Y0026592D02*
X0114100Y0012050D01*
X0107100Y0012050D02*
X0107100Y0017070D01*
X0102695Y0014500D02*
X0204501Y0014500D01*
X0204493Y0014424D02*
X0204053Y0013361D01*
X0203239Y0012547D01*
X0202176Y0012107D01*
X0201600Y0012050D01*
X0014415Y0012050D01*
X0013369Y0012401D01*
X0011178Y0013771D01*
X0009519Y0015751D01*
X0008553Y0018147D01*
X0008374Y0020725D01*
X0008505Y0021506D01*
X0008650Y0021651D01*
X0008650Y0022248D01*
X0008795Y0022827D01*
X0008650Y0023068D01*
X0008650Y0067500D01*
X0009944Y0067500D01*
X0010367Y0066767D01*
X0010367Y0066767D01*
X0010367Y0066767D01*
X0011707Y0065994D01*
X0011751Y0065950D01*
X0017688Y0065950D01*
X0016938Y0065200D01*
X0015595Y0062874D01*
X0014900Y0060280D01*
X0014900Y0057594D01*
X0015595Y0055000D01*
X0016938Y0052674D01*
X0018837Y0050775D01*
X0021163Y0049432D01*
X0023757Y0048737D01*
X0026443Y0048737D01*
X0029037Y0049432D01*
X0031363Y0050775D01*
X0033262Y0052674D01*
X0034605Y0055000D01*
X0035300Y0057594D01*
X0035300Y0057760D01*
X0035840Y0058300D01*
X0170860Y0058300D01*
X0180900Y0048260D01*
X0180900Y0045992D01*
X0180792Y0045948D01*
X0178652Y0043808D01*
X0177494Y0041013D01*
X0177494Y0037987D01*
X0178652Y0035192D01*
X0180792Y0033052D01*
X0183587Y0031894D01*
X0186613Y0031894D01*
X0189408Y0033052D01*
X0191548Y0035192D01*
X0192705Y0037987D01*
X0192705Y0041013D01*
X0191548Y0043808D01*
X0189408Y0045948D01*
X0189300Y0045992D01*
X0189300Y0048260D01*
X0202661Y0061621D01*
X0203300Y0063165D01*
X0203300Y0067500D01*
X0204550Y0067500D01*
X0204550Y0015000D01*
X0204493Y0014424D01*
X0198100Y0012050D02*
X0198100Y0057060D01*
X0197540Y0056500D02*
X0204550Y0056500D01*
X0204550Y0049500D02*
X0190540Y0049500D01*
X0191100Y0050060D02*
X0191100Y0044256D01*
X0192089Y0042500D02*
X0204550Y0042500D01*
X0204550Y0035500D02*
X0191675Y0035500D01*
X0191100Y0034744D02*
X0191100Y0012050D01*
X0184100Y0012050D02*
X0184100Y0031894D01*
X0178525Y0035500D02*
X0160016Y0035500D01*
X0160175Y0035774D02*
X0160596Y0036792D01*
X0160881Y0037857D01*
X0161025Y0038949D01*
X0161025Y0039000D01*
X0153120Y0039000D01*
X0153120Y0031094D01*
X0153171Y0031094D01*
X0154263Y0031238D01*
X0155327Y0031523D01*
X0156345Y0031945D01*
X0157300Y0032496D01*
X0158174Y0033167D01*
X0158953Y0033946D01*
X0159624Y0034820D01*
X0160175Y0035774D01*
X0156100Y0039000D02*
X0156100Y0040000D01*
X0153120Y0042500D02*
X0152120Y0042500D01*
X0149100Y0040000D02*
X0149100Y0039000D01*
X0152120Y0035500D02*
X0153120Y0035500D01*
X0156100Y0031844D02*
X0156100Y0012050D01*
X0163100Y0012050D02*
X0163100Y0058300D01*
X0156100Y0058300D02*
X0156100Y0047156D01*
X0160475Y0042500D02*
X0178111Y0042500D01*
X0179660Y0049500D02*
X0111535Y0049500D01*
X0107100Y0053180D02*
X0107100Y0058300D01*
X0100100Y0058300D02*
X0100100Y0055567D01*
X0093100Y0058300D02*
X0093100Y0051402D01*
X0086100Y0055091D02*
X0086100Y0058300D01*
X0079100Y0058300D02*
X0079100Y0051209D01*
X0077366Y0049500D02*
X0054345Y0049500D01*
X0054466Y0048971D02*
X0054191Y0050176D01*
X0053783Y0051342D01*
X0053247Y0052455D01*
X0052589Y0053501D01*
X0051819Y0054467D01*
X0050945Y0055341D01*
X0049979Y0056111D01*
X0048933Y0056769D01*
X0047820Y0057305D01*
X0046654Y0057713D01*
X0045449Y0057988D01*
X0044222Y0058126D01*
X0044104Y0058126D01*
X0044104Y0047626D01*
X0054604Y0047626D01*
X0054604Y0047744D01*
X0054466Y0048971D01*
X0054604Y0046626D02*
X0044104Y0046626D01*
X0044104Y0047626D01*
X0043104Y0047626D01*
X0043104Y0058126D01*
X0042986Y0058126D01*
X0041758Y0057988D01*
X0040554Y0057713D01*
X0039388Y0057305D01*
X0038275Y0056769D01*
X0037229Y0056111D01*
X0036263Y0055341D01*
X0035389Y0054467D01*
X0034619Y0053501D01*
X0033961Y0052455D01*
X0033425Y0051342D01*
X0033017Y0050176D01*
X0032742Y0048971D01*
X0032604Y0047744D01*
X0032604Y0047626D01*
X0043104Y0047626D01*
X0043104Y0046626D01*
X0044104Y0046626D01*
X0044104Y0036126D01*
X0044222Y0036126D01*
X0045449Y0036264D01*
X0046654Y0036539D01*
X0047820Y0036947D01*
X0048933Y0037483D01*
X0049979Y0038141D01*
X0050945Y0038911D01*
X0051819Y0039785D01*
X0052589Y0040751D01*
X0053247Y0041797D01*
X0053783Y0042910D01*
X0054191Y0044076D01*
X0054466Y0045280D01*
X0054604Y0046508D01*
X0054604Y0046626D01*
X0051100Y0046626D02*
X0051100Y0047626D01*
X0053585Y0042500D02*
X0073120Y0042500D01*
X0072100Y0038346D02*
X0072100Y0058300D01*
X0065100Y0058300D02*
X0065100Y0012050D01*
X0058100Y0012050D02*
X0058100Y0058300D01*
X0051100Y0058300D02*
X0051100Y0055186D01*
X0049361Y0056500D02*
X0172660Y0056500D01*
X0170100Y0058300D02*
X0170100Y0012050D01*
X0177100Y0012050D02*
X0177100Y0052060D01*
X0203300Y0063500D02*
X0204550Y0063500D01*
X0149100Y0058300D02*
X0149100Y0047140D01*
X0142100Y0058300D02*
X0142100Y0012050D01*
X0135100Y0012050D02*
X0135100Y0058300D01*
X0128100Y0058300D02*
X0128100Y0012050D01*
X0121100Y0012050D02*
X0121100Y0058300D01*
X0149100Y0031860D02*
X0149100Y0012050D01*
X0100100Y0012050D02*
X0100100Y0013512D01*
X0093100Y0012477D02*
X0093100Y0012050D01*
X0086100Y0012050D02*
X0086100Y0013913D01*
X0084533Y0014500D02*
X0010568Y0014500D01*
X0009100Y0016790D02*
X0009100Y0067500D01*
X0008650Y0063500D02*
X0015957Y0063500D01*
X0016100Y0063749D02*
X0016100Y0065950D01*
X0015193Y0056500D02*
X0008650Y0056500D01*
X0008650Y0049500D02*
X0021045Y0049500D01*
X0023100Y0048913D02*
X0023100Y0046141D01*
X0023255Y0046177D02*
X0022050Y0045902D01*
X0020884Y0045494D01*
X0019771Y0044958D01*
X0018725Y0044300D01*
X0017759Y0043530D01*
X0016885Y0042656D01*
X0016115Y0041690D01*
X0015457Y0040644D01*
X0014921Y0039531D01*
X0014513Y0038365D01*
X0014238Y0037160D01*
X0014100Y0035933D01*
X0014100Y0035815D01*
X0024600Y0035815D01*
X0024600Y0046315D01*
X0024482Y0046315D01*
X0023255Y0046177D01*
X0025600Y0046315D02*
X0025718Y0046315D01*
X0026945Y0046177D01*
X0028150Y0045902D01*
X0029316Y0045494D01*
X0030429Y0044958D01*
X0031475Y0044300D01*
X0032441Y0043530D01*
X0033315Y0042656D01*
X0033902Y0041921D01*
X0033425Y0042910D01*
X0033017Y0044076D01*
X0032742Y0045280D01*
X0032604Y0046508D01*
X0032604Y0046626D01*
X0043104Y0046626D01*
X0043104Y0036126D01*
X0042986Y0036126D01*
X0041758Y0036264D01*
X0040554Y0036539D01*
X0039388Y0036947D01*
X0038275Y0037483D01*
X0037229Y0038141D01*
X0036263Y0038911D01*
X0035389Y0039785D01*
X0034802Y0040520D01*
X0035279Y0039531D01*
X0035687Y0038365D01*
X0035962Y0037160D01*
X0036100Y0035933D01*
X0036100Y0035815D01*
X0025600Y0035815D01*
X0024600Y0035815D01*
X0024600Y0034815D01*
X0014100Y0034815D01*
X0014100Y0034697D01*
X0014238Y0033469D01*
X0014513Y0032265D01*
X0014921Y0031099D01*
X0015457Y0029986D01*
X0016115Y0028940D01*
X0016885Y0027974D01*
X0017759Y0027100D01*
X0018725Y0026330D01*
X0019771Y0025672D01*
X0020884Y0025136D01*
X0022050Y0024728D01*
X0023255Y0024453D01*
X0024482Y0024315D01*
X0024600Y0024315D01*
X0024600Y0034815D01*
X0025600Y0034815D01*
X0025600Y0035815D01*
X0025600Y0046315D01*
X0025600Y0042500D02*
X0024600Y0042500D01*
X0030100Y0045116D02*
X0030100Y0050046D01*
X0029155Y0049500D02*
X0032863Y0049500D01*
X0037100Y0047626D02*
X0037100Y0046626D01*
X0033623Y0042500D02*
X0033440Y0042500D01*
X0037100Y0038243D02*
X0037100Y0012050D01*
X0030100Y0012050D02*
X0030100Y0025514D01*
X0030429Y0025672D02*
X0031475Y0026330D01*
X0032441Y0027100D01*
X0033315Y0027974D01*
X0034085Y0028940D01*
X0034743Y0029986D01*
X0035279Y0031099D01*
X0035687Y0032265D01*
X0035962Y0033469D01*
X0036100Y0034697D01*
X0036100Y0034815D01*
X0025600Y0034815D01*
X0025600Y0024315D01*
X0025718Y0024315D01*
X0026945Y0024453D01*
X0028150Y0024728D01*
X0029316Y0025136D01*
X0030429Y0025672D01*
X0033735Y0028500D02*
X0073170Y0028500D01*
X0072100Y0032607D02*
X0072100Y0012050D01*
X0079100Y0012050D02*
X0079100Y0018344D01*
X0076313Y0021500D02*
X0008504Y0021500D01*
X0008650Y0028500D02*
X0016465Y0028500D01*
X0016100Y0028963D02*
X0016100Y0012050D01*
X0023100Y0012050D02*
X0023100Y0024489D01*
X0024600Y0028500D02*
X0025600Y0028500D01*
X0023100Y0034815D02*
X0023100Y0035815D01*
X0024600Y0035500D02*
X0008650Y0035500D01*
X0008650Y0042500D02*
X0016760Y0042500D01*
X0016100Y0041667D02*
X0016100Y0054125D01*
X0016100Y0035815D02*
X0016100Y0034815D01*
X0025600Y0035500D02*
X0071879Y0035500D01*
X0072100Y0033188D02*
X0072100Y0033171D01*
X0051100Y0039066D02*
X0051100Y0012050D01*
X0044100Y0012050D02*
X0044100Y0046626D01*
X0044100Y0047626D02*
X0044100Y0058300D01*
X0044104Y0056500D02*
X0043104Y0056500D01*
X0037847Y0056500D02*
X0035007Y0056500D01*
X0037100Y0056009D02*
X0037100Y0058300D01*
X0043104Y0049500D02*
X0044104Y0049500D01*
X0044104Y0042500D02*
X0043104Y0042500D01*
X0030100Y0035815D02*
X0030100Y0034815D01*
X0061600Y0187500D02*
X0061663Y0187563D01*
X0072600Y0187563D01*
D34*
X0141600Y0122500D02*
X0141600Y0100000D01*
X0158100Y0083500D01*
X0161600Y0083500D01*
X0171600Y0083500D01*
X0175600Y0083500D01*
X0179600Y0079500D01*
X0189100Y0079500D01*
X0151600Y0127500D02*
X0146600Y0127500D01*
X0141600Y0122500D01*
D35*
X0171600Y0096500D02*
X0171714Y0096614D01*
X0194100Y0096614D01*
X0194100Y0097500D01*
X0199100Y0092500D01*
X0199100Y0079500D01*
X0199100Y0064000D01*
X0185100Y0050000D01*
X0172600Y0062500D01*
X0034100Y0062500D01*
X0030537Y0058937D01*
X0025100Y0058937D01*
X0185100Y0050000D02*
X0185100Y0039500D01*
X0194100Y0097500D02*
X0194100Y0112205D01*
M02*
