G75*
%MOIN*%
%OFA0B0*%
%FSLAX25Y25*%
%IPPOS*%
%LPD*%
%AMOC8*
5,1,8,0,0,1.08239X$1,22.5*
%
%ADD10C,0.00100*%
%ADD11C,0.17500*%
%ADD12R,0.06000X0.06000*%
%ADD13C,0.06000*%
%ADD14C,0.09358*%
%ADD15R,0.05500X0.05500*%
%ADD16C,0.05500*%
%ADD17OC8,0.07500*%
%ADD18C,0.06406*%
%ADD19C,0.07100*%
%ADD20C,0.05600*%
%ADD21C,0.12311*%
%ADD22C,0.07900*%
%ADD23R,0.05815X0.05815*%
%ADD24C,0.05815*%
%ADD25C,0.07400*%
%ADD26C,0.05900*%
D10*
X0014100Y0010000D02*
X0201600Y0010000D01*
X0201740Y0010002D01*
X0201880Y0010008D01*
X0202020Y0010018D01*
X0202160Y0010031D01*
X0202299Y0010049D01*
X0202438Y0010071D01*
X0202575Y0010096D01*
X0202713Y0010125D01*
X0202849Y0010158D01*
X0202984Y0010195D01*
X0203118Y0010236D01*
X0203251Y0010281D01*
X0203383Y0010329D01*
X0203513Y0010381D01*
X0203642Y0010436D01*
X0203769Y0010495D01*
X0203895Y0010558D01*
X0204019Y0010624D01*
X0204140Y0010693D01*
X0204260Y0010766D01*
X0204378Y0010843D01*
X0204493Y0010922D01*
X0204607Y0011005D01*
X0204717Y0011091D01*
X0204826Y0011180D01*
X0204932Y0011272D01*
X0205035Y0011367D01*
X0205136Y0011464D01*
X0205233Y0011565D01*
X0205328Y0011668D01*
X0205420Y0011774D01*
X0205509Y0011883D01*
X0205595Y0011993D01*
X0205678Y0012107D01*
X0205757Y0012222D01*
X0205834Y0012340D01*
X0205907Y0012460D01*
X0205976Y0012581D01*
X0206042Y0012705D01*
X0206105Y0012831D01*
X0206164Y0012958D01*
X0206219Y0013087D01*
X0206271Y0013217D01*
X0206319Y0013349D01*
X0206364Y0013482D01*
X0206405Y0013616D01*
X0206442Y0013751D01*
X0206475Y0013887D01*
X0206504Y0014025D01*
X0206529Y0014162D01*
X0206551Y0014301D01*
X0206569Y0014440D01*
X0206582Y0014580D01*
X0206592Y0014720D01*
X0206598Y0014860D01*
X0206600Y0015000D01*
X0206600Y0195000D01*
X0206628Y0195212D01*
X0206650Y0195424D01*
X0206668Y0195637D01*
X0206680Y0195850D01*
X0206687Y0196064D01*
X0206689Y0196277D01*
X0206686Y0196491D01*
X0206677Y0196704D01*
X0206664Y0196918D01*
X0206645Y0197130D01*
X0206621Y0197343D01*
X0206592Y0197554D01*
X0206558Y0197765D01*
X0206519Y0197975D01*
X0206475Y0198184D01*
X0206426Y0198392D01*
X0206371Y0198598D01*
X0206312Y0198804D01*
X0206248Y0199007D01*
X0206179Y0199210D01*
X0206105Y0199410D01*
X0206026Y0199608D01*
X0205943Y0199805D01*
X0205854Y0200000D01*
X0205761Y0200192D01*
X0205664Y0200382D01*
X0205562Y0200570D01*
X0205455Y0200755D01*
X0205344Y0200937D01*
X0205229Y0201117D01*
X0205109Y0201294D01*
X0204985Y0201468D01*
X0204857Y0201638D01*
X0204724Y0201806D01*
X0204588Y0201971D01*
X0204448Y0202132D01*
X0204304Y0202290D01*
X0204156Y0202444D01*
X0204005Y0202594D01*
X0203849Y0202741D01*
X0203691Y0202884D01*
X0203529Y0203023D01*
X0203363Y0203159D01*
X0203195Y0203290D01*
X0203023Y0203417D01*
X0202849Y0203540D01*
X0202671Y0203659D01*
X0202491Y0203773D01*
X0202307Y0203883D01*
X0202122Y0203988D01*
X0201933Y0204089D01*
X0201743Y0204186D01*
X0201550Y0204277D01*
X0201355Y0204364D01*
X0201158Y0204447D01*
X0200959Y0204524D01*
X0200758Y0204597D01*
X0200555Y0204665D01*
X0200351Y0204728D01*
X0200146Y0204786D01*
X0199939Y0204839D01*
X0199731Y0204887D01*
X0199521Y0204930D01*
X0199311Y0204967D01*
X0199100Y0205000D01*
X0014100Y0205000D01*
X0013886Y0204967D01*
X0013672Y0204928D01*
X0013460Y0204884D01*
X0013248Y0204836D01*
X0013038Y0204781D01*
X0012830Y0204722D01*
X0012622Y0204658D01*
X0012417Y0204588D01*
X0012213Y0204514D01*
X0012011Y0204434D01*
X0011811Y0204350D01*
X0011614Y0204261D01*
X0011418Y0204166D01*
X0011225Y0204068D01*
X0011035Y0203964D01*
X0010847Y0203856D01*
X0010661Y0203743D01*
X0010479Y0203626D01*
X0010299Y0203504D01*
X0010123Y0203378D01*
X0009949Y0203247D01*
X0009779Y0203113D01*
X0009613Y0202974D01*
X0009449Y0202831D01*
X0009290Y0202684D01*
X0009134Y0202534D01*
X0008981Y0202379D01*
X0008833Y0202221D01*
X0008688Y0202059D01*
X0008548Y0201894D01*
X0008411Y0201725D01*
X0008279Y0201553D01*
X0008151Y0201378D01*
X0008027Y0201200D01*
X0007908Y0201019D01*
X0007793Y0200835D01*
X0007683Y0200648D01*
X0007577Y0200458D01*
X0007476Y0200266D01*
X0007380Y0200072D01*
X0007289Y0199875D01*
X0007202Y0199676D01*
X0007120Y0199475D01*
X0007044Y0199272D01*
X0006972Y0199068D01*
X0006905Y0198861D01*
X0006844Y0198653D01*
X0006788Y0198444D01*
X0006736Y0198233D01*
X0006690Y0198021D01*
X0006649Y0197808D01*
X0006614Y0197594D01*
X0006583Y0197379D01*
X0006558Y0197164D01*
X0006539Y0196948D01*
X0006524Y0196731D01*
X0006515Y0196514D01*
X0006511Y0196297D01*
X0006513Y0196080D01*
X0006519Y0195864D01*
X0006532Y0195647D01*
X0006549Y0195431D01*
X0006572Y0195215D01*
X0006600Y0195000D01*
X0006600Y0022500D01*
X0006542Y0022258D01*
X0006491Y0022014D01*
X0006445Y0021769D01*
X0006405Y0021523D01*
X0006371Y0021276D01*
X0006343Y0021029D01*
X0006322Y0020781D01*
X0006306Y0020532D01*
X0006296Y0020283D01*
X0006292Y0020034D01*
X0006294Y0019785D01*
X0006302Y0019536D01*
X0006317Y0019287D01*
X0006337Y0019039D01*
X0006363Y0018791D01*
X0006395Y0018544D01*
X0006433Y0018298D01*
X0006478Y0018053D01*
X0006528Y0017809D01*
X0006583Y0017566D01*
X0006645Y0017325D01*
X0006713Y0017085D01*
X0006786Y0016847D01*
X0006865Y0016611D01*
X0006950Y0016377D01*
X0007040Y0016145D01*
X0007136Y0015915D01*
X0007238Y0015687D01*
X0007345Y0015462D01*
X0007457Y0015240D01*
X0007575Y0015020D01*
X0007698Y0014804D01*
X0007826Y0014590D01*
X0007959Y0014380D01*
X0008097Y0014173D01*
X0008241Y0013969D01*
X0008389Y0013769D01*
X0008542Y0013572D01*
X0008699Y0013379D01*
X0008862Y0013190D01*
X0009029Y0013005D01*
X0009200Y0012824D01*
X0009375Y0012648D01*
X0009555Y0012475D01*
X0009739Y0012307D01*
X0009927Y0012144D01*
X0010119Y0011985D01*
X0010314Y0011830D01*
X0010513Y0011681D01*
X0010716Y0011536D01*
X0010923Y0011396D01*
X0011132Y0011262D01*
X0011345Y0011132D01*
X0011561Y0011008D01*
X0011779Y0010889D01*
X0012001Y0010775D01*
X0012225Y0010666D01*
X0012452Y0010563D01*
X0012681Y0010466D01*
X0012913Y0010374D01*
X0013146Y0010288D01*
X0013382Y0010207D01*
X0013620Y0010132D01*
X0013859Y0010063D01*
X0014100Y0010000D01*
X0012600Y0068000D02*
X0040600Y0068000D01*
X0040660Y0068002D01*
X0040721Y0068007D01*
X0040780Y0068016D01*
X0040839Y0068029D01*
X0040898Y0068045D01*
X0040955Y0068065D01*
X0041010Y0068088D01*
X0041065Y0068115D01*
X0041117Y0068144D01*
X0041168Y0068177D01*
X0041217Y0068213D01*
X0041263Y0068251D01*
X0041307Y0068293D01*
X0041349Y0068337D01*
X0041387Y0068383D01*
X0041423Y0068432D01*
X0041456Y0068483D01*
X0041485Y0068535D01*
X0041512Y0068590D01*
X0041535Y0068645D01*
X0041555Y0068702D01*
X0041571Y0068761D01*
X0041584Y0068820D01*
X0041593Y0068879D01*
X0041598Y0068940D01*
X0041600Y0069000D01*
X0041598Y0069060D01*
X0041593Y0069121D01*
X0041584Y0069180D01*
X0041571Y0069239D01*
X0041555Y0069298D01*
X0041535Y0069355D01*
X0041512Y0069410D01*
X0041485Y0069465D01*
X0041456Y0069517D01*
X0041423Y0069568D01*
X0041387Y0069617D01*
X0041349Y0069663D01*
X0041307Y0069707D01*
X0041263Y0069749D01*
X0041217Y0069787D01*
X0041168Y0069823D01*
X0041117Y0069856D01*
X0041065Y0069885D01*
X0041010Y0069912D01*
X0040955Y0069935D01*
X0040898Y0069955D01*
X0040839Y0069971D01*
X0040780Y0069984D01*
X0040721Y0069993D01*
X0040660Y0069998D01*
X0040600Y0070000D01*
X0012600Y0070000D01*
X0011600Y0069000D02*
X0011602Y0068940D01*
X0011607Y0068879D01*
X0011616Y0068820D01*
X0011629Y0068761D01*
X0011645Y0068702D01*
X0011665Y0068645D01*
X0011688Y0068590D01*
X0011715Y0068535D01*
X0011744Y0068483D01*
X0011777Y0068432D01*
X0011813Y0068383D01*
X0011851Y0068337D01*
X0011893Y0068293D01*
X0011937Y0068251D01*
X0011983Y0068213D01*
X0012032Y0068177D01*
X0012083Y0068144D01*
X0012135Y0068115D01*
X0012190Y0068088D01*
X0012245Y0068065D01*
X0012302Y0068045D01*
X0012361Y0068029D01*
X0012420Y0068016D01*
X0012479Y0068007D01*
X0012540Y0068002D01*
X0012600Y0068000D01*
X0011600Y0069000D02*
X0011602Y0069060D01*
X0011607Y0069121D01*
X0011616Y0069180D01*
X0011629Y0069239D01*
X0011645Y0069298D01*
X0011665Y0069355D01*
X0011688Y0069410D01*
X0011715Y0069465D01*
X0011744Y0069517D01*
X0011777Y0069568D01*
X0011813Y0069617D01*
X0011851Y0069663D01*
X0011893Y0069707D01*
X0011937Y0069749D01*
X0011983Y0069787D01*
X0012032Y0069823D01*
X0012083Y0069856D01*
X0012135Y0069885D01*
X0012190Y0069912D01*
X0012245Y0069935D01*
X0012302Y0069955D01*
X0012361Y0069971D01*
X0012420Y0069984D01*
X0012479Y0069993D01*
X0012540Y0069998D01*
X0012600Y0070000D01*
X0057600Y0070000D02*
X0088100Y0070000D01*
X0089100Y0069000D02*
X0089098Y0068940D01*
X0089093Y0068879D01*
X0089084Y0068820D01*
X0089071Y0068761D01*
X0089055Y0068702D01*
X0089035Y0068645D01*
X0089012Y0068590D01*
X0088985Y0068535D01*
X0088956Y0068483D01*
X0088923Y0068432D01*
X0088887Y0068383D01*
X0088849Y0068337D01*
X0088807Y0068293D01*
X0088763Y0068251D01*
X0088717Y0068213D01*
X0088668Y0068177D01*
X0088617Y0068144D01*
X0088565Y0068115D01*
X0088510Y0068088D01*
X0088455Y0068065D01*
X0088398Y0068045D01*
X0088339Y0068029D01*
X0088280Y0068016D01*
X0088221Y0068007D01*
X0088160Y0068002D01*
X0088100Y0068000D01*
X0057600Y0068000D01*
X0057540Y0068002D01*
X0057479Y0068007D01*
X0057420Y0068016D01*
X0057361Y0068029D01*
X0057302Y0068045D01*
X0057245Y0068065D01*
X0057190Y0068088D01*
X0057135Y0068115D01*
X0057083Y0068144D01*
X0057032Y0068177D01*
X0056983Y0068213D01*
X0056937Y0068251D01*
X0056893Y0068293D01*
X0056851Y0068337D01*
X0056813Y0068383D01*
X0056777Y0068432D01*
X0056744Y0068483D01*
X0056715Y0068535D01*
X0056688Y0068590D01*
X0056665Y0068645D01*
X0056645Y0068702D01*
X0056629Y0068761D01*
X0056616Y0068820D01*
X0056607Y0068879D01*
X0056602Y0068940D01*
X0056600Y0069000D01*
X0056602Y0069060D01*
X0056607Y0069121D01*
X0056616Y0069180D01*
X0056629Y0069239D01*
X0056645Y0069298D01*
X0056665Y0069355D01*
X0056688Y0069410D01*
X0056715Y0069465D01*
X0056744Y0069517D01*
X0056777Y0069568D01*
X0056813Y0069617D01*
X0056851Y0069663D01*
X0056893Y0069707D01*
X0056937Y0069749D01*
X0056983Y0069787D01*
X0057032Y0069823D01*
X0057083Y0069856D01*
X0057135Y0069885D01*
X0057190Y0069912D01*
X0057245Y0069935D01*
X0057302Y0069955D01*
X0057361Y0069971D01*
X0057420Y0069984D01*
X0057479Y0069993D01*
X0057540Y0069998D01*
X0057600Y0070000D01*
X0088100Y0070000D02*
X0088160Y0069998D01*
X0088221Y0069993D01*
X0088280Y0069984D01*
X0088339Y0069971D01*
X0088398Y0069955D01*
X0088455Y0069935D01*
X0088510Y0069912D01*
X0088565Y0069885D01*
X0088617Y0069856D01*
X0088668Y0069823D01*
X0088717Y0069787D01*
X0088763Y0069749D01*
X0088807Y0069707D01*
X0088849Y0069663D01*
X0088887Y0069617D01*
X0088923Y0069568D01*
X0088956Y0069517D01*
X0088985Y0069465D01*
X0089012Y0069410D01*
X0089035Y0069355D01*
X0089055Y0069298D01*
X0089071Y0069239D01*
X0089084Y0069180D01*
X0089093Y0069121D01*
X0089098Y0069060D01*
X0089100Y0069000D01*
X0099100Y0069000D02*
X0099102Y0068940D01*
X0099107Y0068879D01*
X0099116Y0068820D01*
X0099129Y0068761D01*
X0099145Y0068702D01*
X0099165Y0068645D01*
X0099188Y0068590D01*
X0099215Y0068535D01*
X0099244Y0068483D01*
X0099277Y0068432D01*
X0099313Y0068383D01*
X0099351Y0068337D01*
X0099393Y0068293D01*
X0099437Y0068251D01*
X0099483Y0068213D01*
X0099532Y0068177D01*
X0099583Y0068144D01*
X0099635Y0068115D01*
X0099690Y0068088D01*
X0099745Y0068065D01*
X0099802Y0068045D01*
X0099861Y0068029D01*
X0099920Y0068016D01*
X0099979Y0068007D01*
X0100040Y0068002D01*
X0100100Y0068000D01*
X0143100Y0068000D01*
X0143160Y0068002D01*
X0143221Y0068007D01*
X0143280Y0068016D01*
X0143339Y0068029D01*
X0143398Y0068045D01*
X0143455Y0068065D01*
X0143510Y0068088D01*
X0143565Y0068115D01*
X0143617Y0068144D01*
X0143668Y0068177D01*
X0143717Y0068213D01*
X0143763Y0068251D01*
X0143807Y0068293D01*
X0143849Y0068337D01*
X0143887Y0068383D01*
X0143923Y0068432D01*
X0143956Y0068483D01*
X0143985Y0068535D01*
X0144012Y0068590D01*
X0144035Y0068645D01*
X0144055Y0068702D01*
X0144071Y0068761D01*
X0144084Y0068820D01*
X0144093Y0068879D01*
X0144098Y0068940D01*
X0144100Y0069000D01*
X0144098Y0069060D01*
X0144093Y0069121D01*
X0144084Y0069180D01*
X0144071Y0069239D01*
X0144055Y0069298D01*
X0144035Y0069355D01*
X0144012Y0069410D01*
X0143985Y0069465D01*
X0143956Y0069517D01*
X0143923Y0069568D01*
X0143887Y0069617D01*
X0143849Y0069663D01*
X0143807Y0069707D01*
X0143763Y0069749D01*
X0143717Y0069787D01*
X0143668Y0069823D01*
X0143617Y0069856D01*
X0143565Y0069885D01*
X0143510Y0069912D01*
X0143455Y0069935D01*
X0143398Y0069955D01*
X0143339Y0069971D01*
X0143280Y0069984D01*
X0143221Y0069993D01*
X0143160Y0069998D01*
X0143100Y0070000D01*
X0100100Y0070000D01*
X0100040Y0069998D01*
X0099979Y0069993D01*
X0099920Y0069984D01*
X0099861Y0069971D01*
X0099802Y0069955D01*
X0099745Y0069935D01*
X0099690Y0069912D01*
X0099635Y0069885D01*
X0099583Y0069856D01*
X0099532Y0069823D01*
X0099483Y0069787D01*
X0099437Y0069749D01*
X0099393Y0069707D01*
X0099351Y0069663D01*
X0099313Y0069617D01*
X0099277Y0069568D01*
X0099244Y0069517D01*
X0099215Y0069465D01*
X0099188Y0069410D01*
X0099165Y0069355D01*
X0099145Y0069298D01*
X0099129Y0069239D01*
X0099116Y0069180D01*
X0099107Y0069121D01*
X0099102Y0069060D01*
X0099100Y0069000D01*
X0164100Y0069000D02*
X0164102Y0068940D01*
X0164107Y0068879D01*
X0164116Y0068820D01*
X0164129Y0068761D01*
X0164145Y0068702D01*
X0164165Y0068645D01*
X0164188Y0068590D01*
X0164215Y0068535D01*
X0164244Y0068483D01*
X0164277Y0068432D01*
X0164313Y0068383D01*
X0164351Y0068337D01*
X0164393Y0068293D01*
X0164437Y0068251D01*
X0164483Y0068213D01*
X0164532Y0068177D01*
X0164583Y0068144D01*
X0164635Y0068115D01*
X0164690Y0068088D01*
X0164745Y0068065D01*
X0164802Y0068045D01*
X0164861Y0068029D01*
X0164920Y0068016D01*
X0164979Y0068007D01*
X0165040Y0068002D01*
X0165100Y0068000D01*
X0188100Y0068000D01*
X0188160Y0068002D01*
X0188221Y0068007D01*
X0188280Y0068016D01*
X0188339Y0068029D01*
X0188398Y0068045D01*
X0188455Y0068065D01*
X0188510Y0068088D01*
X0188565Y0068115D01*
X0188617Y0068144D01*
X0188668Y0068177D01*
X0188717Y0068213D01*
X0188763Y0068251D01*
X0188807Y0068293D01*
X0188849Y0068337D01*
X0188887Y0068383D01*
X0188923Y0068432D01*
X0188956Y0068483D01*
X0188985Y0068535D01*
X0189012Y0068590D01*
X0189035Y0068645D01*
X0189055Y0068702D01*
X0189071Y0068761D01*
X0189084Y0068820D01*
X0189093Y0068879D01*
X0189098Y0068940D01*
X0189100Y0069000D01*
X0189098Y0069060D01*
X0189093Y0069121D01*
X0189084Y0069180D01*
X0189071Y0069239D01*
X0189055Y0069298D01*
X0189035Y0069355D01*
X0189012Y0069410D01*
X0188985Y0069465D01*
X0188956Y0069517D01*
X0188923Y0069568D01*
X0188887Y0069617D01*
X0188849Y0069663D01*
X0188807Y0069707D01*
X0188763Y0069749D01*
X0188717Y0069787D01*
X0188668Y0069823D01*
X0188617Y0069856D01*
X0188565Y0069885D01*
X0188510Y0069912D01*
X0188455Y0069935D01*
X0188398Y0069955D01*
X0188339Y0069971D01*
X0188280Y0069984D01*
X0188221Y0069993D01*
X0188160Y0069998D01*
X0188100Y0070000D01*
X0165100Y0070000D01*
X0165040Y0069998D01*
X0164979Y0069993D01*
X0164920Y0069984D01*
X0164861Y0069971D01*
X0164802Y0069955D01*
X0164745Y0069935D01*
X0164690Y0069912D01*
X0164635Y0069885D01*
X0164583Y0069856D01*
X0164532Y0069823D01*
X0164483Y0069787D01*
X0164437Y0069749D01*
X0164393Y0069707D01*
X0164351Y0069663D01*
X0164313Y0069617D01*
X0164277Y0069568D01*
X0164244Y0069517D01*
X0164215Y0069465D01*
X0164188Y0069410D01*
X0164165Y0069355D01*
X0164145Y0069298D01*
X0164129Y0069239D01*
X0164116Y0069180D01*
X0164107Y0069121D01*
X0164102Y0069060D01*
X0164100Y0069000D01*
D11*
X0043604Y0047126D03*
X0025100Y0058937D03*
X0025100Y0035315D03*
D12*
X0030100Y0198000D03*
D13*
X0017100Y0198000D03*
D14*
X0189671Y0143386D02*
X0198529Y0143386D01*
X0198529Y0127795D02*
X0189671Y0127795D01*
X0189671Y0112205D02*
X0198529Y0112205D01*
X0198529Y0096614D02*
X0189671Y0096614D01*
D15*
X0031600Y0102311D03*
D16*
X0031600Y0094437D03*
X0031600Y0086563D03*
X0031600Y0078689D03*
D17*
X0051600Y0107500D03*
X0061600Y0107500D03*
X0061600Y0117500D03*
X0061600Y0127500D03*
X0051600Y0127500D03*
X0051600Y0117500D03*
X0051600Y0137500D03*
X0051600Y0147500D03*
X0061600Y0147500D03*
X0061600Y0137500D03*
X0061600Y0157500D03*
X0061600Y0167500D03*
X0051600Y0167500D03*
X0051600Y0157500D03*
X0051600Y0177500D03*
X0051600Y0187500D03*
X0061600Y0187500D03*
X0061600Y0177500D03*
X0061600Y0197500D03*
X0051600Y0197500D03*
X0151600Y0197500D03*
X0161600Y0197500D03*
X0161600Y0187500D03*
X0161600Y0177500D03*
X0151600Y0177500D03*
X0151600Y0187500D03*
X0151600Y0167500D03*
X0151600Y0157500D03*
X0161600Y0157500D03*
X0161600Y0167500D03*
X0161600Y0147500D03*
X0161600Y0137500D03*
X0151600Y0137500D03*
X0151600Y0147500D03*
X0151600Y0127500D03*
X0151600Y0117500D03*
X0161600Y0117500D03*
X0161600Y0127500D03*
X0161600Y0107500D03*
X0151600Y0107500D03*
D18*
X0101600Y0152500D03*
D19*
X0101600Y0142500D03*
X0101600Y0132500D03*
X0101600Y0122500D03*
X0101600Y0112500D03*
X0101600Y0102500D03*
X0101600Y0092500D03*
X0101600Y0082500D03*
X0111600Y0082500D03*
X0111600Y0092500D03*
X0111600Y0102500D03*
X0111600Y0112500D03*
X0111600Y0122500D03*
X0111600Y0132500D03*
X0111600Y0142500D03*
X0111600Y0152500D03*
D20*
X0077867Y0035000D02*
X0077872Y0035398D01*
X0077887Y0035797D01*
X0077911Y0036194D01*
X0077945Y0036591D01*
X0077989Y0036987D01*
X0078043Y0037382D01*
X0078106Y0037775D01*
X0078179Y0038167D01*
X0078261Y0038557D01*
X0078353Y0038944D01*
X0078455Y0039330D01*
X0078566Y0039712D01*
X0078686Y0040092D01*
X0078816Y0040469D01*
X0078955Y0040842D01*
X0079103Y0041212D01*
X0079260Y0041578D01*
X0079426Y0041941D01*
X0079600Y0042299D01*
X0079784Y0042652D01*
X0079976Y0043001D01*
X0080176Y0043345D01*
X0080385Y0043685D01*
X0080603Y0044019D01*
X0080828Y0044347D01*
X0081062Y0044670D01*
X0081303Y0044987D01*
X0081552Y0045298D01*
X0081808Y0045603D01*
X0082072Y0045901D01*
X0082343Y0046193D01*
X0082622Y0046478D01*
X0082907Y0046757D01*
X0083199Y0047028D01*
X0083497Y0047292D01*
X0083802Y0047548D01*
X0084113Y0047797D01*
X0084430Y0048038D01*
X0084753Y0048272D01*
X0085081Y0048497D01*
X0085415Y0048715D01*
X0085755Y0048924D01*
X0086099Y0049124D01*
X0086448Y0049316D01*
X0086801Y0049500D01*
X0087159Y0049674D01*
X0087522Y0049840D01*
X0087888Y0049997D01*
X0088258Y0050145D01*
X0088631Y0050284D01*
X0089008Y0050414D01*
X0089388Y0050534D01*
X0089770Y0050645D01*
X0090156Y0050747D01*
X0090543Y0050839D01*
X0090933Y0050921D01*
X0091325Y0050994D01*
X0091718Y0051057D01*
X0092113Y0051111D01*
X0092509Y0051155D01*
X0092906Y0051189D01*
X0093303Y0051213D01*
X0093702Y0051228D01*
X0094100Y0051233D01*
X0094498Y0051228D01*
X0094897Y0051213D01*
X0095294Y0051189D01*
X0095691Y0051155D01*
X0096087Y0051111D01*
X0096482Y0051057D01*
X0096875Y0050994D01*
X0097267Y0050921D01*
X0097657Y0050839D01*
X0098044Y0050747D01*
X0098430Y0050645D01*
X0098812Y0050534D01*
X0099192Y0050414D01*
X0099569Y0050284D01*
X0099942Y0050145D01*
X0100312Y0049997D01*
X0100678Y0049840D01*
X0101041Y0049674D01*
X0101399Y0049500D01*
X0101752Y0049316D01*
X0102101Y0049124D01*
X0102445Y0048924D01*
X0102785Y0048715D01*
X0103119Y0048497D01*
X0103447Y0048272D01*
X0103770Y0048038D01*
X0104087Y0047797D01*
X0104398Y0047548D01*
X0104703Y0047292D01*
X0105001Y0047028D01*
X0105293Y0046757D01*
X0105578Y0046478D01*
X0105857Y0046193D01*
X0106128Y0045901D01*
X0106392Y0045603D01*
X0106648Y0045298D01*
X0106897Y0044987D01*
X0107138Y0044670D01*
X0107372Y0044347D01*
X0107597Y0044019D01*
X0107815Y0043685D01*
X0108024Y0043345D01*
X0108224Y0043001D01*
X0108416Y0042652D01*
X0108600Y0042299D01*
X0108774Y0041941D01*
X0108940Y0041578D01*
X0109097Y0041212D01*
X0109245Y0040842D01*
X0109384Y0040469D01*
X0109514Y0040092D01*
X0109634Y0039712D01*
X0109745Y0039330D01*
X0109847Y0038944D01*
X0109939Y0038557D01*
X0110021Y0038167D01*
X0110094Y0037775D01*
X0110157Y0037382D01*
X0110211Y0036987D01*
X0110255Y0036591D01*
X0110289Y0036194D01*
X0110313Y0035797D01*
X0110328Y0035398D01*
X0110333Y0035000D01*
X0110328Y0034602D01*
X0110313Y0034203D01*
X0110289Y0033806D01*
X0110255Y0033409D01*
X0110211Y0033013D01*
X0110157Y0032618D01*
X0110094Y0032225D01*
X0110021Y0031833D01*
X0109939Y0031443D01*
X0109847Y0031056D01*
X0109745Y0030670D01*
X0109634Y0030288D01*
X0109514Y0029908D01*
X0109384Y0029531D01*
X0109245Y0029158D01*
X0109097Y0028788D01*
X0108940Y0028422D01*
X0108774Y0028059D01*
X0108600Y0027701D01*
X0108416Y0027348D01*
X0108224Y0026999D01*
X0108024Y0026655D01*
X0107815Y0026315D01*
X0107597Y0025981D01*
X0107372Y0025653D01*
X0107138Y0025330D01*
X0106897Y0025013D01*
X0106648Y0024702D01*
X0106392Y0024397D01*
X0106128Y0024099D01*
X0105857Y0023807D01*
X0105578Y0023522D01*
X0105293Y0023243D01*
X0105001Y0022972D01*
X0104703Y0022708D01*
X0104398Y0022452D01*
X0104087Y0022203D01*
X0103770Y0021962D01*
X0103447Y0021728D01*
X0103119Y0021503D01*
X0102785Y0021285D01*
X0102445Y0021076D01*
X0102101Y0020876D01*
X0101752Y0020684D01*
X0101399Y0020500D01*
X0101041Y0020326D01*
X0100678Y0020160D01*
X0100312Y0020003D01*
X0099942Y0019855D01*
X0099569Y0019716D01*
X0099192Y0019586D01*
X0098812Y0019466D01*
X0098430Y0019355D01*
X0098044Y0019253D01*
X0097657Y0019161D01*
X0097267Y0019079D01*
X0096875Y0019006D01*
X0096482Y0018943D01*
X0096087Y0018889D01*
X0095691Y0018845D01*
X0095294Y0018811D01*
X0094897Y0018787D01*
X0094498Y0018772D01*
X0094100Y0018767D01*
X0093702Y0018772D01*
X0093303Y0018787D01*
X0092906Y0018811D01*
X0092509Y0018845D01*
X0092113Y0018889D01*
X0091718Y0018943D01*
X0091325Y0019006D01*
X0090933Y0019079D01*
X0090543Y0019161D01*
X0090156Y0019253D01*
X0089770Y0019355D01*
X0089388Y0019466D01*
X0089008Y0019586D01*
X0088631Y0019716D01*
X0088258Y0019855D01*
X0087888Y0020003D01*
X0087522Y0020160D01*
X0087159Y0020326D01*
X0086801Y0020500D01*
X0086448Y0020684D01*
X0086099Y0020876D01*
X0085755Y0021076D01*
X0085415Y0021285D01*
X0085081Y0021503D01*
X0084753Y0021728D01*
X0084430Y0021962D01*
X0084113Y0022203D01*
X0083802Y0022452D01*
X0083497Y0022708D01*
X0083199Y0022972D01*
X0082907Y0023243D01*
X0082622Y0023522D01*
X0082343Y0023807D01*
X0082072Y0024099D01*
X0081808Y0024397D01*
X0081552Y0024702D01*
X0081303Y0025013D01*
X0081062Y0025330D01*
X0080828Y0025653D01*
X0080603Y0025981D01*
X0080385Y0026315D01*
X0080176Y0026655D01*
X0079976Y0026999D01*
X0079784Y0027348D01*
X0079600Y0027701D01*
X0079426Y0028059D01*
X0079260Y0028422D01*
X0079103Y0028788D01*
X0078955Y0029158D01*
X0078816Y0029531D01*
X0078686Y0029908D01*
X0078566Y0030288D01*
X0078455Y0030670D01*
X0078353Y0031056D01*
X0078261Y0031443D01*
X0078179Y0031833D01*
X0078106Y0032225D01*
X0078043Y0032618D01*
X0077989Y0033013D01*
X0077945Y0033409D01*
X0077911Y0033806D01*
X0077887Y0034203D01*
X0077872Y0034602D01*
X0077867Y0035000D01*
D21*
X0152620Y0039500D03*
X0185100Y0039500D03*
D22*
X0189100Y0079500D03*
X0199100Y0079500D03*
X0196600Y0180000D03*
X0196600Y0190000D03*
X0186600Y0190000D03*
X0186600Y0180000D03*
D23*
X0036537Y0124000D03*
D24*
X0028663Y0124000D03*
D25*
X0029575Y0150000D03*
X0029625Y0160000D03*
X0029575Y0170000D03*
X0029625Y0180025D03*
D26*
X0029600Y0140000D03*
M02*
