G75*
%MOIN*%
%OFA0B0*%
%FSLAX25Y25*%
%IPPOS*%
%LPD*%
%AMOC8*
5,1,8,0,0,1.08239X$1,22.5*
%
%ADD10C,0.17000*%
%ADD11R,0.05500X0.05500*%
%ADD12C,0.05500*%
%ADD13C,0.00787*%
%ADD14C,0.08858*%
%ADD15C,0.07400*%
%ADD16R,0.05000X0.05000*%
%ADD17C,0.05000*%
%ADD18OC8,0.07000*%
%ADD19C,0.05906*%
%ADD20C,0.06600*%
%ADD21R,0.06300X0.04600*%
%ADD22C,0.01600*%
%ADD23C,0.02400*%
%ADD24C,0.11811*%
%ADD25R,0.05315X0.05315*%
%ADD26C,0.05315*%
%ADD27R,0.05118X0.04550*%
%ADD28C,0.01200*%
%ADD29C,0.02800*%
%ADD30C,0.01000*%
%ADD31C,0.04000*%
%ADD32C,0.05000*%
D10*
X0025100Y0035315D03*
X0043604Y0047126D03*
X0025100Y0058937D03*
D11*
X0030100Y0198000D03*
X0162600Y0090000D03*
X0175600Y0090000D03*
D12*
X0017100Y0198000D03*
D13*
X0017981Y0188666D02*
X0020345Y0188666D01*
X0020345Y0184334D01*
X0017981Y0184334D01*
X0017981Y0188666D01*
X0017981Y0185120D02*
X0020345Y0185120D01*
X0020345Y0185906D02*
X0017981Y0185906D01*
X0017981Y0186692D02*
X0020345Y0186692D01*
X0020345Y0187478D02*
X0017981Y0187478D01*
X0017981Y0188264D02*
X0020345Y0188264D01*
X0025855Y0188666D02*
X0028219Y0188666D01*
X0028219Y0184334D01*
X0025855Y0184334D01*
X0025855Y0188666D01*
X0025855Y0185120D02*
X0028219Y0185120D01*
X0028219Y0185906D02*
X0025855Y0185906D01*
X0025855Y0186692D02*
X0028219Y0186692D01*
X0028219Y0187478D02*
X0025855Y0187478D01*
X0025855Y0188264D02*
X0028219Y0188264D01*
X0034481Y0200166D02*
X0036845Y0200166D01*
X0036845Y0195834D01*
X0034481Y0195834D01*
X0034481Y0200166D01*
X0034481Y0196620D02*
X0036845Y0196620D01*
X0036845Y0197406D02*
X0034481Y0197406D01*
X0034481Y0198192D02*
X0036845Y0198192D01*
X0036845Y0198978D02*
X0034481Y0198978D01*
X0034481Y0199764D02*
X0036845Y0199764D01*
X0042355Y0200166D02*
X0044719Y0200166D01*
X0044719Y0195834D01*
X0042355Y0195834D01*
X0042355Y0200166D01*
X0042355Y0196620D02*
X0044719Y0196620D01*
X0044719Y0197406D02*
X0042355Y0197406D01*
X0042355Y0198192D02*
X0044719Y0198192D01*
X0044719Y0198978D02*
X0042355Y0198978D01*
X0042355Y0199764D02*
X0044719Y0199764D01*
X0028219Y0179666D02*
X0025855Y0179666D01*
X0028219Y0179666D02*
X0028219Y0175334D01*
X0025855Y0175334D01*
X0025855Y0179666D01*
X0025855Y0176120D02*
X0028219Y0176120D01*
X0028219Y0176906D02*
X0025855Y0176906D01*
X0025855Y0177692D02*
X0028219Y0177692D01*
X0028219Y0178478D02*
X0025855Y0178478D01*
X0025855Y0179264D02*
X0028219Y0179264D01*
X0020345Y0179666D02*
X0017981Y0179666D01*
X0020345Y0179666D02*
X0020345Y0175334D01*
X0017981Y0175334D01*
X0017981Y0179666D01*
X0017981Y0176120D02*
X0020345Y0176120D01*
X0020345Y0176906D02*
X0017981Y0176906D01*
X0017981Y0177692D02*
X0020345Y0177692D01*
X0020345Y0178478D02*
X0017981Y0178478D01*
X0017981Y0179264D02*
X0020345Y0179264D01*
D14*
X0189671Y0128386D02*
X0198529Y0128386D01*
X0198529Y0112795D02*
X0189671Y0112795D01*
X0189671Y0097205D02*
X0198529Y0097205D01*
X0198529Y0081614D02*
X0189671Y0081614D01*
D15*
X0191600Y0146500D03*
X0181600Y0146500D03*
X0186600Y0180000D03*
X0186600Y0190000D03*
X0196600Y0190000D03*
X0196600Y0180000D03*
X0029600Y0167500D03*
X0028600Y0157500D03*
X0029600Y0147500D03*
X0028600Y0137500D03*
D16*
X0031600Y0102311D03*
D17*
X0031600Y0094437D03*
X0031600Y0086563D03*
X0031600Y0078689D03*
D18*
X0051600Y0107500D03*
X0061600Y0107500D03*
X0061600Y0117500D03*
X0061600Y0127500D03*
X0051600Y0127500D03*
X0051600Y0117500D03*
X0051600Y0137500D03*
X0051600Y0147500D03*
X0061600Y0147500D03*
X0061600Y0137500D03*
X0061600Y0157500D03*
X0061600Y0167500D03*
X0051600Y0167500D03*
X0051600Y0157500D03*
X0051600Y0177500D03*
X0051600Y0187500D03*
X0061600Y0187500D03*
X0061600Y0177500D03*
X0061600Y0197500D03*
X0051600Y0197500D03*
X0151600Y0197500D03*
X0161600Y0197500D03*
X0161600Y0187500D03*
X0161600Y0177500D03*
X0151600Y0177500D03*
X0151600Y0187500D03*
X0151600Y0167500D03*
X0151600Y0157500D03*
X0161600Y0157500D03*
X0161600Y0167500D03*
X0161600Y0147500D03*
X0161600Y0137500D03*
X0151600Y0137500D03*
X0151600Y0147500D03*
X0151600Y0127500D03*
X0151600Y0117500D03*
X0161600Y0117500D03*
X0161600Y0127500D03*
X0161600Y0107500D03*
X0151600Y0107500D03*
D19*
X0101600Y0152500D03*
D20*
X0101600Y0142500D03*
X0101600Y0132500D03*
X0101600Y0122500D03*
X0101600Y0112500D03*
X0101600Y0102500D03*
X0101600Y0092500D03*
X0101600Y0082500D03*
X0111600Y0082500D03*
X0111600Y0092500D03*
X0111600Y0102500D03*
X0111600Y0112500D03*
X0111600Y0122500D03*
X0111600Y0132500D03*
X0111600Y0142500D03*
X0111600Y0152500D03*
D21*
X0129600Y0128500D03*
X0129600Y0122500D03*
X0129600Y0116500D03*
X0069100Y0091000D03*
X0069100Y0085000D03*
X0069100Y0079000D03*
D22*
X0077600Y0079000D01*
X0081600Y0075000D01*
X0151600Y0075000D01*
X0162600Y0086000D01*
X0162600Y0090000D01*
X0129600Y0122500D02*
X0129600Y0127500D01*
X0069100Y0091000D02*
X0050600Y0091000D01*
X0044100Y0097500D01*
X0044100Y0120000D01*
X0042600Y0121500D01*
X0039037Y0121500D01*
X0044100Y0120000D02*
X0051600Y0127500D01*
X0051537Y0127563D01*
X0044100Y0127563D01*
X0043600Y0128063D01*
X0037100Y0128063D01*
X0029100Y0137000D02*
X0028600Y0137000D01*
X0024100Y0132500D01*
X0024100Y0090000D01*
X0027537Y0086563D01*
X0031600Y0086563D01*
X0037537Y0086563D01*
X0039100Y0085000D01*
X0069100Y0085000D01*
X0069100Y0090000D01*
X0051600Y0127500D02*
X0049100Y0127500D01*
X0029100Y0137000D02*
X0028600Y0137500D01*
D23*
X0094100Y0043000D03*
D24*
X0154120Y0039500D03*
X0186600Y0039500D03*
D25*
X0039037Y0121500D03*
D26*
X0031163Y0121500D03*
D27*
X0037100Y0128063D03*
X0043600Y0128063D03*
X0043600Y0136937D03*
X0037100Y0136937D03*
D28*
X0037637Y0136696D02*
X0043063Y0136696D01*
X0043063Y0136400D02*
X0043063Y0137474D01*
X0037637Y0137474D01*
X0036563Y0137474D01*
X0036563Y0141812D01*
X0034285Y0141812D01*
X0033783Y0141712D01*
X0033309Y0141516D01*
X0032884Y0141231D01*
X0032521Y0140869D01*
X0032490Y0140822D01*
X0031741Y0141571D01*
X0032018Y0141662D01*
X0032902Y0142112D01*
X0033704Y0142695D01*
X0034405Y0143396D01*
X0034988Y0144198D01*
X0035438Y0145082D01*
X0035745Y0146025D01*
X0035900Y0147004D01*
X0035900Y0147100D01*
X0030000Y0147100D01*
X0030000Y0147900D01*
X0035900Y0147900D01*
X0035900Y0147996D01*
X0035745Y0148975D01*
X0035438Y0149918D01*
X0034988Y0150802D01*
X0034405Y0151604D01*
X0033704Y0152305D01*
X0032902Y0152888D01*
X0032018Y0153338D01*
X0031741Y0153429D01*
X0032924Y0154611D01*
X0033700Y0156486D01*
X0033700Y0156913D01*
X0042387Y0165600D01*
X0043500Y0166713D01*
X0043500Y0176713D01*
X0047387Y0180600D01*
X0047770Y0180600D01*
X0046700Y0179530D01*
X0046700Y0175470D01*
X0049570Y0172600D01*
X0053630Y0172600D01*
X0056500Y0175470D01*
X0056500Y0179530D01*
X0055430Y0180600D01*
X0057770Y0180600D01*
X0056700Y0179530D01*
X0056700Y0175470D01*
X0059570Y0172600D01*
X0063630Y0172600D01*
X0066500Y0175470D01*
X0066500Y0179530D01*
X0065430Y0180600D01*
X0147770Y0180600D01*
X0146700Y0179530D01*
X0146700Y0175470D01*
X0149570Y0172600D01*
X0153630Y0172600D01*
X0156500Y0175470D01*
X0156500Y0179530D01*
X0155430Y0180600D01*
X0157770Y0180600D01*
X0156700Y0179530D01*
X0156700Y0175470D01*
X0159570Y0172600D01*
X0163630Y0172600D01*
X0166500Y0175470D01*
X0166500Y0179530D01*
X0163630Y0182400D01*
X0161887Y0182400D01*
X0161687Y0182600D01*
X0163630Y0182600D01*
X0166500Y0185470D01*
X0166500Y0189530D01*
X0165430Y0190600D01*
X0165813Y0190600D01*
X0167200Y0189213D01*
X0167200Y0173287D01*
X0164971Y0171058D01*
X0163630Y0172400D01*
X0159570Y0172400D01*
X0156700Y0169530D01*
X0156700Y0165470D01*
X0159570Y0162600D01*
X0163630Y0162600D01*
X0166500Y0165470D01*
X0166500Y0167213D01*
X0169887Y0170600D01*
X0171000Y0171713D01*
X0171000Y0190787D01*
X0168500Y0193287D01*
X0167387Y0194400D01*
X0165430Y0194400D01*
X0166500Y0195470D01*
X0166500Y0199530D01*
X0163630Y0202400D01*
X0159570Y0202400D01*
X0157449Y0200278D01*
X0155227Y0202500D01*
X0200110Y0202500D01*
X0201699Y0201720D01*
X0203201Y0200263D01*
X0204179Y0198413D01*
X0204538Y0196352D01*
X0204513Y0195953D01*
X0204450Y0195891D01*
X0204450Y0195153D01*
X0204346Y0194422D01*
X0204450Y0194283D01*
X0204450Y0132189D01*
X0204386Y0132299D01*
X0203825Y0133030D01*
X0203174Y0133682D01*
X0202443Y0134243D01*
X0201645Y0134704D01*
X0200793Y0135056D01*
X0199903Y0135295D01*
X0198990Y0135415D01*
X0194700Y0135415D01*
X0194700Y0128986D01*
X0193500Y0128986D01*
X0193500Y0135415D01*
X0189210Y0135415D01*
X0188297Y0135295D01*
X0187407Y0135056D01*
X0186555Y0134704D01*
X0185757Y0134243D01*
X0185026Y0133682D01*
X0184375Y0133030D01*
X0183814Y0132299D01*
X0183353Y0131501D01*
X0183000Y0130650D01*
X0182762Y0129760D01*
X0182660Y0128986D01*
X0193500Y0128986D01*
X0193500Y0127786D01*
X0182660Y0127786D01*
X0182762Y0127012D01*
X0183000Y0126122D01*
X0183353Y0125270D01*
X0183814Y0124472D01*
X0184375Y0123741D01*
X0185026Y0123090D01*
X0185757Y0122529D01*
X0186555Y0122068D01*
X0187407Y0121715D01*
X0188297Y0121477D01*
X0189210Y0121357D01*
X0193500Y0121357D01*
X0193500Y0127786D01*
X0194700Y0127786D01*
X0194700Y0121357D01*
X0198990Y0121357D01*
X0199903Y0121477D01*
X0200793Y0121715D01*
X0201645Y0122068D01*
X0202443Y0122529D01*
X0203174Y0123090D01*
X0203825Y0123741D01*
X0204386Y0124472D01*
X0204450Y0124583D01*
X0204450Y0116598D01*
X0204386Y0116709D01*
X0203825Y0117440D01*
X0203174Y0118091D01*
X0202443Y0118652D01*
X0201645Y0119113D01*
X0200793Y0119466D01*
X0199903Y0119704D01*
X0198990Y0119824D01*
X0194700Y0119824D01*
X0194700Y0113395D01*
X0193500Y0113395D01*
X0193500Y0112195D01*
X0194700Y0112195D01*
X0194700Y0105766D01*
X0198990Y0105766D01*
X0199903Y0105886D01*
X0200793Y0106125D01*
X0201645Y0106478D01*
X0202443Y0106938D01*
X0203174Y0107499D01*
X0203825Y0108151D01*
X0204386Y0108882D01*
X0204450Y0108992D01*
X0204450Y0071858D01*
X0204054Y0072086D01*
X0203991Y0072150D01*
X0189209Y0072150D01*
X0189146Y0072086D01*
X0187794Y0071306D01*
X0187040Y0070000D01*
X0183000Y0070000D01*
X0183000Y0075885D01*
X0184830Y0077714D01*
X0185327Y0077714D01*
X0186369Y0076672D01*
X0188511Y0075785D01*
X0199689Y0075785D01*
X0201831Y0076672D01*
X0203471Y0078312D01*
X0204358Y0080455D01*
X0204358Y0082774D01*
X0203471Y0084916D01*
X0201831Y0086556D01*
X0199689Y0087443D01*
X0198000Y0087443D01*
X0198000Y0091376D01*
X0199689Y0091376D01*
X0201831Y0092263D01*
X0203471Y0093903D01*
X0204358Y0096045D01*
X0204358Y0098364D01*
X0203471Y0100507D01*
X0201831Y0102146D01*
X0199689Y0103034D01*
X0188511Y0103034D01*
X0186369Y0102146D01*
X0184729Y0100507D01*
X0183842Y0098364D01*
X0183842Y0096045D01*
X0184729Y0093903D01*
X0186369Y0092263D01*
X0188511Y0091376D01*
X0190200Y0091376D01*
X0190200Y0087443D01*
X0188511Y0087443D01*
X0186369Y0086556D01*
X0185327Y0085514D01*
X0182438Y0085514D01*
X0181346Y0085062D01*
X0179744Y0086664D01*
X0179750Y0086670D01*
X0179750Y0093330D01*
X0178930Y0094150D01*
X0172270Y0094150D01*
X0171450Y0093330D01*
X0171450Y0086670D01*
X0172200Y0085920D01*
X0172200Y0085324D01*
X0172718Y0084074D01*
X0176438Y0080354D01*
X0175794Y0079709D01*
X0175200Y0078276D01*
X0175200Y0070000D01*
X0166160Y0070000D01*
X0165406Y0071306D01*
X0165406Y0071306D01*
X0165406Y0071306D01*
X0164054Y0072086D01*
X0163991Y0072150D01*
X0139209Y0072150D01*
X0139146Y0072086D01*
X0137794Y0071306D01*
X0137040Y0070000D01*
X0128660Y0070000D01*
X0127906Y0071306D01*
X0127906Y0071306D01*
X0127906Y0071306D01*
X0126554Y0072086D01*
X0126491Y0072150D01*
X0096709Y0072150D01*
X0096646Y0072086D01*
X0095294Y0071306D01*
X0094540Y0070000D01*
X0083660Y0070000D01*
X0082906Y0071306D01*
X0082906Y0071306D01*
X0082906Y0071306D01*
X0081554Y0072086D01*
X0081491Y0072150D01*
X0056709Y0072150D01*
X0056646Y0072086D01*
X0055294Y0071306D01*
X0054540Y0070000D01*
X0043660Y0070000D01*
X0042906Y0071306D01*
X0042906Y0071306D01*
X0042906Y0071306D01*
X0041554Y0072086D01*
X0041491Y0072150D01*
X0011709Y0072150D01*
X0011646Y0072086D01*
X0010294Y0071306D01*
X0009540Y0070000D01*
X0008750Y0070000D01*
X0008750Y0194283D01*
X0008854Y0194422D01*
X0008750Y0195153D01*
X0008750Y0195891D01*
X0008687Y0195953D01*
X0008662Y0196352D01*
X0009021Y0198413D01*
X0009999Y0200263D01*
X0011501Y0201720D01*
X0013090Y0202500D01*
X0040461Y0202500D01*
X0040448Y0202491D01*
X0040031Y0202074D01*
X0039703Y0201583D01*
X0039477Y0201039D01*
X0039362Y0200460D01*
X0039362Y0198187D01*
X0043350Y0198187D01*
X0043350Y0197813D01*
X0039362Y0197813D01*
X0039362Y0195540D01*
X0039477Y0194961D01*
X0039703Y0194417D01*
X0040031Y0193926D01*
X0040448Y0193509D01*
X0040938Y0193182D01*
X0041483Y0192956D01*
X0041805Y0192892D01*
X0037313Y0188400D01*
X0030012Y0188400D01*
X0030012Y0189408D01*
X0028961Y0190459D01*
X0025113Y0190459D01*
X0024062Y0189408D01*
X0024062Y0183592D01*
X0025113Y0182541D01*
X0028961Y0182541D01*
X0030012Y0183592D01*
X0030012Y0184600D01*
X0034700Y0184600D01*
X0034700Y0173287D01*
X0032863Y0171450D01*
X0032489Y0171824D01*
X0030614Y0172600D01*
X0028586Y0172600D01*
X0026711Y0171824D01*
X0025276Y0170389D01*
X0024500Y0168514D01*
X0024500Y0166486D01*
X0025276Y0164611D01*
X0026711Y0163176D01*
X0028103Y0162600D01*
X0027586Y0162600D01*
X0025711Y0161824D01*
X0024276Y0160389D01*
X0024207Y0160221D01*
X0023600Y0160828D01*
X0023600Y0169172D01*
X0027892Y0173463D01*
X0028002Y0173541D01*
X0028961Y0173541D01*
X0030012Y0174592D01*
X0030012Y0180408D01*
X0028961Y0181459D01*
X0025113Y0181459D01*
X0024062Y0180408D01*
X0024062Y0175291D01*
X0020772Y0172000D01*
X0019600Y0170828D01*
X0019600Y0159172D01*
X0022100Y0156672D01*
X0023272Y0155500D01*
X0023908Y0155500D01*
X0024276Y0154611D01*
X0025711Y0153176D01*
X0026347Y0152913D01*
X0026298Y0152888D01*
X0025496Y0152305D01*
X0024795Y0151604D01*
X0024212Y0150802D01*
X0023762Y0149918D01*
X0023455Y0148975D01*
X0023300Y0147996D01*
X0023300Y0147900D01*
X0029200Y0147900D01*
X0029200Y0147100D01*
X0023300Y0147100D01*
X0023300Y0147004D01*
X0023455Y0146025D01*
X0023762Y0145082D01*
X0024212Y0144198D01*
X0024795Y0143396D01*
X0025496Y0142695D01*
X0026298Y0142112D01*
X0026347Y0142087D01*
X0025711Y0141824D01*
X0024276Y0140389D01*
X0023908Y0139500D01*
X0022428Y0139500D01*
X0018600Y0143328D01*
X0018600Y0171672D01*
X0020469Y0173541D01*
X0021087Y0173541D01*
X0022138Y0174592D01*
X0022138Y0180408D01*
X0021163Y0181383D01*
X0021163Y0182617D01*
X0022138Y0183592D01*
X0022138Y0189408D01*
X0021087Y0190459D01*
X0017239Y0190459D01*
X0016188Y0189408D01*
X0016188Y0183592D01*
X0017163Y0182617D01*
X0017163Y0181383D01*
X0016188Y0180408D01*
X0016188Y0174917D01*
X0015772Y0174500D01*
X0014600Y0173328D01*
X0014600Y0141672D01*
X0019600Y0136672D01*
X0020772Y0135500D01*
X0023908Y0135500D01*
X0023932Y0135443D01*
X0023189Y0134700D01*
X0021900Y0133411D01*
X0021900Y0089089D01*
X0025337Y0085652D01*
X0026626Y0084363D01*
X0028290Y0084363D01*
X0028294Y0084354D01*
X0029371Y0083277D01*
X0028927Y0083051D01*
X0028278Y0082579D01*
X0027710Y0082011D01*
X0027238Y0081362D01*
X0026874Y0080647D01*
X0026626Y0079883D01*
X0026500Y0079090D01*
X0026500Y0078876D01*
X0031413Y0078876D01*
X0031413Y0078502D01*
X0031413Y0078501D02*
X0031787Y0078501D01*
X0031787Y0073589D01*
X0032001Y0073589D01*
X0032794Y0073715D01*
X0033558Y0073963D01*
X0034273Y0074327D01*
X0034922Y0074799D01*
X0035490Y0075367D01*
X0035962Y0076016D01*
X0036326Y0076731D01*
X0036574Y0077495D01*
X0036700Y0078288D01*
X0036700Y0078502D01*
X0031787Y0078502D01*
X0031787Y0078876D01*
X0036700Y0078876D01*
X0036700Y0079090D01*
X0036574Y0079883D01*
X0036326Y0080647D01*
X0035962Y0081362D01*
X0035490Y0082011D01*
X0034922Y0082579D01*
X0034273Y0083051D01*
X0033829Y0083277D01*
X0034906Y0084354D01*
X0034910Y0084363D01*
X0036626Y0084363D01*
X0038189Y0082800D01*
X0064550Y0082800D01*
X0064550Y0082120D01*
X0064670Y0082000D01*
X0064550Y0081880D01*
X0064550Y0076120D01*
X0065370Y0075300D01*
X0072830Y0075300D01*
X0073650Y0076120D01*
X0073650Y0076800D01*
X0076689Y0076800D01*
X0079400Y0074089D01*
X0080689Y0072800D01*
X0152511Y0072800D01*
X0163511Y0083800D01*
X0164800Y0085089D01*
X0164800Y0085850D01*
X0165930Y0085850D01*
X0166750Y0086670D01*
X0166750Y0092842D01*
X0174482Y0100574D01*
X0175000Y0101824D01*
X0175000Y0123176D01*
X0174482Y0124426D01*
X0173526Y0125382D01*
X0171408Y0127500D01*
X0183526Y0139618D01*
X0184482Y0140574D01*
X0185000Y0141824D01*
X0185000Y0142688D01*
X0185924Y0143611D01*
X0186600Y0145244D01*
X0187276Y0143611D01*
X0188711Y0142176D01*
X0190586Y0141400D01*
X0192614Y0141400D01*
X0194489Y0142176D01*
X0195924Y0143611D01*
X0196700Y0145486D01*
X0196700Y0147514D01*
X0195924Y0149389D01*
X0194489Y0150824D01*
X0192614Y0151600D01*
X0190586Y0151600D01*
X0188711Y0150824D01*
X0187276Y0149389D01*
X0186600Y0147756D01*
X0185924Y0149389D01*
X0184489Y0150824D01*
X0182614Y0151600D01*
X0180586Y0151600D01*
X0178711Y0150824D01*
X0177276Y0149389D01*
X0176500Y0147514D01*
X0176500Y0145486D01*
X0177276Y0143611D01*
X0177590Y0143298D01*
X0165192Y0130900D01*
X0165130Y0130900D01*
X0164378Y0131651D01*
X0167700Y0134973D01*
X0167700Y0137100D01*
X0162000Y0137100D01*
X0162000Y0137900D01*
X0167700Y0137900D01*
X0167700Y0140027D01*
X0164378Y0143349D01*
X0166500Y0145470D01*
X0166500Y0149530D01*
X0163630Y0152400D01*
X0159570Y0152400D01*
X0156700Y0149530D01*
X0156700Y0145470D01*
X0158822Y0143349D01*
X0155751Y0140278D01*
X0153630Y0142400D01*
X0149570Y0142400D01*
X0146700Y0139530D01*
X0146700Y0135470D01*
X0149570Y0132600D01*
X0153630Y0132600D01*
X0155751Y0134722D01*
X0158822Y0131651D01*
X0156700Y0129530D01*
X0156700Y0125470D01*
X0159570Y0122600D01*
X0163630Y0122600D01*
X0165130Y0124100D01*
X0165192Y0124100D01*
X0168200Y0121092D01*
X0168200Y0103908D01*
X0160674Y0096382D01*
X0159718Y0095426D01*
X0159200Y0094176D01*
X0159200Y0094080D01*
X0158450Y0093330D01*
X0158450Y0086670D01*
X0159270Y0085850D01*
X0159339Y0085850D01*
X0150689Y0077200D01*
X0133987Y0077200D01*
X0157387Y0100600D01*
X0158500Y0101713D01*
X0158500Y0103670D01*
X0159570Y0102600D01*
X0163630Y0102600D01*
X0166500Y0105470D01*
X0166500Y0109530D01*
X0163630Y0112400D01*
X0159570Y0112400D01*
X0158500Y0111330D01*
X0158500Y0111713D01*
X0159479Y0112692D01*
X0159570Y0112600D01*
X0163630Y0112600D01*
X0166500Y0115470D01*
X0166500Y0119530D01*
X0163630Y0122400D01*
X0159570Y0122400D01*
X0156700Y0119530D01*
X0156700Y0115470D01*
X0156792Y0115379D01*
X0154700Y0113287D01*
X0154700Y0111330D01*
X0153630Y0112400D01*
X0149570Y0112400D01*
X0146700Y0109530D01*
X0146700Y0105470D01*
X0149570Y0102600D01*
X0153630Y0102600D01*
X0154700Y0103670D01*
X0154700Y0103287D01*
X0130813Y0079400D01*
X0115147Y0079400D01*
X0115584Y0079838D01*
X0115900Y0080600D01*
X0124887Y0080600D01*
X0131500Y0087213D01*
X0131500Y0112800D01*
X0133330Y0112800D01*
X0134150Y0113620D01*
X0134150Y0119380D01*
X0134030Y0119500D01*
X0134150Y0119620D01*
X0134150Y0125380D01*
X0134030Y0125500D01*
X0134150Y0125620D01*
X0134150Y0131380D01*
X0133330Y0132200D01*
X0126000Y0132200D01*
X0126000Y0160787D01*
X0124887Y0161900D01*
X0122387Y0164400D01*
X0065430Y0164400D01*
X0066500Y0165470D01*
X0066500Y0169530D01*
X0063630Y0172400D01*
X0059570Y0172400D01*
X0056700Y0169530D01*
X0056700Y0165470D01*
X0057770Y0164400D01*
X0057387Y0164400D01*
X0056408Y0165379D01*
X0056500Y0165470D01*
X0056500Y0169530D01*
X0053630Y0172400D01*
X0049570Y0172400D01*
X0046700Y0169530D01*
X0046700Y0165470D01*
X0049570Y0162600D01*
X0053630Y0162600D01*
X0053721Y0162692D01*
X0055813Y0160600D01*
X0057770Y0160600D01*
X0056700Y0159530D01*
X0056700Y0155470D01*
X0059570Y0152600D01*
X0063630Y0152600D01*
X0066500Y0155470D01*
X0066500Y0155600D01*
X0067387Y0155600D01*
X0068500Y0156713D01*
X0068887Y0157100D01*
X0110424Y0157100D01*
X0108938Y0156484D01*
X0107616Y0155162D01*
X0106900Y0153435D01*
X0106900Y0151565D01*
X0107616Y0149838D01*
X0108938Y0148516D01*
X0109854Y0148136D01*
X0109335Y0147968D01*
X0108508Y0147546D01*
X0107756Y0147000D01*
X0107100Y0146344D01*
X0106554Y0145592D01*
X0106132Y0144765D01*
X0105964Y0144246D01*
X0105584Y0145162D01*
X0104262Y0146484D01*
X0102535Y0147200D01*
X0100665Y0147200D01*
X0098938Y0146484D01*
X0097616Y0145162D01*
X0096900Y0143435D01*
X0096900Y0141565D01*
X0097616Y0139838D01*
X0098938Y0138516D01*
X0100665Y0137800D01*
X0102535Y0137800D01*
X0104262Y0138516D01*
X0105584Y0139838D01*
X0105964Y0140754D01*
X0106132Y0140235D01*
X0106554Y0139408D01*
X0107100Y0138656D01*
X0107756Y0138000D01*
X0108508Y0137454D01*
X0109335Y0137032D01*
X0109854Y0136864D01*
X0108938Y0136484D01*
X0107616Y0135162D01*
X0106900Y0133435D01*
X0106900Y0131565D01*
X0107616Y0129838D01*
X0108938Y0128516D01*
X0110665Y0127800D01*
X0112535Y0127800D01*
X0114262Y0128516D01*
X0115584Y0129838D01*
X0116300Y0131565D01*
X0116300Y0133435D01*
X0115584Y0135162D01*
X0114262Y0136484D01*
X0113346Y0136864D01*
X0113865Y0137032D01*
X0114692Y0137454D01*
X0115444Y0138000D01*
X0116100Y0138656D01*
X0116646Y0139408D01*
X0117068Y0140235D01*
X0117355Y0141118D01*
X0117500Y0142036D01*
X0117500Y0142116D01*
X0111984Y0142116D01*
X0111984Y0142884D01*
X0117500Y0142884D01*
X0117500Y0142964D01*
X0117355Y0143882D01*
X0117068Y0144765D01*
X0116646Y0145592D01*
X0116100Y0146344D01*
X0115444Y0147000D01*
X0114692Y0147546D01*
X0113865Y0147968D01*
X0113346Y0148136D01*
X0114262Y0148516D01*
X0115584Y0149838D01*
X0116300Y0151565D01*
X0116300Y0153435D01*
X0115584Y0155162D01*
X0114262Y0156484D01*
X0112776Y0157100D01*
X0117077Y0157100D01*
X0118043Y0156700D01*
X0119157Y0156700D01*
X0120186Y0157126D01*
X0120974Y0157914D01*
X0121400Y0158943D01*
X0121400Y0160013D01*
X0122200Y0159213D01*
X0122200Y0129213D01*
X0124700Y0126713D01*
X0125050Y0126363D01*
X0125050Y0125620D01*
X0125170Y0125500D01*
X0125050Y0125380D01*
X0125050Y0124400D01*
X0115900Y0124400D01*
X0115584Y0125162D01*
X0114262Y0126484D01*
X0112535Y0127200D01*
X0110665Y0127200D01*
X0108938Y0126484D01*
X0107616Y0125162D01*
X0106900Y0123435D01*
X0106900Y0121565D01*
X0107616Y0119838D01*
X0108938Y0118516D01*
X0110665Y0117800D01*
X0112535Y0117800D01*
X0114262Y0118516D01*
X0115584Y0119838D01*
X0115900Y0120600D01*
X0125050Y0120600D01*
X0125050Y0119620D01*
X0125170Y0119500D01*
X0125050Y0119380D01*
X0125050Y0113620D01*
X0125870Y0112800D01*
X0127700Y0112800D01*
X0127700Y0088787D01*
X0123313Y0084400D01*
X0115900Y0084400D01*
X0115584Y0085162D01*
X0114262Y0086484D01*
X0112535Y0087200D01*
X0110665Y0087200D01*
X0108938Y0086484D01*
X0107616Y0085162D01*
X0106900Y0083435D01*
X0106900Y0081565D01*
X0107616Y0079838D01*
X0108053Y0079400D01*
X0105147Y0079400D01*
X0105584Y0079838D01*
X0106300Y0081565D01*
X0106300Y0083435D01*
X0105584Y0085162D01*
X0104262Y0086484D01*
X0102535Y0087200D01*
X0100665Y0087200D01*
X0098938Y0086484D01*
X0097616Y0085162D01*
X0096900Y0083435D01*
X0096900Y0081565D01*
X0097616Y0079838D01*
X0098938Y0078516D01*
X0100665Y0077800D01*
X0101113Y0077800D01*
X0101713Y0077200D01*
X0082511Y0077200D01*
X0078511Y0081200D01*
X0073650Y0081200D01*
X0073650Y0081880D01*
X0073530Y0082000D01*
X0073650Y0082120D01*
X0073650Y0087880D01*
X0073530Y0088000D01*
X0073650Y0088120D01*
X0073650Y0093880D01*
X0072830Y0094700D01*
X0065370Y0094700D01*
X0064550Y0093880D01*
X0064550Y0093200D01*
X0051511Y0093200D01*
X0046300Y0098411D01*
X0046300Y0119089D01*
X0046700Y0119489D01*
X0046700Y0115470D01*
X0049570Y0112600D01*
X0053630Y0112600D01*
X0056500Y0115470D01*
X0056500Y0119530D01*
X0056408Y0119621D01*
X0057387Y0120600D01*
X0057770Y0120600D01*
X0056700Y0119530D01*
X0056700Y0115470D01*
X0059570Y0112600D01*
X0063630Y0112600D01*
X0066500Y0115470D01*
X0066500Y0119530D01*
X0065430Y0120600D01*
X0097300Y0120600D01*
X0097616Y0119838D01*
X0098938Y0118516D01*
X0100665Y0117800D01*
X0102535Y0117800D01*
X0104262Y0118516D01*
X0105584Y0119838D01*
X0106300Y0121565D01*
X0106300Y0123435D01*
X0105584Y0125162D01*
X0104262Y0126484D01*
X0102535Y0127200D01*
X0100665Y0127200D01*
X0098938Y0126484D01*
X0097616Y0125162D01*
X0097300Y0124400D01*
X0065430Y0124400D01*
X0066500Y0125470D01*
X0066500Y0129530D01*
X0063630Y0132400D01*
X0059570Y0132400D01*
X0056700Y0129530D01*
X0056700Y0125470D01*
X0057770Y0124400D01*
X0055813Y0124400D01*
X0054700Y0123287D01*
X0053721Y0122308D01*
X0053630Y0122400D01*
X0049611Y0122400D01*
X0049811Y0122600D01*
X0053630Y0122600D01*
X0056500Y0125470D01*
X0056500Y0129530D01*
X0053630Y0132400D01*
X0049570Y0132400D01*
X0047559Y0130389D01*
X0047559Y0130918D01*
X0046739Y0131738D01*
X0040461Y0131738D01*
X0040350Y0131627D01*
X0040239Y0131738D01*
X0033961Y0131738D01*
X0033141Y0130918D01*
X0033141Y0126385D01*
X0032394Y0126628D01*
X0031577Y0126757D01*
X0031350Y0126757D01*
X0031350Y0121687D01*
X0030976Y0121687D01*
X0030976Y0126757D01*
X0030749Y0126757D01*
X0029932Y0126628D01*
X0029145Y0126372D01*
X0028407Y0125997D01*
X0027738Y0125510D01*
X0027153Y0124925D01*
X0026666Y0124256D01*
X0026300Y0123536D01*
X0026300Y0131589D01*
X0027250Y0132539D01*
X0027586Y0132400D01*
X0029614Y0132400D01*
X0031489Y0133176D01*
X0032092Y0133780D01*
X0032237Y0133431D01*
X0032521Y0133005D01*
X0032884Y0132643D01*
X0033309Y0132358D01*
X0033783Y0132162D01*
X0034285Y0132062D01*
X0036563Y0132062D01*
X0036563Y0136400D01*
X0037637Y0136400D01*
X0037637Y0132062D01*
X0039915Y0132062D01*
X0040350Y0132149D01*
X0040785Y0132062D01*
X0043063Y0132062D01*
X0043063Y0136400D01*
X0044137Y0136400D01*
X0044137Y0132062D01*
X0046415Y0132062D01*
X0046917Y0132162D01*
X0047391Y0132358D01*
X0047816Y0132643D01*
X0048179Y0133005D01*
X0048463Y0133431D01*
X0048544Y0133626D01*
X0049570Y0132600D01*
X0053630Y0132600D01*
X0056500Y0135470D01*
X0056500Y0139530D01*
X0053630Y0142400D01*
X0049570Y0142400D01*
X0048109Y0140939D01*
X0047816Y0141231D01*
X0047391Y0141516D01*
X0046917Y0141712D01*
X0046415Y0141812D01*
X0044137Y0141812D01*
X0044137Y0137474D01*
X0043063Y0137474D01*
X0043063Y0141812D01*
X0040785Y0141812D01*
X0040350Y0141725D01*
X0039915Y0141812D01*
X0037637Y0141812D01*
X0037637Y0137474D01*
X0037637Y0136400D01*
X0038441Y0136400D01*
X0043063Y0136400D01*
X0043063Y0135498D02*
X0044137Y0135498D01*
X0044137Y0134299D02*
X0043063Y0134299D01*
X0043063Y0133101D02*
X0044137Y0133101D01*
X0048243Y0133101D02*
X0049070Y0133101D01*
X0049072Y0131902D02*
X0026613Y0131902D01*
X0026300Y0130703D02*
X0033141Y0130703D01*
X0033141Y0129505D02*
X0026300Y0129505D01*
X0026300Y0128306D02*
X0033141Y0128306D01*
X0033141Y0127108D02*
X0026300Y0127108D01*
X0026300Y0125909D02*
X0028288Y0125909D01*
X0026997Y0124711D02*
X0026300Y0124711D01*
X0021900Y0124711D02*
X0008750Y0124711D01*
X0008750Y0125909D02*
X0021900Y0125909D01*
X0021900Y0127108D02*
X0008750Y0127108D01*
X0008750Y0128306D02*
X0021900Y0128306D01*
X0021900Y0129505D02*
X0008750Y0129505D01*
X0008750Y0130703D02*
X0021900Y0130703D01*
X0021900Y0131902D02*
X0008750Y0131902D01*
X0008750Y0133101D02*
X0021900Y0133101D01*
X0022788Y0134299D02*
X0008750Y0134299D01*
X0008750Y0135498D02*
X0023909Y0135498D01*
X0021600Y0137500D02*
X0028600Y0137500D01*
X0031822Y0141490D02*
X0033271Y0141490D01*
X0033696Y0142689D02*
X0049482Y0142689D01*
X0049570Y0142600D02*
X0053630Y0142600D01*
X0056500Y0145470D01*
X0056500Y0149530D01*
X0053630Y0152400D01*
X0049570Y0152400D01*
X0046700Y0149530D01*
X0046700Y0145470D01*
X0049570Y0142600D01*
X0048660Y0141490D02*
X0047429Y0141490D01*
X0048283Y0143887D02*
X0034762Y0143887D01*
X0035440Y0145086D02*
X0047085Y0145086D01*
X0046700Y0146284D02*
X0035786Y0146284D01*
X0035791Y0148681D02*
X0046700Y0148681D01*
X0046700Y0147483D02*
X0030000Y0147483D01*
X0029200Y0147483D02*
X0018600Y0147483D01*
X0018600Y0148681D02*
X0023409Y0148681D01*
X0023749Y0149880D02*
X0018600Y0149880D01*
X0018600Y0151078D02*
X0024412Y0151078D01*
X0025467Y0152277D02*
X0018600Y0152277D01*
X0018600Y0153475D02*
X0025412Y0153475D01*
X0024250Y0154674D02*
X0018600Y0154674D01*
X0018600Y0155872D02*
X0022899Y0155872D01*
X0021701Y0157071D02*
X0018600Y0157071D01*
X0018600Y0158269D02*
X0020502Y0158269D01*
X0019600Y0159468D02*
X0018600Y0159468D01*
X0018600Y0160666D02*
X0019600Y0160666D01*
X0019600Y0161865D02*
X0018600Y0161865D01*
X0018600Y0163063D02*
X0019600Y0163063D01*
X0019600Y0164262D02*
X0018600Y0164262D01*
X0018600Y0165460D02*
X0019600Y0165460D01*
X0019600Y0166659D02*
X0018600Y0166659D01*
X0018600Y0167857D02*
X0019600Y0167857D01*
X0019600Y0169056D02*
X0018600Y0169056D01*
X0018600Y0170254D02*
X0019600Y0170254D01*
X0020224Y0171453D02*
X0018600Y0171453D01*
X0019580Y0172651D02*
X0021423Y0172651D01*
X0021396Y0173850D02*
X0022621Y0173850D01*
X0022138Y0175048D02*
X0023820Y0175048D01*
X0024062Y0176247D02*
X0022138Y0176247D01*
X0022138Y0177445D02*
X0024062Y0177445D01*
X0024062Y0178644D02*
X0022138Y0178644D01*
X0022138Y0179842D02*
X0024062Y0179842D01*
X0024695Y0181041D02*
X0021505Y0181041D01*
X0021163Y0182239D02*
X0034700Y0182239D01*
X0034700Y0181041D02*
X0029379Y0181041D01*
X0030012Y0179842D02*
X0034700Y0179842D01*
X0034700Y0178644D02*
X0030012Y0178644D01*
X0030012Y0177445D02*
X0034700Y0177445D01*
X0034700Y0176247D02*
X0030012Y0176247D01*
X0030012Y0175048D02*
X0034700Y0175048D01*
X0034700Y0173850D02*
X0029270Y0173850D01*
X0027080Y0172651D02*
X0034064Y0172651D01*
X0032866Y0171453D02*
X0032860Y0171453D01*
X0035843Y0169056D02*
X0039700Y0169056D01*
X0039700Y0168287D02*
X0032363Y0160950D01*
X0031489Y0161824D01*
X0030097Y0162400D01*
X0030614Y0162400D01*
X0032489Y0163176D01*
X0033924Y0164611D01*
X0034700Y0166486D01*
X0034700Y0167913D01*
X0038500Y0171713D01*
X0038500Y0184213D01*
X0038887Y0184600D01*
X0040000Y0185713D01*
X0044887Y0190600D01*
X0047770Y0190600D01*
X0046700Y0189530D01*
X0046700Y0185470D01*
X0047770Y0184400D01*
X0045813Y0184400D01*
X0044700Y0183287D01*
X0039700Y0178287D01*
X0039700Y0168287D01*
X0039270Y0167857D02*
X0034700Y0167857D01*
X0034700Y0166659D02*
X0038072Y0166659D01*
X0036873Y0165460D02*
X0034275Y0165460D01*
X0033574Y0164262D02*
X0035675Y0164262D01*
X0034476Y0163063D02*
X0032216Y0163063D01*
X0031389Y0161865D02*
X0033278Y0161865D01*
X0036255Y0159468D02*
X0046700Y0159468D01*
X0046700Y0159530D02*
X0046700Y0155470D01*
X0049570Y0152600D01*
X0053630Y0152600D01*
X0056500Y0155470D01*
X0056500Y0159530D01*
X0053630Y0162400D01*
X0049570Y0162400D01*
X0046700Y0159530D01*
X0046700Y0158269D02*
X0035056Y0158269D01*
X0033858Y0157071D02*
X0046700Y0157071D01*
X0046700Y0155872D02*
X0033446Y0155872D01*
X0032950Y0154674D02*
X0047497Y0154674D01*
X0048695Y0153475D02*
X0031788Y0153475D01*
X0033733Y0152277D02*
X0049447Y0152277D01*
X0048249Y0151078D02*
X0034788Y0151078D01*
X0035451Y0149880D02*
X0047050Y0149880D01*
X0053753Y0152277D02*
X0059447Y0152277D01*
X0059570Y0152400D02*
X0056700Y0149530D01*
X0056700Y0145470D01*
X0059570Y0142600D01*
X0063630Y0142600D01*
X0066500Y0145470D01*
X0066500Y0149530D01*
X0063630Y0152400D01*
X0059570Y0152400D01*
X0058695Y0153475D02*
X0054505Y0153475D01*
X0055703Y0154674D02*
X0057497Y0154674D01*
X0056700Y0155872D02*
X0056500Y0155872D01*
X0056500Y0157071D02*
X0056700Y0157071D01*
X0056700Y0158269D02*
X0056500Y0158269D01*
X0056500Y0159468D02*
X0056700Y0159468D01*
X0055747Y0160666D02*
X0055363Y0160666D01*
X0054548Y0161865D02*
X0054165Y0161865D01*
X0056490Y0165460D02*
X0056710Y0165460D01*
X0056700Y0166659D02*
X0056500Y0166659D01*
X0056500Y0167857D02*
X0056700Y0167857D01*
X0056700Y0169056D02*
X0056500Y0169056D01*
X0055775Y0170254D02*
X0057425Y0170254D01*
X0058623Y0171453D02*
X0054577Y0171453D01*
X0053681Y0172651D02*
X0059519Y0172651D01*
X0058320Y0173850D02*
X0054880Y0173850D01*
X0056078Y0175048D02*
X0057122Y0175048D01*
X0056700Y0176247D02*
X0056500Y0176247D01*
X0056500Y0177445D02*
X0056700Y0177445D01*
X0056700Y0178644D02*
X0056500Y0178644D01*
X0056187Y0179842D02*
X0057013Y0179842D01*
X0063681Y0172651D02*
X0149519Y0172651D01*
X0149570Y0172400D02*
X0146700Y0169530D01*
X0146700Y0165470D01*
X0149570Y0162600D01*
X0153630Y0162600D01*
X0156500Y0165470D01*
X0156500Y0169530D01*
X0153630Y0172400D01*
X0149570Y0172400D01*
X0148623Y0171453D02*
X0064577Y0171453D01*
X0065775Y0170254D02*
X0147425Y0170254D01*
X0146700Y0169056D02*
X0066500Y0169056D01*
X0066500Y0167857D02*
X0146700Y0167857D01*
X0146700Y0166659D02*
X0066500Y0166659D01*
X0066490Y0165460D02*
X0146710Y0165460D01*
X0147909Y0164262D02*
X0122525Y0164262D01*
X0123724Y0163063D02*
X0149107Y0163063D01*
X0149570Y0162400D02*
X0146700Y0159530D01*
X0146700Y0155470D01*
X0149570Y0152600D01*
X0153630Y0152600D01*
X0156500Y0155470D01*
X0156500Y0159530D01*
X0153630Y0162400D01*
X0149570Y0162400D01*
X0149035Y0161865D02*
X0124922Y0161865D01*
X0124887Y0161900D02*
X0124887Y0161900D01*
X0126000Y0160666D02*
X0147837Y0160666D01*
X0146700Y0159468D02*
X0126000Y0159468D01*
X0126000Y0158269D02*
X0146700Y0158269D01*
X0146700Y0157071D02*
X0126000Y0157071D01*
X0126000Y0155872D02*
X0146700Y0155872D01*
X0147497Y0154674D02*
X0126000Y0154674D01*
X0126000Y0153475D02*
X0148695Y0153475D01*
X0149570Y0152400D02*
X0146700Y0149530D01*
X0146700Y0145470D01*
X0149570Y0142600D01*
X0153630Y0142600D01*
X0156500Y0145470D01*
X0156500Y0149530D01*
X0153630Y0152400D01*
X0149570Y0152400D01*
X0149447Y0152277D02*
X0126000Y0152277D01*
X0126000Y0151078D02*
X0148249Y0151078D01*
X0147050Y0149880D02*
X0126000Y0149880D01*
X0126000Y0148681D02*
X0146700Y0148681D01*
X0146700Y0147483D02*
X0126000Y0147483D01*
X0126000Y0146284D02*
X0146700Y0146284D01*
X0147085Y0145086D02*
X0126000Y0145086D01*
X0126000Y0143887D02*
X0148283Y0143887D01*
X0149482Y0142689D02*
X0126000Y0142689D01*
X0126000Y0141490D02*
X0148660Y0141490D01*
X0147462Y0140292D02*
X0126000Y0140292D01*
X0126000Y0139093D02*
X0146700Y0139093D01*
X0146700Y0137895D02*
X0126000Y0137895D01*
X0126000Y0136696D02*
X0146700Y0136696D01*
X0146700Y0135498D02*
X0126000Y0135498D01*
X0126000Y0134299D02*
X0147871Y0134299D01*
X0149070Y0133101D02*
X0126000Y0133101D01*
X0122200Y0133101D02*
X0116300Y0133101D01*
X0116300Y0131902D02*
X0122200Y0131902D01*
X0122200Y0130703D02*
X0115943Y0130703D01*
X0115252Y0129505D02*
X0122200Y0129505D01*
X0123107Y0128306D02*
X0113758Y0128306D01*
X0112757Y0127108D02*
X0124305Y0127108D01*
X0125050Y0125909D02*
X0114837Y0125909D01*
X0115771Y0124711D02*
X0125050Y0124711D01*
X0129100Y0122500D02*
X0129600Y0123000D01*
X0129600Y0128500D01*
X0134150Y0128306D02*
X0146700Y0128306D01*
X0146700Y0127108D02*
X0134150Y0127108D01*
X0134150Y0125909D02*
X0146700Y0125909D01*
X0146700Y0125470D02*
X0149570Y0122600D01*
X0153630Y0122600D01*
X0156500Y0125470D01*
X0156500Y0129530D01*
X0153630Y0132400D01*
X0149570Y0132400D01*
X0146700Y0129530D01*
X0146700Y0125470D01*
X0147459Y0124711D02*
X0134150Y0124711D01*
X0134150Y0123512D02*
X0148658Y0123512D01*
X0149570Y0122400D02*
X0146700Y0119530D01*
X0146700Y0115470D01*
X0149570Y0112600D01*
X0153630Y0112600D01*
X0156500Y0115470D01*
X0156500Y0119530D01*
X0153630Y0122400D01*
X0149570Y0122400D01*
X0149484Y0122314D02*
X0134150Y0122314D01*
X0134150Y0121115D02*
X0148286Y0121115D01*
X0147087Y0119917D02*
X0134150Y0119917D01*
X0134150Y0118718D02*
X0146700Y0118718D01*
X0146700Y0117520D02*
X0134150Y0117520D01*
X0134150Y0116321D02*
X0146700Y0116321D01*
X0147048Y0115123D02*
X0134150Y0115123D01*
X0134150Y0113924D02*
X0148246Y0113924D01*
X0149445Y0112726D02*
X0131500Y0112726D01*
X0131500Y0111527D02*
X0148698Y0111527D01*
X0147499Y0110329D02*
X0131500Y0110329D01*
X0131500Y0109130D02*
X0146700Y0109130D01*
X0146700Y0107932D02*
X0131500Y0107932D01*
X0131500Y0106733D02*
X0146700Y0106733D01*
X0146700Y0105535D02*
X0131500Y0105535D01*
X0131500Y0104336D02*
X0147834Y0104336D01*
X0149033Y0103138D02*
X0131500Y0103138D01*
X0131500Y0101939D02*
X0153352Y0101939D01*
X0154167Y0103138D02*
X0154551Y0103138D01*
X0152154Y0100741D02*
X0131500Y0100741D01*
X0131500Y0099542D02*
X0150955Y0099542D01*
X0149757Y0098344D02*
X0131500Y0098344D01*
X0131500Y0097145D02*
X0148558Y0097145D01*
X0147360Y0095947D02*
X0131500Y0095947D01*
X0131500Y0094748D02*
X0146161Y0094748D01*
X0144963Y0093550D02*
X0131500Y0093550D01*
X0131500Y0092351D02*
X0143764Y0092351D01*
X0142566Y0091153D02*
X0131500Y0091153D01*
X0131500Y0089954D02*
X0141367Y0089954D01*
X0140169Y0088756D02*
X0131500Y0088756D01*
X0131500Y0087557D02*
X0138970Y0087557D01*
X0137772Y0086359D02*
X0130646Y0086359D01*
X0129447Y0085160D02*
X0136573Y0085160D01*
X0135375Y0083962D02*
X0128249Y0083962D01*
X0127050Y0082763D02*
X0134176Y0082763D01*
X0132978Y0081565D02*
X0125852Y0081565D01*
X0124073Y0085160D02*
X0115585Y0085160D01*
X0114388Y0086359D02*
X0125272Y0086359D01*
X0126470Y0087557D02*
X0073650Y0087557D01*
X0073650Y0086359D02*
X0098812Y0086359D01*
X0097615Y0085160D02*
X0073650Y0085160D01*
X0073650Y0083962D02*
X0097118Y0083962D01*
X0096900Y0082763D02*
X0073650Y0082763D01*
X0073650Y0081565D02*
X0096900Y0081565D01*
X0097397Y0080366D02*
X0079345Y0080366D01*
X0080544Y0079168D02*
X0098286Y0079168D01*
X0100257Y0077969D02*
X0081742Y0077969D01*
X0079115Y0074373D02*
X0034337Y0074373D01*
X0035639Y0075572D02*
X0065098Y0075572D01*
X0064550Y0076770D02*
X0036339Y0076770D01*
X0036650Y0077969D02*
X0064550Y0077969D01*
X0064550Y0079168D02*
X0036688Y0079168D01*
X0036418Y0080366D02*
X0064550Y0080366D01*
X0064550Y0081565D02*
X0035815Y0081565D01*
X0034669Y0082763D02*
X0064550Y0082763D01*
X0064550Y0087200D02*
X0040011Y0087200D01*
X0038448Y0088763D01*
X0034910Y0088763D01*
X0034906Y0088772D01*
X0033809Y0089869D01*
X0032376Y0090463D01*
X0030824Y0090463D01*
X0029391Y0089869D01*
X0028366Y0088845D01*
X0026300Y0090911D01*
X0026300Y0119464D01*
X0026666Y0118744D01*
X0027153Y0118075D01*
X0027738Y0117490D01*
X0028407Y0117003D01*
X0029145Y0116628D01*
X0029932Y0116372D01*
X0030749Y0116243D01*
X0030976Y0116243D01*
X0030976Y0121313D01*
X0031350Y0121313D01*
X0031350Y0116243D01*
X0031577Y0116243D01*
X0032394Y0116372D01*
X0033181Y0116628D01*
X0033919Y0117003D01*
X0034588Y0117490D01*
X0035170Y0118072D01*
X0035800Y0117443D01*
X0041900Y0117443D01*
X0041900Y0096589D01*
X0048400Y0090089D01*
X0049689Y0088800D01*
X0064550Y0088800D01*
X0064550Y0088120D01*
X0064670Y0088000D01*
X0064550Y0087880D01*
X0064550Y0087200D01*
X0064550Y0087557D02*
X0039654Y0087557D01*
X0038456Y0088756D02*
X0064550Y0088756D01*
X0064550Y0093550D02*
X0051162Y0093550D01*
X0049963Y0094748D02*
X0097444Y0094748D01*
X0097616Y0095162D02*
X0096900Y0093435D01*
X0096900Y0091565D01*
X0097616Y0089838D01*
X0098938Y0088516D01*
X0100665Y0087800D01*
X0102535Y0087800D01*
X0104262Y0088516D01*
X0105584Y0089838D01*
X0106300Y0091565D01*
X0106300Y0093435D01*
X0105584Y0095162D01*
X0104262Y0096484D01*
X0102535Y0097200D01*
X0100665Y0097200D01*
X0098938Y0096484D01*
X0097616Y0095162D01*
X0098400Y0095947D02*
X0048765Y0095947D01*
X0047566Y0097145D02*
X0100533Y0097145D01*
X0100665Y0097800D02*
X0102535Y0097800D01*
X0104262Y0098516D01*
X0105584Y0099838D01*
X0106300Y0101565D01*
X0106300Y0103435D01*
X0105584Y0105162D01*
X0104262Y0106484D01*
X0102535Y0107200D01*
X0100665Y0107200D01*
X0098938Y0106484D01*
X0097616Y0105162D01*
X0096900Y0103435D01*
X0096900Y0101565D01*
X0097616Y0099838D01*
X0098938Y0098516D01*
X0100665Y0097800D01*
X0099353Y0098344D02*
X0046368Y0098344D01*
X0046300Y0099542D02*
X0097911Y0099542D01*
X0097241Y0100741D02*
X0046300Y0100741D01*
X0046300Y0101939D02*
X0096900Y0101939D01*
X0096900Y0103138D02*
X0064167Y0103138D01*
X0063630Y0102600D02*
X0066500Y0105470D01*
X0066500Y0109530D01*
X0063630Y0112400D01*
X0059570Y0112400D01*
X0056700Y0109530D01*
X0056700Y0105470D01*
X0059570Y0102600D01*
X0063630Y0102600D01*
X0065366Y0104336D02*
X0097273Y0104336D01*
X0097988Y0105535D02*
X0066500Y0105535D01*
X0066500Y0106733D02*
X0099538Y0106733D01*
X0100347Y0107932D02*
X0066500Y0107932D01*
X0066500Y0109130D02*
X0098323Y0109130D01*
X0098938Y0108516D02*
X0100665Y0107800D01*
X0102535Y0107800D01*
X0104262Y0108516D01*
X0105584Y0109838D01*
X0106300Y0111565D01*
X0106300Y0113435D01*
X0105584Y0115162D01*
X0104262Y0116484D01*
X0102535Y0117200D01*
X0100665Y0117200D01*
X0098938Y0116484D01*
X0097616Y0115162D01*
X0096900Y0113435D01*
X0096900Y0111565D01*
X0097616Y0109838D01*
X0098938Y0108516D01*
X0097412Y0110329D02*
X0065701Y0110329D01*
X0064502Y0111527D02*
X0096916Y0111527D01*
X0096900Y0112726D02*
X0063755Y0112726D01*
X0064954Y0113924D02*
X0097103Y0113924D01*
X0097599Y0115123D02*
X0066152Y0115123D01*
X0066500Y0116321D02*
X0098775Y0116321D01*
X0098735Y0118718D02*
X0066500Y0118718D01*
X0066500Y0117520D02*
X0125050Y0117520D01*
X0125050Y0118718D02*
X0114465Y0118718D01*
X0115617Y0119917D02*
X0125050Y0119917D01*
X0125050Y0116321D02*
X0114425Y0116321D01*
X0114262Y0116484D02*
X0112535Y0117200D01*
X0110665Y0117200D01*
X0108938Y0116484D01*
X0107616Y0115162D01*
X0106900Y0113435D01*
X0106900Y0111565D01*
X0107616Y0109838D01*
X0108938Y0108516D01*
X0110665Y0107800D01*
X0112535Y0107800D01*
X0114262Y0108516D01*
X0115584Y0109838D01*
X0116300Y0111565D01*
X0116300Y0113435D01*
X0115584Y0115162D01*
X0114262Y0116484D01*
X0115601Y0115123D02*
X0125050Y0115123D01*
X0125050Y0113924D02*
X0116097Y0113924D01*
X0116300Y0112726D02*
X0127700Y0112726D01*
X0127700Y0111527D02*
X0116284Y0111527D01*
X0115788Y0110329D02*
X0127700Y0110329D01*
X0127700Y0109130D02*
X0114877Y0109130D01*
X0112853Y0107932D02*
X0127700Y0107932D01*
X0127700Y0106733D02*
X0113662Y0106733D01*
X0114262Y0106484D02*
X0112535Y0107200D01*
X0110665Y0107200D01*
X0108938Y0106484D01*
X0107616Y0105162D01*
X0106900Y0103435D01*
X0106900Y0101565D01*
X0107616Y0099838D01*
X0108938Y0098516D01*
X0110665Y0097800D01*
X0112535Y0097800D01*
X0114262Y0098516D01*
X0115584Y0099838D01*
X0116300Y0101565D01*
X0116300Y0103435D01*
X0115584Y0105162D01*
X0114262Y0106484D01*
X0115212Y0105535D02*
X0127700Y0105535D01*
X0127700Y0104336D02*
X0115927Y0104336D01*
X0116300Y0103138D02*
X0127700Y0103138D01*
X0127700Y0101939D02*
X0116300Y0101939D01*
X0115959Y0100741D02*
X0127700Y0100741D01*
X0127700Y0099542D02*
X0115289Y0099542D01*
X0113847Y0098344D02*
X0127700Y0098344D01*
X0127700Y0097145D02*
X0112667Y0097145D01*
X0112535Y0097200D02*
X0110665Y0097200D01*
X0108938Y0096484D01*
X0107616Y0095162D01*
X0106900Y0093435D01*
X0106900Y0091565D01*
X0107616Y0089838D01*
X0108938Y0088516D01*
X0110665Y0087800D01*
X0112535Y0087800D01*
X0114262Y0088516D01*
X0115584Y0089838D01*
X0116300Y0091565D01*
X0116300Y0093435D01*
X0115584Y0095162D01*
X0114262Y0096484D01*
X0112535Y0097200D01*
X0110533Y0097145D02*
X0102667Y0097145D01*
X0103847Y0098344D02*
X0109353Y0098344D01*
X0107911Y0099542D02*
X0105289Y0099542D01*
X0105959Y0100741D02*
X0107241Y0100741D01*
X0106900Y0101939D02*
X0106300Y0101939D01*
X0106300Y0103138D02*
X0106900Y0103138D01*
X0107273Y0104336D02*
X0105927Y0104336D01*
X0105212Y0105535D02*
X0107988Y0105535D01*
X0109538Y0106733D02*
X0103662Y0106733D01*
X0102853Y0107932D02*
X0110347Y0107932D01*
X0108323Y0109130D02*
X0104877Y0109130D01*
X0105788Y0110329D02*
X0107412Y0110329D01*
X0106916Y0111527D02*
X0106284Y0111527D01*
X0106300Y0112726D02*
X0106900Y0112726D01*
X0107103Y0113924D02*
X0106097Y0113924D01*
X0105601Y0115123D02*
X0107599Y0115123D01*
X0108775Y0116321D02*
X0104425Y0116321D01*
X0104465Y0118718D02*
X0108735Y0118718D01*
X0107583Y0119917D02*
X0105617Y0119917D01*
X0106114Y0121115D02*
X0107086Y0121115D01*
X0106900Y0122314D02*
X0106300Y0122314D01*
X0106268Y0123512D02*
X0106932Y0123512D01*
X0107429Y0124711D02*
X0105771Y0124711D01*
X0104837Y0125909D02*
X0108363Y0125909D01*
X0110443Y0127108D02*
X0102757Y0127108D01*
X0102535Y0127800D02*
X0100665Y0127800D01*
X0098938Y0128516D01*
X0097616Y0129838D01*
X0097300Y0130600D01*
X0085813Y0130600D01*
X0084700Y0131713D01*
X0080813Y0135600D01*
X0066500Y0135600D01*
X0066500Y0135470D01*
X0063630Y0132600D01*
X0059570Y0132600D01*
X0056700Y0135470D01*
X0056700Y0139530D01*
X0059570Y0142400D01*
X0063630Y0142400D01*
X0066500Y0139530D01*
X0066500Y0139400D01*
X0082387Y0139400D01*
X0087387Y0134400D01*
X0097300Y0134400D01*
X0097616Y0135162D01*
X0098938Y0136484D01*
X0100665Y0137200D01*
X0102535Y0137200D01*
X0104262Y0136484D01*
X0105584Y0135162D01*
X0106300Y0133435D01*
X0106300Y0131565D01*
X0105584Y0129838D01*
X0104262Y0128516D01*
X0102535Y0127800D01*
X0103758Y0128306D02*
X0109442Y0128306D01*
X0107948Y0129505D02*
X0105252Y0129505D01*
X0105943Y0130703D02*
X0107257Y0130703D01*
X0106900Y0131902D02*
X0106300Y0131902D01*
X0106300Y0133101D02*
X0106900Y0133101D01*
X0107258Y0134299D02*
X0105942Y0134299D01*
X0105249Y0135498D02*
X0107951Y0135498D01*
X0109448Y0136696D02*
X0103752Y0136696D01*
X0102763Y0137895D02*
X0107901Y0137895D01*
X0106782Y0139093D02*
X0104840Y0139093D01*
X0105772Y0140292D02*
X0106114Y0140292D01*
X0106296Y0145086D02*
X0105616Y0145086D01*
X0104463Y0146284D02*
X0107057Y0146284D01*
X0108420Y0147483D02*
X0066500Y0147483D01*
X0066500Y0148681D02*
X0099445Y0148681D01*
X0099134Y0148810D02*
X0100734Y0148147D01*
X0102466Y0148147D01*
X0104066Y0148810D01*
X0105290Y0150034D01*
X0105953Y0151634D01*
X0105953Y0153366D01*
X0105290Y0154966D01*
X0104066Y0156190D01*
X0102466Y0156853D01*
X0100734Y0156853D01*
X0099134Y0156190D01*
X0097910Y0154966D01*
X0097247Y0153366D01*
X0097247Y0151634D01*
X0097910Y0150034D01*
X0099134Y0148810D01*
X0098065Y0149880D02*
X0066150Y0149880D01*
X0064951Y0151078D02*
X0097478Y0151078D01*
X0097247Y0152277D02*
X0063753Y0152277D01*
X0064505Y0153475D02*
X0097293Y0153475D01*
X0097789Y0154674D02*
X0065703Y0154674D01*
X0067659Y0155872D02*
X0098816Y0155872D01*
X0104383Y0155872D02*
X0108325Y0155872D01*
X0107413Y0154674D02*
X0105411Y0154674D01*
X0105907Y0153475D02*
X0106917Y0153475D01*
X0106900Y0152277D02*
X0105953Y0152277D01*
X0105722Y0151078D02*
X0107102Y0151078D01*
X0107598Y0149880D02*
X0105135Y0149880D01*
X0103755Y0148681D02*
X0108772Y0148681D01*
X0114428Y0148681D02*
X0122200Y0148681D01*
X0122200Y0147483D02*
X0114780Y0147483D01*
X0116143Y0146284D02*
X0122200Y0146284D01*
X0122200Y0145086D02*
X0116904Y0145086D01*
X0117353Y0143887D02*
X0122200Y0143887D01*
X0122200Y0142689D02*
X0111984Y0142689D01*
X0117086Y0140292D02*
X0122200Y0140292D01*
X0122200Y0141490D02*
X0117414Y0141490D01*
X0116418Y0139093D02*
X0122200Y0139093D01*
X0122200Y0137895D02*
X0115299Y0137895D01*
X0113752Y0136696D02*
X0122200Y0136696D01*
X0122200Y0135498D02*
X0115249Y0135498D01*
X0115942Y0134299D02*
X0122200Y0134299D01*
X0133628Y0131902D02*
X0149072Y0131902D01*
X0147874Y0130703D02*
X0134150Y0130703D01*
X0134150Y0129505D02*
X0146700Y0129505D01*
X0154128Y0131902D02*
X0158571Y0131902D01*
X0157874Y0130703D02*
X0155326Y0130703D01*
X0156500Y0129505D02*
X0156700Y0129505D01*
X0156700Y0128306D02*
X0156500Y0128306D01*
X0156500Y0127108D02*
X0156700Y0127108D01*
X0156700Y0125909D02*
X0156500Y0125909D01*
X0155741Y0124711D02*
X0157459Y0124711D01*
X0158658Y0123512D02*
X0154542Y0123512D01*
X0153716Y0122314D02*
X0159484Y0122314D01*
X0158286Y0121115D02*
X0154914Y0121115D01*
X0156113Y0119917D02*
X0157087Y0119917D01*
X0156700Y0118718D02*
X0156500Y0118718D01*
X0156500Y0117520D02*
X0156700Y0117520D01*
X0156700Y0116321D02*
X0156500Y0116321D01*
X0156536Y0115123D02*
X0156152Y0115123D01*
X0155337Y0113924D02*
X0154954Y0113924D01*
X0154700Y0112726D02*
X0153755Y0112726D01*
X0154502Y0111527D02*
X0154700Y0111527D01*
X0158500Y0111527D02*
X0158698Y0111527D01*
X0163755Y0112726D02*
X0168200Y0112726D01*
X0168200Y0113924D02*
X0164954Y0113924D01*
X0166152Y0115123D02*
X0168200Y0115123D01*
X0168200Y0116321D02*
X0166500Y0116321D01*
X0166500Y0117520D02*
X0168200Y0117520D01*
X0168200Y0118718D02*
X0166500Y0118718D01*
X0166113Y0119917D02*
X0168200Y0119917D01*
X0168176Y0121115D02*
X0164914Y0121115D01*
X0163716Y0122314D02*
X0166978Y0122314D01*
X0165779Y0123512D02*
X0164542Y0123512D01*
X0171800Y0127108D02*
X0182749Y0127108D01*
X0183088Y0125909D02*
X0172999Y0125909D01*
X0174197Y0124711D02*
X0183676Y0124711D01*
X0184604Y0123512D02*
X0174861Y0123512D01*
X0175000Y0122314D02*
X0186129Y0122314D01*
X0187407Y0119466D02*
X0186555Y0119113D01*
X0185757Y0118652D01*
X0185026Y0118091D01*
X0184375Y0117440D01*
X0183814Y0116709D01*
X0183353Y0115911D01*
X0183000Y0115060D01*
X0182762Y0114170D01*
X0182660Y0113395D01*
X0193500Y0113395D01*
X0193500Y0119824D01*
X0189210Y0119824D01*
X0188297Y0119704D01*
X0187407Y0119466D01*
X0185872Y0118718D02*
X0175000Y0118718D01*
X0175000Y0117520D02*
X0184455Y0117520D01*
X0183590Y0116321D02*
X0175000Y0116321D01*
X0175000Y0115123D02*
X0183027Y0115123D01*
X0182730Y0113924D02*
X0175000Y0113924D01*
X0175000Y0112726D02*
X0193500Y0112726D01*
X0193500Y0112195D02*
X0182660Y0112195D01*
X0182762Y0111421D01*
X0183000Y0110531D01*
X0183353Y0109680D01*
X0183814Y0108882D01*
X0184375Y0108151D01*
X0185026Y0107499D01*
X0185757Y0106938D01*
X0186555Y0106478D01*
X0187407Y0106125D01*
X0188297Y0105886D01*
X0189210Y0105766D01*
X0193500Y0105766D01*
X0193500Y0112195D01*
X0193500Y0111527D02*
X0194700Y0111527D01*
X0194700Y0110329D02*
X0193500Y0110329D01*
X0193500Y0109130D02*
X0194700Y0109130D01*
X0194700Y0107932D02*
X0193500Y0107932D01*
X0193500Y0106733D02*
X0194700Y0106733D01*
X0194700Y0113924D02*
X0193500Y0113924D01*
X0193500Y0115123D02*
X0194700Y0115123D01*
X0194700Y0116321D02*
X0193500Y0116321D01*
X0193500Y0117520D02*
X0194700Y0117520D01*
X0194700Y0118718D02*
X0193500Y0118718D01*
X0193500Y0122314D02*
X0194700Y0122314D01*
X0194700Y0123512D02*
X0193500Y0123512D01*
X0193500Y0124711D02*
X0194700Y0124711D01*
X0194700Y0125909D02*
X0193500Y0125909D01*
X0193500Y0127108D02*
X0194700Y0127108D01*
X0193500Y0128306D02*
X0172215Y0128306D01*
X0173413Y0129505D02*
X0182728Y0129505D01*
X0183023Y0130703D02*
X0174612Y0130703D01*
X0175810Y0131902D02*
X0183584Y0131902D01*
X0184445Y0133101D02*
X0177009Y0133101D01*
X0178207Y0134299D02*
X0185855Y0134299D01*
X0181803Y0137895D02*
X0204450Y0137895D01*
X0204450Y0139093D02*
X0183001Y0139093D01*
X0184200Y0140292D02*
X0204450Y0140292D01*
X0204450Y0141490D02*
X0192832Y0141490D01*
X0190368Y0141490D02*
X0184862Y0141490D01*
X0185001Y0142689D02*
X0188199Y0142689D01*
X0187162Y0143887D02*
X0186038Y0143887D01*
X0186534Y0145086D02*
X0186666Y0145086D01*
X0186983Y0148681D02*
X0186217Y0148681D01*
X0185433Y0149880D02*
X0187767Y0149880D01*
X0189326Y0151078D02*
X0183874Y0151078D01*
X0179326Y0151078D02*
X0164951Y0151078D01*
X0163753Y0152277D02*
X0204450Y0152277D01*
X0204450Y0153475D02*
X0164505Y0153475D01*
X0163630Y0152600D02*
X0166500Y0155470D01*
X0166500Y0159530D01*
X0163630Y0162400D01*
X0159570Y0162400D01*
X0156700Y0159530D01*
X0156700Y0155470D01*
X0159570Y0152600D01*
X0163630Y0152600D01*
X0165703Y0154674D02*
X0204450Y0154674D01*
X0204450Y0155872D02*
X0166500Y0155872D01*
X0166500Y0157071D02*
X0204450Y0157071D01*
X0204450Y0158269D02*
X0166500Y0158269D01*
X0166500Y0159468D02*
X0204450Y0159468D01*
X0204450Y0160666D02*
X0165363Y0160666D01*
X0164165Y0161865D02*
X0204450Y0161865D01*
X0204450Y0163063D02*
X0164093Y0163063D01*
X0165291Y0164262D02*
X0204450Y0164262D01*
X0204450Y0165460D02*
X0166490Y0165460D01*
X0166500Y0166659D02*
X0204450Y0166659D01*
X0204450Y0167857D02*
X0167144Y0167857D01*
X0168343Y0169056D02*
X0204450Y0169056D01*
X0204450Y0170254D02*
X0169541Y0170254D01*
X0170740Y0171453D02*
X0204450Y0171453D01*
X0204450Y0172651D02*
X0171000Y0172651D01*
X0171000Y0173850D02*
X0195158Y0173850D01*
X0195125Y0173855D02*
X0196104Y0173700D01*
X0196200Y0173700D01*
X0196200Y0179600D01*
X0197000Y0179600D01*
X0197000Y0180400D01*
X0202900Y0180400D01*
X0202900Y0180496D01*
X0202745Y0181475D01*
X0202438Y0182418D01*
X0201988Y0183302D01*
X0201405Y0184104D01*
X0200704Y0184805D01*
X0200436Y0185000D01*
X0200704Y0185195D01*
X0201405Y0185896D01*
X0201988Y0186698D01*
X0202438Y0187582D01*
X0202745Y0188525D01*
X0202900Y0189504D01*
X0202900Y0189600D01*
X0197000Y0189600D01*
X0197000Y0190400D01*
X0196200Y0190400D01*
X0196200Y0196300D01*
X0196104Y0196300D01*
X0195125Y0196145D01*
X0194182Y0195838D01*
X0193298Y0195388D01*
X0192496Y0194805D01*
X0191795Y0194104D01*
X0191212Y0193302D01*
X0190958Y0192805D01*
X0190924Y0192889D01*
X0189489Y0194324D01*
X0187614Y0195100D01*
X0185586Y0195100D01*
X0183711Y0194324D01*
X0182276Y0192889D01*
X0181500Y0191014D01*
X0181500Y0188986D01*
X0182276Y0187111D01*
X0183711Y0185676D01*
X0185344Y0185000D01*
X0183711Y0184324D01*
X0182276Y0182889D01*
X0181500Y0181014D01*
X0181500Y0178986D01*
X0182276Y0177111D01*
X0183711Y0175676D01*
X0185586Y0174900D01*
X0187614Y0174900D01*
X0189489Y0175676D01*
X0190924Y0177111D01*
X0190958Y0177195D01*
X0191212Y0176698D01*
X0191795Y0175896D01*
X0192496Y0175195D01*
X0193298Y0174612D01*
X0194182Y0174162D01*
X0195125Y0173855D01*
X0196200Y0173850D02*
X0197000Y0173850D01*
X0197000Y0173700D02*
X0197096Y0173700D01*
X0198075Y0173855D01*
X0199018Y0174162D01*
X0199902Y0174612D01*
X0200704Y0175195D01*
X0201405Y0175896D01*
X0201988Y0176698D01*
X0202438Y0177582D01*
X0202745Y0178525D01*
X0202900Y0179504D01*
X0202900Y0179600D01*
X0197000Y0179600D01*
X0197000Y0173700D01*
X0198042Y0173850D02*
X0204450Y0173850D01*
X0204450Y0175048D02*
X0200503Y0175048D01*
X0201660Y0176247D02*
X0204450Y0176247D01*
X0204450Y0177445D02*
X0202369Y0177445D01*
X0202764Y0178644D02*
X0204450Y0178644D01*
X0204450Y0179842D02*
X0197000Y0179842D01*
X0197000Y0180400D02*
X0196200Y0180400D01*
X0196200Y0186300D01*
X0196200Y0189600D01*
X0197000Y0189600D01*
X0197000Y0180400D01*
X0197000Y0181041D02*
X0196200Y0181041D01*
X0196200Y0182239D02*
X0197000Y0182239D01*
X0197000Y0183438D02*
X0196200Y0183438D01*
X0196200Y0184637D02*
X0197000Y0184637D01*
X0197000Y0185835D02*
X0196200Y0185835D01*
X0196200Y0187034D02*
X0197000Y0187034D01*
X0197000Y0188232D02*
X0196200Y0188232D01*
X0196200Y0189431D02*
X0197000Y0189431D01*
X0197000Y0190400D02*
X0202900Y0190400D01*
X0202900Y0190496D01*
X0202745Y0191475D01*
X0202438Y0192418D01*
X0201988Y0193302D01*
X0201405Y0194104D01*
X0200704Y0194805D01*
X0199902Y0195388D01*
X0199018Y0195838D01*
X0198075Y0196145D01*
X0197096Y0196300D01*
X0197000Y0196300D01*
X0197000Y0190400D01*
X0197000Y0190629D02*
X0196200Y0190629D01*
X0196200Y0191828D02*
X0197000Y0191828D01*
X0197000Y0193026D02*
X0196200Y0193026D01*
X0196200Y0194225D02*
X0197000Y0194225D01*
X0197000Y0195423D02*
X0196200Y0195423D01*
X0199833Y0195423D02*
X0204450Y0195423D01*
X0204450Y0194225D02*
X0201285Y0194225D01*
X0202129Y0193026D02*
X0204450Y0193026D01*
X0204450Y0191828D02*
X0202630Y0191828D01*
X0202879Y0190629D02*
X0204450Y0190629D01*
X0204450Y0189431D02*
X0202888Y0189431D01*
X0202650Y0188232D02*
X0204450Y0188232D01*
X0204450Y0187034D02*
X0202159Y0187034D01*
X0201345Y0185835D02*
X0204450Y0185835D01*
X0204450Y0184637D02*
X0200873Y0184637D01*
X0201889Y0183438D02*
X0204450Y0183438D01*
X0204450Y0182239D02*
X0202497Y0182239D01*
X0202814Y0181041D02*
X0204450Y0181041D01*
X0197000Y0178644D02*
X0196200Y0178644D01*
X0196200Y0177445D02*
X0197000Y0177445D01*
X0197000Y0176247D02*
X0196200Y0176247D01*
X0196200Y0175048D02*
X0197000Y0175048D01*
X0192697Y0175048D02*
X0187973Y0175048D01*
X0190059Y0176247D02*
X0191540Y0176247D01*
X0185227Y0175048D02*
X0171000Y0175048D01*
X0171000Y0176247D02*
X0183141Y0176247D01*
X0182138Y0177445D02*
X0171000Y0177445D01*
X0171000Y0178644D02*
X0181641Y0178644D01*
X0181500Y0179842D02*
X0171000Y0179842D01*
X0171000Y0181041D02*
X0181511Y0181041D01*
X0182007Y0182239D02*
X0171000Y0182239D01*
X0171000Y0183438D02*
X0182826Y0183438D01*
X0184467Y0184637D02*
X0171000Y0184637D01*
X0171000Y0185835D02*
X0183552Y0185835D01*
X0182354Y0187034D02*
X0171000Y0187034D01*
X0171000Y0188232D02*
X0181812Y0188232D01*
X0181500Y0189431D02*
X0171000Y0189431D01*
X0171000Y0190629D02*
X0181500Y0190629D01*
X0181837Y0191828D02*
X0169959Y0191828D01*
X0168761Y0193026D02*
X0182414Y0193026D01*
X0183612Y0194225D02*
X0167562Y0194225D01*
X0166453Y0195423D02*
X0193367Y0195423D01*
X0191915Y0194225D02*
X0189588Y0194225D01*
X0190786Y0193026D02*
X0191071Y0193026D01*
X0202013Y0201416D02*
X0164614Y0201416D01*
X0165812Y0200217D02*
X0203225Y0200217D01*
X0203859Y0199019D02*
X0166500Y0199019D01*
X0166500Y0197820D02*
X0204283Y0197820D01*
X0204491Y0196622D02*
X0166500Y0196622D01*
X0166500Y0189431D02*
X0166982Y0189431D01*
X0167200Y0188232D02*
X0166500Y0188232D01*
X0166500Y0187034D02*
X0167200Y0187034D01*
X0167200Y0185835D02*
X0166500Y0185835D01*
X0167200Y0184637D02*
X0165666Y0184637D01*
X0164468Y0183438D02*
X0167200Y0183438D01*
X0167200Y0182239D02*
X0163790Y0182239D01*
X0164989Y0181041D02*
X0167200Y0181041D01*
X0167200Y0179842D02*
X0166187Y0179842D01*
X0166500Y0178644D02*
X0167200Y0178644D01*
X0167200Y0177445D02*
X0166500Y0177445D01*
X0166500Y0176247D02*
X0167200Y0176247D01*
X0167200Y0175048D02*
X0166078Y0175048D01*
X0167200Y0173850D02*
X0164880Y0173850D01*
X0163681Y0172651D02*
X0166564Y0172651D01*
X0165366Y0171453D02*
X0164577Y0171453D01*
X0159519Y0172651D02*
X0153681Y0172651D01*
X0154577Y0171453D02*
X0158623Y0171453D01*
X0157425Y0170254D02*
X0155775Y0170254D01*
X0156500Y0169056D02*
X0156700Y0169056D01*
X0156700Y0167857D02*
X0156500Y0167857D01*
X0156500Y0166659D02*
X0156700Y0166659D01*
X0156710Y0165460D02*
X0156490Y0165460D01*
X0155291Y0164262D02*
X0157909Y0164262D01*
X0159107Y0163063D02*
X0154093Y0163063D01*
X0154165Y0161865D02*
X0159035Y0161865D01*
X0157837Y0160666D02*
X0155363Y0160666D01*
X0156500Y0159468D02*
X0156700Y0159468D01*
X0156700Y0158269D02*
X0156500Y0158269D01*
X0156500Y0157071D02*
X0156700Y0157071D01*
X0156700Y0155872D02*
X0156500Y0155872D01*
X0155703Y0154674D02*
X0157497Y0154674D01*
X0158695Y0153475D02*
X0154505Y0153475D01*
X0153753Y0152277D02*
X0159447Y0152277D01*
X0158249Y0151078D02*
X0154951Y0151078D01*
X0156150Y0149880D02*
X0157050Y0149880D01*
X0156700Y0148681D02*
X0156500Y0148681D01*
X0156500Y0147483D02*
X0156700Y0147483D01*
X0156700Y0146284D02*
X0156500Y0146284D01*
X0156115Y0145086D02*
X0157085Y0145086D01*
X0158283Y0143887D02*
X0154917Y0143887D01*
X0153718Y0142689D02*
X0158162Y0142689D01*
X0156963Y0141490D02*
X0154540Y0141490D01*
X0155738Y0140292D02*
X0155765Y0140292D01*
X0162000Y0137895D02*
X0172186Y0137895D01*
X0173385Y0139093D02*
X0167700Y0139093D01*
X0167435Y0140292D02*
X0174583Y0140292D01*
X0175782Y0141490D02*
X0166237Y0141490D01*
X0165038Y0142689D02*
X0176980Y0142689D01*
X0177162Y0143887D02*
X0164917Y0143887D01*
X0166115Y0145086D02*
X0176666Y0145086D01*
X0176500Y0146284D02*
X0166500Y0146284D01*
X0166500Y0147483D02*
X0176500Y0147483D01*
X0176983Y0148681D02*
X0166500Y0148681D01*
X0166150Y0149880D02*
X0177767Y0149880D01*
X0180604Y0136696D02*
X0204450Y0136696D01*
X0204450Y0135498D02*
X0179406Y0135498D01*
X0170988Y0136696D02*
X0167700Y0136696D01*
X0167700Y0135498D02*
X0169789Y0135498D01*
X0168591Y0134299D02*
X0167026Y0134299D01*
X0167392Y0133101D02*
X0165827Y0133101D01*
X0166194Y0131902D02*
X0164629Y0131902D01*
X0157373Y0133101D02*
X0154130Y0133101D01*
X0155329Y0134299D02*
X0156174Y0134299D01*
X0175000Y0121115D02*
X0204450Y0121115D01*
X0204450Y0119917D02*
X0175000Y0119917D01*
X0175000Y0111527D02*
X0182748Y0111527D01*
X0183084Y0110329D02*
X0175000Y0110329D01*
X0175000Y0109130D02*
X0183670Y0109130D01*
X0184594Y0107932D02*
X0175000Y0107932D01*
X0175000Y0106733D02*
X0186112Y0106733D01*
X0186162Y0101939D02*
X0175000Y0101939D01*
X0175000Y0103138D02*
X0204450Y0103138D01*
X0204450Y0104336D02*
X0175000Y0104336D01*
X0175000Y0105535D02*
X0204450Y0105535D01*
X0204450Y0106733D02*
X0202088Y0106733D01*
X0203606Y0107932D02*
X0204450Y0107932D01*
X0204450Y0101939D02*
X0202038Y0101939D01*
X0203237Y0100741D02*
X0204450Y0100741D01*
X0204450Y0099542D02*
X0203870Y0099542D01*
X0204358Y0098344D02*
X0204450Y0098344D01*
X0204450Y0097145D02*
X0204358Y0097145D01*
X0204317Y0095947D02*
X0204450Y0095947D01*
X0204450Y0094748D02*
X0203821Y0094748D01*
X0204450Y0093550D02*
X0203118Y0093550D01*
X0201919Y0092351D02*
X0204450Y0092351D01*
X0204450Y0091153D02*
X0198000Y0091153D01*
X0198000Y0089954D02*
X0204450Y0089954D01*
X0204450Y0088756D02*
X0198000Y0088756D01*
X0198000Y0087557D02*
X0204450Y0087557D01*
X0204450Y0086359D02*
X0202028Y0086359D01*
X0203227Y0085160D02*
X0204450Y0085160D01*
X0204450Y0083962D02*
X0203866Y0083962D01*
X0204358Y0082763D02*
X0204450Y0082763D01*
X0204450Y0081565D02*
X0204358Y0081565D01*
X0204322Y0080366D02*
X0204450Y0080366D01*
X0204450Y0079168D02*
X0203825Y0079168D01*
X0204450Y0077969D02*
X0203128Y0077969D01*
X0201929Y0076770D02*
X0204450Y0076770D01*
X0204450Y0075572D02*
X0183000Y0075572D01*
X0183000Y0074373D02*
X0204450Y0074373D01*
X0204450Y0073175D02*
X0183000Y0073175D01*
X0183000Y0071976D02*
X0188955Y0071976D01*
X0187794Y0071306D02*
X0187794Y0071306D01*
X0187794Y0071306D01*
X0187489Y0070778D02*
X0183000Y0070778D01*
X0183886Y0076770D02*
X0186271Y0076770D01*
X0186172Y0086359D02*
X0180050Y0086359D01*
X0179750Y0087557D02*
X0190200Y0087557D01*
X0190200Y0088756D02*
X0179750Y0088756D01*
X0179750Y0089954D02*
X0190200Y0089954D01*
X0190200Y0091153D02*
X0179750Y0091153D01*
X0179750Y0092351D02*
X0186281Y0092351D01*
X0185082Y0093550D02*
X0179530Y0093550D01*
X0183883Y0095947D02*
X0169855Y0095947D01*
X0171053Y0097145D02*
X0183842Y0097145D01*
X0183842Y0098344D02*
X0172252Y0098344D01*
X0173451Y0099542D02*
X0184330Y0099542D01*
X0184963Y0100741D02*
X0174551Y0100741D01*
X0168656Y0094748D02*
X0184379Y0094748D01*
X0181584Y0085160D02*
X0181248Y0085160D01*
X0176426Y0080366D02*
X0160077Y0080366D01*
X0158879Y0079168D02*
X0175569Y0079168D01*
X0175200Y0077969D02*
X0157680Y0077969D01*
X0156482Y0076770D02*
X0175200Y0076770D01*
X0175200Y0075572D02*
X0155283Y0075572D01*
X0154085Y0074373D02*
X0175200Y0074373D01*
X0175200Y0073175D02*
X0152886Y0073175D01*
X0151458Y0077969D02*
X0134756Y0077969D01*
X0135954Y0079168D02*
X0152656Y0079168D01*
X0153855Y0080366D02*
X0137153Y0080366D01*
X0138352Y0081565D02*
X0155053Y0081565D01*
X0156252Y0082763D02*
X0139550Y0082763D01*
X0140749Y0083962D02*
X0157450Y0083962D01*
X0158649Y0085160D02*
X0141947Y0085160D01*
X0143146Y0086359D02*
X0158762Y0086359D01*
X0158450Y0087557D02*
X0144344Y0087557D01*
X0145543Y0088756D02*
X0158450Y0088756D01*
X0158450Y0089954D02*
X0146741Y0089954D01*
X0147940Y0091153D02*
X0158450Y0091153D01*
X0158450Y0092351D02*
X0149138Y0092351D01*
X0150337Y0093550D02*
X0158670Y0093550D01*
X0159437Y0094748D02*
X0151535Y0094748D01*
X0152734Y0095947D02*
X0160238Y0095947D01*
X0161437Y0097145D02*
X0153932Y0097145D01*
X0155131Y0098344D02*
X0162635Y0098344D01*
X0163834Y0099542D02*
X0156329Y0099542D01*
X0157528Y0100741D02*
X0165032Y0100741D01*
X0166231Y0101939D02*
X0158500Y0101939D01*
X0158500Y0103138D02*
X0159033Y0103138D01*
X0164167Y0103138D02*
X0167429Y0103138D01*
X0168200Y0104336D02*
X0165366Y0104336D01*
X0166500Y0105535D02*
X0168200Y0105535D01*
X0168200Y0106733D02*
X0166500Y0106733D01*
X0166500Y0107932D02*
X0168200Y0107932D01*
X0168200Y0109130D02*
X0166500Y0109130D01*
X0165701Y0110329D02*
X0168200Y0110329D01*
X0168200Y0111527D02*
X0164502Y0111527D01*
X0167458Y0093550D02*
X0171670Y0093550D01*
X0171450Y0092351D02*
X0166750Y0092351D01*
X0166750Y0091153D02*
X0171450Y0091153D01*
X0171450Y0089954D02*
X0166750Y0089954D01*
X0166750Y0088756D02*
X0171450Y0088756D01*
X0171450Y0087557D02*
X0166750Y0087557D01*
X0166438Y0086359D02*
X0171762Y0086359D01*
X0172268Y0085160D02*
X0164800Y0085160D01*
X0163673Y0083962D02*
X0172830Y0083962D01*
X0174029Y0082763D02*
X0162474Y0082763D01*
X0161276Y0081565D02*
X0175227Y0081565D01*
X0175200Y0071976D02*
X0164245Y0071976D01*
X0165711Y0070778D02*
X0175200Y0070778D01*
X0204245Y0071976D02*
X0204450Y0071976D01*
X0204450Y0117520D02*
X0203745Y0117520D01*
X0204450Y0118718D02*
X0202328Y0118718D01*
X0202071Y0122314D02*
X0204450Y0122314D01*
X0204450Y0123512D02*
X0203596Y0123512D01*
X0203755Y0133101D02*
X0204450Y0133101D01*
X0204450Y0134299D02*
X0202345Y0134299D01*
X0194700Y0134299D02*
X0193500Y0134299D01*
X0193500Y0133101D02*
X0194700Y0133101D01*
X0194700Y0131902D02*
X0193500Y0131902D01*
X0193500Y0130703D02*
X0194700Y0130703D01*
X0194700Y0129505D02*
X0193500Y0129505D01*
X0195001Y0142689D02*
X0204450Y0142689D01*
X0204450Y0143887D02*
X0196038Y0143887D01*
X0196534Y0145086D02*
X0204450Y0145086D01*
X0204450Y0146284D02*
X0196700Y0146284D01*
X0196700Y0147483D02*
X0204450Y0147483D01*
X0204450Y0148681D02*
X0196217Y0148681D01*
X0195433Y0149880D02*
X0204450Y0149880D01*
X0204450Y0151078D02*
X0193874Y0151078D01*
X0158320Y0173850D02*
X0154880Y0173850D01*
X0156078Y0175048D02*
X0157122Y0175048D01*
X0156700Y0176247D02*
X0156500Y0176247D01*
X0156500Y0177445D02*
X0156700Y0177445D01*
X0156700Y0178644D02*
X0156500Y0178644D01*
X0156187Y0179842D02*
X0157013Y0179842D01*
X0147770Y0184400D02*
X0065430Y0184400D01*
X0066500Y0185470D01*
X0066500Y0189530D01*
X0065430Y0190600D01*
X0147770Y0190600D01*
X0146700Y0189530D01*
X0146700Y0185470D01*
X0147770Y0184400D01*
X0147534Y0184637D02*
X0065666Y0184637D01*
X0066500Y0185835D02*
X0146700Y0185835D01*
X0146700Y0187034D02*
X0066500Y0187034D01*
X0066500Y0188232D02*
X0146700Y0188232D01*
X0146700Y0189431D02*
X0066500Y0189431D01*
X0067127Y0194400D02*
X0067700Y0194973D01*
X0067700Y0197100D01*
X0062000Y0197100D01*
X0062000Y0197900D01*
X0067700Y0197900D01*
X0067700Y0200027D01*
X0065227Y0202500D01*
X0147973Y0202500D01*
X0145500Y0200027D01*
X0145500Y0197900D01*
X0151200Y0197900D01*
X0151200Y0197100D01*
X0145500Y0197100D01*
X0145500Y0194973D01*
X0146073Y0194400D01*
X0067127Y0194400D01*
X0067700Y0195423D02*
X0145500Y0195423D01*
X0145500Y0196622D02*
X0067700Y0196622D01*
X0067700Y0199019D02*
X0145500Y0199019D01*
X0145690Y0200217D02*
X0067510Y0200217D01*
X0066311Y0201416D02*
X0146889Y0201416D01*
X0151200Y0197820D02*
X0062000Y0197820D01*
X0047534Y0184637D02*
X0038923Y0184637D01*
X0038887Y0184600D02*
X0038887Y0184600D01*
X0038500Y0183438D02*
X0044851Y0183438D01*
X0043652Y0182239D02*
X0038500Y0182239D01*
X0038500Y0181041D02*
X0042454Y0181041D01*
X0041255Y0179842D02*
X0038500Y0179842D01*
X0038500Y0178644D02*
X0040057Y0178644D01*
X0039700Y0177445D02*
X0038500Y0177445D01*
X0038500Y0176247D02*
X0039700Y0176247D01*
X0039700Y0175048D02*
X0038500Y0175048D01*
X0038500Y0173850D02*
X0039700Y0173850D01*
X0039700Y0172651D02*
X0038500Y0172651D01*
X0038240Y0171453D02*
X0039700Y0171453D01*
X0039700Y0170254D02*
X0037041Y0170254D01*
X0043500Y0170254D02*
X0047425Y0170254D01*
X0046700Y0169056D02*
X0043500Y0169056D01*
X0043500Y0167857D02*
X0046700Y0167857D01*
X0046700Y0166659D02*
X0043446Y0166659D01*
X0042247Y0165460D02*
X0046710Y0165460D01*
X0047909Y0164262D02*
X0041049Y0164262D01*
X0039850Y0163063D02*
X0049107Y0163063D01*
X0049035Y0161865D02*
X0038652Y0161865D01*
X0037453Y0160666D02*
X0047837Y0160666D01*
X0054951Y0151078D02*
X0058249Y0151078D01*
X0057050Y0149880D02*
X0056150Y0149880D01*
X0056500Y0148681D02*
X0056700Y0148681D01*
X0056700Y0147483D02*
X0056500Y0147483D01*
X0056500Y0146284D02*
X0056700Y0146284D01*
X0057085Y0145086D02*
X0056115Y0145086D01*
X0054917Y0143887D02*
X0058283Y0143887D01*
X0059482Y0142689D02*
X0053718Y0142689D01*
X0054540Y0141490D02*
X0058660Y0141490D01*
X0057462Y0140292D02*
X0055738Y0140292D01*
X0056500Y0139093D02*
X0056700Y0139093D01*
X0056700Y0137895D02*
X0056500Y0137895D01*
X0056500Y0136696D02*
X0056700Y0136696D01*
X0056700Y0135498D02*
X0056500Y0135498D01*
X0055329Y0134299D02*
X0057871Y0134299D01*
X0059070Y0133101D02*
X0054130Y0133101D01*
X0054128Y0131902D02*
X0059072Y0131902D01*
X0057874Y0130703D02*
X0055326Y0130703D01*
X0056500Y0129505D02*
X0056700Y0129505D01*
X0056700Y0128306D02*
X0056500Y0128306D01*
X0056500Y0127108D02*
X0056700Y0127108D01*
X0056700Y0125909D02*
X0056500Y0125909D01*
X0055741Y0124711D02*
X0057459Y0124711D01*
X0054925Y0123512D02*
X0054542Y0123512D01*
X0053727Y0122314D02*
X0053716Y0122314D01*
X0056704Y0119917D02*
X0057087Y0119917D01*
X0056700Y0118718D02*
X0056500Y0118718D01*
X0056500Y0117520D02*
X0056700Y0117520D01*
X0056700Y0116321D02*
X0056500Y0116321D01*
X0056152Y0115123D02*
X0057048Y0115123D01*
X0058246Y0113924D02*
X0054954Y0113924D01*
X0053755Y0112726D02*
X0059445Y0112726D01*
X0058698Y0111527D02*
X0054502Y0111527D01*
X0053630Y0112400D02*
X0049570Y0112400D01*
X0046700Y0109530D01*
X0046700Y0105470D01*
X0049570Y0102600D01*
X0053630Y0102600D01*
X0056500Y0105470D01*
X0056500Y0109530D01*
X0053630Y0112400D01*
X0055701Y0110329D02*
X0057499Y0110329D01*
X0056700Y0109130D02*
X0056500Y0109130D01*
X0056500Y0107932D02*
X0056700Y0107932D01*
X0056700Y0106733D02*
X0056500Y0106733D01*
X0056500Y0105535D02*
X0056700Y0105535D01*
X0057834Y0104336D02*
X0055366Y0104336D01*
X0054167Y0103138D02*
X0059033Y0103138D01*
X0049445Y0112726D02*
X0046300Y0112726D01*
X0046300Y0113924D02*
X0048246Y0113924D01*
X0047048Y0115123D02*
X0046300Y0115123D01*
X0046300Y0116321D02*
X0046700Y0116321D01*
X0046700Y0117520D02*
X0046300Y0117520D01*
X0046300Y0118718D02*
X0046700Y0118718D01*
X0041900Y0116321D02*
X0032075Y0116321D01*
X0031350Y0116321D02*
X0030976Y0116321D01*
X0030251Y0116321D02*
X0026300Y0116321D01*
X0026300Y0115123D02*
X0041900Y0115123D01*
X0041900Y0113924D02*
X0026300Y0113924D01*
X0026300Y0112726D02*
X0041900Y0112726D01*
X0041900Y0111527D02*
X0026300Y0111527D01*
X0026300Y0110329D02*
X0041900Y0110329D01*
X0041900Y0109130D02*
X0026300Y0109130D01*
X0026300Y0107932D02*
X0041900Y0107932D01*
X0041900Y0106733D02*
X0026300Y0106733D01*
X0026300Y0105535D02*
X0027844Y0105535D01*
X0027700Y0105391D02*
X0028520Y0106211D01*
X0034680Y0106211D01*
X0035500Y0105391D01*
X0035500Y0099231D01*
X0034680Y0098411D01*
X0028520Y0098411D01*
X0027700Y0099231D01*
X0027700Y0105391D01*
X0027700Y0104336D02*
X0026300Y0104336D01*
X0026300Y0103138D02*
X0027700Y0103138D01*
X0027700Y0101939D02*
X0026300Y0101939D01*
X0026300Y0100741D02*
X0027700Y0100741D01*
X0027700Y0099542D02*
X0026300Y0099542D01*
X0026300Y0098344D02*
X0041900Y0098344D01*
X0041900Y0099542D02*
X0035500Y0099542D01*
X0035500Y0100741D02*
X0041900Y0100741D01*
X0041900Y0101939D02*
X0035500Y0101939D01*
X0035500Y0103138D02*
X0041900Y0103138D01*
X0041900Y0104336D02*
X0035500Y0104336D01*
X0035356Y0105535D02*
X0041900Y0105535D01*
X0046300Y0105535D02*
X0046700Y0105535D01*
X0046700Y0106733D02*
X0046300Y0106733D01*
X0046300Y0107932D02*
X0046700Y0107932D01*
X0046700Y0109130D02*
X0046300Y0109130D01*
X0046300Y0110329D02*
X0047499Y0110329D01*
X0046300Y0111527D02*
X0048698Y0111527D01*
X0047834Y0104336D02*
X0046300Y0104336D01*
X0046300Y0103138D02*
X0049033Y0103138D01*
X0041900Y0097145D02*
X0034407Y0097145D01*
X0034906Y0096646D02*
X0033809Y0097743D01*
X0032376Y0098337D01*
X0030824Y0098337D01*
X0029391Y0097743D01*
X0028294Y0096646D01*
X0027700Y0095213D01*
X0027700Y0093661D01*
X0028294Y0092228D01*
X0029391Y0091131D01*
X0030824Y0090537D01*
X0032376Y0090537D01*
X0033809Y0091131D01*
X0034906Y0092228D01*
X0035500Y0093661D01*
X0035500Y0095213D01*
X0034906Y0096646D01*
X0035196Y0095947D02*
X0042542Y0095947D01*
X0043741Y0094748D02*
X0035500Y0094748D01*
X0035454Y0093550D02*
X0044939Y0093550D01*
X0046138Y0092351D02*
X0034957Y0092351D01*
X0033831Y0091153D02*
X0047336Y0091153D01*
X0048535Y0089954D02*
X0033604Y0089954D01*
X0029596Y0089954D02*
X0027257Y0089954D01*
X0026300Y0091153D02*
X0029369Y0091153D01*
X0028243Y0092351D02*
X0026300Y0092351D01*
X0026300Y0093550D02*
X0027746Y0093550D01*
X0027700Y0094748D02*
X0026300Y0094748D01*
X0026300Y0095947D02*
X0028004Y0095947D01*
X0028793Y0097145D02*
X0026300Y0097145D01*
X0021900Y0097145D02*
X0008750Y0097145D01*
X0008750Y0095947D02*
X0021900Y0095947D01*
X0021900Y0094748D02*
X0008750Y0094748D01*
X0008750Y0093550D02*
X0021900Y0093550D01*
X0021900Y0092351D02*
X0008750Y0092351D01*
X0008750Y0091153D02*
X0021900Y0091153D01*
X0021900Y0089954D02*
X0008750Y0089954D01*
X0008750Y0088756D02*
X0022233Y0088756D01*
X0023432Y0087557D02*
X0008750Y0087557D01*
X0008750Y0086359D02*
X0024630Y0086359D01*
X0025829Y0085160D02*
X0008750Y0085160D01*
X0008750Y0083962D02*
X0028686Y0083962D01*
X0028531Y0082763D02*
X0008750Y0082763D01*
X0008750Y0081565D02*
X0027385Y0081565D01*
X0026782Y0080366D02*
X0008750Y0080366D01*
X0008750Y0079168D02*
X0026512Y0079168D01*
X0026500Y0078502D02*
X0026500Y0078288D01*
X0026626Y0077495D01*
X0026874Y0076731D01*
X0027238Y0076016D01*
X0027710Y0075367D01*
X0028278Y0074799D01*
X0028927Y0074327D01*
X0029642Y0073963D01*
X0030406Y0073715D01*
X0031199Y0073589D01*
X0031413Y0073589D01*
X0031413Y0078501D01*
X0031413Y0078502D02*
X0026500Y0078502D01*
X0026550Y0077969D02*
X0008750Y0077969D01*
X0008750Y0076770D02*
X0026861Y0076770D01*
X0027561Y0075572D02*
X0008750Y0075572D01*
X0008750Y0074373D02*
X0028863Y0074373D01*
X0031413Y0074373D02*
X0031787Y0074373D01*
X0031787Y0075572D02*
X0031413Y0075572D01*
X0031413Y0076770D02*
X0031787Y0076770D01*
X0031787Y0077969D02*
X0031413Y0077969D01*
X0034514Y0083962D02*
X0037027Y0083962D01*
X0041745Y0071976D02*
X0056455Y0071976D01*
X0055294Y0071306D02*
X0055294Y0071306D01*
X0055294Y0071306D01*
X0054989Y0070778D02*
X0043211Y0070778D01*
X0021900Y0098344D02*
X0008750Y0098344D01*
X0008750Y0099542D02*
X0021900Y0099542D01*
X0021900Y0100741D02*
X0008750Y0100741D01*
X0008750Y0101939D02*
X0021900Y0101939D01*
X0021900Y0103138D02*
X0008750Y0103138D01*
X0008750Y0104336D02*
X0021900Y0104336D01*
X0021900Y0105535D02*
X0008750Y0105535D01*
X0008750Y0106733D02*
X0021900Y0106733D01*
X0021900Y0107932D02*
X0008750Y0107932D01*
X0008750Y0109130D02*
X0021900Y0109130D01*
X0021900Y0110329D02*
X0008750Y0110329D01*
X0008750Y0111527D02*
X0021900Y0111527D01*
X0021900Y0112726D02*
X0008750Y0112726D01*
X0008750Y0113924D02*
X0021900Y0113924D01*
X0021900Y0115123D02*
X0008750Y0115123D01*
X0008750Y0116321D02*
X0021900Y0116321D01*
X0021900Y0117520D02*
X0008750Y0117520D01*
X0008750Y0118718D02*
X0021900Y0118718D01*
X0021900Y0119917D02*
X0008750Y0119917D01*
X0008750Y0121115D02*
X0021900Y0121115D01*
X0021900Y0122314D02*
X0008750Y0122314D01*
X0008750Y0123512D02*
X0021900Y0123512D01*
X0026300Y0118718D02*
X0026685Y0118718D01*
X0026300Y0117520D02*
X0027708Y0117520D01*
X0030976Y0117520D02*
X0031350Y0117520D01*
X0031350Y0118718D02*
X0030976Y0118718D01*
X0030976Y0119917D02*
X0031350Y0119917D01*
X0031350Y0121115D02*
X0030976Y0121115D01*
X0030976Y0122314D02*
X0031350Y0122314D01*
X0031350Y0123512D02*
X0030976Y0123512D01*
X0030976Y0124711D02*
X0031350Y0124711D01*
X0031350Y0125909D02*
X0030976Y0125909D01*
X0031306Y0133101D02*
X0032457Y0133101D01*
X0036563Y0133101D02*
X0037637Y0133101D01*
X0037637Y0134299D02*
X0036563Y0134299D01*
X0036563Y0135498D02*
X0037637Y0135498D01*
X0037637Y0137895D02*
X0036563Y0137895D01*
X0036563Y0139093D02*
X0037637Y0139093D01*
X0037637Y0140292D02*
X0036563Y0140292D01*
X0036563Y0141490D02*
X0037637Y0141490D01*
X0043063Y0141490D02*
X0044137Y0141490D01*
X0044137Y0140292D02*
X0043063Y0140292D01*
X0043063Y0139093D02*
X0044137Y0139093D01*
X0044137Y0137895D02*
X0043063Y0137895D01*
X0047559Y0130703D02*
X0047874Y0130703D01*
X0035722Y0117520D02*
X0034618Y0117520D01*
X0021600Y0137500D02*
X0016600Y0142500D01*
X0016600Y0172500D01*
X0019163Y0175063D01*
X0019163Y0177500D01*
X0019163Y0186500D01*
X0016188Y0187034D02*
X0008750Y0187034D01*
X0008750Y0188232D02*
X0016188Y0188232D01*
X0016210Y0189431D02*
X0008750Y0189431D01*
X0008750Y0190629D02*
X0039542Y0190629D01*
X0038344Y0189431D02*
X0029990Y0189431D01*
X0026770Y0193850D02*
X0033430Y0193850D01*
X0033680Y0194100D01*
X0033739Y0194041D01*
X0037587Y0194041D01*
X0038638Y0195092D01*
X0038638Y0200908D01*
X0037587Y0201959D01*
X0033739Y0201959D01*
X0033680Y0201900D01*
X0033430Y0202150D01*
X0026770Y0202150D01*
X0025950Y0201330D01*
X0025950Y0194670D01*
X0026770Y0193850D01*
X0026395Y0194225D02*
X0018830Y0194225D01*
X0019451Y0194482D02*
X0017925Y0193850D01*
X0016275Y0193850D01*
X0014749Y0194482D01*
X0013582Y0195649D01*
X0012950Y0197175D01*
X0012950Y0198825D01*
X0013582Y0200351D01*
X0014749Y0201518D01*
X0016275Y0202150D01*
X0017925Y0202150D01*
X0019451Y0201518D01*
X0020618Y0200351D01*
X0021250Y0198825D01*
X0021250Y0197175D01*
X0020618Y0195649D01*
X0019451Y0194482D01*
X0020392Y0195423D02*
X0025950Y0195423D01*
X0025950Y0196622D02*
X0021021Y0196622D01*
X0021250Y0197820D02*
X0025950Y0197820D01*
X0025950Y0199019D02*
X0021170Y0199019D01*
X0020674Y0200217D02*
X0025950Y0200217D01*
X0026036Y0201416D02*
X0019553Y0201416D01*
X0014647Y0201416D02*
X0011187Y0201416D01*
X0009974Y0200217D02*
X0013526Y0200217D01*
X0013030Y0199019D02*
X0009341Y0199019D01*
X0008917Y0197820D02*
X0012950Y0197820D01*
X0013179Y0196622D02*
X0008709Y0196622D01*
X0008750Y0195423D02*
X0013808Y0195423D01*
X0015370Y0194225D02*
X0008750Y0194225D01*
X0008750Y0193026D02*
X0041313Y0193026D01*
X0040741Y0191828D02*
X0008750Y0191828D01*
X0008750Y0185835D02*
X0016188Y0185835D01*
X0016188Y0184637D02*
X0008750Y0184637D01*
X0008750Y0183438D02*
X0016342Y0183438D01*
X0017163Y0182239D02*
X0008750Y0182239D01*
X0008750Y0181041D02*
X0016821Y0181041D01*
X0016188Y0179842D02*
X0008750Y0179842D01*
X0008750Y0178644D02*
X0016188Y0178644D01*
X0016188Y0177445D02*
X0008750Y0177445D01*
X0008750Y0176247D02*
X0016188Y0176247D01*
X0016188Y0175048D02*
X0008750Y0175048D01*
X0008750Y0173850D02*
X0015121Y0173850D01*
X0014600Y0172651D02*
X0008750Y0172651D01*
X0008750Y0171453D02*
X0014600Y0171453D01*
X0014600Y0170254D02*
X0008750Y0170254D01*
X0008750Y0169056D02*
X0014600Y0169056D01*
X0014600Y0167857D02*
X0008750Y0167857D01*
X0008750Y0166659D02*
X0014600Y0166659D01*
X0014600Y0165460D02*
X0008750Y0165460D01*
X0008750Y0164262D02*
X0014600Y0164262D01*
X0014600Y0163063D02*
X0008750Y0163063D01*
X0008750Y0161865D02*
X0014600Y0161865D01*
X0014600Y0160666D02*
X0008750Y0160666D01*
X0008750Y0159468D02*
X0014600Y0159468D01*
X0014600Y0158269D02*
X0008750Y0158269D01*
X0008750Y0157071D02*
X0014600Y0157071D01*
X0014600Y0155872D02*
X0008750Y0155872D01*
X0008750Y0154674D02*
X0014600Y0154674D01*
X0014600Y0153475D02*
X0008750Y0153475D01*
X0008750Y0152277D02*
X0014600Y0152277D01*
X0014600Y0151078D02*
X0008750Y0151078D01*
X0008750Y0149880D02*
X0014600Y0149880D01*
X0014600Y0148681D02*
X0008750Y0148681D01*
X0008750Y0147483D02*
X0014600Y0147483D01*
X0014600Y0146284D02*
X0008750Y0146284D01*
X0008750Y0145086D02*
X0014600Y0145086D01*
X0014600Y0143887D02*
X0008750Y0143887D01*
X0008750Y0142689D02*
X0014600Y0142689D01*
X0014781Y0141490D02*
X0008750Y0141490D01*
X0008750Y0140292D02*
X0015980Y0140292D01*
X0017178Y0139093D02*
X0008750Y0139093D01*
X0008750Y0137895D02*
X0018377Y0137895D01*
X0019576Y0136696D02*
X0008750Y0136696D01*
X0018600Y0143887D02*
X0024438Y0143887D01*
X0023760Y0145086D02*
X0018600Y0145086D01*
X0018600Y0146284D02*
X0023414Y0146284D01*
X0025504Y0142689D02*
X0019240Y0142689D01*
X0020438Y0141490D02*
X0025378Y0141490D01*
X0024236Y0140292D02*
X0021637Y0140292D01*
X0024100Y0157500D02*
X0028600Y0157500D01*
X0024100Y0157500D02*
X0021600Y0160000D01*
X0021600Y0170000D01*
X0026600Y0175000D01*
X0027037Y0177500D01*
X0024216Y0183438D02*
X0021984Y0183438D01*
X0022138Y0184637D02*
X0024062Y0184637D01*
X0024062Y0185835D02*
X0022138Y0185835D01*
X0022138Y0187034D02*
X0024062Y0187034D01*
X0024062Y0188232D02*
X0022138Y0188232D01*
X0022116Y0189431D02*
X0024084Y0189431D01*
X0029858Y0183438D02*
X0034700Y0183438D01*
X0040122Y0185835D02*
X0046700Y0185835D01*
X0046700Y0187034D02*
X0041321Y0187034D01*
X0042519Y0188232D02*
X0046700Y0188232D01*
X0046700Y0189431D02*
X0043718Y0189431D01*
X0039831Y0194225D02*
X0037771Y0194225D01*
X0038638Y0195423D02*
X0039385Y0195423D01*
X0039362Y0196622D02*
X0038638Y0196622D01*
X0038638Y0197820D02*
X0043350Y0197820D01*
X0039362Y0199019D02*
X0038638Y0199019D01*
X0038638Y0200217D02*
X0039362Y0200217D01*
X0039633Y0201416D02*
X0038130Y0201416D01*
X0046629Y0179842D02*
X0047013Y0179842D01*
X0046700Y0178644D02*
X0045431Y0178644D01*
X0044232Y0177445D02*
X0046700Y0177445D01*
X0046700Y0176247D02*
X0043500Y0176247D01*
X0043500Y0175048D02*
X0047122Y0175048D01*
X0048320Y0173850D02*
X0043500Y0173850D01*
X0043500Y0172651D02*
X0049519Y0172651D01*
X0048623Y0171453D02*
X0043500Y0171453D01*
X0026340Y0171453D02*
X0025881Y0171453D01*
X0025221Y0170254D02*
X0024683Y0170254D01*
X0024724Y0169056D02*
X0023600Y0169056D01*
X0023600Y0167857D02*
X0024500Y0167857D01*
X0024500Y0166659D02*
X0023600Y0166659D01*
X0023600Y0165460D02*
X0024925Y0165460D01*
X0025626Y0164262D02*
X0023600Y0164262D01*
X0023600Y0163063D02*
X0026984Y0163063D01*
X0025811Y0161865D02*
X0023600Y0161865D01*
X0023762Y0160666D02*
X0024554Y0160666D01*
X0063718Y0142689D02*
X0096900Y0142689D01*
X0096931Y0141490D02*
X0064540Y0141490D01*
X0065738Y0140292D02*
X0097427Y0140292D01*
X0098360Y0139093D02*
X0082694Y0139093D01*
X0083892Y0137895D02*
X0100437Y0137895D01*
X0099448Y0136696D02*
X0085091Y0136696D01*
X0086289Y0135498D02*
X0097951Y0135498D01*
X0097948Y0129505D02*
X0066500Y0129505D01*
X0066500Y0128306D02*
X0099442Y0128306D01*
X0100443Y0127108D02*
X0066500Y0127108D01*
X0066500Y0125909D02*
X0098363Y0125909D01*
X0097429Y0124711D02*
X0065741Y0124711D01*
X0066113Y0119917D02*
X0097583Y0119917D01*
X0085709Y0130703D02*
X0065326Y0130703D01*
X0064128Y0131902D02*
X0084511Y0131902D01*
X0083312Y0133101D02*
X0064130Y0133101D01*
X0065329Y0134299D02*
X0082114Y0134299D01*
X0080915Y0135498D02*
X0066500Y0135498D01*
X0064917Y0143887D02*
X0097087Y0143887D01*
X0097584Y0145086D02*
X0066115Y0145086D01*
X0066500Y0146284D02*
X0098737Y0146284D01*
X0110353Y0157071D02*
X0068858Y0157071D01*
X0064880Y0173850D02*
X0148320Y0173850D01*
X0147122Y0175048D02*
X0066078Y0175048D01*
X0066500Y0176247D02*
X0146700Y0176247D01*
X0146700Y0177445D02*
X0066500Y0177445D01*
X0066500Y0178644D02*
X0146700Y0178644D01*
X0147013Y0179842D02*
X0066187Y0179842D01*
X0112847Y0157071D02*
X0117148Y0157071D01*
X0114875Y0155872D02*
X0122200Y0155872D01*
X0122200Y0154674D02*
X0115787Y0154674D01*
X0116283Y0153475D02*
X0122200Y0153475D01*
X0122200Y0152277D02*
X0116300Y0152277D01*
X0116098Y0151078D02*
X0122200Y0151078D01*
X0122200Y0149880D02*
X0115602Y0149880D01*
X0120052Y0157071D02*
X0122200Y0157071D01*
X0122200Y0158269D02*
X0121121Y0158269D01*
X0121400Y0159468D02*
X0121945Y0159468D01*
X0156311Y0201416D02*
X0158586Y0201416D01*
X0127700Y0095947D02*
X0114800Y0095947D01*
X0115756Y0094748D02*
X0127700Y0094748D01*
X0127700Y0093550D02*
X0116252Y0093550D01*
X0116300Y0092351D02*
X0127700Y0092351D01*
X0127700Y0091153D02*
X0116129Y0091153D01*
X0115633Y0089954D02*
X0127700Y0089954D01*
X0127669Y0088756D02*
X0114502Y0088756D01*
X0108812Y0086359D02*
X0104388Y0086359D01*
X0105585Y0085160D02*
X0107615Y0085160D01*
X0107118Y0083962D02*
X0106082Y0083962D01*
X0106300Y0082763D02*
X0106900Y0082763D01*
X0106900Y0081565D02*
X0106300Y0081565D01*
X0105803Y0080366D02*
X0107397Y0080366D01*
X0115803Y0080366D02*
X0131779Y0080366D01*
X0126745Y0071976D02*
X0138955Y0071976D01*
X0137794Y0071306D02*
X0137794Y0071306D01*
X0137794Y0071306D01*
X0137489Y0070778D02*
X0128211Y0070778D01*
X0108698Y0088756D02*
X0104502Y0088756D01*
X0105633Y0089954D02*
X0107567Y0089954D01*
X0107071Y0091153D02*
X0106129Y0091153D01*
X0106300Y0092351D02*
X0106900Y0092351D01*
X0106948Y0093550D02*
X0106252Y0093550D01*
X0105756Y0094748D02*
X0107444Y0094748D01*
X0108400Y0095947D02*
X0104800Y0095947D01*
X0098698Y0088756D02*
X0073650Y0088756D01*
X0073650Y0089954D02*
X0097567Y0089954D01*
X0097071Y0091153D02*
X0073650Y0091153D01*
X0073650Y0092351D02*
X0096900Y0092351D01*
X0096948Y0093550D02*
X0073650Y0093550D01*
X0073650Y0076770D02*
X0076718Y0076770D01*
X0077917Y0075572D02*
X0073102Y0075572D01*
X0080314Y0073175D02*
X0008750Y0073175D01*
X0008750Y0071976D02*
X0011455Y0071976D01*
X0010294Y0071306D02*
X0010294Y0071306D01*
X0009989Y0070778D02*
X0008750Y0070778D01*
X0081745Y0071976D02*
X0096455Y0071976D01*
X0095294Y0071306D02*
X0095294Y0071306D01*
X0095294Y0071306D01*
X0094989Y0070778D02*
X0083211Y0070778D01*
D29*
X0083600Y0089500D03*
X0069100Y0105000D03*
X0089600Y0127500D03*
X0070600Y0146500D03*
X0084600Y0152500D03*
X0089600Y0167500D03*
X0074100Y0187500D03*
X0074100Y0198000D03*
X0042600Y0183500D03*
X0032600Y0175500D03*
X0023600Y0196000D03*
X0037600Y0153000D03*
X0014600Y0128500D03*
X0016600Y0090500D03*
X0043100Y0091000D03*
X0118600Y0159500D03*
X0112100Y0168000D03*
X0129100Y0158000D03*
X0143100Y0136000D03*
X0123100Y0110000D03*
X0124600Y0098500D03*
X0150600Y0084000D03*
X0175600Y0170500D03*
X0179100Y0197500D03*
D30*
X0009519Y0015751D02*
X0011178Y0013771D01*
X0013369Y0012401D01*
X0014415Y0012050D01*
X0201600Y0012050D01*
X0202176Y0012107D01*
X0203239Y0012547D01*
X0204053Y0013361D01*
X0204493Y0014424D01*
X0204550Y0015000D01*
X0204550Y0066315D01*
X0203993Y0065994D01*
X0203949Y0065950D01*
X0189251Y0065950D01*
X0189207Y0065994D01*
X0187867Y0066767D01*
X0187867Y0066767D01*
X0187867Y0066767D01*
X0187444Y0067500D01*
X0183300Y0067500D01*
X0183300Y0066665D01*
X0182661Y0065121D01*
X0181479Y0063939D01*
X0180040Y0062500D01*
X0190161Y0052379D01*
X0190800Y0050835D01*
X0190800Y0045992D01*
X0190908Y0045948D01*
X0193048Y0043808D01*
X0194205Y0041013D01*
X0194205Y0037987D01*
X0193048Y0035192D01*
X0190908Y0033052D01*
X0188113Y0031894D01*
X0185087Y0031894D01*
X0182292Y0033052D01*
X0180152Y0035192D01*
X0178994Y0037987D01*
X0178994Y0041013D01*
X0180152Y0043808D01*
X0182292Y0045948D01*
X0182400Y0045992D01*
X0182400Y0048260D01*
X0172360Y0058300D01*
X0038340Y0058300D01*
X0035416Y0055376D01*
X0034617Y0055045D01*
X0034605Y0055000D01*
X0033262Y0052674D01*
X0031363Y0050775D01*
X0029037Y0049432D01*
X0026443Y0048737D01*
X0023757Y0048737D01*
X0021163Y0049432D01*
X0018837Y0050775D01*
X0016938Y0052674D01*
X0015595Y0055000D01*
X0014900Y0057594D01*
X0014900Y0060280D01*
X0015595Y0062874D01*
X0016938Y0065200D01*
X0017688Y0065950D01*
X0011751Y0065950D01*
X0011707Y0065994D01*
X0010367Y0066767D01*
X0010367Y0066767D01*
X0010367Y0066767D01*
X0009944Y0067500D01*
X0008650Y0067500D01*
X0008650Y0023068D01*
X0008795Y0022827D01*
X0008650Y0022248D01*
X0008650Y0021651D01*
X0008505Y0021506D01*
X0008374Y0020725D01*
X0008553Y0018147D01*
X0009519Y0015751D01*
X0009100Y0016790D02*
X0009100Y0067500D01*
X0008650Y0063500D02*
X0015957Y0063500D01*
X0016100Y0063749D02*
X0016100Y0065950D01*
X0015193Y0056500D02*
X0008650Y0056500D01*
X0008650Y0049500D02*
X0021045Y0049500D01*
X0023100Y0048913D02*
X0023100Y0046141D01*
X0023255Y0046177D02*
X0022050Y0045902D01*
X0020884Y0045494D01*
X0019771Y0044958D01*
X0018725Y0044300D01*
X0017759Y0043530D01*
X0016885Y0042656D01*
X0016115Y0041690D01*
X0015457Y0040644D01*
X0014921Y0039531D01*
X0014513Y0038365D01*
X0014238Y0037160D01*
X0014100Y0035933D01*
X0014100Y0035815D01*
X0024600Y0035815D01*
X0024600Y0046315D01*
X0024482Y0046315D01*
X0023255Y0046177D01*
X0025600Y0046315D02*
X0025718Y0046315D01*
X0026945Y0046177D01*
X0028150Y0045902D01*
X0029316Y0045494D01*
X0030429Y0044958D01*
X0031475Y0044300D01*
X0032441Y0043530D01*
X0033315Y0042656D01*
X0033902Y0041921D01*
X0033425Y0042910D01*
X0033017Y0044076D01*
X0032742Y0045280D01*
X0032604Y0046508D01*
X0032604Y0046626D01*
X0043104Y0046626D01*
X0044104Y0046626D01*
X0044104Y0047626D01*
X0054604Y0047626D01*
X0054604Y0047744D01*
X0054466Y0048971D01*
X0054191Y0050176D01*
X0053783Y0051342D01*
X0053247Y0052455D01*
X0052589Y0053501D01*
X0051819Y0054467D01*
X0050945Y0055341D01*
X0049979Y0056111D01*
X0048933Y0056769D01*
X0047820Y0057305D01*
X0046654Y0057713D01*
X0045449Y0057988D01*
X0044222Y0058126D01*
X0044104Y0058126D01*
X0044104Y0047626D01*
X0043104Y0047626D01*
X0043104Y0058126D01*
X0042986Y0058126D01*
X0041758Y0057988D01*
X0040554Y0057713D01*
X0039388Y0057305D01*
X0038275Y0056769D01*
X0037229Y0056111D01*
X0036263Y0055341D01*
X0035389Y0054467D01*
X0034619Y0053501D01*
X0033961Y0052455D01*
X0033425Y0051342D01*
X0033017Y0050176D01*
X0032742Y0048971D01*
X0032604Y0047744D01*
X0032604Y0047626D01*
X0043104Y0047626D01*
X0043104Y0046626D01*
X0043104Y0036126D01*
X0042986Y0036126D01*
X0041758Y0036264D01*
X0040554Y0036539D01*
X0039388Y0036947D01*
X0038275Y0037483D01*
X0037229Y0038141D01*
X0036263Y0038911D01*
X0035389Y0039785D01*
X0034802Y0040520D01*
X0035279Y0039531D01*
X0035687Y0038365D01*
X0035962Y0037160D01*
X0036100Y0035933D01*
X0036100Y0035815D01*
X0025600Y0035815D01*
X0024600Y0035815D01*
X0024600Y0034815D01*
X0014100Y0034815D01*
X0014100Y0034697D01*
X0014238Y0033469D01*
X0014513Y0032265D01*
X0014921Y0031099D01*
X0015457Y0029986D01*
X0016115Y0028940D01*
X0016885Y0027974D01*
X0017759Y0027100D01*
X0018725Y0026330D01*
X0019771Y0025672D01*
X0020884Y0025136D01*
X0022050Y0024728D01*
X0023255Y0024453D01*
X0024482Y0024315D01*
X0024600Y0024315D01*
X0024600Y0034815D01*
X0025600Y0034815D01*
X0025600Y0035815D01*
X0025600Y0046315D01*
X0025600Y0042500D02*
X0024600Y0042500D01*
X0030100Y0045116D02*
X0030100Y0050046D01*
X0029155Y0049500D02*
X0032863Y0049500D01*
X0037100Y0047626D02*
X0037100Y0046626D01*
X0033623Y0042500D02*
X0033440Y0042500D01*
X0037100Y0038243D02*
X0037100Y0012050D01*
X0030100Y0012050D02*
X0030100Y0025514D01*
X0030429Y0025672D02*
X0031475Y0026330D01*
X0032441Y0027100D01*
X0033315Y0027974D01*
X0034085Y0028940D01*
X0034743Y0029986D01*
X0035279Y0031099D01*
X0035687Y0032265D01*
X0035962Y0033469D01*
X0036100Y0034697D01*
X0036100Y0034815D01*
X0025600Y0034815D01*
X0025600Y0024315D01*
X0025718Y0024315D01*
X0026945Y0024453D01*
X0028150Y0024728D01*
X0029316Y0025136D01*
X0030429Y0025672D01*
X0033735Y0028500D02*
X0073170Y0028500D01*
X0073149Y0028632D02*
X0073247Y0028039D01*
X0073425Y0027754D01*
X0073652Y0027010D01*
X0073664Y0026674D01*
X0073940Y0026067D01*
X0074134Y0025429D01*
X0074348Y0025170D01*
X0074670Y0024462D01*
X0074725Y0024130D01*
X0075078Y0023564D01*
X0075354Y0022957D01*
X0075600Y0022728D01*
X0076011Y0022068D01*
X0076110Y0021747D01*
X0076533Y0021232D01*
X0076886Y0020666D01*
X0077160Y0020471D01*
X0077654Y0019870D01*
X0077793Y0019564D01*
X0078281Y0019109D01*
X0078704Y0018594D01*
X0079001Y0018436D01*
X0079569Y0017906D01*
X0079748Y0017620D01*
X0080290Y0017233D01*
X0080777Y0016778D01*
X0081092Y0016660D01*
X0081725Y0016208D01*
X0081939Y0015948D01*
X0082527Y0015635D01*
X0083070Y0015247D01*
X0083398Y0015171D01*
X0084084Y0014806D01*
X0084329Y0014576D01*
X0084954Y0014342D01*
X0085542Y0014029D01*
X0085877Y0013996D01*
X0086605Y0013723D01*
X0086879Y0013528D01*
X0087529Y0013377D01*
X0088153Y0013144D01*
X0088489Y0013155D01*
X0089246Y0012980D01*
X0089543Y0012822D01*
X0090207Y0012757D01*
X0090857Y0012607D01*
X0091188Y0012662D01*
X0091967Y0012586D01*
X0092286Y0012467D01*
X0092948Y0012491D01*
X0093607Y0012427D01*
X0093933Y0012527D01*
X0094846Y0012560D01*
X0095173Y0012484D01*
X0095831Y0012595D01*
X0096497Y0012619D01*
X0096803Y0012759D01*
X0097699Y0012910D01*
X0098034Y0012878D01*
X0098671Y0013074D01*
X0099329Y0013185D01*
X0099614Y0013363D01*
X0100482Y0013630D01*
X0100818Y0013642D01*
X0101424Y0013919D01*
X0102062Y0014115D01*
X0102321Y0014329D01*
X0103147Y0014706D01*
X0103479Y0014762D01*
X0104044Y0015116D01*
X0104650Y0015394D01*
X0104879Y0015640D01*
X0105649Y0016122D01*
X0105970Y0016221D01*
X0106484Y0016645D01*
X0107050Y0016999D01*
X0107244Y0017273D01*
X0107945Y0017852D01*
X0108250Y0017992D01*
X0108705Y0018480D01*
X0109219Y0018905D01*
X0109376Y0019202D01*
X0109995Y0019867D01*
X0110280Y0020045D01*
X0110667Y0020589D01*
X0111121Y0021077D01*
X0111238Y0021392D01*
X0111765Y0022132D01*
X0112024Y0022346D01*
X0112336Y0022935D01*
X0112723Y0023478D01*
X0112798Y0023806D01*
X0113224Y0024609D01*
X0113453Y0024855D01*
X0113686Y0025480D01*
X0113998Y0026069D01*
X0114030Y0026404D01*
X0114347Y0027255D01*
X0114542Y0027529D01*
X0114691Y0028178D01*
X0114924Y0028803D01*
X0114912Y0029139D01*
X0115115Y0030025D01*
X0115273Y0030322D01*
X0115336Y0030986D01*
X0115485Y0031635D01*
X0115429Y0031967D01*
X0115506Y0032780D01*
X0115600Y0033005D01*
X0115600Y0033763D01*
X0115672Y0034517D01*
X0115600Y0034750D01*
X0115600Y0035782D01*
X0115684Y0036738D01*
X0115805Y0037084D01*
X0115770Y0037720D01*
X0115825Y0038354D01*
X0115715Y0038704D01*
X0115684Y0039253D01*
X0115755Y0039613D01*
X0115630Y0040237D01*
X0115594Y0040873D01*
X0115435Y0041204D01*
X0115327Y0041743D01*
X0115346Y0042109D01*
X0115133Y0042709D01*
X0115007Y0043334D01*
X0114803Y0043638D01*
X0114619Y0044157D01*
X0114586Y0044522D01*
X0114289Y0045085D01*
X0114076Y0045686D01*
X0113831Y0045958D01*
X0113575Y0046445D01*
X0113490Y0046801D01*
X0113116Y0047317D01*
X0112820Y0047881D01*
X0112538Y0048115D01*
X0112215Y0048561D01*
X0112080Y0048902D01*
X0111637Y0049359D01*
X0111264Y0049875D01*
X0110951Y0050067D01*
X0110569Y0050462D01*
X0110387Y0050781D01*
X0109883Y0051170D01*
X0109440Y0051628D01*
X0109103Y0051773D01*
X0108668Y0052110D01*
X0108443Y0052399D01*
X0107889Y0052713D01*
X0107385Y0053103D01*
X0107031Y0053199D01*
X0106553Y0053470D01*
X0106288Y0053724D01*
X0105695Y0053956D01*
X0105141Y0054270D01*
X0104777Y0054315D01*
X0104265Y0054516D01*
X0103967Y0054730D01*
X0103347Y0054875D01*
X0102754Y0055107D01*
X0102387Y0055100D01*
X0101637Y0055275D01*
X0101095Y0055500D01*
X0100678Y0055500D01*
X0100272Y0055595D01*
X0099692Y0055500D01*
X0099105Y0055500D01*
X0098720Y0055340D01*
X0098309Y0055273D01*
X0097810Y0054963D01*
X0097268Y0054739D01*
X0096973Y0054444D01*
X0096619Y0054224D01*
X0096276Y0053747D01*
X0095861Y0053332D01*
X0095702Y0052947D01*
X0095459Y0052609D01*
X0095325Y0052037D01*
X0095100Y0051495D01*
X0095100Y0051078D01*
X0095005Y0050672D01*
X0095100Y0050092D01*
X0095100Y0045816D01*
X0095084Y0045768D01*
X0094970Y0045778D01*
X0094677Y0045900D01*
X0093658Y0045900D01*
X0093100Y0045952D01*
X0093100Y0050411D01*
X0093100Y0045952D01*
X0093100Y0049500D02*
X0095100Y0049500D01*
X0093100Y0050411D02*
X0093132Y0051315D01*
X0093100Y0051402D01*
X0093100Y0051495D01*
X0092754Y0052331D01*
X0092437Y0053179D01*
X0092374Y0053247D01*
X0092339Y0053332D01*
X0091699Y0053972D01*
X0091082Y0054635D01*
X0090998Y0054673D01*
X0090932Y0054739D01*
X0090096Y0055085D01*
X0089273Y0055461D01*
X0089180Y0055465D01*
X0089095Y0055500D01*
X0088189Y0055500D01*
X0087285Y0055532D01*
X0087198Y0055500D01*
X0087105Y0055500D01*
X0086269Y0055154D01*
X0085051Y0054699D01*
X0084716Y0054667D01*
X0084127Y0054355D01*
X0083502Y0054122D01*
X0083256Y0053893D01*
X0082609Y0053550D01*
X0082281Y0053474D01*
X0081738Y0053087D01*
X0081149Y0052775D01*
X0080935Y0052516D01*
X0080339Y0052091D01*
X0080023Y0051974D01*
X0079535Y0051519D01*
X0078992Y0051132D01*
X0078814Y0050847D01*
X0078278Y0050349D01*
X0077981Y0050191D01*
X0077556Y0049677D01*
X0077068Y0049222D01*
X0076928Y0048917D01*
X0076462Y0048352D01*
X0076188Y0048157D01*
X0075835Y0047592D01*
X0075410Y0047078D01*
X0075311Y0046756D01*
X0074923Y0046136D01*
X0074677Y0045907D01*
X0074400Y0045300D01*
X0074046Y0044735D01*
X0073990Y0044403D01*
X0073686Y0043738D01*
X0073472Y0043478D01*
X0073276Y0042841D01*
X0072999Y0042234D01*
X0072987Y0041898D01*
X0072772Y0041198D01*
X0072594Y0040913D01*
X0072483Y0040256D01*
X0072288Y0039618D01*
X0072320Y0039283D01*
X0072198Y0038562D01*
X0072059Y0038256D01*
X0072035Y0037589D01*
X0071924Y0036932D01*
X0071999Y0036604D01*
X0071973Y0035872D01*
X0071875Y0035551D01*
X0071938Y0034887D01*
X0071914Y0034221D01*
X0072032Y0033906D01*
X0072101Y0033177D01*
X0072045Y0032845D01*
X0072195Y0032195D01*
X0072258Y0031532D01*
X0072416Y0031234D01*
X0072600Y0030433D01*
X0072600Y0030005D01*
X0072821Y0029472D01*
X0072950Y0028910D01*
X0073149Y0028632D01*
X0072100Y0032607D02*
X0072100Y0012050D01*
X0065100Y0012050D02*
X0065100Y0058300D01*
X0058100Y0058300D02*
X0058100Y0012050D01*
X0051100Y0012050D02*
X0051100Y0039066D01*
X0050945Y0038911D02*
X0051819Y0039785D01*
X0052589Y0040751D01*
X0053247Y0041797D01*
X0053783Y0042910D01*
X0054191Y0044076D01*
X0054466Y0045280D01*
X0054604Y0046508D01*
X0054604Y0046626D01*
X0044104Y0046626D01*
X0044104Y0036126D01*
X0044222Y0036126D01*
X0045449Y0036264D01*
X0046654Y0036539D01*
X0047820Y0036947D01*
X0048933Y0037483D01*
X0049979Y0038141D01*
X0050945Y0038911D01*
X0053585Y0042500D02*
X0073120Y0042500D01*
X0072100Y0038346D02*
X0072100Y0058300D01*
X0079100Y0058300D02*
X0079100Y0051209D01*
X0077366Y0049500D02*
X0054345Y0049500D01*
X0051100Y0047626D02*
X0051100Y0046626D01*
X0044100Y0046626D02*
X0044100Y0012050D01*
X0025600Y0028500D02*
X0024600Y0028500D01*
X0023100Y0024489D02*
X0023100Y0012050D01*
X0016100Y0012050D02*
X0016100Y0028963D01*
X0016465Y0028500D02*
X0008650Y0028500D01*
X0008650Y0035500D02*
X0024600Y0035500D01*
X0025600Y0035500D02*
X0071879Y0035500D01*
X0072100Y0033188D02*
X0072100Y0033171D01*
X0076313Y0021500D02*
X0008504Y0021500D01*
X0010568Y0014500D02*
X0084533Y0014500D01*
X0086100Y0013913D02*
X0086100Y0012050D01*
X0079100Y0012050D02*
X0079100Y0018344D01*
X0093100Y0012477D02*
X0093100Y0012050D01*
X0100100Y0012050D02*
X0100100Y0013512D01*
X0102695Y0014500D02*
X0204501Y0014500D01*
X0198100Y0012050D02*
X0198100Y0065950D01*
X0204550Y0063500D02*
X0181040Y0063500D01*
X0184100Y0067500D02*
X0184100Y0058440D01*
X0186040Y0056500D02*
X0204550Y0056500D01*
X0204550Y0049500D02*
X0190800Y0049500D01*
X0191100Y0045756D02*
X0191100Y0065950D01*
X0177100Y0053560D02*
X0177100Y0012050D01*
X0184100Y0012050D02*
X0184100Y0032303D01*
X0180025Y0035500D02*
X0161516Y0035500D01*
X0161675Y0035774D02*
X0162096Y0036792D01*
X0162381Y0037857D01*
X0162525Y0038949D01*
X0162525Y0039000D01*
X0154620Y0039000D01*
X0154620Y0040000D01*
X0162525Y0040000D01*
X0162525Y0040051D01*
X0162381Y0041143D01*
X0162096Y0042208D01*
X0161675Y0043226D01*
X0161124Y0044180D01*
X0160453Y0045054D01*
X0159674Y0045833D01*
X0158800Y0046504D01*
X0157845Y0047055D01*
X0156827Y0047477D01*
X0155763Y0047762D01*
X0154671Y0047905D01*
X0154620Y0047905D01*
X0154620Y0040000D01*
X0153620Y0040000D01*
X0153620Y0047905D01*
X0153569Y0047905D01*
X0152476Y0047762D01*
X0151412Y0047477D01*
X0150394Y0047055D01*
X0149440Y0046504D01*
X0148566Y0045833D01*
X0147787Y0045054D01*
X0147116Y0044180D01*
X0146565Y0043226D01*
X0146143Y0042208D01*
X0145858Y0041143D01*
X0145714Y0040051D01*
X0145714Y0040000D01*
X0153620Y0040000D01*
X0153620Y0039000D01*
X0154620Y0039000D01*
X0154620Y0031094D01*
X0154671Y0031094D01*
X0155763Y0031238D01*
X0156827Y0031523D01*
X0157845Y0031945D01*
X0158800Y0032496D01*
X0159674Y0033167D01*
X0160453Y0033946D01*
X0161124Y0034820D01*
X0161675Y0035774D01*
X0156100Y0039000D02*
X0156100Y0040000D01*
X0153620Y0039000D02*
X0153620Y0031094D01*
X0153569Y0031094D01*
X0152476Y0031238D01*
X0151412Y0031523D01*
X0150394Y0031945D01*
X0149440Y0032496D01*
X0148566Y0033167D01*
X0147787Y0033946D01*
X0147116Y0034820D01*
X0146565Y0035774D01*
X0146143Y0036792D01*
X0145858Y0037857D01*
X0145714Y0038949D01*
X0145714Y0039000D01*
X0153620Y0039000D01*
X0153620Y0042500D02*
X0154620Y0042500D01*
X0156100Y0047671D02*
X0156100Y0058300D01*
X0163100Y0058300D02*
X0163100Y0012050D01*
X0156100Y0012050D02*
X0156100Y0031329D01*
X0154620Y0035500D02*
X0153620Y0035500D01*
X0149100Y0032757D02*
X0149100Y0012050D01*
X0142100Y0012050D02*
X0142100Y0058300D01*
X0135100Y0058300D02*
X0135100Y0012050D01*
X0128100Y0012050D02*
X0128100Y0058300D01*
X0121100Y0058300D02*
X0121100Y0012050D01*
X0114100Y0012050D02*
X0114100Y0026592D01*
X0114811Y0028500D02*
X0204550Y0028500D01*
X0204550Y0021500D02*
X0111315Y0021500D01*
X0107100Y0017070D02*
X0107100Y0012050D01*
X0115600Y0035500D02*
X0146723Y0035500D01*
X0149100Y0039000D02*
X0149100Y0040000D01*
X0146264Y0042500D02*
X0115207Y0042500D01*
X0114100Y0045618D02*
X0114100Y0058300D01*
X0107100Y0058300D02*
X0107100Y0053180D01*
X0111535Y0049500D02*
X0181160Y0049500D01*
X0174160Y0056500D02*
X0049361Y0056500D01*
X0051100Y0055186D02*
X0051100Y0058300D01*
X0044100Y0058300D02*
X0044100Y0047626D01*
X0044104Y0049500D02*
X0043104Y0049500D01*
X0043104Y0056500D02*
X0044104Y0056500D01*
X0037847Y0056500D02*
X0036540Y0056500D01*
X0037100Y0056009D02*
X0037100Y0057060D01*
X0043104Y0042500D02*
X0044104Y0042500D01*
X0030100Y0035815D02*
X0030100Y0034815D01*
X0023100Y0034815D02*
X0023100Y0035815D01*
X0016100Y0035815D02*
X0016100Y0034815D01*
X0016100Y0041667D02*
X0016100Y0054125D01*
X0016760Y0042500D02*
X0008650Y0042500D01*
X0051600Y0117500D02*
X0056600Y0122500D01*
X0101600Y0122500D01*
X0101600Y0132500D02*
X0086600Y0132500D01*
X0081600Y0137500D01*
X0061600Y0137500D01*
X0061600Y0157500D02*
X0066600Y0157500D01*
X0068100Y0159000D01*
X0118100Y0159000D01*
X0118600Y0159500D01*
X0121600Y0162500D02*
X0124100Y0160000D01*
X0124100Y0130000D01*
X0126600Y0127500D01*
X0129600Y0127500D01*
X0129100Y0122500D02*
X0111600Y0122500D01*
X0129600Y0116500D02*
X0129600Y0088000D01*
X0124100Y0082500D01*
X0111600Y0082500D01*
X0104100Y0077500D02*
X0131600Y0077500D01*
X0156600Y0102500D01*
X0156600Y0112500D01*
X0161600Y0117500D01*
X0121600Y0162500D02*
X0056600Y0162500D01*
X0051600Y0167500D01*
X0041600Y0167500D02*
X0041600Y0177500D01*
X0046600Y0182500D01*
X0159100Y0182500D01*
X0161600Y0180000D01*
X0161600Y0177500D01*
X0169100Y0172500D02*
X0169100Y0190000D01*
X0166600Y0192500D01*
X0044100Y0192500D01*
X0038100Y0186500D01*
X0036600Y0185000D01*
X0036600Y0172500D01*
X0031600Y0167500D01*
X0029600Y0167500D01*
X0028600Y0157500D02*
X0031600Y0157500D01*
X0041600Y0167500D01*
X0038100Y0186500D02*
X0027037Y0186500D01*
X0030100Y0198000D02*
X0035663Y0198000D01*
X0101600Y0082500D02*
X0101600Y0080000D01*
X0104100Y0077500D01*
X0100100Y0058300D02*
X0100100Y0055567D01*
X0093100Y0058300D02*
X0093100Y0051402D01*
X0086100Y0055091D02*
X0086100Y0058300D01*
X0149100Y0058300D02*
X0149100Y0046243D01*
X0161975Y0042500D02*
X0179611Y0042500D01*
X0191100Y0033244D02*
X0191100Y0012050D01*
X0170100Y0012050D02*
X0170100Y0058300D01*
X0193589Y0042500D02*
X0204550Y0042500D01*
X0204550Y0035500D02*
X0193175Y0035500D01*
X0164100Y0167500D02*
X0161600Y0167500D01*
X0164100Y0167500D02*
X0169100Y0172500D01*
D31*
X0181600Y0146500D02*
X0181600Y0142500D01*
X0166600Y0127500D01*
X0171600Y0122500D01*
X0171600Y0102500D01*
X0162600Y0093500D01*
X0162600Y0090000D01*
X0175600Y0090000D02*
X0175600Y0086000D01*
X0181600Y0080000D01*
X0166600Y0127500D02*
X0161600Y0127500D01*
D32*
X0194100Y0097205D02*
X0194100Y0081614D01*
X0183214Y0081614D01*
X0181600Y0080000D01*
X0179100Y0077500D01*
X0179100Y0067500D01*
X0174100Y0062500D01*
X0186600Y0050000D01*
X0186600Y0039500D01*
X0174100Y0062500D02*
X0036600Y0062500D01*
X0033037Y0058937D01*
X0025100Y0058937D01*
M02*
