%
M48
M72
T01C0.01400
T02C0.03000
T03C0.03142
T04C0.03150
T05C0.03200
T06C0.03937
T07C0.04000
T08C0.05906
T09C0.11800
%
T01
X143100Y84000
X135600Y91500
X124600Y98500
X123100Y110000
X141600Y134000
X129100Y158000
X118600Y159500
X112100Y168000
X89600Y167500
X84600Y152500
X75100Y163500
X77100Y178500
X85600Y186000
X77100Y200500
X42600Y186000
X36600Y175000
X23600Y196000
X11600Y182500
X36100Y146000
X44600Y133500
X25100Y107000
X16600Y90500
X83600Y89500
X43100Y91000
X56600Y97500
X82100Y127500
X91100Y128000
X91100Y117500
X72100Y137000
X78600Y140500
X142100Y189000
X171600Y168000
X186600Y163000
X179100Y197500
X94100Y43000
X12100Y128500
T02
X17100Y198000
X30100Y198000
T03
X29575Y150000
X29625Y160000
X29575Y170000
X29625Y180025
T04
X31600Y78689
X31600Y86563
X31600Y94437
X31600Y102311
X28663Y124000
X36537Y124000
T05
X29600Y140000
T06
X111600Y82500
X111600Y92500
X111600Y102500
X111600Y112500
X111600Y122500
X111600Y132500
X111600Y142500
X111600Y152500
X101600Y152500
X101600Y142500
X101600Y132500
X101600Y122500
X101600Y112500
X101600Y102500
X101600Y92500
X101600Y82500
T07
X151600Y107500
X161600Y107500
X161600Y117500
X161600Y127500
X151600Y127500
X151600Y117500
X151600Y137500
X151600Y147500
X161600Y147500
X161600Y137500
X161600Y157500
X161600Y167500
X151600Y167500
X151600Y157500
X151600Y177500
X151600Y187500
X161600Y187500
X161600Y177500
X161600Y197500
X151600Y197500
X186600Y190000
X186600Y180000
X196600Y180000
X196600Y190000
X199100Y79500
X189100Y79500
X51600Y107500
X61600Y107500
X61600Y117500
X61600Y127500
X51600Y127500
X51600Y117500
X51600Y137500
X51600Y147500
X61600Y147500
X61600Y137500
X61600Y157500
X61600Y167500
X51600Y167500
X51600Y157500
X51600Y177500
X51600Y187500
X61600Y187500
X61600Y177500
X61600Y197500
X51600Y197500
T08
X185100Y39500
X152620Y39500
X194100Y96614
X194100Y112205
X194100Y127795
X194100Y143386
T09
X25100Y58937
X25100Y35315
X43604Y47126
M30
