G75*
%MOIN*%
%OFA0B0*%
%FSLAX25Y25*%
%IPPOS*%
%LPD*%
%AMOC8*
5,1,8,0,0,1.08239X$1,22.5*
%
%ADD10C,0.17500*%
%ADD11R,0.06000X0.06000*%
%ADD12C,0.06000*%
%ADD13C,0.00912*%
%ADD14C,0.09358*%
%ADD15C,0.07900*%
%ADD16R,0.05500X0.05500*%
%ADD17C,0.05500*%
%ADD18OC8,0.07500*%
%ADD19C,0.06406*%
%ADD20C,0.07100*%
%ADD21R,0.06800X0.05100*%
%ADD22C,0.05600*%
%ADD23C,0.12311*%
D10*
X0025100Y0035315D03*
X0043604Y0047126D03*
X0025100Y0058937D03*
D11*
X0030100Y0198000D03*
X0162600Y0090000D03*
X0175600Y0090000D03*
D12*
X0017100Y0198000D03*
D13*
X0017794Y0188853D02*
X0020532Y0188853D01*
X0020532Y0184147D01*
X0017794Y0184147D01*
X0017794Y0188853D01*
X0017794Y0185058D02*
X0020532Y0185058D01*
X0020532Y0185969D02*
X0017794Y0185969D01*
X0017794Y0186880D02*
X0020532Y0186880D01*
X0020532Y0187791D02*
X0017794Y0187791D01*
X0017794Y0188702D02*
X0020532Y0188702D01*
X0025668Y0188853D02*
X0028406Y0188853D01*
X0028406Y0184147D01*
X0025668Y0184147D01*
X0025668Y0188853D01*
X0025668Y0185058D02*
X0028406Y0185058D01*
X0028406Y0185969D02*
X0025668Y0185969D01*
X0025668Y0186880D02*
X0028406Y0186880D01*
X0028406Y0187791D02*
X0025668Y0187791D01*
X0025668Y0188702D02*
X0028406Y0188702D01*
X0034294Y0200353D02*
X0037032Y0200353D01*
X0037032Y0195647D01*
X0034294Y0195647D01*
X0034294Y0200353D01*
X0034294Y0196558D02*
X0037032Y0196558D01*
X0037032Y0197469D02*
X0034294Y0197469D01*
X0034294Y0198380D02*
X0037032Y0198380D01*
X0037032Y0199291D02*
X0034294Y0199291D01*
X0034294Y0200202D02*
X0037032Y0200202D01*
X0042168Y0200353D02*
X0044906Y0200353D01*
X0044906Y0195647D01*
X0042168Y0195647D01*
X0042168Y0200353D01*
X0042168Y0196558D02*
X0044906Y0196558D01*
X0044906Y0197469D02*
X0042168Y0197469D01*
X0042168Y0198380D02*
X0044906Y0198380D01*
X0044906Y0199291D02*
X0042168Y0199291D01*
X0042168Y0200202D02*
X0044906Y0200202D01*
X0028406Y0179853D02*
X0025668Y0179853D01*
X0028406Y0179853D02*
X0028406Y0175147D01*
X0025668Y0175147D01*
X0025668Y0179853D01*
X0025668Y0176058D02*
X0028406Y0176058D01*
X0028406Y0176969D02*
X0025668Y0176969D01*
X0025668Y0177880D02*
X0028406Y0177880D01*
X0028406Y0178791D02*
X0025668Y0178791D01*
X0025668Y0179702D02*
X0028406Y0179702D01*
X0020532Y0179853D02*
X0017794Y0179853D01*
X0020532Y0179853D02*
X0020532Y0175147D01*
X0017794Y0175147D01*
X0017794Y0179853D01*
X0017794Y0176058D02*
X0020532Y0176058D01*
X0020532Y0176969D02*
X0017794Y0176969D01*
X0017794Y0177880D02*
X0020532Y0177880D01*
X0020532Y0178791D02*
X0017794Y0178791D01*
X0017794Y0179702D02*
X0020532Y0179702D01*
D14*
X0189671Y0128386D02*
X0198529Y0128386D01*
X0198529Y0112795D02*
X0189671Y0112795D01*
X0189671Y0097205D02*
X0198529Y0097205D01*
X0198529Y0081614D02*
X0189671Y0081614D01*
D15*
X0191600Y0146500D03*
X0181600Y0146500D03*
X0186600Y0180000D03*
X0186600Y0190000D03*
X0196600Y0190000D03*
X0196600Y0180000D03*
X0029600Y0167500D03*
X0028600Y0157500D03*
X0029600Y0147500D03*
X0028600Y0137500D03*
D16*
X0031600Y0117311D03*
D17*
X0031600Y0109437D03*
X0031600Y0101563D03*
X0031600Y0093689D03*
D18*
X0051600Y0107500D03*
X0061600Y0107500D03*
X0061600Y0117500D03*
X0061600Y0127500D03*
X0051600Y0127500D03*
X0051600Y0117500D03*
X0051600Y0137500D03*
X0051600Y0147500D03*
X0061600Y0147500D03*
X0061600Y0137500D03*
X0061600Y0157500D03*
X0061600Y0167500D03*
X0051600Y0167500D03*
X0051600Y0157500D03*
X0051600Y0177500D03*
X0051600Y0187500D03*
X0061600Y0187500D03*
X0061600Y0177500D03*
X0061600Y0197500D03*
X0051600Y0197500D03*
X0151600Y0197500D03*
X0161600Y0197500D03*
X0161600Y0187500D03*
X0161600Y0177500D03*
X0151600Y0177500D03*
X0151600Y0187500D03*
X0151600Y0167500D03*
X0151600Y0157500D03*
X0161600Y0157500D03*
X0161600Y0167500D03*
X0161600Y0147500D03*
X0161600Y0137500D03*
X0151600Y0137500D03*
X0151600Y0147500D03*
X0151600Y0127500D03*
X0151600Y0117500D03*
X0161600Y0117500D03*
X0161600Y0127500D03*
X0161600Y0107500D03*
X0151600Y0107500D03*
D19*
X0101600Y0152500D03*
D20*
X0101600Y0142500D03*
X0101600Y0132500D03*
X0101600Y0122500D03*
X0101600Y0112500D03*
X0101600Y0102500D03*
X0101600Y0092500D03*
X0101600Y0082500D03*
X0111600Y0082500D03*
X0111600Y0092500D03*
X0111600Y0102500D03*
X0111600Y0112500D03*
X0111600Y0122500D03*
X0111600Y0132500D03*
X0111600Y0142500D03*
X0111600Y0152500D03*
D21*
X0129600Y0128500D03*
X0129600Y0122500D03*
X0129600Y0116500D03*
X0069100Y0091000D03*
X0069100Y0085000D03*
X0069100Y0079000D03*
D22*
X0079905Y0035000D02*
X0079909Y0035348D01*
X0079922Y0035697D01*
X0079943Y0036044D01*
X0079973Y0036391D01*
X0080012Y0036738D01*
X0080059Y0037083D01*
X0080114Y0037427D01*
X0080178Y0037769D01*
X0080250Y0038110D01*
X0080330Y0038449D01*
X0080419Y0038786D01*
X0080516Y0039121D01*
X0080621Y0039453D01*
X0080735Y0039782D01*
X0080856Y0040109D01*
X0080986Y0040432D01*
X0081123Y0040752D01*
X0081268Y0041069D01*
X0081421Y0041382D01*
X0081581Y0041691D01*
X0081749Y0041997D01*
X0081925Y0042298D01*
X0082107Y0042594D01*
X0082297Y0042886D01*
X0082494Y0043174D01*
X0082698Y0043456D01*
X0082909Y0043733D01*
X0083127Y0044005D01*
X0083351Y0044272D01*
X0083582Y0044533D01*
X0083819Y0044788D01*
X0084063Y0045037D01*
X0084312Y0045281D01*
X0084567Y0045518D01*
X0084828Y0045749D01*
X0085095Y0045973D01*
X0085367Y0046191D01*
X0085644Y0046402D01*
X0085926Y0046606D01*
X0086214Y0046803D01*
X0086506Y0046993D01*
X0086802Y0047175D01*
X0087103Y0047351D01*
X0087409Y0047519D01*
X0087718Y0047679D01*
X0088031Y0047832D01*
X0088348Y0047977D01*
X0088668Y0048114D01*
X0088991Y0048244D01*
X0089318Y0048365D01*
X0089647Y0048479D01*
X0089979Y0048584D01*
X0090314Y0048681D01*
X0090651Y0048770D01*
X0090990Y0048850D01*
X0091331Y0048922D01*
X0091673Y0048986D01*
X0092017Y0049041D01*
X0092362Y0049088D01*
X0092709Y0049127D01*
X0093056Y0049157D01*
X0093403Y0049178D01*
X0093752Y0049191D01*
X0094100Y0049195D01*
X0094448Y0049191D01*
X0094797Y0049178D01*
X0095144Y0049157D01*
X0095491Y0049127D01*
X0095838Y0049088D01*
X0096183Y0049041D01*
X0096527Y0048986D01*
X0096869Y0048922D01*
X0097210Y0048850D01*
X0097549Y0048770D01*
X0097886Y0048681D01*
X0098221Y0048584D01*
X0098553Y0048479D01*
X0098882Y0048365D01*
X0099209Y0048244D01*
X0099532Y0048114D01*
X0099852Y0047977D01*
X0100169Y0047832D01*
X0100482Y0047679D01*
X0100791Y0047519D01*
X0101097Y0047351D01*
X0101398Y0047175D01*
X0101694Y0046993D01*
X0101986Y0046803D01*
X0102274Y0046606D01*
X0102556Y0046402D01*
X0102833Y0046191D01*
X0103105Y0045973D01*
X0103372Y0045749D01*
X0103633Y0045518D01*
X0103888Y0045281D01*
X0104137Y0045037D01*
X0104381Y0044788D01*
X0104618Y0044533D01*
X0104849Y0044272D01*
X0105073Y0044005D01*
X0105291Y0043733D01*
X0105502Y0043456D01*
X0105706Y0043174D01*
X0105903Y0042886D01*
X0106093Y0042594D01*
X0106275Y0042298D01*
X0106451Y0041997D01*
X0106619Y0041691D01*
X0106779Y0041382D01*
X0106932Y0041069D01*
X0107077Y0040752D01*
X0107214Y0040432D01*
X0107344Y0040109D01*
X0107465Y0039782D01*
X0107579Y0039453D01*
X0107684Y0039121D01*
X0107781Y0038786D01*
X0107870Y0038449D01*
X0107950Y0038110D01*
X0108022Y0037769D01*
X0108086Y0037427D01*
X0108141Y0037083D01*
X0108188Y0036738D01*
X0108227Y0036391D01*
X0108257Y0036044D01*
X0108278Y0035697D01*
X0108291Y0035348D01*
X0108295Y0035000D01*
X0108291Y0034652D01*
X0108278Y0034303D01*
X0108257Y0033956D01*
X0108227Y0033609D01*
X0108188Y0033262D01*
X0108141Y0032917D01*
X0108086Y0032573D01*
X0108022Y0032231D01*
X0107950Y0031890D01*
X0107870Y0031551D01*
X0107781Y0031214D01*
X0107684Y0030879D01*
X0107579Y0030547D01*
X0107465Y0030218D01*
X0107344Y0029891D01*
X0107214Y0029568D01*
X0107077Y0029248D01*
X0106932Y0028931D01*
X0106779Y0028618D01*
X0106619Y0028309D01*
X0106451Y0028003D01*
X0106275Y0027702D01*
X0106093Y0027406D01*
X0105903Y0027114D01*
X0105706Y0026826D01*
X0105502Y0026544D01*
X0105291Y0026267D01*
X0105073Y0025995D01*
X0104849Y0025728D01*
X0104618Y0025467D01*
X0104381Y0025212D01*
X0104137Y0024963D01*
X0103888Y0024719D01*
X0103633Y0024482D01*
X0103372Y0024251D01*
X0103105Y0024027D01*
X0102833Y0023809D01*
X0102556Y0023598D01*
X0102274Y0023394D01*
X0101986Y0023197D01*
X0101694Y0023007D01*
X0101398Y0022825D01*
X0101097Y0022649D01*
X0100791Y0022481D01*
X0100482Y0022321D01*
X0100169Y0022168D01*
X0099852Y0022023D01*
X0099532Y0021886D01*
X0099209Y0021756D01*
X0098882Y0021635D01*
X0098553Y0021521D01*
X0098221Y0021416D01*
X0097886Y0021319D01*
X0097549Y0021230D01*
X0097210Y0021150D01*
X0096869Y0021078D01*
X0096527Y0021014D01*
X0096183Y0020959D01*
X0095838Y0020912D01*
X0095491Y0020873D01*
X0095144Y0020843D01*
X0094797Y0020822D01*
X0094448Y0020809D01*
X0094100Y0020805D01*
X0093752Y0020809D01*
X0093403Y0020822D01*
X0093056Y0020843D01*
X0092709Y0020873D01*
X0092362Y0020912D01*
X0092017Y0020959D01*
X0091673Y0021014D01*
X0091331Y0021078D01*
X0090990Y0021150D01*
X0090651Y0021230D01*
X0090314Y0021319D01*
X0089979Y0021416D01*
X0089647Y0021521D01*
X0089318Y0021635D01*
X0088991Y0021756D01*
X0088668Y0021886D01*
X0088348Y0022023D01*
X0088031Y0022168D01*
X0087718Y0022321D01*
X0087409Y0022481D01*
X0087103Y0022649D01*
X0086802Y0022825D01*
X0086506Y0023007D01*
X0086214Y0023197D01*
X0085926Y0023394D01*
X0085644Y0023598D01*
X0085367Y0023809D01*
X0085095Y0024027D01*
X0084828Y0024251D01*
X0084567Y0024482D01*
X0084312Y0024719D01*
X0084063Y0024963D01*
X0083819Y0025212D01*
X0083582Y0025467D01*
X0083351Y0025728D01*
X0083127Y0025995D01*
X0082909Y0026267D01*
X0082698Y0026544D01*
X0082494Y0026826D01*
X0082297Y0027114D01*
X0082107Y0027406D01*
X0081925Y0027702D01*
X0081749Y0028003D01*
X0081581Y0028309D01*
X0081421Y0028618D01*
X0081268Y0028931D01*
X0081123Y0029248D01*
X0080986Y0029568D01*
X0080856Y0029891D01*
X0080735Y0030218D01*
X0080621Y0030547D01*
X0080516Y0030879D01*
X0080419Y0031214D01*
X0080330Y0031551D01*
X0080250Y0031890D01*
X0080178Y0032231D01*
X0080114Y0032573D01*
X0080059Y0032917D01*
X0080012Y0033262D01*
X0079973Y0033609D01*
X0079943Y0033956D01*
X0079922Y0034303D01*
X0079909Y0034652D01*
X0079905Y0035000D01*
D23*
X0154120Y0039500D03*
X0186600Y0039500D03*
M02*
