%
M48
M72
T01C0.0140
T02C0.0300
T03C0.0315
T04C0.0394
T05C0.0400
T06C0.0591
T07C0.1180
%
T01
X1660Y8550
X2660Y12750
X3710Y14650
X4410Y16250
X3260Y17550
X4260Y18350
X2360Y19600
X7060Y14650
X8460Y15250
X8960Y16750
X7410Y18750
X7410Y19800
X11210Y16800
X11860Y15950
X12910Y15800
X14310Y13600
X12310Y11000
X12460Y9850
X15060Y8400
X9410Y4300
X8360Y8950
X6910Y10500
X8960Y12750
X17660Y17000
X17910Y19750
T02
X3010Y19800
X1710Y19800
T03
X3160Y11731
X3160Y10944
X3160Y10156
X3160Y9369
T04
X10160Y9250
X10160Y10250
X10160Y11250
X10160Y12250
X10160Y13250
X10160Y14250
X10160Y15250
X11160Y15250
X11160Y14250
X11160Y13250
X11160Y12250
X11160Y11250
X11160Y10250
X11160Y9250
X11160Y8250
X10160Y8250
T05
X6160Y10750
X5160Y10750
X5160Y11750
X5160Y12750
X6160Y12750
X6160Y11750
X6160Y13750
X6160Y14750
X5160Y14750
X5160Y13750
X5160Y15750
X5160Y16750
X6160Y16750
X6160Y15750
X6160Y17750
X6160Y18750
X5160Y18750
X5160Y17750
X5160Y19750
X6160Y19750
X2960Y16750
X2860Y15750
X2960Y14750
X2860Y13750
X15160Y13750
X15160Y14750
X16160Y14750
X16160Y13750
X16160Y12750
X16160Y11750
X15160Y11750
X15160Y12750
X15160Y10750
X16160Y10750
X18160Y14650
X19160Y14650
X16160Y15750
X16160Y16750
X15160Y16750
X15160Y15750
X15160Y17750
X15160Y18750
X16160Y18750
X16160Y17750
X16160Y19750
X15160Y19750
X18660Y19000
X18660Y18000
X19660Y18000
X19660Y19000
T06
X19410Y12839
X19410Y11280
X19410Y9720
X19410Y8161
X18660Y3950
X15412Y3950
T07
X2510Y3531
X4360Y4713
X2510Y5894
M30
