G75*
%MOIN*%
%OFA0B0*%
%FSLAX25Y25*%
%IPPOS*%
%LPD*%
%AMOC8*
5,1,8,0,0,1.08239X$1,22.5*
%
%ADD10C,0.00100*%
%ADD11C,0.17500*%
%ADD12R,0.06000X0.06000*%
%ADD13C,0.06000*%
%ADD14C,0.00912*%
%ADD15C,0.09358*%
%ADD16R,0.05500X0.05500*%
%ADD17C,0.05500*%
%ADD18OC8,0.07500*%
%ADD19C,0.06406*%
%ADD20C,0.07100*%
%ADD21R,0.06800X0.05100*%
%ADD22C,0.05600*%
%ADD23C,0.12311*%
%ADD24C,0.07900*%
%ADD25R,0.05815X0.05815*%
%ADD26C,0.05815*%
%ADD27R,0.05050X0.05618*%
%ADD28C,0.07400*%
%ADD29C,0.05900*%
D10*
X0014100Y0010000D02*
X0201600Y0010000D01*
X0201740Y0010002D01*
X0201880Y0010008D01*
X0202020Y0010018D01*
X0202160Y0010031D01*
X0202299Y0010049D01*
X0202438Y0010071D01*
X0202575Y0010096D01*
X0202713Y0010125D01*
X0202849Y0010158D01*
X0202984Y0010195D01*
X0203118Y0010236D01*
X0203251Y0010281D01*
X0203383Y0010329D01*
X0203513Y0010381D01*
X0203642Y0010436D01*
X0203769Y0010495D01*
X0203895Y0010558D01*
X0204019Y0010624D01*
X0204140Y0010693D01*
X0204260Y0010766D01*
X0204378Y0010843D01*
X0204493Y0010922D01*
X0204607Y0011005D01*
X0204717Y0011091D01*
X0204826Y0011180D01*
X0204932Y0011272D01*
X0205035Y0011367D01*
X0205136Y0011464D01*
X0205233Y0011565D01*
X0205328Y0011668D01*
X0205420Y0011774D01*
X0205509Y0011883D01*
X0205595Y0011993D01*
X0205678Y0012107D01*
X0205757Y0012222D01*
X0205834Y0012340D01*
X0205907Y0012460D01*
X0205976Y0012581D01*
X0206042Y0012705D01*
X0206105Y0012831D01*
X0206164Y0012958D01*
X0206219Y0013087D01*
X0206271Y0013217D01*
X0206319Y0013349D01*
X0206364Y0013482D01*
X0206405Y0013616D01*
X0206442Y0013751D01*
X0206475Y0013887D01*
X0206504Y0014025D01*
X0206529Y0014162D01*
X0206551Y0014301D01*
X0206569Y0014440D01*
X0206582Y0014580D01*
X0206592Y0014720D01*
X0206598Y0014860D01*
X0206600Y0015000D01*
X0206600Y0195000D01*
X0206628Y0195212D01*
X0206650Y0195424D01*
X0206668Y0195637D01*
X0206680Y0195850D01*
X0206687Y0196064D01*
X0206689Y0196277D01*
X0206686Y0196491D01*
X0206677Y0196704D01*
X0206664Y0196918D01*
X0206645Y0197130D01*
X0206621Y0197343D01*
X0206592Y0197554D01*
X0206558Y0197765D01*
X0206519Y0197975D01*
X0206475Y0198184D01*
X0206426Y0198392D01*
X0206371Y0198598D01*
X0206312Y0198804D01*
X0206248Y0199007D01*
X0206179Y0199210D01*
X0206105Y0199410D01*
X0206026Y0199608D01*
X0205943Y0199805D01*
X0205854Y0200000D01*
X0205761Y0200192D01*
X0205664Y0200382D01*
X0205562Y0200570D01*
X0205455Y0200755D01*
X0205344Y0200937D01*
X0205229Y0201117D01*
X0205109Y0201294D01*
X0204985Y0201468D01*
X0204857Y0201638D01*
X0204724Y0201806D01*
X0204588Y0201971D01*
X0204448Y0202132D01*
X0204304Y0202290D01*
X0204156Y0202444D01*
X0204005Y0202594D01*
X0203849Y0202741D01*
X0203691Y0202884D01*
X0203529Y0203023D01*
X0203363Y0203159D01*
X0203195Y0203290D01*
X0203023Y0203417D01*
X0202849Y0203540D01*
X0202671Y0203659D01*
X0202491Y0203773D01*
X0202307Y0203883D01*
X0202122Y0203988D01*
X0201933Y0204089D01*
X0201743Y0204186D01*
X0201550Y0204277D01*
X0201355Y0204364D01*
X0201158Y0204447D01*
X0200959Y0204524D01*
X0200758Y0204597D01*
X0200555Y0204665D01*
X0200351Y0204728D01*
X0200146Y0204786D01*
X0199939Y0204839D01*
X0199731Y0204887D01*
X0199521Y0204930D01*
X0199311Y0204967D01*
X0199100Y0205000D01*
X0014100Y0205000D01*
X0013886Y0204967D01*
X0013672Y0204928D01*
X0013460Y0204884D01*
X0013248Y0204836D01*
X0013038Y0204781D01*
X0012830Y0204722D01*
X0012622Y0204658D01*
X0012417Y0204588D01*
X0012213Y0204514D01*
X0012011Y0204434D01*
X0011811Y0204350D01*
X0011614Y0204261D01*
X0011418Y0204166D01*
X0011225Y0204068D01*
X0011035Y0203964D01*
X0010847Y0203856D01*
X0010661Y0203743D01*
X0010479Y0203626D01*
X0010299Y0203504D01*
X0010123Y0203378D01*
X0009949Y0203247D01*
X0009779Y0203113D01*
X0009613Y0202974D01*
X0009449Y0202831D01*
X0009290Y0202684D01*
X0009134Y0202534D01*
X0008981Y0202379D01*
X0008833Y0202221D01*
X0008688Y0202059D01*
X0008548Y0201894D01*
X0008411Y0201725D01*
X0008279Y0201553D01*
X0008151Y0201378D01*
X0008027Y0201200D01*
X0007908Y0201019D01*
X0007793Y0200835D01*
X0007683Y0200648D01*
X0007577Y0200458D01*
X0007476Y0200266D01*
X0007380Y0200072D01*
X0007289Y0199875D01*
X0007202Y0199676D01*
X0007120Y0199475D01*
X0007044Y0199272D01*
X0006972Y0199068D01*
X0006905Y0198861D01*
X0006844Y0198653D01*
X0006788Y0198444D01*
X0006736Y0198233D01*
X0006690Y0198021D01*
X0006649Y0197808D01*
X0006614Y0197594D01*
X0006583Y0197379D01*
X0006558Y0197164D01*
X0006539Y0196948D01*
X0006524Y0196731D01*
X0006515Y0196514D01*
X0006511Y0196297D01*
X0006513Y0196080D01*
X0006519Y0195864D01*
X0006532Y0195647D01*
X0006549Y0195431D01*
X0006572Y0195215D01*
X0006600Y0195000D01*
X0006600Y0022500D01*
X0006542Y0022258D01*
X0006491Y0022014D01*
X0006445Y0021769D01*
X0006405Y0021523D01*
X0006371Y0021276D01*
X0006343Y0021029D01*
X0006322Y0020781D01*
X0006306Y0020532D01*
X0006296Y0020283D01*
X0006292Y0020034D01*
X0006294Y0019785D01*
X0006302Y0019536D01*
X0006317Y0019287D01*
X0006337Y0019039D01*
X0006363Y0018791D01*
X0006395Y0018544D01*
X0006433Y0018298D01*
X0006478Y0018053D01*
X0006528Y0017809D01*
X0006583Y0017566D01*
X0006645Y0017325D01*
X0006713Y0017085D01*
X0006786Y0016847D01*
X0006865Y0016611D01*
X0006950Y0016377D01*
X0007040Y0016145D01*
X0007136Y0015915D01*
X0007238Y0015687D01*
X0007345Y0015462D01*
X0007457Y0015240D01*
X0007575Y0015020D01*
X0007698Y0014804D01*
X0007826Y0014590D01*
X0007959Y0014380D01*
X0008097Y0014173D01*
X0008241Y0013969D01*
X0008389Y0013769D01*
X0008542Y0013572D01*
X0008699Y0013379D01*
X0008862Y0013190D01*
X0009029Y0013005D01*
X0009200Y0012824D01*
X0009375Y0012648D01*
X0009555Y0012475D01*
X0009739Y0012307D01*
X0009927Y0012144D01*
X0010119Y0011985D01*
X0010314Y0011830D01*
X0010513Y0011681D01*
X0010716Y0011536D01*
X0010923Y0011396D01*
X0011132Y0011262D01*
X0011345Y0011132D01*
X0011561Y0011008D01*
X0011779Y0010889D01*
X0012001Y0010775D01*
X0012225Y0010666D01*
X0012452Y0010563D01*
X0012681Y0010466D01*
X0012913Y0010374D01*
X0013146Y0010288D01*
X0013382Y0010207D01*
X0013620Y0010132D01*
X0013859Y0010063D01*
X0014100Y0010000D01*
X0012600Y0068000D02*
X0040600Y0068000D01*
X0040660Y0068002D01*
X0040721Y0068007D01*
X0040780Y0068016D01*
X0040839Y0068029D01*
X0040898Y0068045D01*
X0040955Y0068065D01*
X0041010Y0068088D01*
X0041065Y0068115D01*
X0041117Y0068144D01*
X0041168Y0068177D01*
X0041217Y0068213D01*
X0041263Y0068251D01*
X0041307Y0068293D01*
X0041349Y0068337D01*
X0041387Y0068383D01*
X0041423Y0068432D01*
X0041456Y0068483D01*
X0041485Y0068535D01*
X0041512Y0068590D01*
X0041535Y0068645D01*
X0041555Y0068702D01*
X0041571Y0068761D01*
X0041584Y0068820D01*
X0041593Y0068879D01*
X0041598Y0068940D01*
X0041600Y0069000D01*
X0041598Y0069060D01*
X0041593Y0069121D01*
X0041584Y0069180D01*
X0041571Y0069239D01*
X0041555Y0069298D01*
X0041535Y0069355D01*
X0041512Y0069410D01*
X0041485Y0069465D01*
X0041456Y0069517D01*
X0041423Y0069568D01*
X0041387Y0069617D01*
X0041349Y0069663D01*
X0041307Y0069707D01*
X0041263Y0069749D01*
X0041217Y0069787D01*
X0041168Y0069823D01*
X0041117Y0069856D01*
X0041065Y0069885D01*
X0041010Y0069912D01*
X0040955Y0069935D01*
X0040898Y0069955D01*
X0040839Y0069971D01*
X0040780Y0069984D01*
X0040721Y0069993D01*
X0040660Y0069998D01*
X0040600Y0070000D01*
X0012600Y0070000D01*
X0011600Y0069000D02*
X0011602Y0068940D01*
X0011607Y0068879D01*
X0011616Y0068820D01*
X0011629Y0068761D01*
X0011645Y0068702D01*
X0011665Y0068645D01*
X0011688Y0068590D01*
X0011715Y0068535D01*
X0011744Y0068483D01*
X0011777Y0068432D01*
X0011813Y0068383D01*
X0011851Y0068337D01*
X0011893Y0068293D01*
X0011937Y0068251D01*
X0011983Y0068213D01*
X0012032Y0068177D01*
X0012083Y0068144D01*
X0012135Y0068115D01*
X0012190Y0068088D01*
X0012245Y0068065D01*
X0012302Y0068045D01*
X0012361Y0068029D01*
X0012420Y0068016D01*
X0012479Y0068007D01*
X0012540Y0068002D01*
X0012600Y0068000D01*
X0011600Y0069000D02*
X0011602Y0069060D01*
X0011607Y0069121D01*
X0011616Y0069180D01*
X0011629Y0069239D01*
X0011645Y0069298D01*
X0011665Y0069355D01*
X0011688Y0069410D01*
X0011715Y0069465D01*
X0011744Y0069517D01*
X0011777Y0069568D01*
X0011813Y0069617D01*
X0011851Y0069663D01*
X0011893Y0069707D01*
X0011937Y0069749D01*
X0011983Y0069787D01*
X0012032Y0069823D01*
X0012083Y0069856D01*
X0012135Y0069885D01*
X0012190Y0069912D01*
X0012245Y0069935D01*
X0012302Y0069955D01*
X0012361Y0069971D01*
X0012420Y0069984D01*
X0012479Y0069993D01*
X0012540Y0069998D01*
X0012600Y0070000D01*
X0057600Y0070000D02*
X0088100Y0070000D01*
X0089100Y0069000D02*
X0089098Y0068940D01*
X0089093Y0068879D01*
X0089084Y0068820D01*
X0089071Y0068761D01*
X0089055Y0068702D01*
X0089035Y0068645D01*
X0089012Y0068590D01*
X0088985Y0068535D01*
X0088956Y0068483D01*
X0088923Y0068432D01*
X0088887Y0068383D01*
X0088849Y0068337D01*
X0088807Y0068293D01*
X0088763Y0068251D01*
X0088717Y0068213D01*
X0088668Y0068177D01*
X0088617Y0068144D01*
X0088565Y0068115D01*
X0088510Y0068088D01*
X0088455Y0068065D01*
X0088398Y0068045D01*
X0088339Y0068029D01*
X0088280Y0068016D01*
X0088221Y0068007D01*
X0088160Y0068002D01*
X0088100Y0068000D01*
X0057600Y0068000D01*
X0057540Y0068002D01*
X0057479Y0068007D01*
X0057420Y0068016D01*
X0057361Y0068029D01*
X0057302Y0068045D01*
X0057245Y0068065D01*
X0057190Y0068088D01*
X0057135Y0068115D01*
X0057083Y0068144D01*
X0057032Y0068177D01*
X0056983Y0068213D01*
X0056937Y0068251D01*
X0056893Y0068293D01*
X0056851Y0068337D01*
X0056813Y0068383D01*
X0056777Y0068432D01*
X0056744Y0068483D01*
X0056715Y0068535D01*
X0056688Y0068590D01*
X0056665Y0068645D01*
X0056645Y0068702D01*
X0056629Y0068761D01*
X0056616Y0068820D01*
X0056607Y0068879D01*
X0056602Y0068940D01*
X0056600Y0069000D01*
X0056602Y0069060D01*
X0056607Y0069121D01*
X0056616Y0069180D01*
X0056629Y0069239D01*
X0056645Y0069298D01*
X0056665Y0069355D01*
X0056688Y0069410D01*
X0056715Y0069465D01*
X0056744Y0069517D01*
X0056777Y0069568D01*
X0056813Y0069617D01*
X0056851Y0069663D01*
X0056893Y0069707D01*
X0056937Y0069749D01*
X0056983Y0069787D01*
X0057032Y0069823D01*
X0057083Y0069856D01*
X0057135Y0069885D01*
X0057190Y0069912D01*
X0057245Y0069935D01*
X0057302Y0069955D01*
X0057361Y0069971D01*
X0057420Y0069984D01*
X0057479Y0069993D01*
X0057540Y0069998D01*
X0057600Y0070000D01*
X0088100Y0070000D02*
X0088160Y0069998D01*
X0088221Y0069993D01*
X0088280Y0069984D01*
X0088339Y0069971D01*
X0088398Y0069955D01*
X0088455Y0069935D01*
X0088510Y0069912D01*
X0088565Y0069885D01*
X0088617Y0069856D01*
X0088668Y0069823D01*
X0088717Y0069787D01*
X0088763Y0069749D01*
X0088807Y0069707D01*
X0088849Y0069663D01*
X0088887Y0069617D01*
X0088923Y0069568D01*
X0088956Y0069517D01*
X0088985Y0069465D01*
X0089012Y0069410D01*
X0089035Y0069355D01*
X0089055Y0069298D01*
X0089071Y0069239D01*
X0089084Y0069180D01*
X0089093Y0069121D01*
X0089098Y0069060D01*
X0089100Y0069000D01*
X0099100Y0069000D02*
X0099102Y0068940D01*
X0099107Y0068879D01*
X0099116Y0068820D01*
X0099129Y0068761D01*
X0099145Y0068702D01*
X0099165Y0068645D01*
X0099188Y0068590D01*
X0099215Y0068535D01*
X0099244Y0068483D01*
X0099277Y0068432D01*
X0099313Y0068383D01*
X0099351Y0068337D01*
X0099393Y0068293D01*
X0099437Y0068251D01*
X0099483Y0068213D01*
X0099532Y0068177D01*
X0099583Y0068144D01*
X0099635Y0068115D01*
X0099690Y0068088D01*
X0099745Y0068065D01*
X0099802Y0068045D01*
X0099861Y0068029D01*
X0099920Y0068016D01*
X0099979Y0068007D01*
X0100040Y0068002D01*
X0100100Y0068000D01*
X0143100Y0068000D01*
X0143160Y0068002D01*
X0143221Y0068007D01*
X0143280Y0068016D01*
X0143339Y0068029D01*
X0143398Y0068045D01*
X0143455Y0068065D01*
X0143510Y0068088D01*
X0143565Y0068115D01*
X0143617Y0068144D01*
X0143668Y0068177D01*
X0143717Y0068213D01*
X0143763Y0068251D01*
X0143807Y0068293D01*
X0143849Y0068337D01*
X0143887Y0068383D01*
X0143923Y0068432D01*
X0143956Y0068483D01*
X0143985Y0068535D01*
X0144012Y0068590D01*
X0144035Y0068645D01*
X0144055Y0068702D01*
X0144071Y0068761D01*
X0144084Y0068820D01*
X0144093Y0068879D01*
X0144098Y0068940D01*
X0144100Y0069000D01*
X0144098Y0069060D01*
X0144093Y0069121D01*
X0144084Y0069180D01*
X0144071Y0069239D01*
X0144055Y0069298D01*
X0144035Y0069355D01*
X0144012Y0069410D01*
X0143985Y0069465D01*
X0143956Y0069517D01*
X0143923Y0069568D01*
X0143887Y0069617D01*
X0143849Y0069663D01*
X0143807Y0069707D01*
X0143763Y0069749D01*
X0143717Y0069787D01*
X0143668Y0069823D01*
X0143617Y0069856D01*
X0143565Y0069885D01*
X0143510Y0069912D01*
X0143455Y0069935D01*
X0143398Y0069955D01*
X0143339Y0069971D01*
X0143280Y0069984D01*
X0143221Y0069993D01*
X0143160Y0069998D01*
X0143100Y0070000D01*
X0100100Y0070000D01*
X0100040Y0069998D01*
X0099979Y0069993D01*
X0099920Y0069984D01*
X0099861Y0069971D01*
X0099802Y0069955D01*
X0099745Y0069935D01*
X0099690Y0069912D01*
X0099635Y0069885D01*
X0099583Y0069856D01*
X0099532Y0069823D01*
X0099483Y0069787D01*
X0099437Y0069749D01*
X0099393Y0069707D01*
X0099351Y0069663D01*
X0099313Y0069617D01*
X0099277Y0069568D01*
X0099244Y0069517D01*
X0099215Y0069465D01*
X0099188Y0069410D01*
X0099165Y0069355D01*
X0099145Y0069298D01*
X0099129Y0069239D01*
X0099116Y0069180D01*
X0099107Y0069121D01*
X0099102Y0069060D01*
X0099100Y0069000D01*
X0164100Y0069000D02*
X0164102Y0068940D01*
X0164107Y0068879D01*
X0164116Y0068820D01*
X0164129Y0068761D01*
X0164145Y0068702D01*
X0164165Y0068645D01*
X0164188Y0068590D01*
X0164215Y0068535D01*
X0164244Y0068483D01*
X0164277Y0068432D01*
X0164313Y0068383D01*
X0164351Y0068337D01*
X0164393Y0068293D01*
X0164437Y0068251D01*
X0164483Y0068213D01*
X0164532Y0068177D01*
X0164583Y0068144D01*
X0164635Y0068115D01*
X0164690Y0068088D01*
X0164745Y0068065D01*
X0164802Y0068045D01*
X0164861Y0068029D01*
X0164920Y0068016D01*
X0164979Y0068007D01*
X0165040Y0068002D01*
X0165100Y0068000D01*
X0188100Y0068000D01*
X0188160Y0068002D01*
X0188221Y0068007D01*
X0188280Y0068016D01*
X0188339Y0068029D01*
X0188398Y0068045D01*
X0188455Y0068065D01*
X0188510Y0068088D01*
X0188565Y0068115D01*
X0188617Y0068144D01*
X0188668Y0068177D01*
X0188717Y0068213D01*
X0188763Y0068251D01*
X0188807Y0068293D01*
X0188849Y0068337D01*
X0188887Y0068383D01*
X0188923Y0068432D01*
X0188956Y0068483D01*
X0188985Y0068535D01*
X0189012Y0068590D01*
X0189035Y0068645D01*
X0189055Y0068702D01*
X0189071Y0068761D01*
X0189084Y0068820D01*
X0189093Y0068879D01*
X0189098Y0068940D01*
X0189100Y0069000D01*
X0189098Y0069060D01*
X0189093Y0069121D01*
X0189084Y0069180D01*
X0189071Y0069239D01*
X0189055Y0069298D01*
X0189035Y0069355D01*
X0189012Y0069410D01*
X0188985Y0069465D01*
X0188956Y0069517D01*
X0188923Y0069568D01*
X0188887Y0069617D01*
X0188849Y0069663D01*
X0188807Y0069707D01*
X0188763Y0069749D01*
X0188717Y0069787D01*
X0188668Y0069823D01*
X0188617Y0069856D01*
X0188565Y0069885D01*
X0188510Y0069912D01*
X0188455Y0069935D01*
X0188398Y0069955D01*
X0188339Y0069971D01*
X0188280Y0069984D01*
X0188221Y0069993D01*
X0188160Y0069998D01*
X0188100Y0070000D01*
X0165100Y0070000D01*
X0165040Y0069998D01*
X0164979Y0069993D01*
X0164920Y0069984D01*
X0164861Y0069971D01*
X0164802Y0069955D01*
X0164745Y0069935D01*
X0164690Y0069912D01*
X0164635Y0069885D01*
X0164583Y0069856D01*
X0164532Y0069823D01*
X0164483Y0069787D01*
X0164437Y0069749D01*
X0164393Y0069707D01*
X0164351Y0069663D01*
X0164313Y0069617D01*
X0164277Y0069568D01*
X0164244Y0069517D01*
X0164215Y0069465D01*
X0164188Y0069410D01*
X0164165Y0069355D01*
X0164145Y0069298D01*
X0164129Y0069239D01*
X0164116Y0069180D01*
X0164107Y0069121D01*
X0164102Y0069060D01*
X0164100Y0069000D01*
D11*
X0043604Y0047126D03*
X0025100Y0058937D03*
X0025100Y0035315D03*
D12*
X0171600Y0083500D03*
X0171600Y0096500D03*
X0030100Y0198000D03*
D13*
X0017100Y0198000D03*
D14*
X0014532Y0162353D02*
X0011794Y0162353D01*
X0014532Y0162353D02*
X0014532Y0157647D01*
X0011794Y0157647D01*
X0011794Y0162353D01*
X0011794Y0158558D02*
X0014532Y0158558D01*
X0014532Y0159469D02*
X0011794Y0159469D01*
X0011794Y0160380D02*
X0014532Y0160380D01*
X0014532Y0161291D02*
X0011794Y0161291D01*
X0011794Y0162202D02*
X0014532Y0162202D01*
X0019668Y0162353D02*
X0022406Y0162353D01*
X0022406Y0157647D01*
X0019668Y0157647D01*
X0019668Y0162353D01*
X0019668Y0158558D02*
X0022406Y0158558D01*
X0022406Y0159469D02*
X0019668Y0159469D01*
X0019668Y0160380D02*
X0022406Y0160380D01*
X0022406Y0161291D02*
X0019668Y0161291D01*
X0019668Y0162202D02*
X0022406Y0162202D01*
X0022406Y0152353D02*
X0019668Y0152353D01*
X0022406Y0152353D02*
X0022406Y0147647D01*
X0019668Y0147647D01*
X0019668Y0152353D01*
X0019668Y0148558D02*
X0022406Y0148558D01*
X0022406Y0149469D02*
X0019668Y0149469D01*
X0019668Y0150380D02*
X0022406Y0150380D01*
X0022406Y0151291D02*
X0019668Y0151291D01*
X0019668Y0152202D02*
X0022406Y0152202D01*
X0014532Y0152353D02*
X0011794Y0152353D01*
X0014532Y0152353D02*
X0014532Y0147647D01*
X0011794Y0147647D01*
X0011794Y0152353D01*
X0011794Y0148558D02*
X0014532Y0148558D01*
X0014532Y0149469D02*
X0011794Y0149469D01*
X0011794Y0150380D02*
X0014532Y0150380D01*
X0014532Y0151291D02*
X0011794Y0151291D01*
X0011794Y0152202D02*
X0014532Y0152202D01*
X0070247Y0186194D02*
X0070247Y0188932D01*
X0074953Y0188932D01*
X0074953Y0186194D01*
X0070247Y0186194D01*
X0070247Y0187105D02*
X0074953Y0187105D01*
X0074953Y0188016D02*
X0070247Y0188016D01*
X0070247Y0188927D02*
X0074953Y0188927D01*
X0070247Y0194068D02*
X0070247Y0196806D01*
X0074953Y0196806D01*
X0074953Y0194068D01*
X0070247Y0194068D01*
X0070247Y0194979D02*
X0074953Y0194979D01*
X0074953Y0195890D02*
X0070247Y0195890D01*
X0070247Y0196801D02*
X0074953Y0196801D01*
D15*
X0189671Y0143386D02*
X0198529Y0143386D01*
X0198529Y0127795D02*
X0189671Y0127795D01*
X0189671Y0112205D02*
X0198529Y0112205D01*
X0198529Y0096614D02*
X0189671Y0096614D01*
D16*
X0031600Y0102311D03*
D17*
X0031600Y0094437D03*
X0031600Y0086563D03*
X0031600Y0078689D03*
D18*
X0051600Y0107500D03*
X0061600Y0107500D03*
X0061600Y0117500D03*
X0061600Y0127500D03*
X0051600Y0127500D03*
X0051600Y0117500D03*
X0051600Y0137500D03*
X0051600Y0147500D03*
X0061600Y0147500D03*
X0061600Y0137500D03*
X0061600Y0157500D03*
X0061600Y0167500D03*
X0051600Y0167500D03*
X0051600Y0157500D03*
X0051600Y0177500D03*
X0051600Y0187500D03*
X0061600Y0187500D03*
X0061600Y0177500D03*
X0061600Y0197500D03*
X0051600Y0197500D03*
X0151600Y0197500D03*
X0161600Y0197500D03*
X0161600Y0187500D03*
X0161600Y0177500D03*
X0151600Y0177500D03*
X0151600Y0187500D03*
X0151600Y0167500D03*
X0151600Y0157500D03*
X0161600Y0157500D03*
X0161600Y0167500D03*
X0161600Y0147500D03*
X0161600Y0137500D03*
X0151600Y0137500D03*
X0151600Y0147500D03*
X0151600Y0127500D03*
X0151600Y0117500D03*
X0161600Y0117500D03*
X0161600Y0127500D03*
X0161600Y0107500D03*
X0151600Y0107500D03*
D19*
X0101600Y0152500D03*
D20*
X0101600Y0142500D03*
X0101600Y0132500D03*
X0101600Y0122500D03*
X0101600Y0112500D03*
X0101600Y0102500D03*
X0101600Y0092500D03*
X0101600Y0082500D03*
X0111600Y0082500D03*
X0111600Y0092500D03*
X0111600Y0102500D03*
X0111600Y0112500D03*
X0111600Y0122500D03*
X0111600Y0132500D03*
X0111600Y0142500D03*
X0111600Y0152500D03*
D21*
X0129600Y0128500D03*
X0129600Y0122500D03*
X0129600Y0116500D03*
X0069100Y0091000D03*
X0069100Y0085000D03*
X0069100Y0079000D03*
D22*
X0079905Y0035000D02*
X0079909Y0035348D01*
X0079922Y0035697D01*
X0079943Y0036044D01*
X0079973Y0036391D01*
X0080012Y0036738D01*
X0080059Y0037083D01*
X0080114Y0037427D01*
X0080178Y0037769D01*
X0080250Y0038110D01*
X0080330Y0038449D01*
X0080419Y0038786D01*
X0080516Y0039121D01*
X0080621Y0039453D01*
X0080735Y0039782D01*
X0080856Y0040109D01*
X0080986Y0040432D01*
X0081123Y0040752D01*
X0081268Y0041069D01*
X0081421Y0041382D01*
X0081581Y0041691D01*
X0081749Y0041997D01*
X0081925Y0042298D01*
X0082107Y0042594D01*
X0082297Y0042886D01*
X0082494Y0043174D01*
X0082698Y0043456D01*
X0082909Y0043733D01*
X0083127Y0044005D01*
X0083351Y0044272D01*
X0083582Y0044533D01*
X0083819Y0044788D01*
X0084063Y0045037D01*
X0084312Y0045281D01*
X0084567Y0045518D01*
X0084828Y0045749D01*
X0085095Y0045973D01*
X0085367Y0046191D01*
X0085644Y0046402D01*
X0085926Y0046606D01*
X0086214Y0046803D01*
X0086506Y0046993D01*
X0086802Y0047175D01*
X0087103Y0047351D01*
X0087409Y0047519D01*
X0087718Y0047679D01*
X0088031Y0047832D01*
X0088348Y0047977D01*
X0088668Y0048114D01*
X0088991Y0048244D01*
X0089318Y0048365D01*
X0089647Y0048479D01*
X0089979Y0048584D01*
X0090314Y0048681D01*
X0090651Y0048770D01*
X0090990Y0048850D01*
X0091331Y0048922D01*
X0091673Y0048986D01*
X0092017Y0049041D01*
X0092362Y0049088D01*
X0092709Y0049127D01*
X0093056Y0049157D01*
X0093403Y0049178D01*
X0093752Y0049191D01*
X0094100Y0049195D01*
X0094448Y0049191D01*
X0094797Y0049178D01*
X0095144Y0049157D01*
X0095491Y0049127D01*
X0095838Y0049088D01*
X0096183Y0049041D01*
X0096527Y0048986D01*
X0096869Y0048922D01*
X0097210Y0048850D01*
X0097549Y0048770D01*
X0097886Y0048681D01*
X0098221Y0048584D01*
X0098553Y0048479D01*
X0098882Y0048365D01*
X0099209Y0048244D01*
X0099532Y0048114D01*
X0099852Y0047977D01*
X0100169Y0047832D01*
X0100482Y0047679D01*
X0100791Y0047519D01*
X0101097Y0047351D01*
X0101398Y0047175D01*
X0101694Y0046993D01*
X0101986Y0046803D01*
X0102274Y0046606D01*
X0102556Y0046402D01*
X0102833Y0046191D01*
X0103105Y0045973D01*
X0103372Y0045749D01*
X0103633Y0045518D01*
X0103888Y0045281D01*
X0104137Y0045037D01*
X0104381Y0044788D01*
X0104618Y0044533D01*
X0104849Y0044272D01*
X0105073Y0044005D01*
X0105291Y0043733D01*
X0105502Y0043456D01*
X0105706Y0043174D01*
X0105903Y0042886D01*
X0106093Y0042594D01*
X0106275Y0042298D01*
X0106451Y0041997D01*
X0106619Y0041691D01*
X0106779Y0041382D01*
X0106932Y0041069D01*
X0107077Y0040752D01*
X0107214Y0040432D01*
X0107344Y0040109D01*
X0107465Y0039782D01*
X0107579Y0039453D01*
X0107684Y0039121D01*
X0107781Y0038786D01*
X0107870Y0038449D01*
X0107950Y0038110D01*
X0108022Y0037769D01*
X0108086Y0037427D01*
X0108141Y0037083D01*
X0108188Y0036738D01*
X0108227Y0036391D01*
X0108257Y0036044D01*
X0108278Y0035697D01*
X0108291Y0035348D01*
X0108295Y0035000D01*
X0108291Y0034652D01*
X0108278Y0034303D01*
X0108257Y0033956D01*
X0108227Y0033609D01*
X0108188Y0033262D01*
X0108141Y0032917D01*
X0108086Y0032573D01*
X0108022Y0032231D01*
X0107950Y0031890D01*
X0107870Y0031551D01*
X0107781Y0031214D01*
X0107684Y0030879D01*
X0107579Y0030547D01*
X0107465Y0030218D01*
X0107344Y0029891D01*
X0107214Y0029568D01*
X0107077Y0029248D01*
X0106932Y0028931D01*
X0106779Y0028618D01*
X0106619Y0028309D01*
X0106451Y0028003D01*
X0106275Y0027702D01*
X0106093Y0027406D01*
X0105903Y0027114D01*
X0105706Y0026826D01*
X0105502Y0026544D01*
X0105291Y0026267D01*
X0105073Y0025995D01*
X0104849Y0025728D01*
X0104618Y0025467D01*
X0104381Y0025212D01*
X0104137Y0024963D01*
X0103888Y0024719D01*
X0103633Y0024482D01*
X0103372Y0024251D01*
X0103105Y0024027D01*
X0102833Y0023809D01*
X0102556Y0023598D01*
X0102274Y0023394D01*
X0101986Y0023197D01*
X0101694Y0023007D01*
X0101398Y0022825D01*
X0101097Y0022649D01*
X0100791Y0022481D01*
X0100482Y0022321D01*
X0100169Y0022168D01*
X0099852Y0022023D01*
X0099532Y0021886D01*
X0099209Y0021756D01*
X0098882Y0021635D01*
X0098553Y0021521D01*
X0098221Y0021416D01*
X0097886Y0021319D01*
X0097549Y0021230D01*
X0097210Y0021150D01*
X0096869Y0021078D01*
X0096527Y0021014D01*
X0096183Y0020959D01*
X0095838Y0020912D01*
X0095491Y0020873D01*
X0095144Y0020843D01*
X0094797Y0020822D01*
X0094448Y0020809D01*
X0094100Y0020805D01*
X0093752Y0020809D01*
X0093403Y0020822D01*
X0093056Y0020843D01*
X0092709Y0020873D01*
X0092362Y0020912D01*
X0092017Y0020959D01*
X0091673Y0021014D01*
X0091331Y0021078D01*
X0090990Y0021150D01*
X0090651Y0021230D01*
X0090314Y0021319D01*
X0089979Y0021416D01*
X0089647Y0021521D01*
X0089318Y0021635D01*
X0088991Y0021756D01*
X0088668Y0021886D01*
X0088348Y0022023D01*
X0088031Y0022168D01*
X0087718Y0022321D01*
X0087409Y0022481D01*
X0087103Y0022649D01*
X0086802Y0022825D01*
X0086506Y0023007D01*
X0086214Y0023197D01*
X0085926Y0023394D01*
X0085644Y0023598D01*
X0085367Y0023809D01*
X0085095Y0024027D01*
X0084828Y0024251D01*
X0084567Y0024482D01*
X0084312Y0024719D01*
X0084063Y0024963D01*
X0083819Y0025212D01*
X0083582Y0025467D01*
X0083351Y0025728D01*
X0083127Y0025995D01*
X0082909Y0026267D01*
X0082698Y0026544D01*
X0082494Y0026826D01*
X0082297Y0027114D01*
X0082107Y0027406D01*
X0081925Y0027702D01*
X0081749Y0028003D01*
X0081581Y0028309D01*
X0081421Y0028618D01*
X0081268Y0028931D01*
X0081123Y0029248D01*
X0080986Y0029568D01*
X0080856Y0029891D01*
X0080735Y0030218D01*
X0080621Y0030547D01*
X0080516Y0030879D01*
X0080419Y0031214D01*
X0080330Y0031551D01*
X0080250Y0031890D01*
X0080178Y0032231D01*
X0080114Y0032573D01*
X0080059Y0032917D01*
X0080012Y0033262D01*
X0079973Y0033609D01*
X0079943Y0033956D01*
X0079922Y0034303D01*
X0079909Y0034652D01*
X0079905Y0035000D01*
D23*
X0152620Y0039500D03*
X0185100Y0039500D03*
D24*
X0189100Y0079500D03*
X0199100Y0079500D03*
X0196600Y0180000D03*
X0196600Y0190000D03*
X0186600Y0190000D03*
X0186600Y0180000D03*
D25*
X0036537Y0124000D03*
D26*
X0028663Y0124000D03*
D27*
X0072663Y0115500D03*
X0072663Y0107000D03*
X0081537Y0107000D03*
X0081537Y0115500D03*
D28*
X0029575Y0150000D03*
X0029625Y0160000D03*
X0029575Y0170000D03*
X0029625Y0180025D03*
D29*
X0029600Y0140000D03*
M02*
