G75*
%MOIN*%
%OFA0B0*%
%FSLAX25Y25*%
%IPPOS*%
%LPD*%
%AMOC8*
5,1,8,0,0,1.08239X$1,22.5*
%
%ADD10C,0.00100*%
%ADD11C,0.17000*%
%ADD12R,0.05500X0.05500*%
%ADD13C,0.05500*%
%ADD14C,0.08858*%
%ADD15R,0.05000X0.05000*%
%ADD16C,0.05000*%
%ADD17OC8,0.07000*%
%ADD18C,0.05906*%
%ADD19C,0.06600*%
%ADD20C,0.02400*%
%ADD21C,0.02400*%
%ADD22C,0.11811*%
%ADD23C,0.07400*%
%ADD24R,0.05315X0.05315*%
%ADD25C,0.05315*%
%ADD26C,0.06900*%
%ADD27C,0.05400*%
%ADD28C,0.01200*%
%ADD29C,0.02800*%
%ADD30C,0.01000*%
%ADD31C,0.05000*%
%ADD32C,0.00700*%
%ADD33C,0.04000*%
D10*
X0014100Y0010000D02*
X0201600Y0010000D01*
X0201740Y0010002D01*
X0201880Y0010008D01*
X0202020Y0010018D01*
X0202160Y0010031D01*
X0202299Y0010049D01*
X0202438Y0010071D01*
X0202575Y0010096D01*
X0202713Y0010125D01*
X0202849Y0010158D01*
X0202984Y0010195D01*
X0203118Y0010236D01*
X0203251Y0010281D01*
X0203383Y0010329D01*
X0203513Y0010381D01*
X0203642Y0010436D01*
X0203769Y0010495D01*
X0203895Y0010558D01*
X0204019Y0010624D01*
X0204140Y0010693D01*
X0204260Y0010766D01*
X0204378Y0010843D01*
X0204493Y0010922D01*
X0204607Y0011005D01*
X0204717Y0011091D01*
X0204826Y0011180D01*
X0204932Y0011272D01*
X0205035Y0011367D01*
X0205136Y0011464D01*
X0205233Y0011565D01*
X0205328Y0011668D01*
X0205420Y0011774D01*
X0205509Y0011883D01*
X0205595Y0011993D01*
X0205678Y0012107D01*
X0205757Y0012222D01*
X0205834Y0012340D01*
X0205907Y0012460D01*
X0205976Y0012581D01*
X0206042Y0012705D01*
X0206105Y0012831D01*
X0206164Y0012958D01*
X0206219Y0013087D01*
X0206271Y0013217D01*
X0206319Y0013349D01*
X0206364Y0013482D01*
X0206405Y0013616D01*
X0206442Y0013751D01*
X0206475Y0013887D01*
X0206504Y0014025D01*
X0206529Y0014162D01*
X0206551Y0014301D01*
X0206569Y0014440D01*
X0206582Y0014580D01*
X0206592Y0014720D01*
X0206598Y0014860D01*
X0206600Y0015000D01*
X0206600Y0195000D01*
X0206628Y0195212D01*
X0206650Y0195424D01*
X0206668Y0195637D01*
X0206680Y0195850D01*
X0206687Y0196064D01*
X0206689Y0196277D01*
X0206686Y0196491D01*
X0206677Y0196704D01*
X0206664Y0196918D01*
X0206645Y0197130D01*
X0206621Y0197343D01*
X0206592Y0197554D01*
X0206558Y0197765D01*
X0206519Y0197975D01*
X0206475Y0198184D01*
X0206426Y0198392D01*
X0206371Y0198598D01*
X0206312Y0198804D01*
X0206248Y0199007D01*
X0206179Y0199210D01*
X0206105Y0199410D01*
X0206026Y0199608D01*
X0205943Y0199805D01*
X0205854Y0200000D01*
X0205761Y0200192D01*
X0205664Y0200382D01*
X0205562Y0200570D01*
X0205455Y0200755D01*
X0205344Y0200937D01*
X0205229Y0201117D01*
X0205109Y0201294D01*
X0204985Y0201468D01*
X0204857Y0201638D01*
X0204724Y0201806D01*
X0204588Y0201971D01*
X0204448Y0202132D01*
X0204304Y0202290D01*
X0204156Y0202444D01*
X0204005Y0202594D01*
X0203849Y0202741D01*
X0203691Y0202884D01*
X0203529Y0203023D01*
X0203363Y0203159D01*
X0203195Y0203290D01*
X0203023Y0203417D01*
X0202849Y0203540D01*
X0202671Y0203659D01*
X0202491Y0203773D01*
X0202307Y0203883D01*
X0202122Y0203988D01*
X0201933Y0204089D01*
X0201743Y0204186D01*
X0201550Y0204277D01*
X0201355Y0204364D01*
X0201158Y0204447D01*
X0200959Y0204524D01*
X0200758Y0204597D01*
X0200555Y0204665D01*
X0200351Y0204728D01*
X0200146Y0204786D01*
X0199939Y0204839D01*
X0199731Y0204887D01*
X0199521Y0204930D01*
X0199311Y0204967D01*
X0199100Y0205000D01*
X0014100Y0205000D01*
X0013886Y0204967D01*
X0013672Y0204928D01*
X0013460Y0204884D01*
X0013248Y0204836D01*
X0013038Y0204781D01*
X0012830Y0204722D01*
X0012622Y0204658D01*
X0012417Y0204588D01*
X0012213Y0204514D01*
X0012011Y0204434D01*
X0011811Y0204350D01*
X0011614Y0204261D01*
X0011418Y0204166D01*
X0011225Y0204068D01*
X0011035Y0203964D01*
X0010847Y0203856D01*
X0010661Y0203743D01*
X0010479Y0203626D01*
X0010299Y0203504D01*
X0010123Y0203378D01*
X0009949Y0203247D01*
X0009779Y0203113D01*
X0009613Y0202974D01*
X0009449Y0202831D01*
X0009290Y0202684D01*
X0009134Y0202534D01*
X0008981Y0202379D01*
X0008833Y0202221D01*
X0008688Y0202059D01*
X0008548Y0201894D01*
X0008411Y0201725D01*
X0008279Y0201553D01*
X0008151Y0201378D01*
X0008027Y0201200D01*
X0007908Y0201019D01*
X0007793Y0200835D01*
X0007683Y0200648D01*
X0007577Y0200458D01*
X0007476Y0200266D01*
X0007380Y0200072D01*
X0007289Y0199875D01*
X0007202Y0199676D01*
X0007120Y0199475D01*
X0007044Y0199272D01*
X0006972Y0199068D01*
X0006905Y0198861D01*
X0006844Y0198653D01*
X0006788Y0198444D01*
X0006736Y0198233D01*
X0006690Y0198021D01*
X0006649Y0197808D01*
X0006614Y0197594D01*
X0006583Y0197379D01*
X0006558Y0197164D01*
X0006539Y0196948D01*
X0006524Y0196731D01*
X0006515Y0196514D01*
X0006511Y0196297D01*
X0006513Y0196080D01*
X0006519Y0195864D01*
X0006532Y0195647D01*
X0006549Y0195431D01*
X0006572Y0195215D01*
X0006600Y0195000D01*
X0006600Y0022500D01*
X0006542Y0022258D01*
X0006491Y0022014D01*
X0006445Y0021769D01*
X0006405Y0021523D01*
X0006371Y0021276D01*
X0006343Y0021029D01*
X0006322Y0020781D01*
X0006306Y0020532D01*
X0006296Y0020283D01*
X0006292Y0020034D01*
X0006294Y0019785D01*
X0006302Y0019536D01*
X0006317Y0019287D01*
X0006337Y0019039D01*
X0006363Y0018791D01*
X0006395Y0018544D01*
X0006433Y0018298D01*
X0006478Y0018053D01*
X0006528Y0017809D01*
X0006583Y0017566D01*
X0006645Y0017325D01*
X0006713Y0017085D01*
X0006786Y0016847D01*
X0006865Y0016611D01*
X0006950Y0016377D01*
X0007040Y0016145D01*
X0007136Y0015915D01*
X0007238Y0015687D01*
X0007345Y0015462D01*
X0007457Y0015240D01*
X0007575Y0015020D01*
X0007698Y0014804D01*
X0007826Y0014590D01*
X0007959Y0014380D01*
X0008097Y0014173D01*
X0008241Y0013969D01*
X0008389Y0013769D01*
X0008542Y0013572D01*
X0008699Y0013379D01*
X0008862Y0013190D01*
X0009029Y0013005D01*
X0009200Y0012824D01*
X0009375Y0012648D01*
X0009555Y0012475D01*
X0009739Y0012307D01*
X0009927Y0012144D01*
X0010119Y0011985D01*
X0010314Y0011830D01*
X0010513Y0011681D01*
X0010716Y0011536D01*
X0010923Y0011396D01*
X0011132Y0011262D01*
X0011345Y0011132D01*
X0011561Y0011008D01*
X0011779Y0010889D01*
X0012001Y0010775D01*
X0012225Y0010666D01*
X0012452Y0010563D01*
X0012681Y0010466D01*
X0012913Y0010374D01*
X0013146Y0010288D01*
X0013382Y0010207D01*
X0013620Y0010132D01*
X0013859Y0010063D01*
X0014100Y0010000D01*
X0012600Y0068000D02*
X0040600Y0068000D01*
X0040660Y0068002D01*
X0040721Y0068007D01*
X0040780Y0068016D01*
X0040839Y0068029D01*
X0040898Y0068045D01*
X0040955Y0068065D01*
X0041010Y0068088D01*
X0041065Y0068115D01*
X0041117Y0068144D01*
X0041168Y0068177D01*
X0041217Y0068213D01*
X0041263Y0068251D01*
X0041307Y0068293D01*
X0041349Y0068337D01*
X0041387Y0068383D01*
X0041423Y0068432D01*
X0041456Y0068483D01*
X0041485Y0068535D01*
X0041512Y0068590D01*
X0041535Y0068645D01*
X0041555Y0068702D01*
X0041571Y0068761D01*
X0041584Y0068820D01*
X0041593Y0068879D01*
X0041598Y0068940D01*
X0041600Y0069000D01*
X0041598Y0069060D01*
X0041593Y0069121D01*
X0041584Y0069180D01*
X0041571Y0069239D01*
X0041555Y0069298D01*
X0041535Y0069355D01*
X0041512Y0069410D01*
X0041485Y0069465D01*
X0041456Y0069517D01*
X0041423Y0069568D01*
X0041387Y0069617D01*
X0041349Y0069663D01*
X0041307Y0069707D01*
X0041263Y0069749D01*
X0041217Y0069787D01*
X0041168Y0069823D01*
X0041117Y0069856D01*
X0041065Y0069885D01*
X0041010Y0069912D01*
X0040955Y0069935D01*
X0040898Y0069955D01*
X0040839Y0069971D01*
X0040780Y0069984D01*
X0040721Y0069993D01*
X0040660Y0069998D01*
X0040600Y0070000D01*
X0012600Y0070000D01*
X0011600Y0069000D02*
X0011602Y0068940D01*
X0011607Y0068879D01*
X0011616Y0068820D01*
X0011629Y0068761D01*
X0011645Y0068702D01*
X0011665Y0068645D01*
X0011688Y0068590D01*
X0011715Y0068535D01*
X0011744Y0068483D01*
X0011777Y0068432D01*
X0011813Y0068383D01*
X0011851Y0068337D01*
X0011893Y0068293D01*
X0011937Y0068251D01*
X0011983Y0068213D01*
X0012032Y0068177D01*
X0012083Y0068144D01*
X0012135Y0068115D01*
X0012190Y0068088D01*
X0012245Y0068065D01*
X0012302Y0068045D01*
X0012361Y0068029D01*
X0012420Y0068016D01*
X0012479Y0068007D01*
X0012540Y0068002D01*
X0012600Y0068000D01*
X0011600Y0069000D02*
X0011602Y0069060D01*
X0011607Y0069121D01*
X0011616Y0069180D01*
X0011629Y0069239D01*
X0011645Y0069298D01*
X0011665Y0069355D01*
X0011688Y0069410D01*
X0011715Y0069465D01*
X0011744Y0069517D01*
X0011777Y0069568D01*
X0011813Y0069617D01*
X0011851Y0069663D01*
X0011893Y0069707D01*
X0011937Y0069749D01*
X0011983Y0069787D01*
X0012032Y0069823D01*
X0012083Y0069856D01*
X0012135Y0069885D01*
X0012190Y0069912D01*
X0012245Y0069935D01*
X0012302Y0069955D01*
X0012361Y0069971D01*
X0012420Y0069984D01*
X0012479Y0069993D01*
X0012540Y0069998D01*
X0012600Y0070000D01*
X0057600Y0070000D02*
X0088100Y0070000D01*
X0089100Y0069000D02*
X0089098Y0068940D01*
X0089093Y0068879D01*
X0089084Y0068820D01*
X0089071Y0068761D01*
X0089055Y0068702D01*
X0089035Y0068645D01*
X0089012Y0068590D01*
X0088985Y0068535D01*
X0088956Y0068483D01*
X0088923Y0068432D01*
X0088887Y0068383D01*
X0088849Y0068337D01*
X0088807Y0068293D01*
X0088763Y0068251D01*
X0088717Y0068213D01*
X0088668Y0068177D01*
X0088617Y0068144D01*
X0088565Y0068115D01*
X0088510Y0068088D01*
X0088455Y0068065D01*
X0088398Y0068045D01*
X0088339Y0068029D01*
X0088280Y0068016D01*
X0088221Y0068007D01*
X0088160Y0068002D01*
X0088100Y0068000D01*
X0057600Y0068000D01*
X0057540Y0068002D01*
X0057479Y0068007D01*
X0057420Y0068016D01*
X0057361Y0068029D01*
X0057302Y0068045D01*
X0057245Y0068065D01*
X0057190Y0068088D01*
X0057135Y0068115D01*
X0057083Y0068144D01*
X0057032Y0068177D01*
X0056983Y0068213D01*
X0056937Y0068251D01*
X0056893Y0068293D01*
X0056851Y0068337D01*
X0056813Y0068383D01*
X0056777Y0068432D01*
X0056744Y0068483D01*
X0056715Y0068535D01*
X0056688Y0068590D01*
X0056665Y0068645D01*
X0056645Y0068702D01*
X0056629Y0068761D01*
X0056616Y0068820D01*
X0056607Y0068879D01*
X0056602Y0068940D01*
X0056600Y0069000D01*
X0056602Y0069060D01*
X0056607Y0069121D01*
X0056616Y0069180D01*
X0056629Y0069239D01*
X0056645Y0069298D01*
X0056665Y0069355D01*
X0056688Y0069410D01*
X0056715Y0069465D01*
X0056744Y0069517D01*
X0056777Y0069568D01*
X0056813Y0069617D01*
X0056851Y0069663D01*
X0056893Y0069707D01*
X0056937Y0069749D01*
X0056983Y0069787D01*
X0057032Y0069823D01*
X0057083Y0069856D01*
X0057135Y0069885D01*
X0057190Y0069912D01*
X0057245Y0069935D01*
X0057302Y0069955D01*
X0057361Y0069971D01*
X0057420Y0069984D01*
X0057479Y0069993D01*
X0057540Y0069998D01*
X0057600Y0070000D01*
X0088100Y0070000D02*
X0088160Y0069998D01*
X0088221Y0069993D01*
X0088280Y0069984D01*
X0088339Y0069971D01*
X0088398Y0069955D01*
X0088455Y0069935D01*
X0088510Y0069912D01*
X0088565Y0069885D01*
X0088617Y0069856D01*
X0088668Y0069823D01*
X0088717Y0069787D01*
X0088763Y0069749D01*
X0088807Y0069707D01*
X0088849Y0069663D01*
X0088887Y0069617D01*
X0088923Y0069568D01*
X0088956Y0069517D01*
X0088985Y0069465D01*
X0089012Y0069410D01*
X0089035Y0069355D01*
X0089055Y0069298D01*
X0089071Y0069239D01*
X0089084Y0069180D01*
X0089093Y0069121D01*
X0089098Y0069060D01*
X0089100Y0069000D01*
X0099100Y0069000D02*
X0099102Y0068940D01*
X0099107Y0068879D01*
X0099116Y0068820D01*
X0099129Y0068761D01*
X0099145Y0068702D01*
X0099165Y0068645D01*
X0099188Y0068590D01*
X0099215Y0068535D01*
X0099244Y0068483D01*
X0099277Y0068432D01*
X0099313Y0068383D01*
X0099351Y0068337D01*
X0099393Y0068293D01*
X0099437Y0068251D01*
X0099483Y0068213D01*
X0099532Y0068177D01*
X0099583Y0068144D01*
X0099635Y0068115D01*
X0099690Y0068088D01*
X0099745Y0068065D01*
X0099802Y0068045D01*
X0099861Y0068029D01*
X0099920Y0068016D01*
X0099979Y0068007D01*
X0100040Y0068002D01*
X0100100Y0068000D01*
X0143100Y0068000D01*
X0143160Y0068002D01*
X0143221Y0068007D01*
X0143280Y0068016D01*
X0143339Y0068029D01*
X0143398Y0068045D01*
X0143455Y0068065D01*
X0143510Y0068088D01*
X0143565Y0068115D01*
X0143617Y0068144D01*
X0143668Y0068177D01*
X0143717Y0068213D01*
X0143763Y0068251D01*
X0143807Y0068293D01*
X0143849Y0068337D01*
X0143887Y0068383D01*
X0143923Y0068432D01*
X0143956Y0068483D01*
X0143985Y0068535D01*
X0144012Y0068590D01*
X0144035Y0068645D01*
X0144055Y0068702D01*
X0144071Y0068761D01*
X0144084Y0068820D01*
X0144093Y0068879D01*
X0144098Y0068940D01*
X0144100Y0069000D01*
X0144098Y0069060D01*
X0144093Y0069121D01*
X0144084Y0069180D01*
X0144071Y0069239D01*
X0144055Y0069298D01*
X0144035Y0069355D01*
X0144012Y0069410D01*
X0143985Y0069465D01*
X0143956Y0069517D01*
X0143923Y0069568D01*
X0143887Y0069617D01*
X0143849Y0069663D01*
X0143807Y0069707D01*
X0143763Y0069749D01*
X0143717Y0069787D01*
X0143668Y0069823D01*
X0143617Y0069856D01*
X0143565Y0069885D01*
X0143510Y0069912D01*
X0143455Y0069935D01*
X0143398Y0069955D01*
X0143339Y0069971D01*
X0143280Y0069984D01*
X0143221Y0069993D01*
X0143160Y0069998D01*
X0143100Y0070000D01*
X0100100Y0070000D01*
X0100040Y0069998D01*
X0099979Y0069993D01*
X0099920Y0069984D01*
X0099861Y0069971D01*
X0099802Y0069955D01*
X0099745Y0069935D01*
X0099690Y0069912D01*
X0099635Y0069885D01*
X0099583Y0069856D01*
X0099532Y0069823D01*
X0099483Y0069787D01*
X0099437Y0069749D01*
X0099393Y0069707D01*
X0099351Y0069663D01*
X0099313Y0069617D01*
X0099277Y0069568D01*
X0099244Y0069517D01*
X0099215Y0069465D01*
X0099188Y0069410D01*
X0099165Y0069355D01*
X0099145Y0069298D01*
X0099129Y0069239D01*
X0099116Y0069180D01*
X0099107Y0069121D01*
X0099102Y0069060D01*
X0099100Y0069000D01*
X0164100Y0069000D02*
X0164102Y0068940D01*
X0164107Y0068879D01*
X0164116Y0068820D01*
X0164129Y0068761D01*
X0164145Y0068702D01*
X0164165Y0068645D01*
X0164188Y0068590D01*
X0164215Y0068535D01*
X0164244Y0068483D01*
X0164277Y0068432D01*
X0164313Y0068383D01*
X0164351Y0068337D01*
X0164393Y0068293D01*
X0164437Y0068251D01*
X0164483Y0068213D01*
X0164532Y0068177D01*
X0164583Y0068144D01*
X0164635Y0068115D01*
X0164690Y0068088D01*
X0164745Y0068065D01*
X0164802Y0068045D01*
X0164861Y0068029D01*
X0164920Y0068016D01*
X0164979Y0068007D01*
X0165040Y0068002D01*
X0165100Y0068000D01*
X0188100Y0068000D01*
X0188160Y0068002D01*
X0188221Y0068007D01*
X0188280Y0068016D01*
X0188339Y0068029D01*
X0188398Y0068045D01*
X0188455Y0068065D01*
X0188510Y0068088D01*
X0188565Y0068115D01*
X0188617Y0068144D01*
X0188668Y0068177D01*
X0188717Y0068213D01*
X0188763Y0068251D01*
X0188807Y0068293D01*
X0188849Y0068337D01*
X0188887Y0068383D01*
X0188923Y0068432D01*
X0188956Y0068483D01*
X0188985Y0068535D01*
X0189012Y0068590D01*
X0189035Y0068645D01*
X0189055Y0068702D01*
X0189071Y0068761D01*
X0189084Y0068820D01*
X0189093Y0068879D01*
X0189098Y0068940D01*
X0189100Y0069000D01*
X0189098Y0069060D01*
X0189093Y0069121D01*
X0189084Y0069180D01*
X0189071Y0069239D01*
X0189055Y0069298D01*
X0189035Y0069355D01*
X0189012Y0069410D01*
X0188985Y0069465D01*
X0188956Y0069517D01*
X0188923Y0069568D01*
X0188887Y0069617D01*
X0188849Y0069663D01*
X0188807Y0069707D01*
X0188763Y0069749D01*
X0188717Y0069787D01*
X0188668Y0069823D01*
X0188617Y0069856D01*
X0188565Y0069885D01*
X0188510Y0069912D01*
X0188455Y0069935D01*
X0188398Y0069955D01*
X0188339Y0069971D01*
X0188280Y0069984D01*
X0188221Y0069993D01*
X0188160Y0069998D01*
X0188100Y0070000D01*
X0165100Y0070000D01*
X0165040Y0069998D01*
X0164979Y0069993D01*
X0164920Y0069984D01*
X0164861Y0069971D01*
X0164802Y0069955D01*
X0164745Y0069935D01*
X0164690Y0069912D01*
X0164635Y0069885D01*
X0164583Y0069856D01*
X0164532Y0069823D01*
X0164483Y0069787D01*
X0164437Y0069749D01*
X0164393Y0069707D01*
X0164351Y0069663D01*
X0164313Y0069617D01*
X0164277Y0069568D01*
X0164244Y0069517D01*
X0164215Y0069465D01*
X0164188Y0069410D01*
X0164165Y0069355D01*
X0164145Y0069298D01*
X0164129Y0069239D01*
X0164116Y0069180D01*
X0164107Y0069121D01*
X0164102Y0069060D01*
X0164100Y0069000D01*
D11*
X0043604Y0047126D03*
X0025100Y0058937D03*
X0025100Y0035315D03*
D12*
X0030100Y0198000D03*
D13*
X0017100Y0198000D03*
D14*
X0189671Y0143386D02*
X0198529Y0143386D01*
X0198529Y0127795D02*
X0189671Y0127795D01*
X0189671Y0112205D02*
X0198529Y0112205D01*
X0198529Y0096614D02*
X0189671Y0096614D01*
D15*
X0031600Y0102311D03*
D16*
X0031600Y0094437D03*
X0031600Y0086563D03*
X0031600Y0078689D03*
D17*
X0051600Y0107500D03*
X0061600Y0107500D03*
X0061600Y0117500D03*
X0061600Y0127500D03*
X0051600Y0127500D03*
X0051600Y0117500D03*
X0051600Y0137500D03*
X0051600Y0147500D03*
X0061600Y0147500D03*
X0061600Y0137500D03*
X0061600Y0157500D03*
X0061600Y0167500D03*
X0051600Y0167500D03*
X0051600Y0157500D03*
X0051600Y0177500D03*
X0051600Y0187500D03*
X0061600Y0187500D03*
X0061600Y0177500D03*
X0061600Y0197500D03*
X0051600Y0197500D03*
X0151600Y0197500D03*
X0161600Y0197500D03*
X0161600Y0187500D03*
X0161600Y0177500D03*
X0151600Y0177500D03*
X0151600Y0187500D03*
X0151600Y0167500D03*
X0151600Y0157500D03*
X0161600Y0157500D03*
X0161600Y0167500D03*
X0161600Y0147500D03*
X0161600Y0137500D03*
X0151600Y0137500D03*
X0151600Y0147500D03*
X0151600Y0127500D03*
X0151600Y0117500D03*
X0161600Y0117500D03*
X0161600Y0127500D03*
X0161600Y0107500D03*
X0151600Y0107500D03*
D18*
X0101600Y0152500D03*
D19*
X0101600Y0142500D03*
X0101600Y0132500D03*
X0101600Y0122500D03*
X0101600Y0112500D03*
X0101600Y0102500D03*
X0101600Y0092500D03*
X0101600Y0082500D03*
X0111600Y0082500D03*
X0111600Y0092500D03*
X0111600Y0102500D03*
X0111600Y0112500D03*
X0111600Y0122500D03*
X0111600Y0132500D03*
X0111600Y0142500D03*
X0111600Y0152500D03*
D20*
X0094100Y0043000D03*
D21*
X0094100Y0046811D02*
X0092419Y0046691D01*
X0090772Y0046333D01*
X0089194Y0045744D01*
X0087714Y0044936D01*
X0086365Y0043926D01*
X0085174Y0042735D01*
X0084164Y0041386D01*
X0083356Y0039906D01*
X0082767Y0038328D01*
X0082409Y0036681D01*
X0082289Y0035000D01*
X0082409Y0033319D01*
X0082767Y0031672D01*
X0083356Y0030094D01*
X0084164Y0028614D01*
X0085174Y0027265D01*
X0086365Y0026074D01*
X0087714Y0025064D01*
X0089194Y0024256D01*
X0090772Y0023667D01*
X0092419Y0023309D01*
X0094100Y0023189D01*
X0095781Y0023309D01*
X0097428Y0023667D01*
X0099006Y0024256D01*
X0100486Y0025064D01*
X0101835Y0026074D01*
X0103026Y0027265D01*
X0104036Y0028614D01*
X0104844Y0030094D01*
X0105433Y0031672D01*
X0105791Y0033319D01*
X0105911Y0035000D01*
X0105791Y0036681D01*
X0105433Y0038328D01*
X0104844Y0039906D01*
X0104036Y0041386D01*
X0103026Y0042735D01*
X0101835Y0043926D01*
X0100486Y0044936D01*
X0099006Y0045744D01*
X0097428Y0046333D01*
X0095781Y0046691D01*
X0094100Y0046811D01*
X0087072Y0044455D02*
X0101128Y0044455D01*
X0103534Y0042057D02*
X0084666Y0042057D01*
X0083264Y0039658D02*
X0104936Y0039658D01*
X0105665Y0037260D02*
X0082535Y0037260D01*
X0082299Y0034861D02*
X0105901Y0034861D01*
X0105605Y0032463D02*
X0082595Y0032463D01*
X0083372Y0030064D02*
X0104828Y0030064D01*
X0103326Y0027666D02*
X0084874Y0027666D01*
X0087443Y0025267D02*
X0100757Y0025267D01*
D22*
X0152620Y0039500D03*
X0185100Y0039500D03*
D23*
X0189100Y0079500D03*
X0199100Y0079500D03*
X0196600Y0180000D03*
X0196600Y0190000D03*
X0186600Y0190000D03*
X0186600Y0180000D03*
D24*
X0036537Y0124000D03*
D25*
X0028663Y0124000D03*
D26*
X0029575Y0150000D03*
X0029625Y0160000D03*
X0029575Y0170000D03*
X0029625Y0180025D03*
D27*
X0029600Y0140000D03*
D28*
X0025779Y0141490D02*
X0025500Y0141490D01*
X0025500Y0140816D02*
X0025500Y0139184D01*
X0026124Y0137678D01*
X0027278Y0136524D01*
X0028784Y0135900D01*
X0030416Y0135900D01*
X0031922Y0136524D01*
X0033076Y0137678D01*
X0033700Y0139184D01*
X0033700Y0140816D01*
X0033076Y0142322D01*
X0031922Y0143476D01*
X0030416Y0144100D01*
X0028784Y0144100D01*
X0027278Y0143476D01*
X0026124Y0142322D01*
X0025500Y0140816D01*
X0025500Y0140292D02*
X0025500Y0140292D01*
X0025500Y0139093D02*
X0025538Y0139093D01*
X0025500Y0137895D02*
X0026034Y0137895D01*
X0025500Y0136696D02*
X0027106Y0136696D01*
X0025500Y0135498D02*
X0039700Y0135498D01*
X0039700Y0136696D02*
X0032094Y0136696D01*
X0033166Y0137895D02*
X0039700Y0137895D01*
X0039700Y0139093D02*
X0033662Y0139093D01*
X0033700Y0140292D02*
X0039700Y0140292D01*
X0039700Y0141490D02*
X0033421Y0141490D01*
X0032710Y0142689D02*
X0039700Y0142689D01*
X0039700Y0143887D02*
X0030929Y0143887D01*
X0030540Y0145150D02*
X0032322Y0145888D01*
X0033687Y0147253D01*
X0034038Y0148100D01*
X0034887Y0148100D01*
X0036000Y0149213D01*
X0038500Y0151713D01*
X0038500Y0172940D01*
X0038974Y0173414D01*
X0039400Y0174443D01*
X0039400Y0175557D01*
X0038974Y0176586D01*
X0038186Y0177374D01*
X0037157Y0177800D01*
X0036043Y0177800D01*
X0035014Y0177374D01*
X0034226Y0176586D01*
X0033800Y0175557D01*
X0033800Y0174443D01*
X0033879Y0174252D01*
X0033516Y0174615D01*
X0032746Y0175174D01*
X0031897Y0175607D01*
X0031749Y0175655D01*
X0032372Y0175913D01*
X0033737Y0177278D01*
X0034475Y0179060D01*
X0034475Y0180990D01*
X0033737Y0182772D01*
X0032372Y0184137D01*
X0030590Y0184875D01*
X0028660Y0184875D01*
X0026878Y0184137D01*
X0025513Y0182772D01*
X0024775Y0180990D01*
X0024775Y0179060D01*
X0025513Y0177278D01*
X0026878Y0175913D01*
X0027457Y0175673D01*
X0027253Y0175607D01*
X0026404Y0175174D01*
X0025634Y0174615D01*
X0024960Y0173941D01*
X0024401Y0173171D01*
X0023968Y0172322D01*
X0023674Y0171417D01*
X0023525Y0170476D01*
X0023525Y0170185D01*
X0029389Y0170185D01*
X0029389Y0169815D01*
X0023525Y0169815D01*
X0023525Y0169524D01*
X0023674Y0168583D01*
X0023968Y0167678D01*
X0024401Y0166829D01*
X0024960Y0166059D01*
X0025634Y0165385D01*
X0026404Y0164826D01*
X0027253Y0164393D01*
X0027424Y0164338D01*
X0026878Y0164112D01*
X0025513Y0162747D01*
X0024775Y0160965D01*
X0024775Y0160862D01*
X0024700Y0160787D01*
X0017200Y0153287D01*
X0017200Y0151713D01*
X0017200Y0106713D01*
X0018313Y0105600D01*
X0023502Y0100411D01*
X0027700Y0100411D01*
X0027700Y0099231D01*
X0028520Y0098411D01*
X0034680Y0098411D01*
X0035200Y0098931D01*
X0035200Y0098787D01*
X0033983Y0097570D01*
X0033809Y0097743D01*
X0032376Y0098337D01*
X0030824Y0098337D01*
X0029391Y0097743D01*
X0028294Y0096646D01*
X0027700Y0095213D01*
X0027700Y0093661D01*
X0028294Y0092228D01*
X0029391Y0091131D01*
X0030824Y0090537D01*
X0032376Y0090537D01*
X0033809Y0091131D01*
X0034906Y0092228D01*
X0035500Y0093661D01*
X0035500Y0093713D01*
X0039000Y0097213D01*
X0039000Y0107787D01*
X0036000Y0110787D01*
X0034887Y0111900D01*
X0027887Y0111900D01*
X0025500Y0114287D01*
X0025500Y0119799D01*
X0025907Y0119503D01*
X0026645Y0119128D01*
X0027432Y0118872D01*
X0028249Y0118743D01*
X0028476Y0118743D01*
X0028476Y0123813D01*
X0028850Y0123813D01*
X0028850Y0118743D01*
X0029077Y0118743D01*
X0029894Y0118872D01*
X0030681Y0119128D01*
X0031419Y0119503D01*
X0032088Y0119990D01*
X0032670Y0120572D01*
X0033300Y0119943D01*
X0039774Y0119943D01*
X0040594Y0120763D01*
X0040594Y0125370D01*
X0043500Y0128276D01*
X0043500Y0180787D01*
X0042387Y0181900D01*
X0034887Y0189400D01*
X0024887Y0189400D01*
X0019628Y0194659D01*
X0020618Y0195649D01*
X0021250Y0197175D01*
X0021250Y0198825D01*
X0020618Y0200351D01*
X0019451Y0201518D01*
X0017925Y0202150D01*
X0016275Y0202150D01*
X0014749Y0201518D01*
X0013582Y0200351D01*
X0012950Y0198825D01*
X0012950Y0197175D01*
X0013582Y0195649D01*
X0014749Y0194482D01*
X0015200Y0194295D01*
X0015200Y0193713D01*
X0022200Y0186713D01*
X0023313Y0185600D01*
X0033313Y0185600D01*
X0039700Y0179213D01*
X0039700Y0129850D01*
X0037907Y0128057D01*
X0033300Y0128057D01*
X0032670Y0127428D01*
X0032088Y0128010D01*
X0031419Y0128497D01*
X0030681Y0128872D01*
X0029894Y0129128D01*
X0029077Y0129257D01*
X0028850Y0129257D01*
X0028850Y0124187D01*
X0028476Y0124187D01*
X0028476Y0129257D01*
X0028249Y0129257D01*
X0027432Y0129128D01*
X0026645Y0128872D01*
X0025907Y0128497D01*
X0025500Y0128201D01*
X0025500Y0143238D01*
X0027763Y0145501D01*
X0028610Y0145150D01*
X0030540Y0145150D01*
X0032718Y0146284D02*
X0039700Y0146284D01*
X0039700Y0145086D02*
X0027348Y0145086D01*
X0028271Y0143887D02*
X0026149Y0143887D01*
X0026490Y0142689D02*
X0025500Y0142689D01*
X0021700Y0142689D02*
X0021000Y0142689D01*
X0021000Y0143887D02*
X0021700Y0143887D01*
X0021700Y0144812D02*
X0021700Y0112713D01*
X0022813Y0111600D01*
X0026313Y0108100D01*
X0033313Y0108100D01*
X0035200Y0106213D01*
X0035200Y0105691D01*
X0034680Y0106211D01*
X0028520Y0106211D01*
X0027700Y0105391D01*
X0027700Y0104211D01*
X0025076Y0104211D01*
X0021000Y0108287D01*
X0021000Y0151713D01*
X0026027Y0156740D01*
X0026878Y0155888D01*
X0028660Y0155150D01*
X0030590Y0155150D01*
X0032372Y0155888D01*
X0033737Y0157253D01*
X0034475Y0159035D01*
X0034475Y0160965D01*
X0033737Y0162747D01*
X0032372Y0164112D01*
X0031783Y0164356D01*
X0031897Y0164393D01*
X0032746Y0164826D01*
X0033516Y0165385D01*
X0034190Y0166059D01*
X0034700Y0166761D01*
X0034700Y0153287D01*
X0033825Y0152412D01*
X0033687Y0152747D01*
X0032322Y0154112D01*
X0030540Y0154850D01*
X0028610Y0154850D01*
X0026828Y0154112D01*
X0025463Y0152747D01*
X0024725Y0150965D01*
X0024725Y0149035D01*
X0025076Y0148188D01*
X0021700Y0144812D01*
X0021974Y0145086D02*
X0021000Y0145086D01*
X0021000Y0146284D02*
X0023172Y0146284D01*
X0024371Y0147483D02*
X0021000Y0147483D01*
X0021000Y0148681D02*
X0024872Y0148681D01*
X0024725Y0149880D02*
X0021000Y0149880D01*
X0021000Y0151078D02*
X0024772Y0151078D01*
X0025268Y0152277D02*
X0021564Y0152277D01*
X0022762Y0153475D02*
X0026191Y0153475D01*
X0028185Y0154674D02*
X0023961Y0154674D01*
X0025159Y0155872D02*
X0026917Y0155872D01*
X0030965Y0154674D02*
X0034700Y0154674D01*
X0034700Y0155872D02*
X0032333Y0155872D01*
X0033555Y0157071D02*
X0034700Y0157071D01*
X0034700Y0158269D02*
X0034158Y0158269D01*
X0034475Y0159468D02*
X0034700Y0159468D01*
X0034700Y0160666D02*
X0034475Y0160666D01*
X0034700Y0161865D02*
X0034102Y0161865D01*
X0034700Y0163063D02*
X0033421Y0163063D01*
X0034700Y0164262D02*
X0032010Y0164262D01*
X0033591Y0165460D02*
X0034700Y0165460D01*
X0034700Y0166659D02*
X0034626Y0166659D01*
X0038500Y0166659D02*
X0039700Y0166659D01*
X0039700Y0167857D02*
X0038500Y0167857D01*
X0038500Y0169056D02*
X0039700Y0169056D01*
X0039700Y0170254D02*
X0038500Y0170254D01*
X0038500Y0171453D02*
X0039700Y0171453D01*
X0039700Y0172651D02*
X0038500Y0172651D01*
X0039154Y0173850D02*
X0039700Y0173850D01*
X0039700Y0175048D02*
X0039400Y0175048D01*
X0039114Y0176247D02*
X0039700Y0176247D01*
X0039700Y0177445D02*
X0038013Y0177445D01*
X0039700Y0178644D02*
X0034303Y0178644D01*
X0034475Y0179842D02*
X0039071Y0179842D01*
X0037872Y0181041D02*
X0034454Y0181041D01*
X0033957Y0182239D02*
X0036674Y0182239D01*
X0035475Y0183438D02*
X0033071Y0183438D01*
X0034276Y0184637D02*
X0031165Y0184637D01*
X0028085Y0184637D02*
X0008750Y0184637D01*
X0008750Y0185835D02*
X0023078Y0185835D01*
X0021879Y0187034D02*
X0008750Y0187034D01*
X0008750Y0188232D02*
X0020681Y0188232D01*
X0019482Y0189431D02*
X0008750Y0189431D01*
X0008750Y0190629D02*
X0018284Y0190629D01*
X0017085Y0191828D02*
X0008750Y0191828D01*
X0008750Y0193026D02*
X0015887Y0193026D01*
X0015200Y0194225D02*
X0008750Y0194225D01*
X0008750Y0194283D02*
X0008854Y0194422D01*
X0008750Y0195153D01*
X0008750Y0195891D01*
X0008687Y0195953D01*
X0008662Y0196352D01*
X0009021Y0198413D01*
X0009999Y0200263D01*
X0011501Y0201720D01*
X0013090Y0202500D01*
X0047973Y0202500D01*
X0045500Y0200027D01*
X0045500Y0197900D01*
X0051200Y0197900D01*
X0051200Y0197100D01*
X0045500Y0197100D01*
X0045500Y0194973D01*
X0046073Y0194400D01*
X0033980Y0194400D01*
X0034250Y0194670D01*
X0034250Y0201330D01*
X0033430Y0202150D01*
X0026770Y0202150D01*
X0025950Y0201330D01*
X0025950Y0194670D01*
X0026770Y0193850D01*
X0028200Y0193850D01*
X0028200Y0193213D01*
X0029700Y0191713D01*
X0030813Y0190600D01*
X0047770Y0190600D01*
X0046700Y0189530D01*
X0046700Y0185470D01*
X0049570Y0182600D01*
X0053630Y0182600D01*
X0056500Y0185470D01*
X0056500Y0189530D01*
X0055430Y0190600D01*
X0055813Y0190600D01*
X0056792Y0189621D01*
X0056700Y0189530D01*
X0056700Y0185470D01*
X0059570Y0182600D01*
X0063630Y0182600D01*
X0066500Y0185470D01*
X0066500Y0189530D01*
X0063630Y0192400D01*
X0059570Y0192400D01*
X0059479Y0192308D01*
X0058500Y0193287D01*
X0057387Y0194400D01*
X0057127Y0194400D01*
X0057449Y0194722D01*
X0059570Y0192600D01*
X0063630Y0192600D01*
X0066500Y0195470D01*
X0066500Y0199530D01*
X0063630Y0202400D01*
X0059570Y0202400D01*
X0057449Y0200278D01*
X0055227Y0202500D01*
X0157973Y0202500D01*
X0155751Y0200278D01*
X0153630Y0202400D01*
X0149570Y0202400D01*
X0146700Y0199530D01*
X0146700Y0195470D01*
X0147770Y0194400D01*
X0115813Y0194400D01*
X0114700Y0193287D01*
X0094700Y0173287D01*
X0094700Y0146713D01*
X0095813Y0145600D01*
X0097216Y0144197D01*
X0096900Y0143435D01*
X0096900Y0141565D01*
X0097616Y0139838D01*
X0098053Y0139400D01*
X0094887Y0139400D01*
X0091000Y0143287D01*
X0091000Y0160787D01*
X0073500Y0178287D01*
X0072387Y0179400D01*
X0066500Y0179400D01*
X0066500Y0179530D01*
X0063630Y0182400D01*
X0059570Y0182400D01*
X0056700Y0179530D01*
X0056700Y0175470D01*
X0059570Y0172600D01*
X0063630Y0172600D01*
X0066500Y0175470D01*
X0066500Y0175600D01*
X0070813Y0175600D01*
X0087200Y0159213D01*
X0087200Y0141713D01*
X0088313Y0140600D01*
X0093313Y0135600D01*
X0098053Y0135600D01*
X0097616Y0135162D01*
X0097300Y0134400D01*
X0065430Y0134400D01*
X0066500Y0135470D01*
X0066500Y0139530D01*
X0063630Y0142400D01*
X0059570Y0142400D01*
X0056700Y0139530D01*
X0056700Y0135470D01*
X0057770Y0134400D01*
X0057387Y0134400D01*
X0056408Y0135379D01*
X0056500Y0135470D01*
X0056500Y0139530D01*
X0053630Y0142400D01*
X0049570Y0142400D01*
X0046700Y0139530D01*
X0046700Y0135470D01*
X0049570Y0132600D01*
X0053630Y0132600D01*
X0053721Y0132692D01*
X0054700Y0131713D01*
X0055813Y0130600D01*
X0057770Y0130600D01*
X0056700Y0129530D01*
X0056700Y0125470D01*
X0059570Y0122600D01*
X0063630Y0122600D01*
X0066500Y0125470D01*
X0066500Y0129530D01*
X0065430Y0130600D01*
X0097300Y0130600D01*
X0097616Y0129838D01*
X0098938Y0128516D01*
X0100665Y0127800D01*
X0102535Y0127800D01*
X0104262Y0128516D01*
X0105584Y0129838D01*
X0106300Y0131565D01*
X0106300Y0133435D01*
X0105584Y0135162D01*
X0105017Y0135730D01*
X0107387Y0138100D01*
X0107522Y0138235D01*
X0107756Y0138000D01*
X0108508Y0137454D01*
X0109335Y0137032D01*
X0109854Y0136864D01*
X0108938Y0136484D01*
X0107616Y0135162D01*
X0106900Y0133435D01*
X0106900Y0131565D01*
X0107616Y0129838D01*
X0108938Y0128516D01*
X0110665Y0127800D01*
X0112535Y0127800D01*
X0114262Y0128516D01*
X0115584Y0129838D01*
X0115900Y0130600D01*
X0127387Y0130600D01*
X0129700Y0132913D01*
X0129700Y0105787D01*
X0128313Y0104400D01*
X0115900Y0104400D01*
X0115584Y0105162D01*
X0114262Y0106484D01*
X0112535Y0107200D01*
X0110665Y0107200D01*
X0108938Y0106484D01*
X0107616Y0105162D01*
X0106900Y0103435D01*
X0106900Y0101565D01*
X0107616Y0099838D01*
X0108938Y0098516D01*
X0110665Y0097800D01*
X0112535Y0097800D01*
X0114262Y0098516D01*
X0115584Y0099838D01*
X0115900Y0100600D01*
X0129513Y0100600D01*
X0123313Y0094400D01*
X0115900Y0094400D01*
X0115584Y0095162D01*
X0114262Y0096484D01*
X0112535Y0097200D01*
X0110665Y0097200D01*
X0108938Y0096484D01*
X0107616Y0095162D01*
X0106900Y0093435D01*
X0106900Y0091565D01*
X0107616Y0089838D01*
X0108053Y0089400D01*
X0107387Y0089400D01*
X0105984Y0090803D01*
X0106300Y0091565D01*
X0106300Y0093435D01*
X0105584Y0095162D01*
X0104262Y0096484D01*
X0102535Y0097200D01*
X0100665Y0097200D01*
X0098938Y0096484D01*
X0097616Y0095162D01*
X0096900Y0093435D01*
X0096900Y0091565D01*
X0097616Y0089838D01*
X0098938Y0088516D01*
X0100665Y0087800D01*
X0102535Y0087800D01*
X0103297Y0088116D01*
X0104700Y0086713D01*
X0105813Y0085600D01*
X0108053Y0085600D01*
X0107616Y0085162D01*
X0106900Y0083435D01*
X0106900Y0081565D01*
X0107616Y0079838D01*
X0108053Y0079400D01*
X0107387Y0079400D01*
X0105984Y0080803D01*
X0106300Y0081565D01*
X0106300Y0083435D01*
X0105584Y0085162D01*
X0104262Y0086484D01*
X0102535Y0087200D01*
X0100665Y0087200D01*
X0098938Y0086484D01*
X0097616Y0085162D01*
X0096900Y0083435D01*
X0096900Y0081565D01*
X0097616Y0079838D01*
X0098938Y0078516D01*
X0100665Y0077800D01*
X0102535Y0077800D01*
X0103297Y0078116D01*
X0104700Y0076713D01*
X0105663Y0075750D01*
X0096875Y0075750D01*
X0095850Y0074725D01*
X0092350Y0071225D01*
X0092350Y0070000D01*
X0091160Y0070000D01*
X0090406Y0071306D01*
X0090406Y0071306D01*
X0090406Y0071306D01*
X0089054Y0072086D01*
X0088991Y0072150D01*
X0056709Y0072150D01*
X0056646Y0072086D01*
X0055294Y0071306D01*
X0054540Y0070000D01*
X0043660Y0070000D01*
X0042906Y0071306D01*
X0042906Y0071306D01*
X0042906Y0071306D01*
X0041554Y0072086D01*
X0041491Y0072150D01*
X0011709Y0072150D01*
X0011646Y0072086D01*
X0010294Y0071306D01*
X0009540Y0070000D01*
X0008750Y0070000D01*
X0008750Y0194283D01*
X0008750Y0195423D02*
X0013808Y0195423D01*
X0013179Y0196622D02*
X0008709Y0196622D01*
X0008917Y0197820D02*
X0012950Y0197820D01*
X0013030Y0199019D02*
X0009341Y0199019D01*
X0009974Y0200217D02*
X0013526Y0200217D01*
X0014647Y0201416D02*
X0011187Y0201416D01*
X0017100Y0198000D02*
X0017100Y0197000D01*
X0020392Y0195423D02*
X0025950Y0195423D01*
X0025950Y0196622D02*
X0021021Y0196622D01*
X0021250Y0197820D02*
X0025950Y0197820D01*
X0025950Y0199019D02*
X0021170Y0199019D01*
X0020674Y0200217D02*
X0025950Y0200217D01*
X0026036Y0201416D02*
X0019553Y0201416D01*
X0020062Y0194225D02*
X0026395Y0194225D01*
X0028387Y0193026D02*
X0021261Y0193026D01*
X0022459Y0191828D02*
X0029585Y0191828D01*
X0030784Y0190629D02*
X0023658Y0190629D01*
X0024856Y0189431D02*
X0046700Y0189431D01*
X0046700Y0188232D02*
X0036055Y0188232D01*
X0037253Y0187034D02*
X0046700Y0187034D01*
X0046700Y0185835D02*
X0038452Y0185835D01*
X0039650Y0184637D02*
X0047534Y0184637D01*
X0048732Y0183438D02*
X0040849Y0183438D01*
X0042048Y0182239D02*
X0049410Y0182239D01*
X0049570Y0182400D02*
X0046700Y0179530D01*
X0046700Y0175470D01*
X0049570Y0172600D01*
X0053630Y0172600D01*
X0056500Y0175470D01*
X0056500Y0179530D01*
X0053630Y0182400D01*
X0049570Y0182400D01*
X0048211Y0181041D02*
X0043246Y0181041D01*
X0043500Y0179842D02*
X0047013Y0179842D01*
X0046700Y0178644D02*
X0043500Y0178644D01*
X0043500Y0177445D02*
X0046700Y0177445D01*
X0046700Y0176247D02*
X0043500Y0176247D01*
X0043500Y0175048D02*
X0047122Y0175048D01*
X0048320Y0173850D02*
X0043500Y0173850D01*
X0043500Y0172651D02*
X0049519Y0172651D01*
X0049570Y0172400D02*
X0046700Y0169530D01*
X0046700Y0165470D01*
X0049570Y0162600D01*
X0053630Y0162600D01*
X0056500Y0165470D01*
X0056500Y0169530D01*
X0053630Y0172400D01*
X0049570Y0172400D01*
X0048623Y0171453D02*
X0043500Y0171453D01*
X0043500Y0170254D02*
X0047425Y0170254D01*
X0046700Y0169056D02*
X0043500Y0169056D01*
X0043500Y0167857D02*
X0046700Y0167857D01*
X0046700Y0166659D02*
X0043500Y0166659D01*
X0043500Y0165460D02*
X0046710Y0165460D01*
X0047909Y0164262D02*
X0043500Y0164262D01*
X0043500Y0163063D02*
X0049107Y0163063D01*
X0049570Y0162400D02*
X0046700Y0159530D01*
X0046700Y0155470D01*
X0049570Y0152600D01*
X0053630Y0152600D01*
X0056500Y0155470D01*
X0056500Y0159530D01*
X0053630Y0162400D01*
X0049570Y0162400D01*
X0049035Y0161865D02*
X0043500Y0161865D01*
X0043500Y0160666D02*
X0047837Y0160666D01*
X0046700Y0159468D02*
X0043500Y0159468D01*
X0043500Y0158269D02*
X0046700Y0158269D01*
X0046700Y0157071D02*
X0043500Y0157071D01*
X0043500Y0155872D02*
X0046700Y0155872D01*
X0047497Y0154674D02*
X0043500Y0154674D01*
X0043500Y0153475D02*
X0048695Y0153475D01*
X0049570Y0152400D02*
X0046700Y0149530D01*
X0046700Y0145470D01*
X0049570Y0142600D01*
X0053630Y0142600D01*
X0056500Y0145470D01*
X0056500Y0149530D01*
X0053630Y0152400D01*
X0049570Y0152400D01*
X0049447Y0152277D02*
X0043500Y0152277D01*
X0043500Y0151078D02*
X0048249Y0151078D01*
X0047050Y0149880D02*
X0043500Y0149880D01*
X0043500Y0148681D02*
X0046700Y0148681D01*
X0046700Y0147483D02*
X0043500Y0147483D01*
X0043500Y0146284D02*
X0046700Y0146284D01*
X0047085Y0145086D02*
X0043500Y0145086D01*
X0043500Y0143887D02*
X0048283Y0143887D01*
X0049482Y0142689D02*
X0043500Y0142689D01*
X0043500Y0141490D02*
X0048660Y0141490D01*
X0047462Y0140292D02*
X0043500Y0140292D01*
X0043500Y0139093D02*
X0046700Y0139093D01*
X0046700Y0137895D02*
X0043500Y0137895D01*
X0043500Y0136696D02*
X0046700Y0136696D01*
X0046700Y0135498D02*
X0043500Y0135498D01*
X0043500Y0134299D02*
X0047871Y0134299D01*
X0049070Y0133101D02*
X0043500Y0133101D01*
X0043500Y0131902D02*
X0049072Y0131902D01*
X0049570Y0132400D02*
X0046700Y0129530D01*
X0046700Y0125470D01*
X0049570Y0122600D01*
X0053630Y0122600D01*
X0056500Y0125470D01*
X0056500Y0129530D01*
X0053630Y0132400D01*
X0049570Y0132400D01*
X0047874Y0130703D02*
X0043500Y0130703D01*
X0043500Y0129505D02*
X0046700Y0129505D01*
X0046700Y0128306D02*
X0043500Y0128306D01*
X0042332Y0127108D02*
X0046700Y0127108D01*
X0046700Y0125909D02*
X0041133Y0125909D01*
X0040594Y0124711D02*
X0047459Y0124711D01*
X0048658Y0123512D02*
X0040594Y0123512D01*
X0040594Y0122314D02*
X0049484Y0122314D01*
X0049570Y0122400D02*
X0046700Y0119530D01*
X0046700Y0115470D01*
X0049570Y0112600D01*
X0053630Y0112600D01*
X0056500Y0115470D01*
X0056500Y0119530D01*
X0053630Y0122400D01*
X0049570Y0122400D01*
X0048286Y0121115D02*
X0040594Y0121115D01*
X0046700Y0118718D02*
X0025500Y0118718D01*
X0025500Y0117520D02*
X0046700Y0117520D01*
X0046700Y0116321D02*
X0025500Y0116321D01*
X0025500Y0115123D02*
X0047048Y0115123D01*
X0048246Y0113924D02*
X0025863Y0113924D01*
X0027061Y0112726D02*
X0049445Y0112726D01*
X0049570Y0112400D02*
X0046700Y0109530D01*
X0046700Y0105470D01*
X0049570Y0102600D01*
X0053630Y0102600D01*
X0056500Y0105470D01*
X0056500Y0109530D01*
X0053630Y0112400D01*
X0049570Y0112400D01*
X0048698Y0111527D02*
X0035260Y0111527D01*
X0036000Y0110787D02*
X0036000Y0110787D01*
X0036458Y0110329D02*
X0047499Y0110329D01*
X0046700Y0109130D02*
X0037657Y0109130D01*
X0038855Y0107932D02*
X0046700Y0107932D01*
X0046700Y0106733D02*
X0039000Y0106733D01*
X0039000Y0105535D02*
X0046700Y0105535D01*
X0047834Y0104336D02*
X0039000Y0104336D01*
X0039000Y0103138D02*
X0049033Y0103138D01*
X0054167Y0103138D02*
X0059033Y0103138D01*
X0059570Y0102600D02*
X0056700Y0105470D01*
X0056700Y0109530D01*
X0059570Y0112400D01*
X0063630Y0112400D01*
X0066500Y0109530D01*
X0066500Y0105470D01*
X0063630Y0102600D01*
X0059570Y0102600D01*
X0057834Y0104336D02*
X0055366Y0104336D01*
X0056500Y0105535D02*
X0056700Y0105535D01*
X0056700Y0106733D02*
X0056500Y0106733D01*
X0056500Y0107932D02*
X0056700Y0107932D01*
X0056700Y0109130D02*
X0056500Y0109130D01*
X0055701Y0110329D02*
X0057499Y0110329D01*
X0058698Y0111527D02*
X0054502Y0111527D01*
X0053755Y0112726D02*
X0059445Y0112726D01*
X0059570Y0112600D02*
X0063630Y0112600D01*
X0066500Y0115470D01*
X0066500Y0119530D01*
X0066408Y0119621D01*
X0067387Y0120600D01*
X0097300Y0120600D01*
X0097616Y0119838D01*
X0098938Y0118516D01*
X0100665Y0117800D01*
X0102535Y0117800D01*
X0104262Y0118516D01*
X0105584Y0119838D01*
X0106300Y0121565D01*
X0106300Y0123435D01*
X0105584Y0125162D01*
X0104262Y0126484D01*
X0102535Y0127200D01*
X0100665Y0127200D01*
X0098938Y0126484D01*
X0097616Y0125162D01*
X0097300Y0124400D01*
X0065813Y0124400D01*
X0063721Y0122308D01*
X0063630Y0122400D01*
X0059570Y0122400D01*
X0056700Y0119530D01*
X0056700Y0115470D01*
X0059570Y0112600D01*
X0058246Y0113924D02*
X0054954Y0113924D01*
X0056152Y0115123D02*
X0057048Y0115123D01*
X0056700Y0116321D02*
X0056500Y0116321D01*
X0056500Y0117520D02*
X0056700Y0117520D01*
X0056700Y0118718D02*
X0056500Y0118718D01*
X0056113Y0119917D02*
X0057087Y0119917D01*
X0058286Y0121115D02*
X0054914Y0121115D01*
X0053716Y0122314D02*
X0059484Y0122314D01*
X0058658Y0123512D02*
X0054542Y0123512D01*
X0055741Y0124711D02*
X0057459Y0124711D01*
X0056700Y0125909D02*
X0056500Y0125909D01*
X0056500Y0127108D02*
X0056700Y0127108D01*
X0056700Y0128306D02*
X0056500Y0128306D01*
X0056500Y0129505D02*
X0056700Y0129505D01*
X0055709Y0130703D02*
X0055326Y0130703D01*
X0054511Y0131902D02*
X0054128Y0131902D01*
X0056500Y0135498D02*
X0056700Y0135498D01*
X0056700Y0136696D02*
X0056500Y0136696D01*
X0056500Y0137895D02*
X0056700Y0137895D01*
X0056700Y0139093D02*
X0056500Y0139093D01*
X0055738Y0140292D02*
X0057462Y0140292D01*
X0058660Y0141490D02*
X0054540Y0141490D01*
X0053718Y0142689D02*
X0059482Y0142689D01*
X0059570Y0142600D02*
X0063630Y0142600D01*
X0066500Y0145470D01*
X0066500Y0149530D01*
X0063630Y0152400D01*
X0059570Y0152400D01*
X0056700Y0149530D01*
X0056700Y0145470D01*
X0059570Y0142600D01*
X0058283Y0143887D02*
X0054917Y0143887D01*
X0056115Y0145086D02*
X0057085Y0145086D01*
X0056700Y0146284D02*
X0056500Y0146284D01*
X0056500Y0147483D02*
X0056700Y0147483D01*
X0056700Y0148681D02*
X0056500Y0148681D01*
X0056150Y0149880D02*
X0057050Y0149880D01*
X0058249Y0151078D02*
X0054951Y0151078D01*
X0053753Y0152277D02*
X0059447Y0152277D01*
X0059570Y0152600D02*
X0063630Y0152600D01*
X0066500Y0155470D01*
X0066500Y0159530D01*
X0063630Y0162400D01*
X0059570Y0162400D01*
X0056700Y0159530D01*
X0056700Y0155470D01*
X0059570Y0152600D01*
X0058695Y0153475D02*
X0054505Y0153475D01*
X0055703Y0154674D02*
X0057497Y0154674D01*
X0056700Y0155872D02*
X0056500Y0155872D01*
X0056500Y0157071D02*
X0056700Y0157071D01*
X0056700Y0158269D02*
X0056500Y0158269D01*
X0056500Y0159468D02*
X0056700Y0159468D01*
X0057837Y0160666D02*
X0055363Y0160666D01*
X0054165Y0161865D02*
X0059035Y0161865D01*
X0059570Y0162600D02*
X0063630Y0162600D01*
X0066500Y0165470D01*
X0066500Y0169530D01*
X0063630Y0172400D01*
X0059570Y0172400D01*
X0056700Y0169530D01*
X0056700Y0165470D01*
X0059570Y0162600D01*
X0059107Y0163063D02*
X0054093Y0163063D01*
X0055291Y0164262D02*
X0057909Y0164262D01*
X0056710Y0165460D02*
X0056490Y0165460D01*
X0056500Y0166659D02*
X0056700Y0166659D01*
X0056700Y0167857D02*
X0056500Y0167857D01*
X0056500Y0169056D02*
X0056700Y0169056D01*
X0057425Y0170254D02*
X0055775Y0170254D01*
X0054577Y0171453D02*
X0058623Y0171453D01*
X0059519Y0172651D02*
X0053681Y0172651D01*
X0054880Y0173850D02*
X0058320Y0173850D01*
X0057122Y0175048D02*
X0056078Y0175048D01*
X0056500Y0176247D02*
X0056700Y0176247D01*
X0056700Y0177445D02*
X0056500Y0177445D01*
X0056500Y0178644D02*
X0056700Y0178644D01*
X0057013Y0179842D02*
X0056187Y0179842D01*
X0054989Y0181041D02*
X0058211Y0181041D01*
X0059410Y0182239D02*
X0053790Y0182239D01*
X0054468Y0183438D02*
X0058732Y0183438D01*
X0057534Y0184637D02*
X0055666Y0184637D01*
X0056500Y0185835D02*
X0056700Y0185835D01*
X0056700Y0187034D02*
X0056500Y0187034D01*
X0056500Y0188232D02*
X0056700Y0188232D01*
X0056700Y0189431D02*
X0056500Y0189431D01*
X0058761Y0193026D02*
X0059144Y0193026D01*
X0057946Y0194225D02*
X0057562Y0194225D01*
X0051200Y0197820D02*
X0034250Y0197820D01*
X0034250Y0196622D02*
X0045500Y0196622D01*
X0045500Y0195423D02*
X0034250Y0195423D01*
X0034250Y0199019D02*
X0045500Y0199019D01*
X0045690Y0200217D02*
X0034250Y0200217D01*
X0034164Y0201416D02*
X0046889Y0201416D01*
X0056311Y0201416D02*
X0058586Y0201416D01*
X0064614Y0201416D02*
X0148586Y0201416D01*
X0147388Y0200217D02*
X0065812Y0200217D01*
X0066500Y0199019D02*
X0146700Y0199019D01*
X0146700Y0197820D02*
X0066500Y0197820D01*
X0066500Y0196622D02*
X0146700Y0196622D01*
X0146747Y0195423D02*
X0066453Y0195423D01*
X0065254Y0194225D02*
X0115638Y0194225D01*
X0114439Y0193026D02*
X0064056Y0193026D01*
X0064202Y0191828D02*
X0113241Y0191828D01*
X0112042Y0190629D02*
X0065401Y0190629D01*
X0066500Y0189431D02*
X0110844Y0189431D01*
X0109645Y0188232D02*
X0066500Y0188232D01*
X0066500Y0187034D02*
X0108447Y0187034D01*
X0107248Y0185835D02*
X0066500Y0185835D01*
X0065666Y0184637D02*
X0106050Y0184637D01*
X0104851Y0183438D02*
X0064468Y0183438D01*
X0063790Y0182239D02*
X0103652Y0182239D01*
X0102454Y0181041D02*
X0064989Y0181041D01*
X0066187Y0179842D02*
X0101255Y0179842D01*
X0100057Y0178644D02*
X0073143Y0178644D01*
X0074342Y0177445D02*
X0098858Y0177445D01*
X0097660Y0176247D02*
X0075540Y0176247D01*
X0076739Y0175048D02*
X0096461Y0175048D01*
X0095263Y0173850D02*
X0077937Y0173850D01*
X0079136Y0172651D02*
X0094700Y0172651D01*
X0094700Y0171453D02*
X0080334Y0171453D01*
X0081533Y0170254D02*
X0094700Y0170254D01*
X0094700Y0169056D02*
X0082731Y0169056D01*
X0083930Y0167857D02*
X0094700Y0167857D01*
X0094700Y0166659D02*
X0085128Y0166659D01*
X0086327Y0165460D02*
X0094700Y0165460D01*
X0094700Y0164262D02*
X0087525Y0164262D01*
X0088724Y0163063D02*
X0094700Y0163063D01*
X0094700Y0161865D02*
X0089922Y0161865D01*
X0091000Y0160666D02*
X0094700Y0160666D01*
X0094700Y0159468D02*
X0091000Y0159468D01*
X0091000Y0158269D02*
X0094700Y0158269D01*
X0094700Y0157071D02*
X0091000Y0157071D01*
X0091000Y0155872D02*
X0094700Y0155872D01*
X0094700Y0154674D02*
X0091000Y0154674D01*
X0091000Y0153475D02*
X0094700Y0153475D01*
X0094700Y0152277D02*
X0091000Y0152277D01*
X0091000Y0151078D02*
X0094700Y0151078D01*
X0094700Y0149880D02*
X0091000Y0149880D01*
X0091000Y0148681D02*
X0094700Y0148681D01*
X0094700Y0147483D02*
X0091000Y0147483D01*
X0091000Y0146284D02*
X0095129Y0146284D01*
X0096327Y0145086D02*
X0091000Y0145086D01*
X0091000Y0143887D02*
X0097087Y0143887D01*
X0096900Y0142689D02*
X0091598Y0142689D01*
X0092797Y0141490D02*
X0096931Y0141490D01*
X0097427Y0140292D02*
X0093995Y0140292D01*
X0092217Y0136696D02*
X0066500Y0136696D01*
X0066500Y0135498D02*
X0097951Y0135498D01*
X0097948Y0129505D02*
X0066500Y0129505D01*
X0066500Y0128306D02*
X0099442Y0128306D01*
X0100443Y0127108D02*
X0066500Y0127108D01*
X0066500Y0125909D02*
X0098363Y0125909D01*
X0097429Y0124711D02*
X0065741Y0124711D01*
X0064925Y0123512D02*
X0064542Y0123512D01*
X0063727Y0122314D02*
X0063716Y0122314D01*
X0066704Y0119917D02*
X0097583Y0119917D01*
X0098735Y0118718D02*
X0066500Y0118718D01*
X0066500Y0117520D02*
X0129700Y0117520D01*
X0129700Y0118718D02*
X0114465Y0118718D01*
X0114262Y0118516D02*
X0115584Y0119838D01*
X0116300Y0121565D01*
X0116300Y0123435D01*
X0115584Y0125162D01*
X0114262Y0126484D01*
X0112535Y0127200D01*
X0110665Y0127200D01*
X0108938Y0126484D01*
X0107616Y0125162D01*
X0106900Y0123435D01*
X0106900Y0121565D01*
X0107616Y0119838D01*
X0108938Y0118516D01*
X0110665Y0117800D01*
X0112535Y0117800D01*
X0114262Y0118516D01*
X0115617Y0119917D02*
X0129700Y0119917D01*
X0129700Y0121115D02*
X0116114Y0121115D01*
X0116300Y0122314D02*
X0129700Y0122314D01*
X0129700Y0123512D02*
X0116268Y0123512D01*
X0115771Y0124711D02*
X0129700Y0124711D01*
X0129700Y0125909D02*
X0114837Y0125909D01*
X0112757Y0127108D02*
X0129700Y0127108D01*
X0129700Y0128306D02*
X0113758Y0128306D01*
X0115252Y0129505D02*
X0129700Y0129505D01*
X0129700Y0130703D02*
X0127490Y0130703D01*
X0128689Y0131902D02*
X0129700Y0131902D01*
X0126911Y0135498D02*
X0115249Y0135498D01*
X0115584Y0135162D02*
X0114262Y0136484D01*
X0113346Y0136864D01*
X0113865Y0137032D01*
X0114692Y0137454D01*
X0115444Y0138000D01*
X0116100Y0138656D01*
X0116646Y0139408D01*
X0117068Y0140235D01*
X0117355Y0141118D01*
X0117500Y0142036D01*
X0117500Y0142116D01*
X0111984Y0142116D01*
X0111984Y0142884D01*
X0117500Y0142884D01*
X0117500Y0142964D01*
X0117355Y0143882D01*
X0117068Y0144765D01*
X0116646Y0145592D01*
X0116100Y0146344D01*
X0115444Y0147000D01*
X0114692Y0147546D01*
X0113865Y0147968D01*
X0113346Y0148136D01*
X0114262Y0148516D01*
X0115584Y0149838D01*
X0116300Y0151565D01*
X0116300Y0153435D01*
X0115584Y0155162D01*
X0114262Y0156484D01*
X0112535Y0157200D01*
X0110665Y0157200D01*
X0108938Y0156484D01*
X0107616Y0155162D01*
X0106900Y0153435D01*
X0106900Y0151565D01*
X0107216Y0150803D01*
X0105813Y0149400D01*
X0104700Y0148287D01*
X0104700Y0146047D01*
X0104262Y0146484D01*
X0102535Y0147200D01*
X0100665Y0147200D01*
X0099903Y0146884D01*
X0098500Y0148287D01*
X0098500Y0149444D01*
X0099134Y0148810D01*
X0100734Y0148147D01*
X0102466Y0148147D01*
X0104066Y0148810D01*
X0105290Y0150034D01*
X0105953Y0151634D01*
X0105953Y0153366D01*
X0105290Y0154966D01*
X0104066Y0156190D01*
X0103500Y0156424D01*
X0103500Y0169213D01*
X0113637Y0179350D01*
X0114887Y0180600D01*
X0117387Y0183100D01*
X0143313Y0183100D01*
X0145813Y0180600D01*
X0147770Y0180600D01*
X0146700Y0179530D01*
X0146700Y0175470D01*
X0147770Y0174400D01*
X0130813Y0174400D01*
X0129700Y0173287D01*
X0118713Y0162300D01*
X0118043Y0162300D01*
X0117014Y0161874D01*
X0116226Y0161086D01*
X0115800Y0160057D01*
X0115800Y0158943D01*
X0116226Y0157914D01*
X0117014Y0157126D01*
X0118043Y0156700D01*
X0119157Y0156700D01*
X0120186Y0157126D01*
X0120974Y0157914D01*
X0121400Y0158943D01*
X0121400Y0159613D01*
X0132387Y0170600D01*
X0147770Y0170600D01*
X0146700Y0169530D01*
X0146700Y0165470D01*
X0147770Y0164400D01*
X0143313Y0164400D01*
X0142200Y0163287D01*
X0127200Y0148287D01*
X0127200Y0135787D01*
X0125813Y0134400D01*
X0115900Y0134400D01*
X0115584Y0135162D01*
X0113752Y0136696D02*
X0127200Y0136696D01*
X0127200Y0137895D02*
X0115299Y0137895D01*
X0116418Y0139093D02*
X0127200Y0139093D01*
X0127200Y0140292D02*
X0117086Y0140292D01*
X0117414Y0141490D02*
X0127200Y0141490D01*
X0127200Y0142689D02*
X0111984Y0142689D01*
X0116904Y0145086D02*
X0127200Y0145086D01*
X0127200Y0146284D02*
X0116143Y0146284D01*
X0114780Y0147483D02*
X0127200Y0147483D01*
X0127594Y0148681D02*
X0114428Y0148681D01*
X0115602Y0149880D02*
X0128793Y0149880D01*
X0129991Y0151078D02*
X0116098Y0151078D01*
X0116300Y0152277D02*
X0131190Y0152277D01*
X0132388Y0153475D02*
X0116283Y0153475D01*
X0115787Y0154674D02*
X0133587Y0154674D01*
X0134785Y0155872D02*
X0114875Y0155872D01*
X0112847Y0157071D02*
X0117148Y0157071D01*
X0116079Y0158269D02*
X0103500Y0158269D01*
X0103500Y0157071D02*
X0110353Y0157071D01*
X0108325Y0155872D02*
X0104383Y0155872D01*
X0105411Y0154674D02*
X0107413Y0154674D01*
X0106917Y0153475D02*
X0105907Y0153475D01*
X0105953Y0152277D02*
X0106900Y0152277D01*
X0107102Y0151078D02*
X0105722Y0151078D01*
X0106293Y0149880D02*
X0105135Y0149880D01*
X0105813Y0149400D02*
X0105813Y0149400D01*
X0105094Y0148681D02*
X0103755Y0148681D01*
X0104700Y0147483D02*
X0099304Y0147483D01*
X0099445Y0148681D02*
X0098500Y0148681D01*
X0104463Y0146284D02*
X0104700Y0146284D01*
X0107182Y0137895D02*
X0107901Y0137895D01*
X0109448Y0136696D02*
X0105983Y0136696D01*
X0105249Y0135498D02*
X0107951Y0135498D01*
X0107258Y0134299D02*
X0105942Y0134299D01*
X0106300Y0133101D02*
X0106900Y0133101D01*
X0106900Y0131902D02*
X0106300Y0131902D01*
X0105943Y0130703D02*
X0107257Y0130703D01*
X0107948Y0129505D02*
X0105252Y0129505D01*
X0103758Y0128306D02*
X0109442Y0128306D01*
X0110443Y0127108D02*
X0102757Y0127108D01*
X0104837Y0125909D02*
X0108363Y0125909D01*
X0107429Y0124711D02*
X0105771Y0124711D01*
X0106268Y0123512D02*
X0106932Y0123512D01*
X0106900Y0122314D02*
X0106300Y0122314D01*
X0106114Y0121115D02*
X0107086Y0121115D01*
X0107583Y0119917D02*
X0105617Y0119917D01*
X0104465Y0118718D02*
X0108735Y0118718D01*
X0108938Y0116484D02*
X0107616Y0115162D01*
X0106900Y0113435D01*
X0106900Y0111565D01*
X0107616Y0109838D01*
X0108938Y0108516D01*
X0110665Y0107800D01*
X0112535Y0107800D01*
X0114262Y0108516D01*
X0115584Y0109838D01*
X0116300Y0111565D01*
X0116300Y0113435D01*
X0115584Y0115162D01*
X0114262Y0116484D01*
X0112535Y0117200D01*
X0110665Y0117200D01*
X0108938Y0116484D01*
X0108775Y0116321D02*
X0104425Y0116321D01*
X0104262Y0116484D02*
X0102535Y0117200D01*
X0100665Y0117200D01*
X0098938Y0116484D01*
X0097616Y0115162D01*
X0096900Y0113435D01*
X0096900Y0111565D01*
X0097616Y0109838D01*
X0098938Y0108516D01*
X0100665Y0107800D01*
X0102535Y0107800D01*
X0104262Y0108516D01*
X0105584Y0109838D01*
X0106300Y0111565D01*
X0106300Y0113435D01*
X0105584Y0115162D01*
X0104262Y0116484D01*
X0105601Y0115123D02*
X0107599Y0115123D01*
X0107103Y0113924D02*
X0106097Y0113924D01*
X0106300Y0112726D02*
X0106900Y0112726D01*
X0106916Y0111527D02*
X0106284Y0111527D01*
X0105788Y0110329D02*
X0107412Y0110329D01*
X0108323Y0109130D02*
X0104877Y0109130D01*
X0102853Y0107932D02*
X0110347Y0107932D01*
X0109538Y0106733D02*
X0103662Y0106733D01*
X0104262Y0106484D02*
X0102535Y0107200D01*
X0100665Y0107200D01*
X0098938Y0106484D01*
X0097616Y0105162D01*
X0096900Y0103435D01*
X0096900Y0101565D01*
X0097616Y0099838D01*
X0098938Y0098516D01*
X0100665Y0097800D01*
X0102535Y0097800D01*
X0104262Y0098516D01*
X0105584Y0099838D01*
X0106300Y0101565D01*
X0106300Y0103435D01*
X0105584Y0105162D01*
X0104262Y0106484D01*
X0105212Y0105535D02*
X0107988Y0105535D01*
X0107273Y0104336D02*
X0105927Y0104336D01*
X0106300Y0103138D02*
X0106900Y0103138D01*
X0106900Y0101939D02*
X0106300Y0101939D01*
X0105959Y0100741D02*
X0107241Y0100741D01*
X0107911Y0099542D02*
X0105289Y0099542D01*
X0103847Y0098344D02*
X0109353Y0098344D01*
X0110533Y0097145D02*
X0102667Y0097145D01*
X0100533Y0097145D02*
X0038932Y0097145D01*
X0039000Y0098344D02*
X0099353Y0098344D01*
X0097911Y0099542D02*
X0039000Y0099542D01*
X0039000Y0100741D02*
X0097241Y0100741D01*
X0096900Y0101939D02*
X0039000Y0101939D01*
X0034757Y0098344D02*
X0008750Y0098344D01*
X0008750Y0099542D02*
X0027700Y0099542D01*
X0028793Y0097145D02*
X0008750Y0097145D01*
X0008750Y0095947D02*
X0028004Y0095947D01*
X0027700Y0094748D02*
X0008750Y0094748D01*
X0008750Y0093550D02*
X0027746Y0093550D01*
X0028243Y0092351D02*
X0008750Y0092351D01*
X0008750Y0091153D02*
X0029369Y0091153D01*
X0029596Y0089954D02*
X0008750Y0089954D01*
X0008750Y0088756D02*
X0028287Y0088756D01*
X0028294Y0088772D02*
X0027700Y0087339D01*
X0027700Y0085787D01*
X0028294Y0084354D01*
X0029371Y0083277D01*
X0028927Y0083051D01*
X0028278Y0082579D01*
X0027710Y0082011D01*
X0027238Y0081362D01*
X0026874Y0080647D01*
X0026626Y0079883D01*
X0026500Y0079090D01*
X0026500Y0078876D01*
X0031413Y0078876D01*
X0031413Y0078502D01*
X0026500Y0078502D01*
X0026500Y0078288D01*
X0026626Y0077495D01*
X0026874Y0076731D01*
X0027238Y0076016D01*
X0027710Y0075367D01*
X0028278Y0074799D01*
X0028927Y0074327D01*
X0029642Y0073963D01*
X0030406Y0073715D01*
X0031199Y0073589D01*
X0031413Y0073589D01*
X0031413Y0078501D01*
X0031787Y0078501D01*
X0031787Y0073589D01*
X0032001Y0073589D01*
X0032794Y0073715D01*
X0033558Y0073963D01*
X0034273Y0074327D01*
X0034922Y0074799D01*
X0035490Y0075367D01*
X0035962Y0076016D01*
X0036326Y0076731D01*
X0036574Y0077495D01*
X0036700Y0078288D01*
X0036700Y0078502D01*
X0031787Y0078502D01*
X0031787Y0078876D01*
X0036700Y0078876D01*
X0036700Y0079090D01*
X0036574Y0079883D01*
X0036326Y0080647D01*
X0035962Y0081362D01*
X0035490Y0082011D01*
X0034922Y0082579D01*
X0034273Y0083051D01*
X0033829Y0083277D01*
X0034906Y0084354D01*
X0035500Y0085787D01*
X0035500Y0087339D01*
X0034906Y0088772D01*
X0033809Y0089869D01*
X0032376Y0090463D01*
X0030824Y0090463D01*
X0029391Y0089869D01*
X0028294Y0088772D01*
X0027790Y0087557D02*
X0008750Y0087557D01*
X0008750Y0086359D02*
X0027700Y0086359D01*
X0027960Y0085160D02*
X0008750Y0085160D01*
X0008750Y0083962D02*
X0028686Y0083962D01*
X0028531Y0082763D02*
X0008750Y0082763D01*
X0008750Y0081565D02*
X0027385Y0081565D01*
X0026782Y0080366D02*
X0008750Y0080366D01*
X0008750Y0079168D02*
X0026512Y0079168D01*
X0026550Y0077969D02*
X0008750Y0077969D01*
X0008750Y0076770D02*
X0026861Y0076770D01*
X0027561Y0075572D02*
X0008750Y0075572D01*
X0008750Y0074373D02*
X0028863Y0074373D01*
X0031413Y0074373D02*
X0031787Y0074373D01*
X0031787Y0075572D02*
X0031413Y0075572D01*
X0031413Y0076770D02*
X0031787Y0076770D01*
X0031787Y0077969D02*
X0031413Y0077969D01*
X0034337Y0074373D02*
X0095499Y0074373D01*
X0094300Y0073175D02*
X0008750Y0073175D01*
X0008750Y0071976D02*
X0011455Y0071976D01*
X0010294Y0071306D02*
X0010294Y0071306D01*
X0009989Y0070778D02*
X0008750Y0070778D01*
X0033604Y0089954D02*
X0097567Y0089954D01*
X0097071Y0091153D02*
X0033831Y0091153D01*
X0034957Y0092351D02*
X0096900Y0092351D01*
X0096948Y0093550D02*
X0035454Y0093550D01*
X0036535Y0094748D02*
X0097444Y0094748D01*
X0098400Y0095947D02*
X0037734Y0095947D01*
X0034913Y0088756D02*
X0098698Y0088756D01*
X0098812Y0086359D02*
X0035500Y0086359D01*
X0035410Y0087557D02*
X0103856Y0087557D01*
X0104388Y0086359D02*
X0105054Y0086359D01*
X0105585Y0085160D02*
X0107615Y0085160D01*
X0107118Y0083962D02*
X0106082Y0083962D01*
X0106300Y0082763D02*
X0106900Y0082763D01*
X0106900Y0081565D02*
X0106300Y0081565D01*
X0106421Y0080366D02*
X0107397Y0080366D01*
X0104643Y0076770D02*
X0036339Y0076770D01*
X0036650Y0077969D02*
X0100257Y0077969D01*
X0098286Y0079168D02*
X0036688Y0079168D01*
X0036418Y0080366D02*
X0097397Y0080366D01*
X0096900Y0081565D02*
X0035815Y0081565D01*
X0034669Y0082763D02*
X0096900Y0082763D01*
X0097118Y0083962D02*
X0034514Y0083962D01*
X0035240Y0085160D02*
X0097615Y0085160D01*
X0102943Y0077969D02*
X0103444Y0077969D01*
X0099209Y0072150D02*
X0099146Y0072086D01*
X0097794Y0071306D01*
X0097040Y0070000D01*
X0096075Y0070000D01*
X0098325Y0072250D01*
X0143825Y0072250D01*
X0172325Y0100750D01*
X0173350Y0101775D01*
X0173350Y0158225D01*
X0166302Y0165273D01*
X0166500Y0165470D01*
X0166500Y0169530D01*
X0165430Y0170600D01*
X0167387Y0170600D01*
X0168500Y0171713D01*
X0173500Y0176713D01*
X0173500Y0184213D01*
X0177387Y0188100D01*
X0181867Y0188100D01*
X0182276Y0187111D01*
X0183711Y0185676D01*
X0185344Y0185000D01*
X0183711Y0184324D01*
X0182276Y0182889D01*
X0181500Y0181014D01*
X0181500Y0178986D01*
X0182276Y0177111D01*
X0183711Y0175676D01*
X0185586Y0174900D01*
X0187614Y0174900D01*
X0189489Y0175676D01*
X0190924Y0177111D01*
X0190958Y0177195D01*
X0191212Y0176698D01*
X0191795Y0175896D01*
X0192496Y0175195D01*
X0193298Y0174612D01*
X0194182Y0174162D01*
X0195125Y0173855D01*
X0196104Y0173700D01*
X0196200Y0173700D01*
X0196200Y0179600D01*
X0197000Y0179600D01*
X0197000Y0180400D01*
X0196200Y0180400D01*
X0196200Y0183700D01*
X0196200Y0189600D01*
X0197000Y0189600D01*
X0197000Y0190400D01*
X0196200Y0190400D01*
X0196200Y0196300D01*
X0196104Y0196300D01*
X0195125Y0196145D01*
X0194182Y0195838D01*
X0193298Y0195388D01*
X0192496Y0194805D01*
X0191795Y0194104D01*
X0191212Y0193302D01*
X0190958Y0192805D01*
X0190924Y0192889D01*
X0189489Y0194324D01*
X0187614Y0195100D01*
X0185586Y0195100D01*
X0183711Y0194324D01*
X0182276Y0192889D01*
X0181867Y0191900D01*
X0175813Y0191900D01*
X0170813Y0186900D01*
X0169700Y0185787D01*
X0169700Y0178287D01*
X0165813Y0174400D01*
X0165430Y0174400D01*
X0166500Y0175470D01*
X0166500Y0179530D01*
X0163630Y0182400D01*
X0159570Y0182400D01*
X0159479Y0182308D01*
X0158500Y0183287D01*
X0157387Y0184400D01*
X0155430Y0184400D01*
X0156500Y0185470D01*
X0156500Y0189530D01*
X0155430Y0190600D01*
X0155813Y0190600D01*
X0156792Y0189621D01*
X0156700Y0189530D01*
X0156700Y0185470D01*
X0159570Y0182600D01*
X0163630Y0182600D01*
X0166500Y0185470D01*
X0166500Y0189530D01*
X0164378Y0191651D01*
X0167700Y0194973D01*
X0167700Y0197100D01*
X0162000Y0197100D01*
X0162000Y0197900D01*
X0167700Y0197900D01*
X0167700Y0200027D01*
X0165227Y0202500D01*
X0200110Y0202500D01*
X0201699Y0201720D01*
X0203201Y0200263D01*
X0204179Y0198413D01*
X0204538Y0196352D01*
X0204513Y0195953D01*
X0204450Y0195891D01*
X0204450Y0195153D01*
X0204346Y0194422D01*
X0204450Y0194283D01*
X0204450Y0147189D01*
X0204386Y0147299D01*
X0203825Y0148030D01*
X0203174Y0148682D01*
X0202443Y0149243D01*
X0201645Y0149704D01*
X0200793Y0150056D01*
X0199903Y0150295D01*
X0198990Y0150415D01*
X0194700Y0150415D01*
X0194700Y0143986D01*
X0193500Y0143986D01*
X0193500Y0150415D01*
X0189210Y0150415D01*
X0188297Y0150295D01*
X0187407Y0150056D01*
X0186555Y0149704D01*
X0185757Y0149243D01*
X0185026Y0148682D01*
X0184375Y0148030D01*
X0183814Y0147299D01*
X0183353Y0146501D01*
X0183000Y0145650D01*
X0182762Y0144760D01*
X0182660Y0143986D01*
X0193500Y0143986D01*
X0193500Y0142786D01*
X0182660Y0142786D01*
X0182762Y0142012D01*
X0183000Y0141122D01*
X0183353Y0140270D01*
X0183814Y0139472D01*
X0184375Y0138741D01*
X0185026Y0138090D01*
X0185757Y0137529D01*
X0186555Y0137068D01*
X0187407Y0136715D01*
X0188297Y0136477D01*
X0189210Y0136357D01*
X0193500Y0136357D01*
X0193500Y0142786D01*
X0194700Y0142786D01*
X0194700Y0136357D01*
X0198990Y0136357D01*
X0199903Y0136477D01*
X0200793Y0136715D01*
X0201645Y0137068D01*
X0202443Y0137529D01*
X0203174Y0138090D01*
X0203825Y0138741D01*
X0204386Y0139472D01*
X0204450Y0139583D01*
X0204450Y0131598D01*
X0204386Y0131709D01*
X0203825Y0132440D01*
X0203174Y0133091D01*
X0202443Y0133652D01*
X0201645Y0134113D01*
X0200793Y0134466D01*
X0199903Y0134704D01*
X0198990Y0134824D01*
X0194700Y0134824D01*
X0194700Y0128395D01*
X0193500Y0128395D01*
X0193500Y0127195D01*
X0194700Y0127195D01*
X0194700Y0120766D01*
X0198990Y0120766D01*
X0199903Y0120886D01*
X0200793Y0121125D01*
X0201645Y0121478D01*
X0202443Y0121938D01*
X0203174Y0122499D01*
X0203825Y0123151D01*
X0204386Y0123882D01*
X0204450Y0123992D01*
X0204450Y0070000D01*
X0191160Y0070000D01*
X0190406Y0071306D01*
X0190406Y0071306D01*
X0190406Y0071306D01*
X0189054Y0072086D01*
X0188991Y0072150D01*
X0164209Y0072150D01*
X0164146Y0072086D01*
X0162794Y0071306D01*
X0162040Y0070000D01*
X0146160Y0070000D01*
X0145406Y0071306D01*
X0145406Y0071306D01*
X0145406Y0071306D01*
X0144054Y0072086D01*
X0143991Y0072150D01*
X0099209Y0072150D01*
X0098955Y0071976D02*
X0098051Y0071976D01*
X0097794Y0071306D02*
X0097794Y0071306D01*
X0097794Y0071306D01*
X0097489Y0070778D02*
X0096853Y0070778D01*
X0093102Y0071976D02*
X0089245Y0071976D01*
X0090711Y0070778D02*
X0092350Y0070778D01*
X0096697Y0075572D02*
X0035639Y0075572D01*
X0041745Y0071976D02*
X0056455Y0071976D01*
X0055294Y0071306D02*
X0055294Y0071306D01*
X0055294Y0071306D01*
X0054989Y0070778D02*
X0043211Y0070778D01*
X0023172Y0100741D02*
X0008750Y0100741D01*
X0008750Y0101939D02*
X0021974Y0101939D01*
X0020775Y0103138D02*
X0008750Y0103138D01*
X0008750Y0104336D02*
X0019577Y0104336D01*
X0018378Y0105535D02*
X0008750Y0105535D01*
X0008750Y0106733D02*
X0017200Y0106733D01*
X0017200Y0107932D02*
X0008750Y0107932D01*
X0008750Y0109130D02*
X0017200Y0109130D01*
X0017200Y0110329D02*
X0008750Y0110329D01*
X0008750Y0111527D02*
X0017200Y0111527D01*
X0017200Y0112726D02*
X0008750Y0112726D01*
X0008750Y0113924D02*
X0017200Y0113924D01*
X0017200Y0115123D02*
X0008750Y0115123D01*
X0008750Y0116321D02*
X0017200Y0116321D01*
X0017200Y0117520D02*
X0008750Y0117520D01*
X0008750Y0118718D02*
X0017200Y0118718D01*
X0017200Y0119917D02*
X0008750Y0119917D01*
X0008750Y0121115D02*
X0017200Y0121115D01*
X0017200Y0122314D02*
X0008750Y0122314D01*
X0008750Y0123512D02*
X0017200Y0123512D01*
X0017200Y0124711D02*
X0008750Y0124711D01*
X0008750Y0125909D02*
X0017200Y0125909D01*
X0017200Y0127108D02*
X0008750Y0127108D01*
X0008750Y0128306D02*
X0017200Y0128306D01*
X0017200Y0129505D02*
X0008750Y0129505D01*
X0008750Y0130703D02*
X0017200Y0130703D01*
X0017200Y0131902D02*
X0008750Y0131902D01*
X0008750Y0133101D02*
X0017200Y0133101D01*
X0017200Y0134299D02*
X0008750Y0134299D01*
X0008750Y0135498D02*
X0017200Y0135498D01*
X0017200Y0136696D02*
X0008750Y0136696D01*
X0008750Y0137895D02*
X0017200Y0137895D01*
X0017200Y0139093D02*
X0008750Y0139093D01*
X0008750Y0140292D02*
X0017200Y0140292D01*
X0017200Y0141490D02*
X0008750Y0141490D01*
X0008750Y0142689D02*
X0017200Y0142689D01*
X0017200Y0143887D02*
X0008750Y0143887D01*
X0008750Y0145086D02*
X0017200Y0145086D01*
X0017200Y0146284D02*
X0008750Y0146284D01*
X0008750Y0147483D02*
X0017200Y0147483D01*
X0017200Y0148681D02*
X0008750Y0148681D01*
X0008750Y0149880D02*
X0017200Y0149880D01*
X0017200Y0151078D02*
X0008750Y0151078D01*
X0008750Y0152277D02*
X0017200Y0152277D01*
X0017388Y0153475D02*
X0008750Y0153475D01*
X0008750Y0154674D02*
X0018587Y0154674D01*
X0019785Y0155872D02*
X0008750Y0155872D01*
X0008750Y0157071D02*
X0020984Y0157071D01*
X0022182Y0158269D02*
X0008750Y0158269D01*
X0008750Y0159468D02*
X0023381Y0159468D01*
X0024579Y0160666D02*
X0008750Y0160666D01*
X0008750Y0161865D02*
X0025148Y0161865D01*
X0025829Y0163063D02*
X0008750Y0163063D01*
X0008750Y0164262D02*
X0027240Y0164262D01*
X0025559Y0165460D02*
X0008750Y0165460D01*
X0008750Y0166659D02*
X0024524Y0166659D01*
X0023910Y0167857D02*
X0008750Y0167857D01*
X0008750Y0169056D02*
X0023599Y0169056D01*
X0023525Y0170254D02*
X0008750Y0170254D01*
X0008750Y0171453D02*
X0023686Y0171453D01*
X0024136Y0172651D02*
X0008750Y0172651D01*
X0008750Y0173850D02*
X0024894Y0173850D01*
X0026231Y0175048D02*
X0008750Y0175048D01*
X0008750Y0176247D02*
X0026544Y0176247D01*
X0025444Y0177445D02*
X0008750Y0177445D01*
X0008750Y0178644D02*
X0024947Y0178644D01*
X0024775Y0179842D02*
X0008750Y0179842D01*
X0008750Y0181041D02*
X0024796Y0181041D01*
X0025293Y0182239D02*
X0008750Y0182239D01*
X0008750Y0183438D02*
X0026179Y0183438D01*
X0033806Y0177445D02*
X0035187Y0177445D01*
X0034086Y0176247D02*
X0032706Y0176247D01*
X0032919Y0175048D02*
X0033800Y0175048D01*
X0038500Y0165460D02*
X0039700Y0165460D01*
X0039700Y0164262D02*
X0038500Y0164262D01*
X0038500Y0163063D02*
X0039700Y0163063D01*
X0039700Y0161865D02*
X0038500Y0161865D01*
X0038500Y0160666D02*
X0039700Y0160666D01*
X0039700Y0159468D02*
X0038500Y0159468D01*
X0038500Y0158269D02*
X0039700Y0158269D01*
X0039700Y0157071D02*
X0038500Y0157071D01*
X0038500Y0155872D02*
X0039700Y0155872D01*
X0039700Y0154674D02*
X0038500Y0154674D01*
X0038500Y0153475D02*
X0039700Y0153475D01*
X0039700Y0152277D02*
X0038500Y0152277D01*
X0037865Y0151078D02*
X0039700Y0151078D01*
X0039700Y0149880D02*
X0036667Y0149880D01*
X0035468Y0148681D02*
X0039700Y0148681D01*
X0039700Y0147483D02*
X0033782Y0147483D01*
X0032959Y0153475D02*
X0034700Y0153475D01*
X0021700Y0141490D02*
X0021000Y0141490D01*
X0021000Y0140292D02*
X0021700Y0140292D01*
X0021700Y0139093D02*
X0021000Y0139093D01*
X0021000Y0137895D02*
X0021700Y0137895D01*
X0021700Y0136696D02*
X0021000Y0136696D01*
X0021000Y0135498D02*
X0021700Y0135498D01*
X0021700Y0134299D02*
X0021000Y0134299D01*
X0021000Y0133101D02*
X0021700Y0133101D01*
X0021700Y0131902D02*
X0021000Y0131902D01*
X0021000Y0130703D02*
X0021700Y0130703D01*
X0021700Y0129505D02*
X0021000Y0129505D01*
X0021000Y0128306D02*
X0021700Y0128306D01*
X0021700Y0127108D02*
X0021000Y0127108D01*
X0021000Y0125909D02*
X0021700Y0125909D01*
X0021700Y0124711D02*
X0021000Y0124711D01*
X0021000Y0123512D02*
X0021700Y0123512D01*
X0021700Y0122314D02*
X0021000Y0122314D01*
X0021000Y0121115D02*
X0021700Y0121115D01*
X0021700Y0119917D02*
X0021000Y0119917D01*
X0021000Y0118718D02*
X0021700Y0118718D01*
X0021700Y0117520D02*
X0021000Y0117520D01*
X0021000Y0116321D02*
X0021700Y0116321D01*
X0021700Y0115123D02*
X0021000Y0115123D01*
X0021000Y0113924D02*
X0021700Y0113924D01*
X0021700Y0112726D02*
X0021000Y0112726D01*
X0021000Y0111527D02*
X0022886Y0111527D01*
X0024084Y0110329D02*
X0021000Y0110329D01*
X0021000Y0109130D02*
X0025283Y0109130D01*
X0022554Y0106733D02*
X0034680Y0106733D01*
X0033481Y0107932D02*
X0021355Y0107932D01*
X0023752Y0105535D02*
X0027844Y0105535D01*
X0027700Y0104336D02*
X0024951Y0104336D01*
X0028476Y0119917D02*
X0028850Y0119917D01*
X0028850Y0121115D02*
X0028476Y0121115D01*
X0028476Y0122314D02*
X0028850Y0122314D01*
X0028850Y0123512D02*
X0028476Y0123512D01*
X0028476Y0124711D02*
X0028850Y0124711D01*
X0028850Y0125909D02*
X0028476Y0125909D01*
X0028476Y0127108D02*
X0028850Y0127108D01*
X0028850Y0128306D02*
X0028476Y0128306D01*
X0025646Y0128306D02*
X0025500Y0128306D01*
X0025500Y0129505D02*
X0039355Y0129505D01*
X0039700Y0130703D02*
X0025500Y0130703D01*
X0025500Y0131902D02*
X0039700Y0131902D01*
X0039700Y0133101D02*
X0025500Y0133101D01*
X0025500Y0134299D02*
X0039700Y0134299D01*
X0038156Y0128306D02*
X0031680Y0128306D01*
X0031988Y0119917D02*
X0047087Y0119917D01*
X0063755Y0112726D02*
X0096900Y0112726D01*
X0096916Y0111527D02*
X0064502Y0111527D01*
X0065701Y0110329D02*
X0097412Y0110329D01*
X0098323Y0109130D02*
X0066500Y0109130D01*
X0066500Y0107932D02*
X0100347Y0107932D01*
X0099538Y0106733D02*
X0066500Y0106733D01*
X0066500Y0105535D02*
X0097988Y0105535D01*
X0097273Y0104336D02*
X0065366Y0104336D01*
X0064167Y0103138D02*
X0096900Y0103138D01*
X0104800Y0095947D02*
X0108400Y0095947D01*
X0107444Y0094748D02*
X0105756Y0094748D01*
X0106252Y0093550D02*
X0106948Y0093550D01*
X0106900Y0092351D02*
X0106300Y0092351D01*
X0106129Y0091153D02*
X0107071Y0091153D01*
X0106833Y0089954D02*
X0107567Y0089954D01*
X0112667Y0097145D02*
X0126058Y0097145D01*
X0124860Y0095947D02*
X0114800Y0095947D01*
X0115756Y0094748D02*
X0123661Y0094748D01*
X0127257Y0098344D02*
X0113847Y0098344D01*
X0115289Y0099542D02*
X0128455Y0099542D01*
X0134035Y0094748D02*
X0139700Y0094748D01*
X0139700Y0093550D02*
X0132837Y0093550D01*
X0131638Y0092351D02*
X0139700Y0092351D01*
X0139700Y0091153D02*
X0130440Y0091153D01*
X0129241Y0089954D02*
X0138867Y0089954D01*
X0139700Y0090787D02*
X0128313Y0079400D01*
X0115147Y0079400D01*
X0115584Y0079838D01*
X0116300Y0081565D01*
X0116300Y0083435D01*
X0115584Y0085162D01*
X0115147Y0085600D01*
X0124887Y0085600D01*
X0137387Y0098100D01*
X0138500Y0099213D01*
X0138500Y0139213D01*
X0144887Y0145600D01*
X0146700Y0145600D01*
X0146700Y0145470D01*
X0148822Y0143349D01*
X0145500Y0140027D01*
X0145500Y0137900D01*
X0151200Y0137900D01*
X0151200Y0137100D01*
X0145500Y0137100D01*
X0145500Y0134973D01*
X0148822Y0131651D01*
X0146700Y0129530D01*
X0146700Y0125470D01*
X0149570Y0122600D01*
X0153630Y0122600D01*
X0156500Y0125470D01*
X0156500Y0129530D01*
X0154378Y0131651D01*
X0157449Y0134722D01*
X0159570Y0132600D01*
X0163630Y0132600D01*
X0166500Y0135470D01*
X0166500Y0139530D01*
X0163630Y0142400D01*
X0159570Y0142400D01*
X0157449Y0140278D01*
X0154378Y0143349D01*
X0156500Y0145470D01*
X0156500Y0149530D01*
X0155430Y0150600D01*
X0155813Y0150600D01*
X0156792Y0149621D01*
X0156700Y0149530D01*
X0156700Y0145470D01*
X0159570Y0142600D01*
X0163630Y0142600D01*
X0166500Y0145470D01*
X0166500Y0149530D01*
X0163630Y0152400D01*
X0159570Y0152400D01*
X0159479Y0152308D01*
X0158500Y0153287D01*
X0157387Y0154400D01*
X0155430Y0154400D01*
X0156500Y0155470D01*
X0156500Y0159530D01*
X0155430Y0160600D01*
X0155813Y0160600D01*
X0156792Y0159621D01*
X0156700Y0159530D01*
X0156700Y0155470D01*
X0159570Y0152600D01*
X0163630Y0152600D01*
X0166500Y0155470D01*
X0166500Y0159530D01*
X0163630Y0162400D01*
X0159570Y0162400D01*
X0159479Y0162308D01*
X0158500Y0163287D01*
X0157387Y0164400D01*
X0155430Y0164400D01*
X0156500Y0165470D01*
X0156500Y0169530D01*
X0155430Y0170600D01*
X0157770Y0170600D01*
X0156700Y0169530D01*
X0156700Y0165470D01*
X0159570Y0162600D01*
X0163630Y0162600D01*
X0163827Y0162798D01*
X0169850Y0156775D01*
X0169850Y0103225D01*
X0142375Y0075750D01*
X0130037Y0075750D01*
X0142387Y0088100D01*
X0143500Y0089213D01*
X0143500Y0106713D01*
X0149479Y0112692D01*
X0149570Y0112600D01*
X0153630Y0112600D01*
X0156500Y0115470D01*
X0156500Y0119530D01*
X0153630Y0122400D01*
X0149570Y0122400D01*
X0146700Y0119530D01*
X0146700Y0115470D01*
X0146792Y0115379D01*
X0139700Y0108287D01*
X0139700Y0090787D01*
X0137669Y0088756D02*
X0128043Y0088756D01*
X0126844Y0087557D02*
X0136470Y0087557D01*
X0135272Y0086359D02*
X0125646Y0086359D01*
X0130478Y0081565D02*
X0116300Y0081565D01*
X0116300Y0082763D02*
X0131676Y0082763D01*
X0132875Y0083962D02*
X0116082Y0083962D01*
X0115585Y0085160D02*
X0134073Y0085160D01*
X0137050Y0082763D02*
X0149388Y0082763D01*
X0148190Y0081565D02*
X0135852Y0081565D01*
X0134653Y0080366D02*
X0146991Y0080366D01*
X0145793Y0079168D02*
X0133454Y0079168D01*
X0132256Y0077969D02*
X0144594Y0077969D01*
X0143396Y0076770D02*
X0131057Y0076770D01*
X0129279Y0080366D02*
X0115803Y0080366D01*
X0135234Y0095947D02*
X0139700Y0095947D01*
X0139700Y0097145D02*
X0136432Y0097145D01*
X0137631Y0098344D02*
X0139700Y0098344D01*
X0139700Y0099542D02*
X0138500Y0099542D01*
X0138500Y0100741D02*
X0139700Y0100741D01*
X0139700Y0101939D02*
X0138500Y0101939D01*
X0138500Y0103138D02*
X0139700Y0103138D01*
X0139700Y0104336D02*
X0138500Y0104336D01*
X0138500Y0105535D02*
X0139700Y0105535D01*
X0139700Y0106733D02*
X0138500Y0106733D01*
X0138500Y0107932D02*
X0139700Y0107932D01*
X0140543Y0109130D02*
X0138500Y0109130D01*
X0138500Y0110329D02*
X0141742Y0110329D01*
X0142940Y0111527D02*
X0138500Y0111527D01*
X0138500Y0112726D02*
X0144139Y0112726D01*
X0145337Y0113924D02*
X0138500Y0113924D01*
X0138500Y0115123D02*
X0146536Y0115123D01*
X0146700Y0116321D02*
X0138500Y0116321D01*
X0138500Y0117520D02*
X0146700Y0117520D01*
X0146700Y0118718D02*
X0138500Y0118718D01*
X0138500Y0119917D02*
X0147087Y0119917D01*
X0148286Y0121115D02*
X0138500Y0121115D01*
X0138500Y0122314D02*
X0149484Y0122314D01*
X0148658Y0123512D02*
X0138500Y0123512D01*
X0138500Y0124711D02*
X0147459Y0124711D01*
X0146700Y0125909D02*
X0138500Y0125909D01*
X0138500Y0127108D02*
X0146700Y0127108D01*
X0146700Y0128306D02*
X0138500Y0128306D01*
X0138500Y0129505D02*
X0146700Y0129505D01*
X0147874Y0130703D02*
X0138500Y0130703D01*
X0138500Y0131902D02*
X0148571Y0131902D01*
X0147373Y0133101D02*
X0138500Y0133101D01*
X0138500Y0134299D02*
X0146174Y0134299D01*
X0145500Y0135498D02*
X0138500Y0135498D01*
X0138500Y0136696D02*
X0145500Y0136696D01*
X0145500Y0139093D02*
X0138500Y0139093D01*
X0138500Y0137895D02*
X0151200Y0137895D01*
X0146963Y0141490D02*
X0140777Y0141490D01*
X0139579Y0140292D02*
X0145765Y0140292D01*
X0148162Y0142689D02*
X0141976Y0142689D01*
X0143174Y0143887D02*
X0148283Y0143887D01*
X0147085Y0145086D02*
X0144373Y0145086D01*
X0154917Y0143887D02*
X0158283Y0143887D01*
X0157085Y0145086D02*
X0156115Y0145086D01*
X0156500Y0146284D02*
X0156700Y0146284D01*
X0156700Y0147483D02*
X0156500Y0147483D01*
X0156500Y0148681D02*
X0156700Y0148681D01*
X0156533Y0149880D02*
X0156150Y0149880D01*
X0158312Y0153475D02*
X0158695Y0153475D01*
X0157497Y0154674D02*
X0155703Y0154674D01*
X0156500Y0155872D02*
X0156700Y0155872D01*
X0156700Y0157071D02*
X0156500Y0157071D01*
X0156500Y0158269D02*
X0156700Y0158269D01*
X0156700Y0159468D02*
X0156500Y0159468D01*
X0158724Y0163063D02*
X0159107Y0163063D01*
X0157909Y0164262D02*
X0157525Y0164262D01*
X0156710Y0165460D02*
X0156490Y0165460D01*
X0156500Y0166659D02*
X0156700Y0166659D01*
X0156700Y0167857D02*
X0156500Y0167857D01*
X0156500Y0169056D02*
X0156700Y0169056D01*
X0157425Y0170254D02*
X0155775Y0170254D01*
X0147425Y0170254D02*
X0132041Y0170254D01*
X0130843Y0169056D02*
X0146700Y0169056D01*
X0146700Y0167857D02*
X0129644Y0167857D01*
X0128446Y0166659D02*
X0146700Y0166659D01*
X0146710Y0165460D02*
X0127247Y0165460D01*
X0126049Y0164262D02*
X0143175Y0164262D01*
X0141976Y0163063D02*
X0124850Y0163063D01*
X0123652Y0161865D02*
X0140778Y0161865D01*
X0139579Y0160666D02*
X0122453Y0160666D01*
X0121400Y0159468D02*
X0138381Y0159468D01*
X0137182Y0158269D02*
X0121121Y0158269D01*
X0120052Y0157071D02*
X0135984Y0157071D01*
X0124270Y0167857D02*
X0103500Y0167857D01*
X0103500Y0166659D02*
X0123072Y0166659D01*
X0121873Y0165460D02*
X0103500Y0165460D01*
X0103500Y0164262D02*
X0120675Y0164262D01*
X0119476Y0163063D02*
X0103500Y0163063D01*
X0103500Y0161865D02*
X0117005Y0161865D01*
X0116052Y0160666D02*
X0103500Y0160666D01*
X0103500Y0159468D02*
X0115800Y0159468D01*
X0125469Y0169056D02*
X0103500Y0169056D01*
X0104541Y0170254D02*
X0126667Y0170254D01*
X0127866Y0171453D02*
X0105740Y0171453D01*
X0106938Y0172651D02*
X0129064Y0172651D01*
X0130263Y0173850D02*
X0108137Y0173850D01*
X0109335Y0175048D02*
X0147122Y0175048D01*
X0146700Y0176247D02*
X0110534Y0176247D01*
X0111732Y0177445D02*
X0146700Y0177445D01*
X0146700Y0178644D02*
X0112931Y0178644D01*
X0114129Y0179842D02*
X0147013Y0179842D01*
X0145372Y0181041D02*
X0115328Y0181041D01*
X0116526Y0182239D02*
X0144174Y0182239D01*
X0147387Y0184400D02*
X0146000Y0185787D01*
X0144887Y0186900D01*
X0115813Y0186900D01*
X0112200Y0183287D01*
X0110950Y0182037D01*
X0099700Y0170787D01*
X0099700Y0156424D01*
X0099134Y0156190D01*
X0098500Y0155556D01*
X0098500Y0171713D01*
X0117387Y0190600D01*
X0147770Y0190600D01*
X0146700Y0189530D01*
X0146700Y0185470D01*
X0147770Y0184400D01*
X0147387Y0184400D01*
X0147534Y0184637D02*
X0147150Y0184637D01*
X0146700Y0185835D02*
X0145952Y0185835D01*
X0146700Y0187034D02*
X0113821Y0187034D01*
X0114748Y0185835D02*
X0112622Y0185835D01*
X0113550Y0184637D02*
X0111423Y0184637D01*
X0112351Y0183438D02*
X0110225Y0183438D01*
X0111152Y0182239D02*
X0109026Y0182239D01*
X0109954Y0181041D02*
X0107828Y0181041D01*
X0108755Y0179842D02*
X0106629Y0179842D01*
X0107557Y0178644D02*
X0105431Y0178644D01*
X0106358Y0177445D02*
X0104232Y0177445D01*
X0105160Y0176247D02*
X0103034Y0176247D01*
X0103961Y0175048D02*
X0101835Y0175048D01*
X0102763Y0173850D02*
X0100637Y0173850D01*
X0101564Y0172651D02*
X0099438Y0172651D01*
X0100366Y0171453D02*
X0098500Y0171453D01*
X0098500Y0170254D02*
X0099700Y0170254D01*
X0099700Y0169056D02*
X0098500Y0169056D01*
X0098500Y0167857D02*
X0099700Y0167857D01*
X0099700Y0166659D02*
X0098500Y0166659D01*
X0098500Y0165460D02*
X0099700Y0165460D01*
X0099700Y0164262D02*
X0098500Y0164262D01*
X0098500Y0163063D02*
X0099700Y0163063D01*
X0099700Y0161865D02*
X0098500Y0161865D01*
X0098500Y0160666D02*
X0099700Y0160666D01*
X0099700Y0159468D02*
X0098500Y0159468D01*
X0098500Y0158269D02*
X0099700Y0158269D01*
X0099700Y0157071D02*
X0098500Y0157071D01*
X0098500Y0155872D02*
X0098817Y0155872D01*
X0087200Y0155872D02*
X0066500Y0155872D01*
X0066500Y0157071D02*
X0087200Y0157071D01*
X0087200Y0158269D02*
X0066500Y0158269D01*
X0066500Y0159468D02*
X0086945Y0159468D01*
X0085747Y0160666D02*
X0065363Y0160666D01*
X0064165Y0161865D02*
X0084548Y0161865D01*
X0083350Y0163063D02*
X0064093Y0163063D01*
X0065291Y0164262D02*
X0082151Y0164262D01*
X0080953Y0165460D02*
X0066490Y0165460D01*
X0066500Y0166659D02*
X0079754Y0166659D01*
X0078556Y0167857D02*
X0066500Y0167857D01*
X0066500Y0169056D02*
X0077357Y0169056D01*
X0076159Y0170254D02*
X0065775Y0170254D01*
X0064577Y0171453D02*
X0074960Y0171453D01*
X0073762Y0172651D02*
X0063681Y0172651D01*
X0064880Y0173850D02*
X0072563Y0173850D01*
X0071365Y0175048D02*
X0066078Y0175048D01*
X0065703Y0154674D02*
X0087200Y0154674D01*
X0087200Y0153475D02*
X0064505Y0153475D01*
X0063753Y0152277D02*
X0087200Y0152277D01*
X0087200Y0151078D02*
X0064951Y0151078D01*
X0066150Y0149880D02*
X0087200Y0149880D01*
X0087200Y0148681D02*
X0066500Y0148681D01*
X0066500Y0147483D02*
X0087200Y0147483D01*
X0087200Y0146284D02*
X0066500Y0146284D01*
X0066115Y0145086D02*
X0087200Y0145086D01*
X0087200Y0143887D02*
X0064917Y0143887D01*
X0063718Y0142689D02*
X0087200Y0142689D01*
X0087423Y0141490D02*
X0064540Y0141490D01*
X0065738Y0140292D02*
X0088621Y0140292D01*
X0089820Y0139093D02*
X0066500Y0139093D01*
X0066500Y0137895D02*
X0091018Y0137895D01*
X0098775Y0116321D02*
X0066500Y0116321D01*
X0066152Y0115123D02*
X0097599Y0115123D01*
X0097103Y0113924D02*
X0064954Y0113924D01*
X0112853Y0107932D02*
X0129700Y0107932D01*
X0129700Y0109130D02*
X0114877Y0109130D01*
X0115788Y0110329D02*
X0129700Y0110329D01*
X0129700Y0111527D02*
X0116284Y0111527D01*
X0116300Y0112726D02*
X0129700Y0112726D01*
X0129700Y0113924D02*
X0116097Y0113924D01*
X0115601Y0115123D02*
X0129700Y0115123D01*
X0129700Y0116321D02*
X0114425Y0116321D01*
X0113662Y0106733D02*
X0129700Y0106733D01*
X0129448Y0105535D02*
X0115212Y0105535D01*
X0138249Y0083962D02*
X0150587Y0083962D01*
X0151785Y0085160D02*
X0139447Y0085160D01*
X0140646Y0086359D02*
X0152984Y0086359D01*
X0154182Y0087557D02*
X0141844Y0087557D01*
X0143043Y0088756D02*
X0155381Y0088756D01*
X0156579Y0089954D02*
X0143500Y0089954D01*
X0143500Y0091153D02*
X0157778Y0091153D01*
X0158976Y0092351D02*
X0143500Y0092351D01*
X0143500Y0093550D02*
X0160175Y0093550D01*
X0161373Y0094748D02*
X0143500Y0094748D01*
X0143500Y0095947D02*
X0162572Y0095947D01*
X0163770Y0097145D02*
X0143500Y0097145D01*
X0143500Y0098344D02*
X0164969Y0098344D01*
X0166167Y0099542D02*
X0143500Y0099542D01*
X0143500Y0100741D02*
X0167366Y0100741D01*
X0168564Y0101939D02*
X0143500Y0101939D01*
X0143500Y0103138D02*
X0149033Y0103138D01*
X0149570Y0102600D02*
X0146700Y0105470D01*
X0146700Y0109530D01*
X0149570Y0112400D01*
X0153630Y0112400D01*
X0156500Y0109530D01*
X0156500Y0105470D01*
X0153630Y0102600D01*
X0149570Y0102600D01*
X0147834Y0104336D02*
X0143500Y0104336D01*
X0143500Y0105535D02*
X0146700Y0105535D01*
X0146700Y0106733D02*
X0143520Y0106733D01*
X0144719Y0107932D02*
X0146700Y0107932D01*
X0146700Y0109130D02*
X0145917Y0109130D01*
X0147116Y0110329D02*
X0147499Y0110329D01*
X0148314Y0111527D02*
X0148698Y0111527D01*
X0153755Y0112726D02*
X0159445Y0112726D01*
X0159570Y0112600D02*
X0163630Y0112600D01*
X0166500Y0115470D01*
X0166500Y0119530D01*
X0163630Y0122400D01*
X0159570Y0122400D01*
X0156700Y0119530D01*
X0156700Y0115470D01*
X0159570Y0112600D01*
X0159570Y0112400D02*
X0156700Y0109530D01*
X0156700Y0105470D01*
X0159570Y0102600D01*
X0163630Y0102600D01*
X0166500Y0105470D01*
X0166500Y0109530D01*
X0163630Y0112400D01*
X0159570Y0112400D01*
X0158698Y0111527D02*
X0154502Y0111527D01*
X0155701Y0110329D02*
X0157499Y0110329D01*
X0156700Y0109130D02*
X0156500Y0109130D01*
X0156500Y0107932D02*
X0156700Y0107932D01*
X0156700Y0106733D02*
X0156500Y0106733D01*
X0156500Y0105535D02*
X0156700Y0105535D01*
X0157834Y0104336D02*
X0155366Y0104336D01*
X0154167Y0103138D02*
X0159033Y0103138D01*
X0164167Y0103138D02*
X0169763Y0103138D01*
X0169850Y0104336D02*
X0165366Y0104336D01*
X0166500Y0105535D02*
X0169850Y0105535D01*
X0169850Y0106733D02*
X0166500Y0106733D01*
X0166500Y0107932D02*
X0169850Y0107932D01*
X0169850Y0109130D02*
X0166500Y0109130D01*
X0165701Y0110329D02*
X0169850Y0110329D01*
X0169850Y0111527D02*
X0164502Y0111527D01*
X0163755Y0112726D02*
X0169850Y0112726D01*
X0169850Y0113924D02*
X0164954Y0113924D01*
X0166152Y0115123D02*
X0169850Y0115123D01*
X0169850Y0116321D02*
X0166500Y0116321D01*
X0166500Y0117520D02*
X0169850Y0117520D01*
X0169850Y0118718D02*
X0166500Y0118718D01*
X0166113Y0119917D02*
X0169850Y0119917D01*
X0169850Y0121115D02*
X0164914Y0121115D01*
X0163716Y0122314D02*
X0169850Y0122314D01*
X0169850Y0123512D02*
X0164542Y0123512D01*
X0163630Y0122600D02*
X0166500Y0125470D01*
X0166500Y0129530D01*
X0163630Y0132400D01*
X0159570Y0132400D01*
X0156700Y0129530D01*
X0156700Y0125470D01*
X0159570Y0122600D01*
X0163630Y0122600D01*
X0165741Y0124711D02*
X0169850Y0124711D01*
X0169850Y0125909D02*
X0166500Y0125909D01*
X0166500Y0127108D02*
X0169850Y0127108D01*
X0169850Y0128306D02*
X0166500Y0128306D01*
X0166500Y0129505D02*
X0169850Y0129505D01*
X0169850Y0130703D02*
X0165326Y0130703D01*
X0164128Y0131902D02*
X0169850Y0131902D01*
X0169850Y0133101D02*
X0164130Y0133101D01*
X0165329Y0134299D02*
X0169850Y0134299D01*
X0169850Y0135498D02*
X0166500Y0135498D01*
X0166500Y0136696D02*
X0169850Y0136696D01*
X0169850Y0137895D02*
X0166500Y0137895D01*
X0166500Y0139093D02*
X0169850Y0139093D01*
X0169850Y0140292D02*
X0165738Y0140292D01*
X0164540Y0141490D02*
X0169850Y0141490D01*
X0169850Y0142689D02*
X0163718Y0142689D01*
X0164917Y0143887D02*
X0169850Y0143887D01*
X0169850Y0145086D02*
X0166115Y0145086D01*
X0166500Y0146284D02*
X0169850Y0146284D01*
X0169850Y0147483D02*
X0166500Y0147483D01*
X0166500Y0148681D02*
X0169850Y0148681D01*
X0169850Y0149880D02*
X0166150Y0149880D01*
X0164951Y0151078D02*
X0169850Y0151078D01*
X0169850Y0152277D02*
X0163753Y0152277D01*
X0164505Y0153475D02*
X0169850Y0153475D01*
X0169850Y0154674D02*
X0165703Y0154674D01*
X0166500Y0155872D02*
X0169850Y0155872D01*
X0169554Y0157071D02*
X0166500Y0157071D01*
X0166500Y0158269D02*
X0168356Y0158269D01*
X0167157Y0159468D02*
X0166500Y0159468D01*
X0165959Y0160666D02*
X0165363Y0160666D01*
X0164760Y0161865D02*
X0164165Y0161865D01*
X0167313Y0164262D02*
X0204450Y0164262D01*
X0204450Y0165460D02*
X0166490Y0165460D01*
X0166500Y0166659D02*
X0204450Y0166659D01*
X0204450Y0167857D02*
X0166500Y0167857D01*
X0166500Y0169056D02*
X0204450Y0169056D01*
X0204450Y0170254D02*
X0165775Y0170254D01*
X0168240Y0171453D02*
X0204450Y0171453D01*
X0204450Y0172651D02*
X0169438Y0172651D01*
X0168500Y0171713D02*
X0168500Y0171713D01*
X0170637Y0173850D02*
X0195158Y0173850D01*
X0196200Y0173850D02*
X0197000Y0173850D01*
X0197000Y0173700D02*
X0197096Y0173700D01*
X0198075Y0173855D01*
X0199018Y0174162D01*
X0199902Y0174612D01*
X0200704Y0175195D01*
X0201405Y0175896D01*
X0201988Y0176698D01*
X0202438Y0177582D01*
X0202745Y0178525D01*
X0202900Y0179504D01*
X0202900Y0179600D01*
X0197000Y0179600D01*
X0197000Y0173700D01*
X0198042Y0173850D02*
X0204450Y0173850D01*
X0204450Y0175048D02*
X0200503Y0175048D01*
X0201660Y0176247D02*
X0204450Y0176247D01*
X0204450Y0177445D02*
X0202369Y0177445D01*
X0202764Y0178644D02*
X0204450Y0178644D01*
X0204450Y0179842D02*
X0197000Y0179842D01*
X0197000Y0180400D02*
X0202900Y0180400D01*
X0202900Y0180496D01*
X0202745Y0181475D01*
X0202438Y0182418D01*
X0201988Y0183302D01*
X0201405Y0184104D01*
X0200704Y0184805D01*
X0200436Y0185000D01*
X0200704Y0185195D01*
X0201405Y0185896D01*
X0201988Y0186698D01*
X0202438Y0187582D01*
X0202745Y0188525D01*
X0202900Y0189504D01*
X0202900Y0189600D01*
X0197000Y0189600D01*
X0197000Y0180400D01*
X0197000Y0181041D02*
X0196200Y0181041D01*
X0196200Y0182239D02*
X0197000Y0182239D01*
X0197000Y0183438D02*
X0196200Y0183438D01*
X0196200Y0184637D02*
X0197000Y0184637D01*
X0197000Y0185835D02*
X0196200Y0185835D01*
X0196200Y0187034D02*
X0197000Y0187034D01*
X0197000Y0188232D02*
X0196200Y0188232D01*
X0196200Y0189431D02*
X0197000Y0189431D01*
X0197000Y0190400D02*
X0202900Y0190400D01*
X0202900Y0190496D01*
X0202745Y0191475D01*
X0202438Y0192418D01*
X0201988Y0193302D01*
X0201405Y0194104D01*
X0200704Y0194805D01*
X0199902Y0195388D01*
X0199018Y0195838D01*
X0198075Y0196145D01*
X0197096Y0196300D01*
X0197000Y0196300D01*
X0197000Y0190400D01*
X0197000Y0190629D02*
X0196200Y0190629D01*
X0196200Y0191828D02*
X0197000Y0191828D01*
X0197000Y0193026D02*
X0196200Y0193026D01*
X0196200Y0194225D02*
X0197000Y0194225D01*
X0197000Y0195423D02*
X0196200Y0195423D01*
X0199833Y0195423D02*
X0204450Y0195423D01*
X0204450Y0194225D02*
X0201285Y0194225D01*
X0202129Y0193026D02*
X0204450Y0193026D01*
X0204450Y0191828D02*
X0202630Y0191828D01*
X0202879Y0190629D02*
X0204450Y0190629D01*
X0204450Y0189431D02*
X0202888Y0189431D01*
X0202650Y0188232D02*
X0204450Y0188232D01*
X0204450Y0187034D02*
X0202159Y0187034D01*
X0201345Y0185835D02*
X0204450Y0185835D01*
X0204450Y0184637D02*
X0200873Y0184637D01*
X0201889Y0183438D02*
X0204450Y0183438D01*
X0204450Y0182239D02*
X0202497Y0182239D01*
X0202814Y0181041D02*
X0204450Y0181041D01*
X0197000Y0178644D02*
X0196200Y0178644D01*
X0196200Y0177445D02*
X0197000Y0177445D01*
X0197000Y0176247D02*
X0196200Y0176247D01*
X0196200Y0175048D02*
X0197000Y0175048D01*
X0192697Y0175048D02*
X0187973Y0175048D01*
X0190059Y0176247D02*
X0191540Y0176247D01*
X0185227Y0175048D02*
X0171835Y0175048D01*
X0173034Y0176247D02*
X0183141Y0176247D01*
X0182138Y0177445D02*
X0173500Y0177445D01*
X0173500Y0178644D02*
X0181641Y0178644D01*
X0181500Y0179842D02*
X0173500Y0179842D01*
X0173500Y0181041D02*
X0181511Y0181041D01*
X0182007Y0182239D02*
X0173500Y0182239D01*
X0173500Y0183438D02*
X0182826Y0183438D01*
X0184467Y0184637D02*
X0173923Y0184637D01*
X0175122Y0185835D02*
X0183552Y0185835D01*
X0182354Y0187034D02*
X0176321Y0187034D01*
X0173344Y0189431D02*
X0166500Y0189431D01*
X0166500Y0188232D02*
X0172145Y0188232D01*
X0170947Y0187034D02*
X0166500Y0187034D01*
X0166500Y0185835D02*
X0169748Y0185835D01*
X0169700Y0184637D02*
X0165666Y0184637D01*
X0164468Y0183438D02*
X0169700Y0183438D01*
X0169700Y0182239D02*
X0163790Y0182239D01*
X0164989Y0181041D02*
X0169700Y0181041D01*
X0169700Y0179842D02*
X0166187Y0179842D01*
X0166500Y0178644D02*
X0169700Y0178644D01*
X0168858Y0177445D02*
X0166500Y0177445D01*
X0166500Y0176247D02*
X0167660Y0176247D01*
X0166461Y0175048D02*
X0166078Y0175048D01*
X0158732Y0183438D02*
X0158349Y0183438D01*
X0157534Y0184637D02*
X0155666Y0184637D01*
X0156500Y0185835D02*
X0156700Y0185835D01*
X0156700Y0187034D02*
X0156500Y0187034D01*
X0156500Y0188232D02*
X0156700Y0188232D01*
X0156700Y0189431D02*
X0156500Y0189431D01*
X0164554Y0191828D02*
X0175741Y0191828D01*
X0174542Y0190629D02*
X0165401Y0190629D01*
X0165753Y0193026D02*
X0182414Y0193026D01*
X0183612Y0194225D02*
X0166951Y0194225D01*
X0167700Y0195423D02*
X0193367Y0195423D01*
X0191915Y0194225D02*
X0189588Y0194225D01*
X0190786Y0193026D02*
X0191071Y0193026D01*
X0202013Y0201416D02*
X0166311Y0201416D01*
X0167510Y0200217D02*
X0203225Y0200217D01*
X0203859Y0199019D02*
X0167700Y0199019D01*
X0167700Y0196622D02*
X0204491Y0196622D01*
X0204283Y0197820D02*
X0162000Y0197820D01*
X0156889Y0201416D02*
X0154614Y0201416D01*
X0146700Y0189431D02*
X0116218Y0189431D01*
X0115019Y0188232D02*
X0146700Y0188232D01*
X0170813Y0186900D02*
X0170813Y0186900D01*
X0168512Y0163063D02*
X0204450Y0163063D01*
X0204450Y0161865D02*
X0169710Y0161865D01*
X0170909Y0160666D02*
X0204450Y0160666D01*
X0204450Y0159468D02*
X0172107Y0159468D01*
X0173306Y0158269D02*
X0204450Y0158269D01*
X0204450Y0157071D02*
X0173350Y0157071D01*
X0173350Y0155872D02*
X0204450Y0155872D01*
X0204450Y0154674D02*
X0173350Y0154674D01*
X0173350Y0153475D02*
X0204450Y0153475D01*
X0204450Y0152277D02*
X0173350Y0152277D01*
X0173350Y0151078D02*
X0204450Y0151078D01*
X0204450Y0149880D02*
X0201220Y0149880D01*
X0203174Y0148681D02*
X0204450Y0148681D01*
X0204450Y0147483D02*
X0204246Y0147483D01*
X0204095Y0139093D02*
X0204450Y0139093D01*
X0204450Y0137895D02*
X0202919Y0137895D01*
X0204450Y0136696D02*
X0200721Y0136696D01*
X0204450Y0135498D02*
X0173350Y0135498D01*
X0173350Y0136696D02*
X0187479Y0136696D01*
X0188297Y0134704D02*
X0187407Y0134466D01*
X0186555Y0134113D01*
X0185757Y0133652D01*
X0185026Y0133091D01*
X0184375Y0132440D01*
X0183814Y0131709D01*
X0183353Y0130911D01*
X0183000Y0130060D01*
X0182762Y0129170D01*
X0182660Y0128395D01*
X0193500Y0128395D01*
X0193500Y0134824D01*
X0189210Y0134824D01*
X0188297Y0134704D01*
X0187004Y0134299D02*
X0173350Y0134299D01*
X0173350Y0133101D02*
X0185038Y0133101D01*
X0183962Y0131902D02*
X0173350Y0131902D01*
X0173350Y0130703D02*
X0183267Y0130703D01*
X0182852Y0129505D02*
X0173350Y0129505D01*
X0173350Y0128306D02*
X0193500Y0128306D01*
X0193500Y0127195D02*
X0182660Y0127195D01*
X0182762Y0126421D01*
X0183000Y0125531D01*
X0183353Y0124680D01*
X0183814Y0123882D01*
X0184375Y0123151D01*
X0185026Y0122499D01*
X0185757Y0121938D01*
X0186555Y0121478D01*
X0187407Y0121125D01*
X0188297Y0120886D01*
X0189210Y0120766D01*
X0193500Y0120766D01*
X0193500Y0127195D01*
X0193500Y0127108D02*
X0194700Y0127108D01*
X0194700Y0125909D02*
X0193500Y0125909D01*
X0193500Y0124711D02*
X0194700Y0124711D01*
X0194700Y0123512D02*
X0193500Y0123512D01*
X0193500Y0122314D02*
X0194700Y0122314D01*
X0194700Y0121115D02*
X0193500Y0121115D01*
X0188511Y0118034D02*
X0186369Y0117146D01*
X0184729Y0115507D01*
X0183842Y0113364D01*
X0183842Y0111045D01*
X0184729Y0108903D01*
X0186369Y0107263D01*
X0188511Y0106376D01*
X0199689Y0106376D01*
X0201831Y0107263D01*
X0203471Y0108903D01*
X0204358Y0111045D01*
X0204358Y0113364D01*
X0203471Y0115507D01*
X0201831Y0117146D01*
X0199689Y0118034D01*
X0188511Y0118034D01*
X0187271Y0117520D02*
X0173350Y0117520D01*
X0173350Y0118718D02*
X0204450Y0118718D01*
X0204450Y0117520D02*
X0200929Y0117520D01*
X0202656Y0116321D02*
X0204450Y0116321D01*
X0204450Y0115123D02*
X0203630Y0115123D01*
X0204126Y0113924D02*
X0204450Y0113924D01*
X0204450Y0112726D02*
X0204358Y0112726D01*
X0204358Y0111527D02*
X0204450Y0111527D01*
X0204450Y0110329D02*
X0204062Y0110329D01*
X0204450Y0109130D02*
X0203565Y0109130D01*
X0204450Y0107932D02*
X0202500Y0107932D01*
X0200552Y0106733D02*
X0204450Y0106733D01*
X0204450Y0105535D02*
X0173350Y0105535D01*
X0173350Y0106733D02*
X0187648Y0106733D01*
X0185700Y0107932D02*
X0173350Y0107932D01*
X0173350Y0109130D02*
X0184635Y0109130D01*
X0184138Y0110329D02*
X0173350Y0110329D01*
X0173350Y0111527D02*
X0183842Y0111527D01*
X0183842Y0112726D02*
X0173350Y0112726D01*
X0173350Y0113924D02*
X0184074Y0113924D01*
X0184570Y0115123D02*
X0173350Y0115123D01*
X0173350Y0116321D02*
X0185544Y0116321D01*
X0187442Y0121115D02*
X0173350Y0121115D01*
X0173350Y0119917D02*
X0204450Y0119917D01*
X0204450Y0121115D02*
X0200758Y0121115D01*
X0202932Y0122314D02*
X0204450Y0122314D01*
X0204450Y0123512D02*
X0204103Y0123512D01*
X0204238Y0131902D02*
X0204450Y0131902D01*
X0204450Y0133101D02*
X0203162Y0133101D01*
X0204450Y0134299D02*
X0201196Y0134299D01*
X0194700Y0134299D02*
X0193500Y0134299D01*
X0193500Y0133101D02*
X0194700Y0133101D01*
X0194700Y0131902D02*
X0193500Y0131902D01*
X0193500Y0130703D02*
X0194700Y0130703D01*
X0194700Y0129505D02*
X0193500Y0129505D01*
X0193500Y0136696D02*
X0194700Y0136696D01*
X0194700Y0137895D02*
X0193500Y0137895D01*
X0193500Y0139093D02*
X0194700Y0139093D01*
X0194700Y0140292D02*
X0193500Y0140292D01*
X0193500Y0141490D02*
X0194700Y0141490D01*
X0194700Y0142689D02*
X0193500Y0142689D01*
X0193500Y0143887D02*
X0173350Y0143887D01*
X0173350Y0142689D02*
X0182673Y0142689D01*
X0182902Y0141490D02*
X0173350Y0141490D01*
X0173350Y0140292D02*
X0183344Y0140292D01*
X0184105Y0139093D02*
X0173350Y0139093D01*
X0173350Y0137895D02*
X0185281Y0137895D01*
X0182849Y0145086D02*
X0173350Y0145086D01*
X0173350Y0146284D02*
X0183263Y0146284D01*
X0183954Y0147483D02*
X0173350Y0147483D01*
X0173350Y0148681D02*
X0185026Y0148681D01*
X0186980Y0149880D02*
X0173350Y0149880D01*
X0159482Y0142689D02*
X0155038Y0142689D01*
X0156237Y0141490D02*
X0158660Y0141490D01*
X0157462Y0140292D02*
X0157435Y0140292D01*
X0157026Y0134299D02*
X0157871Y0134299D01*
X0159070Y0133101D02*
X0155827Y0133101D01*
X0154629Y0131902D02*
X0159072Y0131902D01*
X0157874Y0130703D02*
X0155326Y0130703D01*
X0156500Y0129505D02*
X0156700Y0129505D01*
X0156700Y0128306D02*
X0156500Y0128306D01*
X0156500Y0127108D02*
X0156700Y0127108D01*
X0156700Y0125909D02*
X0156500Y0125909D01*
X0155741Y0124711D02*
X0157459Y0124711D01*
X0158658Y0123512D02*
X0154542Y0123512D01*
X0153716Y0122314D02*
X0159484Y0122314D01*
X0158286Y0121115D02*
X0154914Y0121115D01*
X0156113Y0119917D02*
X0157087Y0119917D01*
X0156700Y0118718D02*
X0156500Y0118718D01*
X0156500Y0117520D02*
X0156700Y0117520D01*
X0156700Y0116321D02*
X0156500Y0116321D01*
X0156152Y0115123D02*
X0157048Y0115123D01*
X0158246Y0113924D02*
X0154954Y0113924D01*
X0169919Y0098344D02*
X0184078Y0098344D01*
X0183842Y0097774D02*
X0183842Y0095455D01*
X0184729Y0093312D01*
X0186369Y0091672D01*
X0188511Y0090785D01*
X0199689Y0090785D01*
X0201831Y0091672D01*
X0203471Y0093312D01*
X0204358Y0095455D01*
X0204358Y0097774D01*
X0203471Y0099916D01*
X0201831Y0101556D01*
X0199689Y0102443D01*
X0188511Y0102443D01*
X0186369Y0101556D01*
X0184729Y0099916D01*
X0183842Y0097774D01*
X0183842Y0097145D02*
X0168720Y0097145D01*
X0167522Y0095947D02*
X0183842Y0095947D01*
X0184134Y0094748D02*
X0166323Y0094748D01*
X0165125Y0093550D02*
X0184631Y0093550D01*
X0185690Y0092351D02*
X0163926Y0092351D01*
X0162727Y0091153D02*
X0187624Y0091153D01*
X0188086Y0084600D02*
X0186211Y0083824D01*
X0184776Y0082389D01*
X0184000Y0080514D01*
X0184000Y0078486D01*
X0184776Y0076611D01*
X0186211Y0075176D01*
X0188086Y0074400D01*
X0190114Y0074400D01*
X0191989Y0075176D01*
X0193424Y0076611D01*
X0194100Y0078244D01*
X0194776Y0076611D01*
X0196211Y0075176D01*
X0198086Y0074400D01*
X0200114Y0074400D01*
X0201989Y0075176D01*
X0203424Y0076611D01*
X0204200Y0078486D01*
X0204200Y0080514D01*
X0203424Y0082389D01*
X0201989Y0083824D01*
X0200114Y0084600D01*
X0198086Y0084600D01*
X0196211Y0083824D01*
X0194776Y0082389D01*
X0194100Y0080756D01*
X0193424Y0082389D01*
X0191989Y0083824D01*
X0190114Y0084600D01*
X0188086Y0084600D01*
X0186544Y0083962D02*
X0155536Y0083962D01*
X0156735Y0085160D02*
X0204450Y0085160D01*
X0204450Y0083962D02*
X0201656Y0083962D01*
X0203049Y0082763D02*
X0204450Y0082763D01*
X0204450Y0081565D02*
X0203765Y0081565D01*
X0204200Y0080366D02*
X0204450Y0080366D01*
X0204450Y0079168D02*
X0204200Y0079168D01*
X0203986Y0077969D02*
X0204450Y0077969D01*
X0204450Y0076770D02*
X0203490Y0076770D01*
X0204450Y0075572D02*
X0202384Y0075572D01*
X0204450Y0074373D02*
X0145948Y0074373D01*
X0144750Y0073175D02*
X0204450Y0073175D01*
X0204450Y0071976D02*
X0189245Y0071976D01*
X0190711Y0070778D02*
X0204450Y0070778D01*
X0195816Y0075572D02*
X0192384Y0075572D01*
X0193490Y0076770D02*
X0194710Y0076770D01*
X0194214Y0077969D02*
X0193986Y0077969D01*
X0193765Y0081565D02*
X0194435Y0081565D01*
X0195151Y0082763D02*
X0193049Y0082763D01*
X0191656Y0083962D02*
X0196544Y0083962D01*
X0200576Y0091153D02*
X0204450Y0091153D01*
X0204450Y0092351D02*
X0202510Y0092351D01*
X0203569Y0093550D02*
X0204450Y0093550D01*
X0204450Y0094748D02*
X0204066Y0094748D01*
X0204358Y0095947D02*
X0204450Y0095947D01*
X0204450Y0097145D02*
X0204358Y0097145D01*
X0204450Y0098344D02*
X0204122Y0098344D01*
X0204450Y0099542D02*
X0203626Y0099542D01*
X0204450Y0100741D02*
X0202646Y0100741D01*
X0200906Y0101939D02*
X0204450Y0101939D01*
X0204450Y0103138D02*
X0173350Y0103138D01*
X0173350Y0104336D02*
X0204450Y0104336D01*
X0204450Y0089954D02*
X0161529Y0089954D01*
X0160330Y0088756D02*
X0204450Y0088756D01*
X0204450Y0087557D02*
X0159132Y0087557D01*
X0157933Y0086359D02*
X0204450Y0086359D01*
X0185816Y0075572D02*
X0147147Y0075572D01*
X0148345Y0076770D02*
X0184710Y0076770D01*
X0184214Y0077969D02*
X0149544Y0077969D01*
X0150742Y0079168D02*
X0184000Y0079168D01*
X0184000Y0080366D02*
X0151941Y0080366D01*
X0153139Y0081565D02*
X0184435Y0081565D01*
X0185151Y0082763D02*
X0154338Y0082763D01*
X0163955Y0071976D02*
X0144245Y0071976D01*
X0145711Y0070778D02*
X0162489Y0070778D01*
X0162794Y0071306D02*
X0162794Y0071306D01*
X0162794Y0071306D01*
X0171117Y0099542D02*
X0184574Y0099542D01*
X0185554Y0100741D02*
X0172316Y0100741D01*
X0173350Y0101939D02*
X0187294Y0101939D01*
X0185268Y0122314D02*
X0173350Y0122314D01*
X0173350Y0123512D02*
X0184097Y0123512D01*
X0183340Y0124711D02*
X0173350Y0124711D01*
X0173350Y0125909D02*
X0182899Y0125909D01*
X0182672Y0127108D02*
X0173350Y0127108D01*
X0193500Y0145086D02*
X0194700Y0145086D01*
X0194700Y0146284D02*
X0193500Y0146284D01*
X0193500Y0147483D02*
X0194700Y0147483D01*
X0194700Y0148681D02*
X0193500Y0148681D01*
X0193500Y0149880D02*
X0194700Y0149880D01*
X0127200Y0143887D02*
X0117353Y0143887D01*
D29*
X0129100Y0158000D03*
X0118600Y0159500D03*
X0112100Y0168000D03*
X0089600Y0167500D03*
X0084600Y0152500D03*
X0075100Y0163500D03*
X0077100Y0178500D03*
X0085600Y0186000D03*
X0077100Y0200500D03*
X0042600Y0186000D03*
X0036600Y0175000D03*
X0023600Y0196000D03*
X0011600Y0182500D03*
X0036100Y0146000D03*
X0044600Y0133500D03*
X0025100Y0107000D03*
X0016600Y0090500D03*
X0043100Y0091000D03*
X0056600Y0097500D03*
X0083600Y0089500D03*
X0091100Y0117500D03*
X0082100Y0127500D03*
X0091100Y0128000D03*
X0078600Y0140500D03*
X0072100Y0137000D03*
X0123100Y0110000D03*
X0124600Y0098500D03*
X0135600Y0091500D03*
X0143100Y0084000D03*
X0141600Y0134000D03*
X0171600Y0168000D03*
X0186600Y0163000D03*
X0179100Y0197500D03*
X0142100Y0189000D03*
X0012100Y0128500D03*
D30*
X0012411Y0013000D02*
X0090682Y0013000D01*
X0092100Y0012813D02*
X0092100Y0012050D01*
X0094100Y0012550D02*
X0094100Y0012550D01*
X0099910Y0013315D01*
X0099910Y0013315D01*
X0105325Y0015558D01*
X0109975Y0019125D01*
X0113542Y0023775D01*
X0115785Y0029190D01*
X0116550Y0035000D01*
X0115785Y0040810D01*
X0115785Y0040810D01*
X0113542Y0046225D01*
X0109975Y0050875D01*
X0109975Y0050875D01*
X0109975Y0050875D01*
X0105325Y0054442D01*
X0099910Y0056685D01*
X0096150Y0057180D01*
X0096150Y0067500D01*
X0097444Y0067500D01*
X0097867Y0066767D01*
X0097867Y0066767D01*
X0097867Y0066767D01*
X0099207Y0065994D01*
X0099251Y0065950D01*
X0143949Y0065950D01*
X0143993Y0065994D01*
X0145333Y0066767D01*
X0145333Y0066767D01*
X0145333Y0066767D01*
X0145756Y0067500D01*
X0162444Y0067500D01*
X0162867Y0066767D01*
X0162867Y0066767D01*
X0162867Y0066767D01*
X0164207Y0065994D01*
X0164251Y0065950D01*
X0188949Y0065950D01*
X0188993Y0065994D01*
X0190333Y0066767D01*
X0190756Y0067500D01*
X0204550Y0067500D01*
X0204550Y0015000D01*
X0204493Y0014424D01*
X0204053Y0013361D01*
X0203239Y0012547D01*
X0202176Y0012107D01*
X0201600Y0012050D01*
X0014415Y0012050D01*
X0013369Y0012401D01*
X0011178Y0013771D01*
X0009519Y0015751D01*
X0008553Y0018147D01*
X0008374Y0020725D01*
X0008505Y0021506D01*
X0008650Y0021651D01*
X0008650Y0022248D01*
X0008795Y0022827D01*
X0008650Y0023068D01*
X0008650Y0067500D01*
X0009944Y0067500D01*
X0010367Y0066767D01*
X0010367Y0066767D01*
X0010367Y0066767D01*
X0011707Y0065994D01*
X0011751Y0065950D01*
X0017688Y0065950D01*
X0016938Y0065200D01*
X0015595Y0062874D01*
X0014900Y0060280D01*
X0014900Y0057594D01*
X0015595Y0055000D01*
X0016938Y0052674D01*
X0018837Y0050775D01*
X0021163Y0049432D01*
X0023757Y0048737D01*
X0026443Y0048737D01*
X0029037Y0049432D01*
X0031363Y0050775D01*
X0033262Y0052674D01*
X0034605Y0055000D01*
X0035300Y0057594D01*
X0035300Y0060280D01*
X0034605Y0062874D01*
X0033262Y0065200D01*
X0032512Y0065950D01*
X0041449Y0065950D01*
X0041493Y0065994D01*
X0042833Y0066767D01*
X0042833Y0066767D01*
X0042833Y0066767D01*
X0043256Y0067500D01*
X0054944Y0067500D01*
X0055367Y0066767D01*
X0056707Y0065994D01*
X0056751Y0065950D01*
X0088949Y0065950D01*
X0088993Y0065994D01*
X0090333Y0066767D01*
X0090333Y0066767D01*
X0090333Y0066767D01*
X0090756Y0067500D01*
X0092050Y0067500D01*
X0092050Y0057180D01*
X0088290Y0056685D01*
X0088290Y0056685D01*
X0082875Y0054442D01*
X0078225Y0050875D01*
X0074658Y0046225D01*
X0072415Y0040810D01*
X0071650Y0035000D01*
X0071650Y0035000D01*
X0072415Y0029190D01*
X0072415Y0029190D01*
X0074658Y0023775D01*
X0078225Y0019125D01*
X0078225Y0019125D01*
X0078225Y0019125D01*
X0082875Y0015558D01*
X0088290Y0013315D01*
X0094100Y0012550D01*
X0096600Y0012879D02*
X0096600Y0012050D01*
X0097518Y0013000D02*
X0203692Y0013000D01*
X0200100Y0012050D02*
X0200100Y0067500D01*
X0204550Y0067000D02*
X0190467Y0067000D01*
X0190333Y0066767D02*
X0190333Y0066767D01*
X0191100Y0067500D02*
X0191100Y0044256D01*
X0190856Y0044500D02*
X0204550Y0044500D01*
X0204550Y0040000D02*
X0192705Y0040000D01*
X0192705Y0041013D02*
X0192705Y0037987D01*
X0191548Y0035192D01*
X0189408Y0033052D01*
X0186613Y0031894D01*
X0183587Y0031894D01*
X0180792Y0033052D01*
X0178652Y0035192D01*
X0177494Y0037987D01*
X0177494Y0041013D01*
X0178652Y0043808D01*
X0180792Y0045948D01*
X0183587Y0047105D01*
X0186613Y0047105D01*
X0189408Y0045948D01*
X0191548Y0043808D01*
X0192705Y0041013D01*
X0191675Y0035500D02*
X0204550Y0035500D01*
X0204550Y0031000D02*
X0116023Y0031000D01*
X0116550Y0035000D02*
X0116550Y0035000D01*
X0116484Y0035500D02*
X0145223Y0035500D01*
X0145065Y0035774D02*
X0145616Y0034820D01*
X0146287Y0033946D01*
X0147066Y0033167D01*
X0147940Y0032496D01*
X0148894Y0031945D01*
X0149912Y0031523D01*
X0150976Y0031238D01*
X0152069Y0031094D01*
X0152120Y0031094D01*
X0152120Y0039000D01*
X0153120Y0039000D01*
X0153120Y0040000D01*
X0161025Y0040000D01*
X0177494Y0040000D01*
X0177600Y0041268D02*
X0177600Y0065950D01*
X0173100Y0065950D02*
X0173100Y0012050D01*
X0168600Y0012050D02*
X0168600Y0065950D01*
X0164100Y0066056D02*
X0164100Y0012050D01*
X0159600Y0012050D02*
X0159600Y0034789D01*
X0159624Y0034820D02*
X0160175Y0035774D01*
X0160596Y0036792D01*
X0160881Y0037857D01*
X0161025Y0038949D01*
X0161025Y0039000D01*
X0153120Y0039000D01*
X0153120Y0031094D01*
X0153171Y0031094D01*
X0154263Y0031238D01*
X0155327Y0031523D01*
X0156345Y0031945D01*
X0157300Y0032496D01*
X0158174Y0033167D01*
X0158953Y0033946D01*
X0159624Y0034820D01*
X0160016Y0035500D02*
X0178525Y0035500D01*
X0177600Y0037732D02*
X0177600Y0012050D01*
X0182100Y0012050D02*
X0182100Y0032510D01*
X0186600Y0031894D02*
X0186600Y0012050D01*
X0191100Y0012050D02*
X0191100Y0034744D01*
X0182100Y0046490D02*
X0182100Y0065950D01*
X0186600Y0065950D02*
X0186600Y0047105D01*
X0179344Y0044500D02*
X0159378Y0044500D01*
X0159600Y0044211D02*
X0159600Y0067500D01*
X0162733Y0067000D02*
X0145467Y0067000D01*
X0146100Y0067500D02*
X0146100Y0044811D01*
X0146287Y0045054D02*
X0145616Y0044180D01*
X0145065Y0043226D01*
X0144643Y0042208D01*
X0144358Y0041143D01*
X0144214Y0040051D01*
X0144214Y0040000D01*
X0115892Y0040000D01*
X0114600Y0043671D02*
X0114600Y0065950D01*
X0110100Y0065950D02*
X0110100Y0050711D01*
X0111413Y0049000D02*
X0204550Y0049000D01*
X0204550Y0053500D02*
X0106553Y0053500D01*
X0105600Y0054231D02*
X0105600Y0065950D01*
X0101100Y0065950D02*
X0101100Y0056192D01*
X0099910Y0056685D02*
X0099910Y0056685D01*
X0096600Y0057121D02*
X0096600Y0067500D01*
X0096150Y0067000D02*
X0097733Y0067000D01*
X0096150Y0062500D02*
X0204550Y0062500D01*
X0204550Y0058000D02*
X0096150Y0058000D01*
X0092050Y0058000D02*
X0045340Y0058000D01*
X0045449Y0057988D02*
X0044222Y0058126D01*
X0044104Y0058126D01*
X0044104Y0047626D01*
X0054604Y0047626D01*
X0054604Y0047744D01*
X0054466Y0048971D01*
X0054191Y0050176D01*
X0053783Y0051342D01*
X0053247Y0052455D01*
X0052589Y0053501D01*
X0051819Y0054467D01*
X0050945Y0055341D01*
X0049979Y0056111D01*
X0048933Y0056769D01*
X0047820Y0057305D01*
X0046654Y0057713D01*
X0045449Y0057988D01*
X0044104Y0058000D02*
X0043104Y0058000D01*
X0043104Y0058126D02*
X0042986Y0058126D01*
X0041758Y0057988D01*
X0040554Y0057713D01*
X0039388Y0057305D01*
X0038275Y0056769D01*
X0037229Y0056111D01*
X0036263Y0055341D01*
X0035389Y0054467D01*
X0034619Y0053501D01*
X0033961Y0052455D01*
X0033425Y0051342D01*
X0033017Y0050176D01*
X0032742Y0048971D01*
X0032604Y0047744D01*
X0032604Y0047626D01*
X0043104Y0047626D01*
X0043104Y0058126D01*
X0042600Y0058082D02*
X0042600Y0066633D01*
X0042967Y0067000D02*
X0055233Y0067000D01*
X0055367Y0066767D02*
X0055367Y0066767D01*
X0056100Y0066344D02*
X0056100Y0012050D01*
X0051600Y0012050D02*
X0051600Y0039566D01*
X0051819Y0039785D02*
X0052589Y0040751D01*
X0053247Y0041797D01*
X0053783Y0042910D01*
X0054191Y0044076D01*
X0054466Y0045280D01*
X0054604Y0046508D01*
X0054604Y0046626D01*
X0044104Y0046626D01*
X0044104Y0047626D01*
X0043104Y0047626D01*
X0043104Y0046626D01*
X0044104Y0046626D01*
X0044104Y0036126D01*
X0044222Y0036126D01*
X0045449Y0036264D01*
X0046654Y0036539D01*
X0047820Y0036947D01*
X0048933Y0037483D01*
X0049979Y0038141D01*
X0050945Y0038911D01*
X0051819Y0039785D01*
X0051991Y0040000D02*
X0072308Y0040000D01*
X0072415Y0040810D02*
X0072415Y0040810D01*
X0073943Y0044500D02*
X0054287Y0044500D01*
X0051600Y0046626D02*
X0051600Y0047626D01*
X0054459Y0049000D02*
X0076787Y0049000D01*
X0078225Y0050875D02*
X0078225Y0050875D01*
X0078225Y0050875D01*
X0078600Y0051162D02*
X0078600Y0065950D01*
X0074100Y0065950D02*
X0074100Y0044879D01*
X0074658Y0046225D02*
X0074658Y0046225D01*
X0081647Y0053500D02*
X0052590Y0053500D01*
X0051600Y0054686D02*
X0051600Y0067500D01*
X0047100Y0067500D02*
X0047100Y0057557D01*
X0044104Y0053500D02*
X0043104Y0053500D01*
X0043104Y0049000D02*
X0044104Y0049000D01*
X0042600Y0047626D02*
X0042600Y0046626D01*
X0043104Y0046626D02*
X0032604Y0046626D01*
X0032604Y0046508D01*
X0032742Y0045280D01*
X0033017Y0044076D01*
X0033425Y0042910D01*
X0033902Y0041921D01*
X0033315Y0042656D01*
X0032441Y0043530D01*
X0031475Y0044300D01*
X0030429Y0044958D01*
X0029316Y0045494D01*
X0028150Y0045902D01*
X0026945Y0046177D01*
X0025718Y0046315D01*
X0025600Y0046315D01*
X0025600Y0035815D01*
X0024600Y0035815D01*
X0024600Y0048737D01*
X0022776Y0049000D02*
X0008650Y0049000D01*
X0008650Y0044500D02*
X0019042Y0044500D01*
X0018725Y0044300D02*
X0017759Y0043530D01*
X0016885Y0042656D01*
X0016115Y0041690D01*
X0015457Y0040644D01*
X0014921Y0039531D01*
X0014513Y0038365D01*
X0014238Y0037160D01*
X0014100Y0035933D01*
X0014100Y0035815D01*
X0024600Y0035815D01*
X0024600Y0046315D01*
X0024482Y0046315D01*
X0023255Y0046177D01*
X0022050Y0045902D01*
X0020884Y0045494D01*
X0019771Y0044958D01*
X0018725Y0044300D01*
X0020100Y0045116D02*
X0020100Y0050046D01*
X0016461Y0053500D02*
X0008650Y0053500D01*
X0008650Y0058000D02*
X0014900Y0058000D01*
X0015600Y0054991D02*
X0015600Y0040871D01*
X0015147Y0040000D02*
X0008650Y0040000D01*
X0008650Y0035500D02*
X0024600Y0035500D01*
X0024600Y0035815D02*
X0024600Y0034815D01*
X0014100Y0034815D01*
X0014100Y0034697D01*
X0014238Y0033469D01*
X0014513Y0032265D01*
X0014921Y0031099D01*
X0015457Y0029986D01*
X0016115Y0028940D01*
X0016885Y0027974D01*
X0017759Y0027100D01*
X0018725Y0026330D01*
X0019771Y0025672D01*
X0020884Y0025136D01*
X0022050Y0024728D01*
X0023255Y0024453D01*
X0024482Y0024315D01*
X0024600Y0024315D01*
X0024600Y0034815D01*
X0024600Y0012050D01*
X0020100Y0012050D02*
X0020100Y0025514D01*
X0018511Y0026500D02*
X0008650Y0026500D01*
X0008650Y0022000D02*
X0076020Y0022000D01*
X0074658Y0023775D02*
X0074658Y0023775D01*
X0074100Y0025121D02*
X0074100Y0012050D01*
X0069600Y0012050D02*
X0069600Y0065950D01*
X0065100Y0065950D02*
X0065100Y0012050D01*
X0060600Y0012050D02*
X0060600Y0065950D01*
X0047100Y0047626D02*
X0047100Y0046626D01*
X0044104Y0044500D02*
X0043104Y0044500D01*
X0043104Y0046626D02*
X0043104Y0036126D01*
X0042986Y0036126D01*
X0041758Y0036264D01*
X0040554Y0036539D01*
X0039388Y0036947D01*
X0038275Y0037483D01*
X0037229Y0038141D01*
X0036263Y0038911D01*
X0035389Y0039785D01*
X0034802Y0040520D01*
X0035279Y0039531D01*
X0035687Y0038365D01*
X0035962Y0037160D01*
X0036100Y0035933D01*
X0036100Y0035815D01*
X0025600Y0035815D01*
X0025600Y0034815D01*
X0036100Y0034815D01*
X0036100Y0034697D01*
X0035962Y0033469D01*
X0035687Y0032265D01*
X0035279Y0031099D01*
X0034743Y0029986D01*
X0034085Y0028940D01*
X0033315Y0027974D01*
X0032441Y0027100D01*
X0031475Y0026330D01*
X0030429Y0025672D01*
X0029316Y0025136D01*
X0028150Y0024728D01*
X0026945Y0024453D01*
X0025718Y0024315D01*
X0025600Y0024315D01*
X0025600Y0034815D01*
X0024600Y0034815D01*
X0025600Y0035500D02*
X0071716Y0035500D01*
X0072177Y0031000D02*
X0035231Y0031000D01*
X0033600Y0028331D02*
X0033600Y0012050D01*
X0029100Y0012050D02*
X0029100Y0025061D01*
X0031689Y0026500D02*
X0073529Y0026500D01*
X0078600Y0018838D02*
X0078600Y0012050D01*
X0083100Y0012050D02*
X0083100Y0015465D01*
X0082875Y0015558D02*
X0082875Y0015558D01*
X0080344Y0017500D02*
X0008814Y0017500D01*
X0011100Y0013865D02*
X0011100Y0066344D01*
X0010233Y0067000D02*
X0008650Y0067000D01*
X0008650Y0062500D02*
X0015495Y0062500D01*
X0015600Y0062883D02*
X0015600Y0065950D01*
X0029100Y0049468D02*
X0029100Y0045569D01*
X0031158Y0044500D02*
X0032920Y0044500D01*
X0033600Y0042547D02*
X0033600Y0042299D01*
X0035053Y0040000D02*
X0035217Y0040000D01*
X0038100Y0037593D02*
X0038100Y0012050D01*
X0042600Y0012050D02*
X0042600Y0036170D01*
X0043104Y0040000D02*
X0044104Y0040000D01*
X0047100Y0036695D02*
X0047100Y0012050D01*
X0025600Y0026500D02*
X0024600Y0026500D01*
X0024600Y0031000D02*
X0025600Y0031000D01*
X0029100Y0034815D02*
X0029100Y0035815D01*
X0033600Y0035815D02*
X0033600Y0034815D01*
X0025600Y0040000D02*
X0024600Y0040000D01*
X0024600Y0044500D02*
X0025600Y0044500D01*
X0027424Y0049000D02*
X0032749Y0049000D01*
X0033600Y0047626D02*
X0033600Y0046626D01*
X0038100Y0046626D02*
X0038100Y0047626D01*
X0033600Y0051705D02*
X0033600Y0053259D01*
X0033739Y0053500D02*
X0034618Y0053500D01*
X0035300Y0058000D02*
X0041868Y0058000D01*
X0038100Y0056659D02*
X0038100Y0065950D01*
X0033600Y0065950D02*
X0033600Y0064615D01*
X0034705Y0062500D02*
X0092050Y0062500D01*
X0092050Y0067000D02*
X0090467Y0067000D01*
X0087600Y0065950D02*
X0087600Y0056399D01*
X0083100Y0054535D02*
X0083100Y0065950D01*
X0082875Y0054442D02*
X0082875Y0054442D01*
X0105325Y0054442D02*
X0105325Y0054442D01*
X0113542Y0046225D02*
X0113542Y0046225D01*
X0114257Y0044500D02*
X0145861Y0044500D01*
X0146287Y0045054D02*
X0147066Y0045833D01*
X0147940Y0046504D01*
X0148894Y0047055D01*
X0149912Y0047477D01*
X0150976Y0047762D01*
X0152069Y0047905D01*
X0152120Y0047905D01*
X0152120Y0040000D01*
X0153120Y0040000D01*
X0153120Y0047905D01*
X0153171Y0047905D01*
X0154263Y0047762D01*
X0155327Y0047477D01*
X0156345Y0047055D01*
X0157300Y0046504D01*
X0158174Y0045833D01*
X0158953Y0045054D01*
X0159624Y0044180D01*
X0160175Y0043226D01*
X0160596Y0042208D01*
X0160881Y0041143D01*
X0161025Y0040051D01*
X0161025Y0040000D01*
X0159600Y0040000D02*
X0159600Y0039000D01*
X0155100Y0039000D02*
X0155100Y0040000D01*
X0152120Y0040000D02*
X0152120Y0039000D01*
X0144214Y0039000D01*
X0144214Y0038949D01*
X0144358Y0037857D01*
X0144643Y0036792D01*
X0145065Y0035774D01*
X0146100Y0034189D02*
X0146100Y0012050D01*
X0141600Y0012050D02*
X0141600Y0065950D01*
X0137100Y0065950D02*
X0137100Y0012050D01*
X0132600Y0012050D02*
X0132600Y0065950D01*
X0128100Y0065950D02*
X0128100Y0012050D01*
X0123600Y0012050D02*
X0123600Y0065950D01*
X0119100Y0065950D02*
X0119100Y0012050D01*
X0114600Y0012050D02*
X0114600Y0026329D01*
X0114671Y0026500D02*
X0204550Y0026500D01*
X0204550Y0022000D02*
X0112180Y0022000D01*
X0110100Y0019289D02*
X0110100Y0012050D01*
X0105600Y0012050D02*
X0105600Y0015769D01*
X0105325Y0015558D02*
X0105325Y0015558D01*
X0107856Y0017500D02*
X0204550Y0017500D01*
X0195600Y0012050D02*
X0195600Y0067500D01*
X0155100Y0067500D02*
X0155100Y0047537D01*
X0153120Y0044500D02*
X0152120Y0044500D01*
X0150600Y0047661D02*
X0150600Y0067500D01*
X0129100Y0077500D02*
X0141600Y0090000D01*
X0141600Y0107500D01*
X0151600Y0117500D01*
X0136600Y0100000D02*
X0136600Y0140000D01*
X0144100Y0147500D01*
X0151600Y0147500D01*
X0156600Y0152500D02*
X0144100Y0152500D01*
X0134100Y0142500D01*
X0134100Y0102500D01*
X0124100Y0092500D01*
X0111600Y0092500D01*
X0106600Y0087500D02*
X0124100Y0087500D01*
X0136600Y0100000D01*
X0131600Y0105000D02*
X0131600Y0145000D01*
X0144100Y0157500D01*
X0151600Y0157500D01*
X0156600Y0152500D02*
X0161600Y0147500D01*
X0161600Y0157500D02*
X0156600Y0162500D01*
X0144100Y0162500D01*
X0129100Y0147500D01*
X0129100Y0135000D01*
X0126600Y0132500D01*
X0111600Y0132500D01*
X0106600Y0140000D02*
X0106600Y0147500D01*
X0111600Y0152500D01*
X0118600Y0159500D02*
X0131600Y0172500D01*
X0166600Y0172500D01*
X0171600Y0177500D01*
X0171600Y0185000D01*
X0176600Y0190000D01*
X0186600Y0190000D01*
X0161600Y0187500D02*
X0156600Y0192500D01*
X0116600Y0192500D01*
X0096600Y0172500D01*
X0096600Y0147500D01*
X0101600Y0142500D01*
X0104100Y0137500D02*
X0094100Y0137500D01*
X0089100Y0142500D01*
X0089100Y0160000D01*
X0071600Y0177500D01*
X0061600Y0177500D01*
X0061600Y0187500D02*
X0056600Y0192500D01*
X0031600Y0192500D01*
X0030100Y0194000D01*
X0030100Y0198000D01*
X0034100Y0187500D02*
X0024100Y0187500D01*
X0017100Y0194500D01*
X0017100Y0197000D01*
X0034100Y0187500D02*
X0041600Y0180000D01*
X0041600Y0129063D01*
X0036537Y0124000D01*
X0034100Y0110000D02*
X0027100Y0110000D01*
X0023600Y0113500D01*
X0023600Y0144025D01*
X0029575Y0150000D01*
X0034100Y0150000D01*
X0036600Y0152500D01*
X0036600Y0175000D01*
X0029625Y0160000D02*
X0026600Y0160000D01*
X0019100Y0152500D01*
X0019100Y0107500D01*
X0024289Y0102311D01*
X0031600Y0102311D01*
X0037100Y0098000D02*
X0033537Y0094437D01*
X0031600Y0094437D01*
X0037100Y0098000D02*
X0037100Y0107000D01*
X0034100Y0110000D01*
X0056600Y0132500D02*
X0101600Y0132500D01*
X0104100Y0137500D02*
X0106600Y0140000D01*
X0101600Y0152500D02*
X0101600Y0170000D01*
X0112850Y0181250D01*
X0114100Y0182500D01*
X0116600Y0185000D01*
X0144100Y0185000D01*
X0146600Y0182500D01*
X0156600Y0182500D01*
X0161600Y0177500D01*
X0101600Y0122500D02*
X0066600Y0122500D01*
X0061600Y0117500D01*
X0056600Y0132500D02*
X0051600Y0137500D01*
X0101600Y0092500D02*
X0106600Y0087500D01*
X0101600Y0082500D02*
X0106600Y0077500D01*
X0129100Y0077500D01*
X0129100Y0102500D02*
X0111600Y0102500D01*
X0129100Y0102500D02*
X0131600Y0105000D01*
X0144214Y0040000D02*
X0152120Y0040000D01*
X0150600Y0040000D02*
X0150600Y0039000D01*
X0152120Y0035500D02*
X0153120Y0035500D01*
X0155100Y0031463D02*
X0155100Y0012050D01*
X0150600Y0012050D02*
X0150600Y0031339D01*
X0146100Y0039000D02*
X0146100Y0040000D01*
X0109975Y0019125D02*
X0109975Y0019125D01*
X0101100Y0013808D02*
X0101100Y0012050D01*
X0088290Y0013315D02*
X0088290Y0013315D01*
X0087600Y0013601D02*
X0087600Y0012050D01*
X0020100Y0034815D02*
X0020100Y0035815D01*
X0015600Y0035815D02*
X0015600Y0034815D01*
X0014969Y0031000D02*
X0008650Y0031000D01*
X0015600Y0029759D02*
X0015600Y0012050D01*
D31*
X0043604Y0047126D02*
X0049604Y0053004D01*
X0049600Y0074500D01*
X0152620Y0074980D02*
X0152620Y0039500D01*
X0152620Y0074980D02*
X0154100Y0075000D01*
D32*
X0143100Y0074000D02*
X0171600Y0102500D01*
X0171600Y0157500D01*
X0161600Y0167500D01*
X0143100Y0074000D02*
X0097600Y0074000D01*
X0094100Y0070500D01*
X0094100Y0043000D01*
D33*
X0193805Y0112500D02*
X0194100Y0112205D01*
M02*
